{
	"asset":{
		"generator":"Khronos glTF Blender I/O v4.0.44",
		"version":"2.0"
	},
	"scene":0,
	"scenes":[
		{
			"name":"Scene",
			"nodes":[
				2,
				44
			]
		}
	],
	"nodes":[
		{
			"name":"GLTF_SceneRootNode.002",
			"rotation":[
				0.70710688829422,
				0,
				0,
				0.7071066498756409
			]
		},
		{
			"children":[
				0
			],
			"name":"root.002"
		},
		{
			"children":[
				1
			],
			"name":"Sketchfab_model.003",
			"rotation":[
				-0.4457142651081085,
				-0.437649667263031,
				-0.5471145510673523,
				0.5571959018707275
			],
			"scale":[
				0.45056572556495667,
				0.20575100183486938,
				0.2216300666332245
			],
			"translation":[
				-1.7965466976165771,
				1.5810872316360474,
				-1.4350217580795288
			]
		},
		{
			"mesh":0,
			"name":"Object_19"
		},
		{
			"children":[
				3
			],
			"name":"Object_11_11"
		},
		{
			"children":[
				4
			],
			"name":"Drawer.001_3_10"
		},
		{
			"mesh":1,
			"name":"Object_22"
		},
		{
			"children":[
				6
			],
			"name":"Object_13_13"
		},
		{
			"children":[
				7
			],
			"name":"Drawer.002_4_12"
		},
		{
			"mesh":2,
			"name":"Object_32"
		},
		{
			"children":[
				9
			],
			"name":"Object_19_19"
		},
		{
			"children":[
				10
			],
			"name":"Drawer.003_6_18"
		},
		{
			"mesh":3,
			"name":"Object_8"
		},
		{
			"children":[
				12
			],
			"name":"Object_4_4"
		},
		{
			"children":[
				13
			],
			"name":"Dressing Table_0_3"
		},
		{
			"mesh":4,
			"name":"Object_38"
		},
		{
			"children":[
				15
			],
			"name":"Object_23_23"
		},
		{
			"children":[
				16
			],
			"name":"Knob.001_8_22"
		},
		{
			"mesh":5,
			"name":"Object_41"
		},
		{
			"children":[
				18
			],
			"name":"Object_25_25"
		},
		{
			"children":[
				19
			],
			"name":"Knob.002_9_24"
		},
		{
			"mesh":6,
			"name":"Object_35"
		},
		{
			"children":[
				21
			],
			"name":"Object_21_21"
		},
		{
			"children":[
				22
			],
			"name":"Knob_7_20"
		},
		{
			"mesh":7,
			"name":"Object_16"
		},
		{
			"children":[
				24
			],
			"name":"Object_9_9"
		},
		{
			"children":[
				25
			],
			"name":"Legs_2_8",
			"translation":[
				-0.5267924666404724,
				0.26297199726104736,
				0.21128098666667938
			]
		},
		{
			"mesh":8,
			"name":"Object_25"
		},
		{
			"children":[
				27
			],
			"name":"Object_15_15"
		},
		{
			"mesh":9,
			"name":"Object_27"
		},
		{
			"children":[
				29
			],
			"name":"Object_16_16"
		},
		{
			"mesh":10,
			"name":"Object_29"
		},
		{
			"children":[
				31
			],
			"name":"Object_17_17"
		},
		{
			"children":[
				28,
				30,
				32
			],
			"name":"Mirror_5_14"
		},
		{
			"mesh":11,
			"name":"Object_11"
		},
		{
			"children":[
				34
			],
			"name":"Object_6_6"
		},
		{
			"mesh":12,
			"name":"Object_13"
		},
		{
			"children":[
				36
			],
			"name":"Object_7_7"
		},
		{
			"children":[
				35,
				37
			],
			"name":"Stool_1_5",
			"rotation":[
				0,
				-0.3826834559440613,
				0,
				0.9238795638084412
			],
			"translation":[
				0,
				0,
				0.5113389492034912
			]
		},
		{
			"children":[
				5,
				8,
				11,
				14,
				17,
				20,
				23,
				26,
				33,
				38
			],
			"name":"GLTF_SceneRootNode_2",
			"rotation":[
				0.70710688829422,
				0,
				0,
				0.7071066498756409
			]
		},
		{
			"children":[
				39
			],
			"name":"root_1"
		},
		{
			"children":[
				40
			],
			"name":"Sketchfab_model_0",
			"rotation":[
				-0.70710688829422,
				0,
				0,
				0.7071066498756409
			]
		},
		{
			"children":[
				41
			],
			"name":"GLTF_SceneRootNode",
			"rotation":[
				0.70710688829422,
				0,
				0,
				0.7071066498756409
			]
		},
		{
			"children":[
				42
			],
			"name":"root"
		},
		{
			"children":[
				43
			],
			"name":"Sketchfab_model",
			"rotation":[
				-0.007451324723660946,
				0.7070674896240234,
				0.7070675492286682,
				0.007451325189322233
			]
		}
	],
	"materials":[
		{
			"doubleSided":true,
			"name":"Wood.002",
			"pbrMetallicRoughness":{
				"baseColorFactor":[
					0.9007261395454407,
					0.8971253633499146,
					0.8998109102249146,
					1
				],
				"metallicFactor":0,
				"roughnessFactor":0.5
			}
		},
		{
			"doubleSided":true,
			"name":"material_0",
			"pbrMetallicRoughness":{
				"baseColorFactor":[
					0.8270680904388428,
					0.4296649694442749,
					0.7003161907196045,
					1
				],
				"metallicFactor":0,
				"roughnessFactor":0.6000000238418579
			}
		},
		{
			"doubleSided":true,
			"name":"Mirror",
			"pbrMetallicRoughness":{
				"baseColorFactor":[
					0.800000011920929,
					0.800000011920929,
					0.800000011920929,
					1
				],
				"metallicFactor":0.968504011631012,
				"roughnessFactor":0
			}
		},
		{
			"doubleSided":true,
			"name":"Metal",
			"pbrMetallicRoughness":{
				"baseColorFactor":[
					0.5789759755134583,
					0.5789759755134583,
					0.5789759755134583,
					1
				],
				"roughnessFactor":0.8766229748725891
			}
		},
		{
			"doubleSided":true,
			"name":"Wood.001",
			"pbrMetallicRoughness":{
				"metallicFactor":0,
				"roughnessFactor":0.5
			}
		},
		{
			"doubleSided":true,
			"name":"Whte",
			"pbrMetallicRoughness":{
				"baseColorFactor":[
					0.8819676041603088,
					0.6667754650115967,
					0.7889037132263184,
					1
				],
				"metallicFactor":0,
				"roughnessFactor":0.5
			}
		}
	],
	"meshes":[
		{
			"name":"Object_4.004",
			"primitives":[
				{
					"attributes":{
						"POSITION":0,
						"NORMAL":1,
						"TEXCOORD_0":2
					},
					"indices":3,
					"material":0
				}
			]
		},
		{
			"name":"Object_5.004",
			"primitives":[
				{
					"attributes":{
						"POSITION":4,
						"NORMAL":5,
						"TEXCOORD_0":6
					},
					"indices":7,
					"material":0
				}
			]
		},
		{
			"name":"Object_9.004",
			"primitives":[
				{
					"attributes":{
						"POSITION":8,
						"NORMAL":9,
						"TEXCOORD_0":10
					},
					"indices":11,
					"material":0
				}
			]
		},
		{
			"name":"Object_0.006",
			"primitives":[
				{
					"attributes":{
						"POSITION":12,
						"NORMAL":13,
						"TEXCOORD_0":14
					},
					"indices":15,
					"material":0
				}
			]
		},
		{
			"name":"Object_11.004",
			"primitives":[
				{
					"attributes":{
						"POSITION":16,
						"NORMAL":17,
						"TEXCOORD_0":18
					},
					"indices":19,
					"material":1
				}
			]
		},
		{
			"name":"Object_12.004",
			"primitives":[
				{
					"attributes":{
						"POSITION":20,
						"NORMAL":21,
						"TEXCOORD_0":22
					},
					"indices":23,
					"material":1
				}
			]
		},
		{
			"name":"Object_10.004",
			"primitives":[
				{
					"attributes":{
						"POSITION":24,
						"NORMAL":25,
						"TEXCOORD_0":26
					},
					"indices":27,
					"material":1
				}
			]
		},
		{
			"name":"Object_3.005",
			"primitives":[
				{
					"attributes":{
						"POSITION":28,
						"NORMAL":29,
						"TEXCOORD_0":30
					},
					"indices":31,
					"material":0
				}
			]
		},
		{
			"name":"Object_6.004",
			"primitives":[
				{
					"attributes":{
						"POSITION":32,
						"NORMAL":33,
						"TEXCOORD_0":34
					},
					"indices":35,
					"material":0
				}
			]
		},
		{
			"name":"Object_7.004",
			"primitives":[
				{
					"attributes":{
						"POSITION":36,
						"NORMAL":37,
						"TEXCOORD_0":38
					},
					"indices":39,
					"material":2
				}
			]
		},
		{
			"name":"Object_8.004",
			"primitives":[
				{
					"attributes":{
						"POSITION":40,
						"NORMAL":41,
						"TEXCOORD_0":42
					},
					"indices":43,
					"material":3
				}
			]
		},
		{
			"name":"Object_1.005",
			"primitives":[
				{
					"attributes":{
						"POSITION":44,
						"NORMAL":45,
						"TEXCOORD_0":46
					},
					"indices":47,
					"material":4
				}
			]
		},
		{
			"name":"Object_2.005",
			"primitives":[
				{
					"attributes":{
						"POSITION":48,
						"NORMAL":49,
						"TEXCOORD_0":50
					},
					"indices":51,
					"material":5
				}
			]
		}
	],
	"accessors":[
		{
			"bufferView":0,
			"componentType":5126,
			"count":352,
			"max":[
				0.5132002830505371,
				0.7152901887893677,
				0.2442455142736435
			],
			"min":[
				-0.5132002830505371,
				0.6783879995346069,
				-0.05661213397979736
			],
			"type":"VEC3"
		},
		{
			"bufferView":1,
			"componentType":5126,
			"count":352,
			"type":"VEC3"
		},
		{
			"bufferView":2,
			"componentType":5126,
			"count":352,
			"type":"VEC2"
		},
		{
			"bufferView":3,
			"componentType":5123,
			"count":600,
			"type":"SCALAR"
		},
		{
			"bufferView":4,
			"componentType":5126,
			"count":356,
			"max":[
				0.5137572884559631,
				0.6694034934043884,
				0.2442455142736435
			],
			"min":[
				-0.5137572884559631,
				0.524395227432251,
				-0.05661213397979736
			],
			"type":"VEC3"
		},
		{
			"bufferView":5,
			"componentType":5126,
			"count":356,
			"type":"VEC3"
		},
		{
			"bufferView":6,
			"componentType":5126,
			"count":356,
			"type":"VEC2"
		},
		{
			"bufferView":7,
			"componentType":5123,
			"count":600,
			"type":"SCALAR"
		},
		{
			"bufferView":8,
			"componentType":5126,
			"count":218,
			"max":[
				0.23300305008888245,
				0.7153712511062622,
				0.18324968218803406
			],
			"min":[
				-0.23300305008888245,
				0.6782782673835754,
				-0.05661214888095856
			],
			"type":"VEC3"
		},
		{
			"bufferView":9,
			"componentType":5126,
			"count":218,
			"type":"VEC3"
		},
		{
			"bufferView":10,
			"componentType":5126,
			"count":218,
			"type":"VEC2"
		},
		{
			"bufferView":11,
			"componentType":5123,
			"count":408,
			"type":"SCALAR"
		},
		{
			"bufferView":12,
			"componentType":5126,
			"count":2722,
			"max":[
				0.5736922025680542,
				0.7274169325828552,
				0.25633323192596436
			],
			"min":[
				-0.5736922025680542,
				0.5132761001586914,
				-0.2424536943435669
			],
			"type":"VEC3"
		},
		{
			"bufferView":13,
			"componentType":5126,
			"count":2722,
			"type":"VEC3"
		},
		{
			"bufferView":14,
			"componentType":5126,
			"count":2722,
			"type":"VEC2"
		},
		{
			"bufferView":15,
			"componentType":5123,
			"count":12576,
			"type":"SCALAR"
		},
		{
			"bufferView":16,
			"componentType":5126,
			"count":548,
			"max":[
				0.3971986472606659,
				0.6033027172088623,
				0.2536255717277527
			],
			"min":[
				-0.3971986472606659,
				0.5904960036277771,
				0.2424536943435669
			],
			"type":"VEC3"
		},
		{
			"bufferView":17,
			"componentType":5126,
			"count":548,
			"type":"VEC3"
		},
		{
			"bufferView":18,
			"componentType":5126,
			"count":548,
			"type":"VEC2"
		},
		{
			"bufferView":19,
			"componentType":5123,
			"count":2304,
			"type":"SCALAR"
		},
		{
			"bufferView":20,
			"componentType":5126,
			"count":268,
			"max":[
				0.00640333816409111,
				0.7032281160354614,
				0.19223026931285858
			],
			"min":[
				-0.006403343752026558,
				0.6904214024543762,
				0.1810583770275116
			],
			"type":"VEC3"
		},
		{
			"bufferView":21,
			"componentType":5126,
			"count":268,
			"type":"VEC3"
		},
		{
			"bufferView":22,
			"componentType":5126,
			"count":268,
			"type":"VEC2"
		},
		{
			"bufferView":23,
			"componentType":5123,
			"count":1152,
			"type":"SCALAR"
		},
		{
			"bufferView":24,
			"componentType":5126,
			"count":551,
			"max":[
				0.3971986472606659,
				0.7032424211502075,
				0.2536255717277527
			],
			"min":[
				-0.3971986472606659,
				0.6904357075691223,
				0.2424536943435669
			],
			"type":"VEC3"
		},
		{
			"bufferView":25,
			"componentType":5126,
			"count":551,
			"type":"VEC3"
		},
		{
			"bufferView":26,
			"componentType":5126,
			"count":551,
			"type":"VEC2"
		},
		{
			"bufferView":27,
			"componentType":5123,
			"count":2304,
			"type":"SCALAR"
		},
		{
			"bufferView":28,
			"componentType":5126,
			"count":19800,
			"max":[
				1.083052158355713,
				0.25030410289764404,
				0.029467124491930008
			],
			"min":[
				-0.029467102140188217,
				-0.26297199726104736,
				-0.4520290791988373
			],
			"type":"VEC3"
		},
		{
			"bufferView":29,
			"componentType":5126,
			"count":19800,
			"type":"VEC3"
		},
		{
			"bufferView":30,
			"componentType":5126,
			"count":19800,
			"type":"VEC2"
		},
		{
			"bufferView":31,
			"componentType":5123,
			"count":82944,
			"type":"SCALAR"
		},
		{
			"bufferView":32,
			"componentType":5126,
			"count":1121,
			"max":[
				0.4767952561378479,
				1.3836381435394287,
				-0.09474095702171326
			],
			"min":[
				-0.4767952561378479,
				0.7274169921875,
				-0.2424536943435669
			],
			"type":"VEC3"
		},
		{
			"bufferView":33,
			"componentType":5126,
			"count":1121,
			"type":"VEC3"
		},
		{
			"bufferView":34,
			"componentType":5126,
			"count":1121,
			"type":"VEC2"
		},
		{
			"bufferView":35,
			"componentType":5123,
			"count":3192,
			"type":"SCALAR"
		},
		{
			"bufferView":36,
			"componentType":5126,
			"count":175,
			"max":[
				0.45173245668411255,
				1.3657495975494385,
				-0.11476129293441772
			],
			"min":[
				-0.45173245668411255,
				0.7725784778594971,
				-0.2147391140460968
			],
			"type":"VEC3"
		},
		{
			"bufferView":37,
			"componentType":5126,
			"count":175,
			"type":"VEC3"
		},
		{
			"bufferView":38,
			"componentType":5126,
			"count":175,
			"type":"VEC2"
		},
		{
			"bufferView":39,
			"componentType":5123,
			"count":768,
			"type":"SCALAR"
		},
		{
			"bufferView":40,
			"componentType":5126,
			"count":266,
			"max":[
				0.28095757961273193,
				1.2722804546356201,
				-0.19926834106445312
			],
			"min":[
				-0.28095757961273193,
				0.7838181257247925,
				-0.20307239890098572
			],
			"type":"VEC3"
		},
		{
			"bufferView":41,
			"componentType":5126,
			"count":266,
			"type":"VEC3"
		},
		{
			"bufferView":42,
			"componentType":5126,
			"count":266,
			"type":"VEC2"
		},
		{
			"bufferView":43,
			"componentType":5123,
			"count":384,
			"type":"SCALAR"
		},
		{
			"bufferView":44,
			"componentType":5126,
			"count":13883,
			"max":[
				0.2048368602991104,
				0.4306033253669739,
				0.20483684539794922
			],
			"min":[
				-0.2048368602991104,
				0,
				-0.20483684539794922
			],
			"type":"VEC3"
		},
		{
			"bufferView":45,
			"componentType":5126,
			"count":13883,
			"type":"VEC3"
		},
		{
			"bufferView":46,
			"componentType":5126,
			"count":13883,
			"type":"VEC2"
		},
		{
			"bufferView":47,
			"componentType":5123,
			"count":57432,
			"type":"SCALAR"
		},
		{
			"bufferView":48,
			"componentType":5126,
			"count":410,
			"max":[
				0.2072659581899643,
				0.5098642110824585,
				0.2072659730911255
			],
			"min":[
				-0.2072659581899643,
				0.4306033253669739,
				-0.2072659730911255
			],
			"type":"VEC3"
		},
		{
			"bufferView":49,
			"componentType":5126,
			"count":410,
			"type":"VEC3"
		},
		{
			"bufferView":50,
			"componentType":5126,
			"count":410,
			"type":"VEC2"
		},
		{
			"bufferView":51,
			"componentType":5123,
			"count":2112,
			"type":"SCALAR"
		}
	],
	"bufferViews":[
		{
			"buffer":0,
			"byteLength":4224,
			"byteOffset":0,
			"target":34962
		},
		{
			"buffer":0,
			"byteLength":4224,
			"byteOffset":4224,
			"target":34962
		},
		{
			"buffer":0,
			"byteLength":2816,
			"byteOffset":8448,
			"target":34962
		},
		{
			"buffer":0,
			"byteLength":1200,
			"byteOffset":11264,
			"target":34963
		},
		{
			"buffer":0,
			"byteLength":4272,
			"byteOffset":12464,
			"target":34962
		},
		{
			"buffer":0,
			"byteLength":4272,
			"byteOffset":16736,
			"target":34962
		},
		{
			"buffer":0,
			"byteLength":2848,
			"byteOffset":21008,
			"target":34962
		},
		{
			"buffer":0,
			"byteLength":1200,
			"byteOffset":23856,
			"target":34963
		},
		{
			"buffer":0,
			"byteLength":2616,
			"byteOffset":25056,
			"target":34962
		},
		{
			"buffer":0,
			"byteLength":2616,
			"byteOffset":27672,
			"target":34962
		},
		{
			"buffer":0,
			"byteLength":1744,
			"byteOffset":30288,
			"target":34962
		},
		{
			"buffer":0,
			"byteLength":816,
			"byteOffset":32032,
			"target":34963
		},
		{
			"buffer":0,
			"byteLength":32664,
			"byteOffset":32848,
			"target":34962
		},
		{
			"buffer":0,
			"byteLength":32664,
			"byteOffset":65512,
			"target":34962
		},
		{
			"buffer":0,
			"byteLength":21776,
			"byteOffset":98176,
			"target":34962
		},
		{
			"buffer":0,
			"byteLength":25152,
			"byteOffset":119952,
			"target":34963
		},
		{
			"buffer":0,
			"byteLength":6576,
			"byteOffset":145104,
			"target":34962
		},
		{
			"buffer":0,
			"byteLength":6576,
			"byteOffset":151680,
			"target":34962
		},
		{
			"buffer":0,
			"byteLength":4384,
			"byteOffset":158256,
			"target":34962
		},
		{
			"buffer":0,
			"byteLength":4608,
			"byteOffset":162640,
			"target":34963
		},
		{
			"buffer":0,
			"byteLength":3216,
			"byteOffset":167248,
			"target":34962
		},
		{
			"buffer":0,
			"byteLength":3216,
			"byteOffset":170464,
			"target":34962
		},
		{
			"buffer":0,
			"byteLength":2144,
			"byteOffset":173680,
			"target":34962
		},
		{
			"buffer":0,
			"byteLength":2304,
			"byteOffset":175824,
			"target":34963
		},
		{
			"buffer":0,
			"byteLength":6612,
			"byteOffset":178128,
			"target":34962
		},
		{
			"buffer":0,
			"byteLength":6612,
			"byteOffset":184740,
			"target":34962
		},
		{
			"buffer":0,
			"byteLength":4408,
			"byteOffset":191352,
			"target":34962
		},
		{
			"buffer":0,
			"byteLength":4608,
			"byteOffset":195760,
			"target":34963
		},
		{
			"buffer":0,
			"byteLength":237600,
			"byteOffset":200368,
			"target":34962
		},
		{
			"buffer":0,
			"byteLength":237600,
			"byteOffset":437968,
			"target":34962
		},
		{
			"buffer":0,
			"byteLength":158400,
			"byteOffset":675568,
			"target":34962
		},
		{
			"buffer":0,
			"byteLength":165888,
			"byteOffset":833968,
			"target":34963
		},
		{
			"buffer":0,
			"byteLength":13452,
			"byteOffset":999856,
			"target":34962
		},
		{
			"buffer":0,
			"byteLength":13452,
			"byteOffset":1013308,
			"target":34962
		},
		{
			"buffer":0,
			"byteLength":8968,
			"byteOffset":1026760,
			"target":34962
		},
		{
			"buffer":0,
			"byteLength":6384,
			"byteOffset":1035728,
			"target":34963
		},
		{
			"buffer":0,
			"byteLength":2100,
			"byteOffset":1042112,
			"target":34962
		},
		{
			"buffer":0,
			"byteLength":2100,
			"byteOffset":1044212,
			"target":34962
		},
		{
			"buffer":0,
			"byteLength":1400,
			"byteOffset":1046312,
			"target":34962
		},
		{
			"buffer":0,
			"byteLength":1536,
			"byteOffset":1047712,
			"target":34963
		},
		{
			"buffer":0,
			"byteLength":3192,
			"byteOffset":1049248,
			"target":34962
		},
		{
			"buffer":0,
			"byteLength":3192,
			"byteOffset":1052440,
			"target":34962
		},
		{
			"buffer":0,
			"byteLength":2128,
			"byteOffset":1055632,
			"target":34962
		},
		{
			"buffer":0,
			"byteLength":768,
			"byteOffset":1057760,
			"target":34963
		},
		{
			"buffer":0,
			"byteLength":166596,
			"byteOffset":1058528,
			"target":34962
		},
		{
			"buffer":0,
			"byteLength":166596,
			"byteOffset":1225124,
			"target":34962
		},
		{
			"buffer":0,
			"byteLength":111064,
			"byteOffset":1391720,
			"target":34962
		},
		{
			"buffer":0,
			"byteLength":114864,
			"byteOffset":1502784,
			"target":34963
		},
		{
			"buffer":0,
			"byteLength":4920,
			"byteOffset":1617648,
			"target":34962
		},
		{
			"buffer":0,
			"byteLength":4920,
			"byteOffset":1622568,
			"target":34962
		},
		{
			"buffer":0,
			"byteLength":3280,
			"byteOffset":1627488,
			"target":34962
		},
		{
			"buffer":0,
			"byteLength":4224,
			"byteOffset":1630768,
			"target":34963
		}
	],
	"buffers":[
		{
			"byteLength":1634992,
			"uri":"dressingTable.bin"
		}
	]
}
