{
	"asset":{
		"generator":"Khronos glTF Blender I/O v4.0.44",
		"version":"2.0"
	},
	"extensionsUsed":[
		"KHR_materials_specular"
	],
	"scene":0,
	"scenes":[
		{
			"name":"Scene",
			"nodes":[
				16
			]
		}
	],
	"nodes":[
		{
			"mesh":0,
			"name":"Bottom Part_gold metal_0"
		},
		{
			"mesh":1,
			"name":"Insets.Bot_black_0"
		},
		{
			"children":[
				1
			],
			"name":"Insets.Bot"
		},
		{
			"children":[
				0,
				2
			],
			"name":"Bottom Part",
			"rotation":[
				-0.6996951103210449,
				-0.10211181640625,
				-0.1021118238568306,
				0.6996950507164001
			],
			"scale":[
				55.000003814697266,
				55.000003814697266,
				99.99999237060547
			],
			"translation":[
				21.10199546813965,
				89.5554428100586,
				0
			]
		},
		{
			"mesh":2,
			"name":"color stick_color stick_0"
		},
		{
			"children":[
				4
			],
			"name":"color stick",
			"rotation":[
				-0.6996951103210449,
				-0.10211181640625,
				-0.1021118238568306,
				0.6996950507164001
			],
			"scale":[
				100,
				100,
				99.99999237060547
			],
			"translation":[
				21.10199546813965,
				283.0321960449219,
				0
			]
		},
		{
			"mesh":3,
			"name":"inner Part_gold metal_0"
		},
		{
			"children":[
				6
			],
			"name":"inner Part",
			"rotation":[
				-0.6996951103210449,
				-0.10211181640625,
				-0.1021118238568306,
				0.6996950507164001
			],
			"scale":[
				100,
				100,
				99.99999237060547
			],
			"translation":[
				21.10199546813965,
				36.73456573486328,
				0
			]
		},
		{
			"mesh":4,
			"name":"Metal Cylinder_gold metal_0"
		},
		{
			"children":[
				8
			],
			"name":"Metal Cylinder",
			"rotation":[
				-0.6996951103210449,
				-0.10211181640625,
				-0.1021118238568306,
				0.6996950507164001
			],
			"scale":[
				100,
				100,
				99.99999237060547
			],
			"translation":[
				21.10199546813965,
				174.99998474121094,
				0
			]
		},
		{
			"mesh":5,
			"name":"Insets.Cap_black_0"
		},
		{
			"children":[
				10
			],
			"name":"Insets.Cap",
			"translation":[
				0,
				0.5599998831748962,
				0
			]
		},
		{
			"mesh":6,
			"name":"Top Cap_gold metal_0"
		},
		{
			"children":[
				11,
				12
			],
			"name":"Top Cap",
			"rotation":[
				0,
				-0.04618915915489197,
				0,
				0.9989327192306519
			],
			"scale":[
				99.99999237060547,
				99.99999237060547,
				99.9999771118164
			],
			"translation":[
				-129.16542053222656,
				2.10704797609651e-06,
				-48.203636169433594
			]
		},
		{
			"children":[
				3,
				5,
				7,
				9,
				13
			],
			"name":"RootNode"
		},
		{
			"children":[
				14
			],
			"name":"3f740fb387d84a3a88dabbdaf353669b.fbx",
			"rotation":[
				0.70710688829422,
				0,
				0,
				0.7071066498756409
			],
			"scale":[
				0.009999999776482582,
				0.010000000707805157,
				0.010000000707805157
			]
		},
		{
			"children":[
				15
			],
			"name":"Sketchfab_model",
			"rotation":[
				-0.70710688829422,
				0,
				0,
				0.7071066498756409
			]
		}
	],
	"materials":[
		{
			"doubleSided":true,
			"extensions":{
				"KHR_materials_specular":{
					"specularFactor":0.5199999809265137
				}
			},
			"name":"gold_metal",
			"pbrMetallicRoughness":{
				"baseColorFactor":[
					0.6172065734863281,
					0.35153260827064514,
					0.0802198201417923,
					1
				],
				"roughnessFactor":0.07000000029802322
			}
		},
		{
			"doubleSided":true,
			"extensions":{
				"KHR_materials_specular":{
					"specularFactor":0.42500001192092896
				}
			},
			"name":"black",
			"pbrMetallicRoughness":{
				"baseColorFactor":[
					0.005605391692370176,
					0.004776953253895044,
					0.0043914420530200005,
					1
				],
				"metallicFactor":0,
				"roughnessFactor":0.4000000059604645
			}
		},
		{
			"doubleSided":true,
			"extensions":{
				"KHR_materials_specular":{
					"specularFactor":0.44999998807907104
				}
			},
			"name":"color_stick",
			"pbrMetallicRoughness":{
				"baseColorFactor":[
					0.045186202973127365,
					0.0043914420530200005,
					0.012983032502233982,
					1
				],
				"metallicFactor":0,
				"roughnessFactor":0.3499999940395355
			}
		}
	],
	"meshes":[
		{
			"name":"Bottom Part_gold metal_0",
			"primitives":[
				{
					"attributes":{
						"POSITION":0,
						"NORMAL":1,
						"TEXCOORD_0":2
					},
					"indices":3,
					"material":0
				}
			]
		},
		{
			"name":"Insets.Bot_black_0",
			"primitives":[
				{
					"attributes":{
						"POSITION":4,
						"NORMAL":5,
						"TEXCOORD_0":6
					},
					"indices":7,
					"material":1
				}
			]
		},
		{
			"name":"color stick_color stick_0",
			"primitives":[
				{
					"attributes":{
						"POSITION":8,
						"NORMAL":9,
						"TEXCOORD_0":10
					},
					"indices":11,
					"material":2
				}
			]
		},
		{
			"name":"inner Part_gold metal_0",
			"primitives":[
				{
					"attributes":{
						"POSITION":12,
						"NORMAL":13,
						"TEXCOORD_0":14
					},
					"indices":15,
					"material":0
				}
			]
		},
		{
			"name":"Metal Cylinder_gold metal_0",
			"primitives":[
				{
					"attributes":{
						"POSITION":16,
						"NORMAL":17,
						"TEXCOORD_0":18
					},
					"indices":19,
					"material":0
				}
			]
		},
		{
			"name":"Insets.Cap_black_0",
			"primitives":[
				{
					"attributes":{
						"POSITION":20,
						"NORMAL":21,
						"TEXCOORD_0":22
					},
					"indices":23,
					"material":1
				}
			]
		},
		{
			"name":"Top Cap_gold metal_0",
			"primitives":[
				{
					"attributes":{
						"POSITION":24,
						"NORMAL":25,
						"TEXCOORD_0":26
					},
					"indices":27,
					"material":0
				}
			]
		}
	],
	"accessors":[
		{
			"bufferView":0,
			"componentType":5126,
			"count":4010,
			"max":[
				1.0000001192092896,
				1.0000001192092896,
				0.8955546021461487
			],
			"min":[
				-1.0000001192092896,
				-1.0000001192092896,
				-0.8955546021461487
			],
			"type":"VEC3"
		},
		{
			"bufferView":1,
			"componentType":5126,
			"count":4010,
			"type":"VEC3"
		},
		{
			"bufferView":2,
			"componentType":5126,
			"count":4010,
			"type":"VEC2"
		},
		{
			"bufferView":3,
			"componentType":5123,
			"count":18240,
			"type":"SCALAR"
		},
		{
			"bufferView":4,
			"componentType":5126,
			"count":9687,
			"max":[
				0.9768184423446655,
				0.9768184423446655,
				0.8213392496109009
			],
			"min":[
				-0.9768184423446655,
				-0.9768184423446655,
				-0.8213392496109009
			],
			"type":"VEC3"
		},
		{
			"bufferView":5,
			"componentType":5126,
			"count":9687,
			"type":"VEC3"
		},
		{
			"bufferView":6,
			"componentType":5126,
			"count":9687,
			"type":"VEC2"
		},
		{
			"bufferView":7,
			"componentType":5123,
			"count":47616,
			"type":"SCALAR"
		},
		{
			"bufferView":8,
			"componentType":5126,
			"count":6101,
			"max":[
				0.29807859659194946,
				0.2980785667896271,
				1.3514885902404785
			],
			"min":[
				-0.29807859659194946,
				-0.2980785667896271,
				-1.4000003337860107
			],
			"type":"VEC3"
		},
		{
			"bufferView":9,
			"componentType":5126,
			"count":6101,
			"type":"VEC3"
		},
		{
			"bufferView":10,
			"componentType":5126,
			"count":6101,
			"type":"VEC2"
		},
		{
			"bufferView":11,
			"componentType":5123,
			"count":30132,
			"type":"SCALAR"
		},
		{
			"bufferView":12,
			"componentType":5126,
			"count":1512,
			"max":[
				0.45183634757995605,
				0.45183634757995605,
				1.550843358039856
			],
			"min":[
				-0.45183634757995605,
				-0.45183634757995605,
				0.6556886434555054
			],
			"type":"VEC3"
		},
		{
			"bufferView":13,
			"componentType":5126,
			"count":1512,
			"type":"VEC3"
		},
		{
			"bufferView":14,
			"componentType":5126,
			"count":1512,
			"type":"VEC2"
		},
		{
			"bufferView":15,
			"componentType":5123,
			"count":7872,
			"type":"SCALAR"
		},
		{
			"bufferView":16,
			"componentType":5126,
			"count":2208,
			"max":[
				0.39680275321006775,
				0.39680275321006775,
				1.286998987197876
			],
			"min":[
				-0.39680275321006775,
				-0.39680275321006775,
				-0.5089163780212402
			],
			"type":"VEC3"
		},
		{
			"bufferView":17,
			"componentType":5126,
			"count":2208,
			"type":"VEC3"
		},
		{
			"bufferView":18,
			"componentType":5126,
			"count":2208,
			"type":"VEC2"
		},
		{
			"bufferView":19,
			"componentType":5123,
			"count":11904,
			"type":"SCALAR"
		},
		{
			"bufferView":20,
			"componentType":5126,
			"count":13565,
			"max":[
				0.5372501611709595,
				0.5272501707077026,
				0.8213392496109009
			],
			"min":[
				-0.5372501611709595,
				-0.5472501516342163,
				-0.8213392496109009
			],
			"type":"VEC3"
		},
		{
			"bufferView":21,
			"componentType":5126,
			"count":13565,
			"type":"VEC3"
		},
		{
			"bufferView":22,
			"componentType":5126,
			"count":13565,
			"type":"VEC2"
		},
		{
			"bufferView":23,
			"componentType":5123,
			"count":61440,
			"type":"SCALAR"
		},
		{
			"bufferView":24,
			"componentType":5126,
			"count":8963,
			"max":[
				0.5500003099441528,
				1.1000001430511475,
				0.8955546617507935
			],
			"min":[
				-0.5499998927116394,
				-3.278255888972126e-08,
				-0.8955546021461487
			],
			"type":"VEC3"
		},
		{
			"bufferView":25,
			"componentType":5126,
			"count":8963,
			"type":"VEC3"
		},
		{
			"bufferView":26,
			"componentType":5126,
			"count":8963,
			"type":"VEC2"
		},
		{
			"bufferView":27,
			"componentType":5123,
			"count":35304,
			"type":"SCALAR"
		}
	],
	"bufferViews":[
		{
			"buffer":0,
			"byteLength":48120,
			"byteOffset":0,
			"target":34962
		},
		{
			"buffer":0,
			"byteLength":48120,
			"byteOffset":48120,
			"target":34962
		},
		{
			"buffer":0,
			"byteLength":32080,
			"byteOffset":96240,
			"target":34962
		},
		{
			"buffer":0,
			"byteLength":36480,
			"byteOffset":128320,
			"target":34963
		},
		{
			"buffer":0,
			"byteLength":116244,
			"byteOffset":164800,
			"target":34962
		},
		{
			"buffer":0,
			"byteLength":116244,
			"byteOffset":281044,
			"target":34962
		},
		{
			"buffer":0,
			"byteLength":77496,
			"byteOffset":397288,
			"target":34962
		},
		{
			"buffer":0,
			"byteLength":95232,
			"byteOffset":474784,
			"target":34963
		},
		{
			"buffer":0,
			"byteLength":73212,
			"byteOffset":570016,
			"target":34962
		},
		{
			"buffer":0,
			"byteLength":73212,
			"byteOffset":643228,
			"target":34962
		},
		{
			"buffer":0,
			"byteLength":48808,
			"byteOffset":716440,
			"target":34962
		},
		{
			"buffer":0,
			"byteLength":60264,
			"byteOffset":765248,
			"target":34963
		},
		{
			"buffer":0,
			"byteLength":18144,
			"byteOffset":825512,
			"target":34962
		},
		{
			"buffer":0,
			"byteLength":18144,
			"byteOffset":843656,
			"target":34962
		},
		{
			"buffer":0,
			"byteLength":12096,
			"byteOffset":861800,
			"target":34962
		},
		{
			"buffer":0,
			"byteLength":15744,
			"byteOffset":873896,
			"target":34963
		},
		{
			"buffer":0,
			"byteLength":26496,
			"byteOffset":889640,
			"target":34962
		},
		{
			"buffer":0,
			"byteLength":26496,
			"byteOffset":916136,
			"target":34962
		},
		{
			"buffer":0,
			"byteLength":17664,
			"byteOffset":942632,
			"target":34962
		},
		{
			"buffer":0,
			"byteLength":23808,
			"byteOffset":960296,
			"target":34963
		},
		{
			"buffer":0,
			"byteLength":162780,
			"byteOffset":984104,
			"target":34962
		},
		{
			"buffer":0,
			"byteLength":162780,
			"byteOffset":1146884,
			"target":34962
		},
		{
			"buffer":0,
			"byteLength":108520,
			"byteOffset":1309664,
			"target":34962
		},
		{
			"buffer":0,
			"byteLength":122880,
			"byteOffset":1418184,
			"target":34963
		},
		{
			"buffer":0,
			"byteLength":107556,
			"byteOffset":1541064,
			"target":34962
		},
		{
			"buffer":0,
			"byteLength":107556,
			"byteOffset":1648620,
			"target":34962
		},
		{
			"buffer":0,
			"byteLength":71704,
			"byteOffset":1756176,
			"target":34962
		},
		{
			"buffer":0,
			"byteLength":70608,
			"byteOffset":1827880,
			"target":34963
		}
	],
	"buffers":[
		{
			"byteLength":1898488,
			"uri":"tfLipstic.bin"
		}
	]
}
