{
	"asset":{
		"generator":"Khronos glTF Blender I/O v4.0.44",
		"version":"2.0"
	},
	"extensionsUsed":[
		"KHR_materials_clearcoat"
	],
	"scene":0,
	"scenes":[
		{
			"name":"Scene",
			"nodes":[
				27
			]
		}
	],
	"nodes":[
		{
			"mesh":0,
			"name":"Object_6"
		},
		{
			"children":[
				0
			],
			"name":"Cube.001_1",
			"translation":[
				0,
				0,
				0.872499942779541
			]
		},
		{
			"mesh":1,
			"name":"Object_8"
		},
		{
			"children":[
				2
			],
			"name":"Cube.002_2"
		},
		{
			"mesh":2,
			"name":"Object_10"
		},
		{
			"children":[
				4
			],
			"name":"Cube.003_3"
		},
		{
			"mesh":3,
			"name":"Object_12"
		},
		{
			"children":[
				6
			],
			"name":"Cube.004_4"
		},
		{
			"mesh":4,
			"name":"Object_14"
		},
		{
			"mesh":5,
			"name":"Object_15"
		},
		{
			"children":[
				8,
				9
			],
			"name":"Cube.005_5",
			"translation":[
				0.23190906643867493,
				0,
				0.4362500309944153
			]
		},
		{
			"mesh":6,
			"name":"Object_17"
		},
		{
			"mesh":7,
			"name":"Object_18"
		},
		{
			"children":[
				11,
				12
			],
			"name":"Cube.006_6"
		},
		{
			"mesh":8,
			"name":"Object_20"
		},
		{
			"children":[
				14
			],
			"name":"Cube.007_7"
		},
		{
			"mesh":9,
			"name":"Object_25"
		},
		{
			"children":[
				16
			],
			"name":"Cube.008_9",
			"translation":[
				0.25730153918266296,
				0,
				-0.01138826459646225
			]
		},
		{
			"mesh":10,
			"name":"Object_27"
		},
		{
			"children":[
				18
			],
			"name":"Cube.009_10",
			"rotation":[
				0,
				0,
				-1,
				0
			],
			"scale":[
				-1,
				-1,
				-1
			],
			"translation":[
				0.25730153918266296,
				0,
				0.011344742961227894
			]
		},
		{
			"mesh":11,
			"name":"Object_4"
		},
		{
			"children":[
				20
			],
			"name":"Cube_0",
			"translation":[
				0.009249992668628693,
				0.23516663908958435,
				0
			]
		},
		{
			"mesh":12,
			"name":"Object_22"
		},
		{
			"mesh":13,
			"name":"Object_23"
		},
		{
			"children":[
				22,
				23
			],
			"name":"Cylinder_8",
			"translation":[
				0.2017499953508377,
				-0.30000001192092896,
				0.844749927520752
			]
		},
		{
			"children":[
				1,
				3,
				5,
				7,
				10,
				13,
				15,
				17,
				19,
				21,
				24
			],
			"name":"GLTF_SceneRootNode",
			"rotation":[
				0.70710688829422,
				0,
				0,
				0.7071066498756409
			]
		},
		{
			"children":[
				25
			],
			"name":"root"
		},
		{
			"children":[
				26
			],
			"name":"Sketchfab_model",
			"rotation":[
				-0.70710688829422,
				0,
				0,
				0.7071066498756409
			],
			"scale":[
				5,
				5.000000476837158,
				5.000000476837158
			]
		}
	],
	"materials":[
		{
			"doubleSided":true,
			"extensions":{
				"KHR_materials_clearcoat":{
					"clearcoatFactor":0.5984249711036682,
					"clearcoatRoughnessFactor":0.06139141321182251
				}
			},
			"name":"fusta_beta",
			"normalTexture":{
				"index":0
			},
			"pbrMetallicRoughness":{
				"baseColorFactor":[
					0.05584346503019333,
					0.05584346503019333,
					0.05584346503019333,
					1
				],
				"metallicFactor":0,
				"roughnessFactor":0.20000000298023224
			}
		},
		{
			"doubleSided":true,
			"name":"interior_lamas",
			"pbrMetallicRoughness":{
				"baseColorFactor":[
					0.001036809990182519,
					0.001036809990182519,
					0.001036809990182519,
					1
				],
				"metallicFactor":0,
				"roughnessFactor":0.29341399669647217
			}
		},
		{
			"doubleSided":true,
			"name":"alumini",
			"pbrMetallicRoughness":{
				"baseColorFactor":[
					0.34238401055336,
					0.22746700048446655,
					0.07767929881811142,
					1
				],
				"roughnessFactor":0.05118110030889511
			}
		}
	],
	"meshes":[
		{
			"name":"Object_1.001",
			"primitives":[
				{
					"attributes":{
						"POSITION":0,
						"NORMAL":1,
						"TEXCOORD_0":2,
						"TEXCOORD_1":3
					},
					"indices":4,
					"material":0
				}
			]
		},
		{
			"name":"Object_2.001",
			"primitives":[
				{
					"attributes":{
						"POSITION":5,
						"NORMAL":6,
						"TEXCOORD_0":7,
						"TEXCOORD_1":8
					},
					"indices":9,
					"material":0
				}
			]
		},
		{
			"name":"Object_3.001",
			"primitives":[
				{
					"attributes":{
						"POSITION":10,
						"NORMAL":11,
						"TEXCOORD_0":12,
						"TEXCOORD_1":13
					},
					"indices":14,
					"material":0
				}
			]
		},
		{
			"name":"Object_4.001",
			"primitives":[
				{
					"attributes":{
						"POSITION":15,
						"NORMAL":16,
						"TEXCOORD_0":17,
						"TEXCOORD_1":18
					},
					"indices":19,
					"material":0
				}
			]
		},
		{
			"name":"Object_5.001",
			"primitives":[
				{
					"attributes":{
						"POSITION":20,
						"NORMAL":21,
						"TEXCOORD_0":22
					},
					"indices":23,
					"material":1
				}
			]
		},
		{
			"name":"Object_6.001",
			"primitives":[
				{
					"attributes":{
						"POSITION":24,
						"NORMAL":25,
						"TEXCOORD_0":26,
						"TEXCOORD_1":27
					},
					"indices":28,
					"material":0
				}
			]
		},
		{
			"name":"Object_7.001",
			"primitives":[
				{
					"attributes":{
						"POSITION":29,
						"NORMAL":30,
						"TEXCOORD_0":31
					},
					"indices":32,
					"material":1
				}
			]
		},
		{
			"name":"Object_8.001",
			"primitives":[
				{
					"attributes":{
						"POSITION":33,
						"NORMAL":34,
						"TEXCOORD_0":35,
						"TEXCOORD_1":36
					},
					"indices":37,
					"material":0
				}
			]
		},
		{
			"name":"Object_9.001",
			"primitives":[
				{
					"attributes":{
						"POSITION":38,
						"NORMAL":39,
						"TEXCOORD_0":40,
						"TEXCOORD_1":41
					},
					"indices":42,
					"material":0
				}
			]
		},
		{
			"name":"Object_12.001",
			"primitives":[
				{
					"attributes":{
						"POSITION":43,
						"NORMAL":44,
						"TEXCOORD_0":45
					},
					"indices":46,
					"material":2
				}
			]
		},
		{
			"name":"Object_13.001",
			"primitives":[
				{
					"attributes":{
						"POSITION":47,
						"NORMAL":48,
						"TEXCOORD_0":49
					},
					"indices":50,
					"material":2
				}
			]
		},
		{
			"name":"Object_0.002",
			"primitives":[
				{
					"attributes":{
						"POSITION":51,
						"NORMAL":52,
						"TEXCOORD_0":53,
						"TEXCOORD_1":54
					},
					"indices":55,
					"material":0
				}
			]
		},
		{
			"name":"Object_10.001",
			"primitives":[
				{
					"attributes":{
						"POSITION":56,
						"NORMAL":57,
						"TEXCOORD_0":58
					},
					"indices":59,
					"material":1
				}
			]
		},
		{
			"name":"Object_11.001",
			"primitives":[
				{
					"attributes":{
						"POSITION":60,
						"NORMAL":61,
						"TEXCOORD_0":62
					},
					"indices":63,
					"material":2
				}
			]
		}
	],
	"textures":[
		{
			"sampler":0,
			"source":0
		}
	],
	"images":[
		{
			"mimeType":"image/png",
			"name":"fusta_beta_normal",
			"uri":"fusta_beta_normal.png"
		}
	],
	"accessors":[
		{
			"bufferView":0,
			"componentType":5126,
			"count":408,
			"max":[
				0.2199999988079071,
				0.22499999403953552,
				0.00950002670288086
			],
			"min":[
				-0.2199999988079071,
				-0.22499999403953552,
				-0.00950002670288086
			],
			"type":"VEC3"
		},
		{
			"bufferView":1,
			"componentType":5126,
			"count":408,
			"type":"VEC3"
		},
		{
			"bufferView":2,
			"componentType":5126,
			"count":408,
			"type":"VEC2"
		},
		{
			"bufferView":3,
			"componentType":5126,
			"count":408,
			"type":"VEC2"
		},
		{
			"bufferView":4,
			"componentType":5123,
			"count":1764,
			"type":"SCALAR"
		},
		{
			"bufferView":5,
			"componentType":5126,
			"count":408,
			"max":[
				0.2199999988079071,
				0.22499999403953552,
				-0.8629999160766602
			],
			"min":[
				-0.2199999988079071,
				-0.22499999403953552,
				-0.8819999694824219
			],
			"type":"VEC3"
		},
		{
			"bufferView":6,
			"componentType":5126,
			"count":408,
			"type":"VEC3"
		},
		{
			"bufferView":7,
			"componentType":5126,
			"count":408,
			"type":"VEC2"
		},
		{
			"bufferView":8,
			"componentType":5126,
			"count":408,
			"type":"VEC2"
		},
		{
			"bufferView":9,
			"componentType":5123,
			"count":1764,
			"type":"SCALAR"
		},
		{
			"bufferView":10,
			"componentType":5126,
			"count":408,
			"max":[
				0.2199999988079071,
				-0.20600000023841858,
				0.8629999160766602
			],
			"min":[
				-0.2199999988079071,
				-0.22499999403953552,
				-0.8629999160766602
			],
			"type":"VEC3"
		},
		{
			"bufferView":11,
			"componentType":5126,
			"count":408,
			"type":"VEC3"
		},
		{
			"bufferView":12,
			"componentType":5126,
			"count":408,
			"type":"VEC2"
		},
		{
			"bufferView":13,
			"componentType":5126,
			"count":408,
			"type":"VEC2"
		},
		{
			"bufferView":14,
			"componentType":5123,
			"count":1764,
			"type":"SCALAR"
		},
		{
			"bufferView":15,
			"componentType":5126,
			"count":408,
			"max":[
				0.2199999988079071,
				0.22499999403953552,
				0.009499999694526196
			],
			"min":[
				-0.2199999988079071,
				-0.20600000023841858,
				-0.009499999694526196
			],
			"type":"VEC3"
		},
		{
			"bufferView":16,
			"componentType":5126,
			"count":408,
			"type":"VEC3"
		},
		{
			"bufferView":17,
			"componentType":5126,
			"count":408,
			"type":"VEC2"
		},
		{
			"bufferView":18,
			"componentType":5126,
			"count":408,
			"type":"VEC2"
		},
		{
			"bufferView":19,
			"componentType":5123,
			"count":1764,
			"type":"SCALAR"
		},
		{
			"bufferView":20,
			"componentType":5126,
			"count":3776,
			"max":[
				0.006764246616512537,
				0.22220751643180847,
				0.38003653287887573
			],
			"min":[
				0.0037642556708306074,
				-0.22220751643180847,
				-0.3800366222858429
			],
			"type":"VEC3"
		},
		{
			"bufferView":21,
			"componentType":5126,
			"count":3776,
			"type":"VEC3"
		},
		{
			"bufferView":22,
			"componentType":5126,
			"count":3776,
			"type":"VEC2"
		},
		{
			"bufferView":23,
			"componentType":5123,
			"count":14112,
			"type":"SCALAR"
		},
		{
			"bufferView":24,
			"componentType":5126,
			"count":8942,
			"max":[
				0.007090926170349121,
				0.2225000113248825,
				0.4267498850822449
			],
			"min":[
				-0.011909068562090397,
				-0.2225000113248825,
				-0.4267500340938568
			],
			"type":"VEC3"
		},
		{
			"bufferView":25,
			"componentType":5126,
			"count":8942,
			"type":"VEC3"
		},
		{
			"bufferView":26,
			"componentType":5126,
			"count":8942,
			"type":"VEC2"
		},
		{
			"bufferView":27,
			"componentType":5126,
			"count":8942,
			"type":"VEC2"
		},
		{
			"bufferView":28,
			"componentType":5123,
			"count":39444,
			"type":"SCALAR"
		},
		{
			"bufferView":29,
			"componentType":5126,
			"count":3776,
			"max":[
				0.23867329955101013,
				0.22220751643180847,
				-0.056213442236185074
			],
			"min":[
				0.23567332327365875,
				-0.22220751643180847,
				-0.8162865042686462
			],
			"type":"VEC3"
		},
		{
			"bufferView":30,
			"componentType":5126,
			"count":3776,
			"type":"VEC3"
		},
		{
			"bufferView":31,
			"componentType":5126,
			"count":3776,
			"type":"VEC2"
		},
		{
			"bufferView":32,
			"componentType":5123,
			"count":14112,
			"type":"SCALAR"
		},
		{
			"bufferView":33,
			"componentType":5126,
			"count":8896,
			"max":[
				0.23899999260902405,
				0.2225000113248825,
				-0.00950002670288086
			],
			"min":[
				0.2199999988079071,
				-0.2225000113248825,
				-0.8629999756813049
			],
			"type":"VEC3"
		},
		{
			"bufferView":34,
			"componentType":5126,
			"count":8896,
			"type":"VEC3"
		},
		{
			"bufferView":35,
			"componentType":5126,
			"count":8896,
			"type":"VEC2"
		},
		{
			"bufferView":36,
			"componentType":5126,
			"count":8896,
			"type":"VEC2"
		},
		{
			"bufferView":37,
			"componentType":5123,
			"count":39444,
			"type":"SCALAR"
		},
		{
			"bufferView":38,
			"componentType":5126,
			"count":408,
			"max":[
				-0.20600000023841858,
				0.2274528294801712,
				0.8629999756813049
			],
			"min":[
				-0.2150000035762787,
				-0.20754718780517578,
				-0.8630000352859497
			],
			"type":"VEC3"
		},
		{
			"bufferView":39,
			"componentType":5126,
			"count":408,
			"type":"VEC3"
		},
		{
			"bufferView":40,
			"componentType":5126,
			"count":408,
			"type":"VEC2"
		},
		{
			"bufferView":41,
			"componentType":5126,
			"count":408,
			"type":"VEC2"
		},
		{
			"bufferView":42,
			"componentType":5123,
			"count":1764,
			"type":"SCALAR"
		},
		{
			"bufferView":43,
			"componentType":5126,
			"count":1236,
			"max":[
				0.005861133337020874,
				0.02499999850988388,
				0.004095109645277262
			],
			"min":[
				-0.03730151057243347,
				-0.02499999850988388,
				-0.004112432710826397
			],
			"type":"VEC3"
		},
		{
			"bufferView":44,
			"componentType":5126,
			"count":1236,
			"type":"VEC3"
		},
		{
			"bufferView":45,
			"componentType":5126,
			"count":1236,
			"type":"VEC2"
		},
		{
			"bufferView":46,
			"componentType":5123,
			"count":4104,
			"type":"SCALAR"
		},
		{
			"bufferView":47,
			"componentType":5126,
			"count":1214,
			"max":[
				0.005861133337020874,
				0.02499999850988388,
				0.004095109645277262
			],
			"min":[
				-0.03730151057243347,
				-0.02499999850988388,
				-0.004112432710826397
			],
			"type":"VEC3"
		},
		{
			"bufferView":48,
			"componentType":5126,
			"count":1214,
			"type":"VEC3"
		},
		{
			"bufferView":49,
			"componentType":5126,
			"count":1214,
			"type":"VEC2"
		},
		{
			"bufferView":50,
			"componentType":5123,
			"count":3936,
			"type":"SCALAR"
		},
		{
			"bufferView":51,
			"componentType":5126,
			"count":682,
			"max":[
				0.234250009059906,
				0.008833304047584534,
				0.8999999761581421
			],
			"min":[
				-0.23424997925758362,
				-0.01016668975353241,
				-0.8999999761581421
			],
			"type":"VEC3"
		},
		{
			"bufferView":52,
			"componentType":5126,
			"count":682,
			"type":"VEC3"
		},
		{
			"bufferView":53,
			"componentType":5126,
			"count":682,
			"type":"VEC2"
		},
		{
			"bufferView":54,
			"componentType":5126,
			"count":682,
			"type":"VEC2"
		},
		{
			"bufferView":55,
			"componentType":5123,
			"count":2940,
			"type":"SCALAR"
		},
		{
			"bufferView":56,
			"componentType":5126,
			"count":3038,
			"max":[
				0.0149534335359931,
				0.07499999552965164,
				0.0149534335359931
			],
			"min":[
				-0.4184534251689911,
				-0.06697417050600052,
				-1.7044533491134644
			],
			"type":"VEC3"
		},
		{
			"bufferView":57,
			"componentType":5126,
			"count":3038,
			"type":"VEC3"
		},
		{
			"bufferView":58,
			"componentType":5126,
			"count":3038,
			"type":"VEC2"
		},
		{
			"bufferView":59,
			"componentType":5123,
			"count":8040,
			"type":"SCALAR"
		},
		{
			"bufferView":60,
			"componentType":5126,
			"count":5532,
			"max":[
				0.012579726986587048,
				-0.06697417050600052,
				0.012579720467329025
			],
			"min":[
				-0.41607972979545593,
				-0.07499999552965164,
				-1.7020796537399292
			],
			"type":"VEC3"
		},
		{
			"bufferView":61,
			"componentType":5126,
			"count":5532,
			"type":"VEC3"
		},
		{
			"bufferView":62,
			"componentType":5126,
			"count":5532,
			"type":"VEC2"
		},
		{
			"bufferView":63,
			"componentType":5123,
			"count":13416,
			"type":"SCALAR"
		}
	],
	"bufferViews":[
		{
			"buffer":0,
			"byteLength":4896,
			"byteOffset":0,
			"target":34962
		},
		{
			"buffer":0,
			"byteLength":4896,
			"byteOffset":4896,
			"target":34962
		},
		{
			"buffer":0,
			"byteLength":3264,
			"byteOffset":9792,
			"target":34962
		},
		{
			"buffer":0,
			"byteLength":3264,
			"byteOffset":13056,
			"target":34962
		},
		{
			"buffer":0,
			"byteLength":3528,
			"byteOffset":16320,
			"target":34963
		},
		{
			"buffer":0,
			"byteLength":4896,
			"byteOffset":19848,
			"target":34962
		},
		{
			"buffer":0,
			"byteLength":4896,
			"byteOffset":24744,
			"target":34962
		},
		{
			"buffer":0,
			"byteLength":3264,
			"byteOffset":29640,
			"target":34962
		},
		{
			"buffer":0,
			"byteLength":3264,
			"byteOffset":32904,
			"target":34962
		},
		{
			"buffer":0,
			"byteLength":3528,
			"byteOffset":36168,
			"target":34963
		},
		{
			"buffer":0,
			"byteLength":4896,
			"byteOffset":39696,
			"target":34962
		},
		{
			"buffer":0,
			"byteLength":4896,
			"byteOffset":44592,
			"target":34962
		},
		{
			"buffer":0,
			"byteLength":3264,
			"byteOffset":49488,
			"target":34962
		},
		{
			"buffer":0,
			"byteLength":3264,
			"byteOffset":52752,
			"target":34962
		},
		{
			"buffer":0,
			"byteLength":3528,
			"byteOffset":56016,
			"target":34963
		},
		{
			"buffer":0,
			"byteLength":4896,
			"byteOffset":59544,
			"target":34962
		},
		{
			"buffer":0,
			"byteLength":4896,
			"byteOffset":64440,
			"target":34962
		},
		{
			"buffer":0,
			"byteLength":3264,
			"byteOffset":69336,
			"target":34962
		},
		{
			"buffer":0,
			"byteLength":3264,
			"byteOffset":72600,
			"target":34962
		},
		{
			"buffer":0,
			"byteLength":3528,
			"byteOffset":75864,
			"target":34963
		},
		{
			"buffer":0,
			"byteLength":45312,
			"byteOffset":79392,
			"target":34962
		},
		{
			"buffer":0,
			"byteLength":45312,
			"byteOffset":124704,
			"target":34962
		},
		{
			"buffer":0,
			"byteLength":30208,
			"byteOffset":170016,
			"target":34962
		},
		{
			"buffer":0,
			"byteLength":28224,
			"byteOffset":200224,
			"target":34963
		},
		{
			"buffer":0,
			"byteLength":107304,
			"byteOffset":228448,
			"target":34962
		},
		{
			"buffer":0,
			"byteLength":107304,
			"byteOffset":335752,
			"target":34962
		},
		{
			"buffer":0,
			"byteLength":71536,
			"byteOffset":443056,
			"target":34962
		},
		{
			"buffer":0,
			"byteLength":71536,
			"byteOffset":514592,
			"target":34962
		},
		{
			"buffer":0,
			"byteLength":78888,
			"byteOffset":586128,
			"target":34963
		},
		{
			"buffer":0,
			"byteLength":45312,
			"byteOffset":665016,
			"target":34962
		},
		{
			"buffer":0,
			"byteLength":45312,
			"byteOffset":710328,
			"target":34962
		},
		{
			"buffer":0,
			"byteLength":30208,
			"byteOffset":755640,
			"target":34962
		},
		{
			"buffer":0,
			"byteLength":28224,
			"byteOffset":785848,
			"target":34963
		},
		{
			"buffer":0,
			"byteLength":106752,
			"byteOffset":814072,
			"target":34962
		},
		{
			"buffer":0,
			"byteLength":106752,
			"byteOffset":920824,
			"target":34962
		},
		{
			"buffer":0,
			"byteLength":71168,
			"byteOffset":1027576,
			"target":34962
		},
		{
			"buffer":0,
			"byteLength":71168,
			"byteOffset":1098744,
			"target":34962
		},
		{
			"buffer":0,
			"byteLength":78888,
			"byteOffset":1169912,
			"target":34963
		},
		{
			"buffer":0,
			"byteLength":4896,
			"byteOffset":1248800,
			"target":34962
		},
		{
			"buffer":0,
			"byteLength":4896,
			"byteOffset":1253696,
			"target":34962
		},
		{
			"buffer":0,
			"byteLength":3264,
			"byteOffset":1258592,
			"target":34962
		},
		{
			"buffer":0,
			"byteLength":3264,
			"byteOffset":1261856,
			"target":34962
		},
		{
			"buffer":0,
			"byteLength":3528,
			"byteOffset":1265120,
			"target":34963
		},
		{
			"buffer":0,
			"byteLength":14832,
			"byteOffset":1268648,
			"target":34962
		},
		{
			"buffer":0,
			"byteLength":14832,
			"byteOffset":1283480,
			"target":34962
		},
		{
			"buffer":0,
			"byteLength":9888,
			"byteOffset":1298312,
			"target":34962
		},
		{
			"buffer":0,
			"byteLength":8208,
			"byteOffset":1308200,
			"target":34963
		},
		{
			"buffer":0,
			"byteLength":14568,
			"byteOffset":1316408,
			"target":34962
		},
		{
			"buffer":0,
			"byteLength":14568,
			"byteOffset":1330976,
			"target":34962
		},
		{
			"buffer":0,
			"byteLength":9712,
			"byteOffset":1345544,
			"target":34962
		},
		{
			"buffer":0,
			"byteLength":7872,
			"byteOffset":1355256,
			"target":34963
		},
		{
			"buffer":0,
			"byteLength":8184,
			"byteOffset":1363128,
			"target":34962
		},
		{
			"buffer":0,
			"byteLength":8184,
			"byteOffset":1371312,
			"target":34962
		},
		{
			"buffer":0,
			"byteLength":5456,
			"byteOffset":1379496,
			"target":34962
		},
		{
			"buffer":0,
			"byteLength":5456,
			"byteOffset":1384952,
			"target":34962
		},
		{
			"buffer":0,
			"byteLength":5880,
			"byteOffset":1390408,
			"target":34963
		},
		{
			"buffer":0,
			"byteLength":36456,
			"byteOffset":1396288,
			"target":34962
		},
		{
			"buffer":0,
			"byteLength":36456,
			"byteOffset":1432744,
			"target":34962
		},
		{
			"buffer":0,
			"byteLength":24304,
			"byteOffset":1469200,
			"target":34962
		},
		{
			"buffer":0,
			"byteLength":16080,
			"byteOffset":1493504,
			"target":34963
		},
		{
			"buffer":0,
			"byteLength":66384,
			"byteOffset":1509584,
			"target":34962
		},
		{
			"buffer":0,
			"byteLength":66384,
			"byteOffset":1575968,
			"target":34962
		},
		{
			"buffer":0,
			"byteLength":44256,
			"byteOffset":1642352,
			"target":34962
		},
		{
			"buffer":0,
			"byteLength":26832,
			"byteOffset":1686608,
			"target":34963
		}
	],
	"samplers":[
		{
			"magFilter":9729,
			"minFilter":9987
		}
	],
	"buffers":[
		{
			"byteLength":1713440,
			"uri":"longTable.bin"
		}
	]
}
