{
	"asset":{
		"generator":"Khronos glTF Blender I/O v4.0.44",
		"version":"2.0"
	},
	"scene":0,
	"scenes":[
		{
			"name":"Scene",
			"nodes":[
				2,
				3
			]
		}
	],
	"nodes":[
		{
			"name":"GLTF_SceneRootNode.002",
			"rotation":[
				0.70710688829422,
				0,
				0,
				0.7071066498756409
			]
		},
		{
			"children":[
				0
			],
			"name":"root.002"
		},
		{
			"children":[
				1
			],
			"name":"Sketchfab_model.003",
			"rotation":[
				-0.4457142651081085,
				-0.437649667263031,
				-0.5471145510673523,
				0.5571959018707275
			],
			"scale":[
				0.45056572556495667,
				0.20575100183486938,
				0.2216300666332245
			],
			"translation":[
				-1.7965466976165771,
				1.5810872316360474,
				-1.4350217580795288
			]
		},
		{
			"mesh":0,
			"name":"Object_27",
			"translation":[
				-0.09783625602722168,
				0,
				0.04327188804745674
			]
		}
	],
	"materials":[
		{
			"doubleSided":true,
			"name":"Mirror",
			"pbrMetallicRoughness":{
				"baseColorFactor":[
					0.800000011920929,
					0.800000011920929,
					0.800000011920929,
					1
				],
				"metallicFactor":0.968504011631012,
				"roughnessFactor":0
			}
		}
	],
	"meshes":[
		{
			"name":"Object_7.004",
			"primitives":[
				{
					"attributes":{
						"POSITION":0,
						"NORMAL":1,
						"TEXCOORD_0":2
					},
					"indices":3,
					"material":0
				}
			]
		}
	],
	"accessors":[
		{
			"bufferView":0,
			"componentType":5126,
			"count":175,
			"max":[
				0.45173245668411255,
				1.3657495975494385,
				-0.11476129293441772
			],
			"min":[
				-0.45173245668411255,
				0.7725784778594971,
				-0.2147391140460968
			],
			"type":"VEC3"
		},
		{
			"bufferView":1,
			"componentType":5126,
			"count":175,
			"type":"VEC3"
		},
		{
			"bufferView":2,
			"componentType":5126,
			"count":175,
			"type":"VEC2"
		},
		{
			"bufferView":3,
			"componentType":5123,
			"count":768,
			"type":"SCALAR"
		}
	],
	"bufferViews":[
		{
			"buffer":0,
			"byteLength":2100,
			"byteOffset":0,
			"target":34962
		},
		{
			"buffer":0,
			"byteLength":2100,
			"byteOffset":2100,
			"target":34962
		},
		{
			"buffer":0,
			"byteLength":1400,
			"byteOffset":4200,
			"target":34962
		},
		{
			"buffer":0,
			"byteLength":1536,
			"byteOffset":5600,
			"target":34963
		}
	],
	"buffers":[
		{
			"byteLength":7136,
			"uri":"dressingTableMirror.bin"
		}
	]
}
