{
	"asset":{
		"generator":"Khronos glTF Blender I/O v4.0.44",
		"version":"2.0"
	},
	"extensionsUsed":[
		"KHR_materials_specular",
		"KHR_materials_ior"
	],
	"scene":0,
	"scenes":[
		{
			"name":"Scene",
			"nodes":[
				0,
				1
			]
		}
	],
	"nodes":[
		{
			"mesh":0,
			"name":"Mirror_Kromer_02",
			"scale":[
				0.0010000000474974513,
				0.0010000000474974513,
				0.0010000000474974513
			],
			"translation":[
				0.910195529460907,
				0.999925434589386,
				0
			]
		},
		{
			"mesh":1,
			"name":"Mirror_Kromer_02.001",
			"scale":[
				0.0010000000474974513,
				0.0010000000474974513,
				0.0010000000474974513
			],
			"translation":[
				0.910195529460907,
				0.999925434589386,
				0
			]
		}
	],
	"materials":[
		{
			"doubleSided":true,
			"extensions":{
				"KHR_materials_specular":{
					"specularColorFactor":[
						2.0,
						2.0,
						2.0
					]
				},
				"KHR_materials_ior":{
					"ior":1.4500000476837158
				}
			},
			"name":"Wood",
			"pbrMetallicRoughness":{
				"baseColorFactor":[
					0.6274510025978088,
					0.6274510025978088,
					0.6274510025978088,
					1
				],
				"metallicFactor":0,
				"roughnessFactor":0.5527864098548889
			}
		},
		{
			"doubleSided":true,
			"extensions":{
				"KHR_materials_specular":{
					"specularColorFactor":[
						2.0,
						2.0,
						2.0
					]
				},
				"KHR_materials_ior":{
					"ior":1.4500000476837158
				}
			},
			"name":"Mirror.001",
			"pbrMetallicRoughness":{
				"baseColorFactor":[
					0,
					0,
					0,
					1
				],
				"metallicFactor":0,
				"roughnessFactor":0.5527864098548889
			}
		},
		{
			"doubleSided":true,
			"extensions":{
				"KHR_materials_specular":{
					"specularColorFactor":[
						2.0,
						2.0,
						2.0
					]
				},
				"KHR_materials_ior":{
					"ior":1.4500000476837158
				}
			},
			"name":"Wood.001",
			"pbrMetallicRoughness":{
				"roughnessFactor":0.5527864098548889
			}
		},
		{
			"doubleSided":true,
			"extensions":{
				"KHR_materials_specular":{
					"specularColorFactor":[
						2.0,
						2.0,
						2.0
					]
				},
				"KHR_materials_ior":{
					"ior":1.4500000476837158
				}
			},
			"name":"Mirror.004",
			"pbrMetallicRoughness":{
				"baseColorFactor":[
					0,
					0,
					0,
					1
				],
				"metallicFactor":0,
				"roughnessFactor":0.5527864098548889
			}
		}
	],
	"meshes":[
		{
			"name":"Mesh.001",
			"primitives":[
				{
					"attributes":{
						"POSITION":0,
						"NORMAL":1,
						"TEXCOORD_0":2
					},
					"indices":3,
					"material":0
				},
				{
					"attributes":{
						"POSITION":4,
						"NORMAL":5,
						"TEXCOORD_0":6
					},
					"indices":7,
					"material":1
				}
			]
		},
		{
			"name":"Mesh.004",
			"primitives":[
				{
					"attributes":{
						"POSITION":8,
						"NORMAL":9,
						"TEXCOORD_0":10
					},
					"indices":3,
					"material":2
				},
				{
					"attributes":{
						"POSITION":11,
						"NORMAL":12,
						"TEXCOORD_0":13
					},
					"indices":7,
					"material":3
				}
			]
		}
	],
	"accessors":[
		{
			"bufferView":0,
			"componentType":5126,
			"count":2761,
			"max":[
				400.0633544921875,
				1000.07470703125,
				25.003564834594727
			],
			"min":[
				-399.9366455078125,
				-999.9254150390625,
				-25.000057220458984
			],
			"type":"VEC3"
		},
		{
			"bufferView":1,
			"componentType":5126,
			"count":2761,
			"type":"VEC3"
		},
		{
			"bufferView":2,
			"componentType":5126,
			"count":2761,
			"type":"VEC2"
		},
		{
			"bufferView":3,
			"componentType":5123,
			"count":11592,
			"type":"SCALAR"
		},
		{
			"bufferView":4,
			"componentType":5126,
			"count":144,
			"max":[
				363.60888671875,
				963.791259765625,
				2.500046730041504
			],
			"min":[
				-363.60894775390625,
				-963.7911987304688,
				-2.500046730041504
			],
			"type":"VEC3"
		},
		{
			"bufferView":5,
			"componentType":5126,
			"count":144,
			"type":"VEC3"
		},
		{
			"bufferView":6,
			"componentType":5126,
			"count":144,
			"type":"VEC2"
		},
		{
			"bufferView":7,
			"componentType":5123,
			"count":564,
			"type":"SCALAR"
		},
		{
			"bufferView":8,
			"componentType":5126,
			"count":2761,
			"max":[
				400.0633544921875,
				1000.07470703125,
				25.003564834594727
			],
			"min":[
				-399.9366455078125,
				-999.9254150390625,
				-25.000057220458984
			],
			"type":"VEC3"
		},
		{
			"bufferView":9,
			"componentType":5126,
			"count":2761,
			"type":"VEC3"
		},
		{
			"bufferView":10,
			"componentType":5126,
			"count":2761,
			"type":"VEC2"
		},
		{
			"bufferView":11,
			"componentType":5126,
			"count":144,
			"max":[
				363.60888671875,
				963.791259765625,
				2.500046730041504
			],
			"min":[
				-363.60894775390625,
				-963.7911987304688,
				-2.500046730041504
			],
			"type":"VEC3"
		},
		{
			"bufferView":12,
			"componentType":5126,
			"count":144,
			"type":"VEC3"
		},
		{
			"bufferView":13,
			"componentType":5126,
			"count":144,
			"type":"VEC2"
		}
	],
	"bufferViews":[
		{
			"buffer":0,
			"byteLength":33132,
			"byteOffset":0,
			"target":34962
		},
		{
			"buffer":0,
			"byteLength":33132,
			"byteOffset":33132,
			"target":34962
		},
		{
			"buffer":0,
			"byteLength":22088,
			"byteOffset":66264,
			"target":34962
		},
		{
			"buffer":0,
			"byteLength":23184,
			"byteOffset":88352,
			"target":34963
		},
		{
			"buffer":0,
			"byteLength":1728,
			"byteOffset":111536,
			"target":34962
		},
		{
			"buffer":0,
			"byteLength":1728,
			"byteOffset":113264,
			"target":34962
		},
		{
			"buffer":0,
			"byteLength":1152,
			"byteOffset":114992,
			"target":34962
		},
		{
			"buffer":0,
			"byteLength":1128,
			"byteOffset":116144,
			"target":34963
		},
		{
			"buffer":0,
			"byteLength":33132,
			"byteOffset":117272,
			"target":34962
		},
		{
			"buffer":0,
			"byteLength":33132,
			"byteOffset":150404,
			"target":34962
		},
		{
			"buffer":0,
			"byteLength":22088,
			"byteOffset":183536,
			"target":34962
		},
		{
			"buffer":0,
			"byteLength":1728,
			"byteOffset":205624,
			"target":34962
		},
		{
			"buffer":0,
			"byteLength":1728,
			"byteOffset":207352,
			"target":34962
		},
		{
			"buffer":0,
			"byteLength":1152,
			"byteOffset":209080,
			"target":34962
		}
	],
	"buffers":[
		{
			"byteLength":210232,
			"uri":"longmirror.bin"
		}
	]
}
