{
	"asset":{
		"generator":"Khronos glTF Blender I/O v4.0.44",
		"version":"2.0"
	},
	"scene":0,
	"scenes":[
		{
			"name":"Scene",
			"nodes":[
				6,
				8,
				10,
				12,
				14,
				15,
				16
			]
		}
	],
	"nodes":[
		{
			"mesh":0,
			"name":"polySurface1",
			"scale":[
				1.4059652090072632,
				1,
				1
			],
			"translation":[
				6.475955963134766,
				-1.0291085243225098,
				-2.800482988357544
			]
		},
		{
			"name":"light_polySurface2"
		},
		{
			"children":[
				1
			],
			"mesh":1,
			"name":"polySurface2",
			"scale":[
				1.0054221153259277,
				1.0054221153259277,
				1.0054221153259277
			]
		},
		{
			"name":"transform1",
			"rotation":[
				-0.7071068286895752,
				0,
				0,
				0.7071068286895752
			],
			"scale":[
				100,
				100,
				100
			],
			"translation":[
				0,
				1.8343724012374878,
				5.029661178588867
			]
		},
		{
			"children":[
				0,
				2,
				3
			],
			"name":"Espejo",
			"translation":[
				0,
				-1.8343724012374878,
				-5.029661178588867
			]
		},
		{
			"mesh":2,
			"name":"Lavamanos",
			"rotation":[
				-1,
				0,
				0,
				1.7663279693047595e-15
			],
			"scale":[
				1.3820031881332397,
				0.5824046730995178,
				0.6918835639953613
			],
			"translation":[
				-95.95257568359375,
				29.654550552368164,
				38.961212158203125
			]
		},
		{
			"children":[
				4,
				5
			],
			"name":"Accesorios",
			"rotation":[
				0.7071068286895752,
				0,
				0,
				0.7071068286895752
			],
			"scale":[
				0.009999999776482582,
				0.009999999776482582,
				0.009999999776482582
			]
		},
		{
			"mesh":3,
			"name":"Listones"
		},
		{
			"children":[
				7
			],
			"name":"Cuarto",
			"rotation":[
				0.7071068286895752,
				0,
				0,
				0.7071068286895752
			],
			"scale":[
				0.009999999776482582,
				0.009999999776482582,
				0.009999999776482582
			]
		},
		{
			"name":"pasted__G_towel",
			"translation":[
				0,
				1.8695980543270707e-05,
				-78.21316528320312
			]
		},
		{
			"children":[
				9
			],
			"name":"group",
			"rotation":[
				0.7071068286895752,
				0,
				0,
				0.7071068286895752
			],
			"scale":[
				0.009999999776482582,
				0.009999999776482582,
				0.009999999776482582
			],
			"translation":[
				0.9708675742149353,
				-0.32686179876327515,
				1.578696370124817
			]
		},
		{
			"name":"pasted__G_Luminaria_Jacuzzi",
			"translation":[
				-7.62939453125e-06,
				0,
				0
			]
		},
		{
			"children":[
				11
			],
			"name":"group1",
			"rotation":[
				0.7071068286895752,
				0,
				0,
				0.7071068286895752
			],
			"scale":[
				0.009999999776482582,
				0.009999999776482582,
				0.009999999776482582
			],
			"translation":[
				-1.040384292602539,
				-1.4660487174987793,
				0
			]
		},
		{
			"name":"pasted__G_Luminaria_Jacuzzi.001"
		},
		{
			"children":[
				13
			],
			"name":"group2",
			"rotation":[
				0.7071068286895752,
				0,
				0,
				0.7071068286895752
			],
			"scale":[
				0.009999999776482582,
				0.009999999776482582,
				0.009999999776482582
			],
			"translation":[
				1.045915126800537,
				-1.4660487174987793,
				0
			]
		},
		{
			"name":"aiPhotometricLight1",
			"rotation":[
				0.7071068286895752,
				0,
				0,
				0.7071068286895752
			],
			"scale":[
				0.13751596212387085,
				0.13751596212387085,
				0.13751596212387085
			],
			"translation":[
				-1.0407629013061523,
				1.3835378885269165,
				0.7321852445602417
			]
		},
		{
			"name":"aiSkyDomeLight1",
			"rotation":[
				0.7071068286895752,
				0,
				0,
				0.7071068286895752
			],
			"scale":[
				0.009999999776482582,
				0.009999999776482582,
				0.009999999776482582
			]
		}
	],
	"materials":[
		{
			"doubleSided":true,
			"name":"M_Bath_Room",
			"pbrMetallicRoughness":{
				"metallicFactor":0,
				"roughnessFactor":0.5527864098548889
			}
		},
		{
			"doubleSided":true,
			"name":"M_Listones",
			"pbrMetallicRoughness":{
				"metallicFactor":0,
				"roughnessFactor":0.5527864098548889
			}
		}
	],
	"meshes":[
		{
			"name":"Mesh.006",
			"primitives":[
				{
					"attributes":{
						"POSITION":0,
						"NORMAL":1,
						"TEXCOORD_0":2
					},
					"indices":3,
					"material":0
				}
			]
		},
		{
			"name":"Mesh.007",
			"primitives":[
				{
					"attributes":{
						"POSITION":4,
						"NORMAL":5,
						"TEXCOORD_0":6
					},
					"indices":7,
					"material":0
				}
			]
		},
		{
			"name":"Mesh.011",
			"primitives":[
				{
					"attributes":{
						"POSITION":8,
						"NORMAL":9,
						"TEXCOORD_0":10
					},
					"indices":11,
					"material":0
				}
			]
		},
		{
			"name":"Mesh.013",
			"primitives":[
				{
					"attributes":{
						"POSITION":12,
						"NORMAL":13,
						"TEXCOORD_0":14
					},
					"indices":15,
					"material":1
				}
			]
		}
	],
	"accessors":[
		{
			"bufferView":0,
			"componentType":5126,
			"count":1304,
			"max":[
				85.673095703125,
				13.45245361328125,
				32.3932991027832
			],
			"min":[
				-180.9864501953125,
				10.629791259765625,
				-66.28480529785156
			],
			"type":"VEC3"
		},
		{
			"bufferView":1,
			"componentType":5126,
			"count":1304,
			"type":"VEC3"
		},
		{
			"bufferView":2,
			"componentType":5126,
			"count":1304,
			"type":"VEC2"
		},
		{
			"bufferView":3,
			"componentType":5123,
			"count":4542,
			"type":"SCALAR"
		},
		{
			"bufferView":4,
			"componentType":5126,
			"count":208,
			"max":[
				83.360107421875,
				11.70672607421875,
				30.084884643554688
			],
			"min":[
				-178.6734619140625,
				10.970489501953125,
				-63.97638702392578
			],
			"type":"VEC3"
		},
		{
			"bufferView":5,
			"componentType":5126,
			"count":208,
			"type":"VEC3"
		},
		{
			"bufferView":6,
			"componentType":5126,
			"count":208,
			"type":"VEC2"
		},
		{
			"bufferView":7,
			"componentType":5123,
			"count":312,
			"type":"SCALAR"
		},
		{
			"bufferView":8,
			"componentType":5126,
			"count":396,
			"max":[
				172.2441864013672,
				30.000003814697266,
				10.425941467285156
			],
			"min":[
				-96.92312622070312,
				-30,
				-18.3255615234375
			],
			"type":"VEC3"
		},
		{
			"bufferView":9,
			"componentType":5126,
			"count":396,
			"type":"VEC3"
		},
		{
			"bufferView":10,
			"componentType":5126,
			"count":396,
			"type":"VEC2"
		},
		{
			"bufferView":11,
			"componentType":5123,
			"count":1476,
			"type":"SCALAR"
		},
		{
			"bufferView":12,
			"componentType":5126,
			"count":778,
			"max":[
				-55.19245147705078,
				8.779450416564941,
				152.49729919433594
			],
			"min":[
				-183.0054931640625,
				5.044822692871094,
				-152.49729919433594
			],
			"type":"VEC3"
		},
		{
			"bufferView":13,
			"componentType":5126,
			"count":778,
			"type":"VEC3"
		},
		{
			"bufferView":14,
			"componentType":5126,
			"count":778,
			"type":"VEC2"
		},
		{
			"bufferView":15,
			"componentType":5123,
			"count":1656,
			"type":"SCALAR"
		}
	],
	"bufferViews":[
		{
			"buffer":0,
			"byteLength":15648,
			"byteOffset":0,
			"target":34962
		},
		{
			"buffer":0,
			"byteLength":15648,
			"byteOffset":15648,
			"target":34962
		},
		{
			"buffer":0,
			"byteLength":10432,
			"byteOffset":31296,
			"target":34962
		},
		{
			"buffer":0,
			"byteLength":9084,
			"byteOffset":41728,
			"target":34963
		},
		{
			"buffer":0,
			"byteLength":2496,
			"byteOffset":50812,
			"target":34962
		},
		{
			"buffer":0,
			"byteLength":2496,
			"byteOffset":53308,
			"target":34962
		},
		{
			"buffer":0,
			"byteLength":1664,
			"byteOffset":55804,
			"target":34962
		},
		{
			"buffer":0,
			"byteLength":624,
			"byteOffset":57468,
			"target":34963
		},
		{
			"buffer":0,
			"byteLength":4752,
			"byteOffset":58092,
			"target":34962
		},
		{
			"buffer":0,
			"byteLength":4752,
			"byteOffset":62844,
			"target":34962
		},
		{
			"buffer":0,
			"byteLength":3168,
			"byteOffset":67596,
			"target":34962
		},
		{
			"buffer":0,
			"byteLength":2952,
			"byteOffset":70764,
			"target":34963
		},
		{
			"buffer":0,
			"byteLength":9336,
			"byteOffset":73716,
			"target":34962
		},
		{
			"buffer":0,
			"byteLength":9336,
			"byteOffset":83052,
			"target":34962
		},
		{
			"buffer":0,
			"byteLength":6224,
			"byteOffset":92388,
			"target":34962
		},
		{
			"buffer":0,
			"byteLength":3312,
			"byteOffset":98612,
			"target":34963
		}
	],
	"buffers":[
		{
			"byteLength":101924,
			"uri":"makeupmirror.bin"
		}
	]
}
