{
	"asset":{
		"generator":"Khronos glTF Blender I/O v4.0.44",
		"version":"2.0"
	},
	"scene":0,
	"scenes":[
		{
			"name":"Scene",
			"nodes":[
				0,
				5
			]
		}
	],
	"nodes":[
		{
			"mesh":0,
			"name":"Object_4"
		},
		{
			"mesh":1,
			"name":"Object_39.004",
			"translation":[
				0.6830939054489136,
				-0.004320612642914057,
				-4.580806732177734
			]
		},
		{
			"children":[
				1
			],
			"name":"\ufffd\ufffd\ufffd\ufffd\ufffd\ufffd\ufffd\ufffd\ufffd\ufffd\ufffd\ufffd_41.004",
			"rotation":[
				0,
				0,
				0.0566454641520977,
				0.9983943700790405
			],
			"scale":[
				0.1431768536567688,
				2.5770111083984375,
				2.5770106315612793
			],
			"translation":[
				0.7992868423461914,
				3.01743221282959,
				-1.9057029485702515
			]
		},
		{
			"children":[
				2
			],
			"name":"GLTF_SceneRootNode.004",
			"rotation":[
				0.70710688829422,
				0,
				0,
				0.7071066498756409
			],
			"translation":[
				0,
				2.469867467880249e-06,
				0
			]
		},
		{
			"children":[
				3
			],
			"name":"root.004",
			"translation":[
				0,
				2.469867467880249e-06,
				0
			]
		},
		{
			"children":[
				4
			],
			"name":"Sketchfab_model.005",
			"rotation":[
				-0.4457142651081085,
				-0.437649667263031,
				-0.5471145510673523,
				0.5571959018707275
			],
			"scale":[
				0.45056572556495667,
				0.20575100183486938,
				0.2216300666332245
			],
			"translation":[
				-4.294365406036377,
				1.5810872316360474,
				-1.4350217580795288
			]
		}
	],
	"materials":[
		{
			"doubleSided":true,
			"name":"wire_087225087",
			"pbrMetallicRoughness":{
				"baseColorFactor":[
					0.0827801376581192,
					0.0827801376581192,
					0.0827801376581192,
					1
				],
				"metallicFactor":0,
				"roughnessFactor":0.6000000238418579
			}
		},
		{
			"doubleSided":true,
			"emissiveFactor":[
				0.19999998807907104,
				0.19999998807907104,
				0.19999998807907104
			],
			"name":".011",
			"pbrMetallicRoughness":{
				"baseColorFactor":[
					0.800000011920929,
					0.800000011920929,
					0.800000011920929,
					1
				],
				"roughnessFactor":0
			}
		}
	],
	"meshes":[
		{
			"name":"Object_2.003",
			"primitives":[
				{
					"attributes":{
						"POSITION":0,
						"NORMAL":1,
						"TEXCOORD_0":2
					},
					"indices":3,
					"material":0
				}
			]
		},
		{
			"name":"Object_18.006",
			"primitives":[
				{
					"attributes":{
						"POSITION":4,
						"NORMAL":5,
						"TEXCOORD_0":6
					},
					"indices":7,
					"material":1
				}
			]
		}
	],
	"accessors":[
		{
			"bufferView":0,
			"componentType":5126,
			"count":26585,
			"max":[
				-854.4522094726562,
				-15.964599609375,
				10.490500450134277
			],
			"min":[
				-886.9005737304688,
				-48.412899017333984,
				0.5175999999046326
			],
			"type":"VEC3"
		},
		{
			"bufferView":1,
			"componentType":5126,
			"count":26585,
			"type":"VEC3"
		},
		{
			"bufferView":2,
			"componentType":5126,
			"count":26585,
			"type":"VEC2"
		},
		{
			"bufferView":3,
			"componentType":5123,
			"count":154752,
			"type":"SCALAR"
		},
		{
			"bufferView":4,
			"componentType":5126,
			"count":4,
			"max":[
				-0.3588796854019165,
				2.4707162380218506,
				0.7039191722869873
			],
			"min":[
				-0.3588796854019165,
				-0.8660616874694824,
				-0.7039191722869873
			],
			"type":"VEC3"
		},
		{
			"bufferView":5,
			"componentType":5126,
			"count":4,
			"type":"VEC3"
		},
		{
			"bufferView":6,
			"componentType":5126,
			"count":4,
			"type":"VEC2"
		},
		{
			"bufferView":7,
			"componentType":5123,
			"count":6,
			"type":"SCALAR"
		}
	],
	"bufferViews":[
		{
			"buffer":0,
			"byteLength":319020,
			"byteOffset":0,
			"target":34962
		},
		{
			"buffer":0,
			"byteLength":319020,
			"byteOffset":319020,
			"target":34962
		},
		{
			"buffer":0,
			"byteLength":212680,
			"byteOffset":638040,
			"target":34962
		},
		{
			"buffer":0,
			"byteLength":309504,
			"byteOffset":850720,
			"target":34963
		},
		{
			"buffer":0,
			"byteLength":48,
			"byteOffset":1160224,
			"target":34962
		},
		{
			"buffer":0,
			"byteLength":48,
			"byteOffset":1160272,
			"target":34962
		},
		{
			"buffer":0,
			"byteLength":32,
			"byteOffset":1160320,
			"target":34962
		},
		{
			"buffer":0,
			"byteLength":12,
			"byteOffset":1160352,
			"target":34963
		}
	],
	"buffers":[
		{
			"byteLength":1160364,
			"uri":"mirror.bin"
		}
	]
}
