{
	"asset":{
		"generator":"Khronos glTF Blender I/O v4.0.44",
		"version":"2.0"
	},
	"scene":0,
	"scenes":[
		{
			"name":"Scene",
			"nodes":[
				7
			]
		}
	],
	"nodes":[
		{
			"mesh":0,
			"name":"Object_7",
			"translation":[
				6.079673767089844e-06,
				-5.125999450683594e-06,
				0
			]
		},
		{
			"children":[
				0
			],
			"name":"3DSMeshMatrix.001",
			"translation":[
				-7.684987545013428,
				138.22813415527344,
				40.78416442871094
			]
		},
		{
			"children":[
				1
			],
			"name":"Plane_1",
			"translation":[
				7.684985637664795,
				-138.2281494140625,
				-40.78416442871094
			]
		},
		{
			"mesh":1,
			"name":"Object_4",
			"translation":[
				3.2186508178710938e-06,
				-1.1801719665527344e-05,
				0
			]
		},
		{
			"children":[
				3
			],
			"name":"3DSMeshMatrix",
			"translation":[
				-53.52478790283203,
				107.94005584716797,
				-70.2865982055664
			]
		},
		{
			"children":[
				4
			],
			"name":"Sphere",
			"translation":[
				53.52478790283203,
				-107.94007110595703,
				70.28659057617188
			]
		},
		{
			"children":[
				2,
				5
			],
			"name":"b4d4b6077b804bc6ae1e845512df78ca.3ds",
			"translation":[
				3.2186508178710938e-06,
				-1.1801719665527344e-05,
				0
			]
		},
		{
			"children":[
				6
			],
			"name":"Sketchfab_model",
			"rotation":[
				-0.7123211026191711,
				-0.2084379643201828,
				-0.26572322845458984,
				0.6152588725090027
			],
			"scale":[
				0.009999999776482582,
				0.010000001639127731,
				0.010000001639127731
			],
			"translation":[
				0.1112205982208252,
				-0.12050211429595947,
				-0.8096446990966797
			]
		}
	],
	"materials":[
		{
			"alphaMode":"BLEND",
			"doubleSided":true,
			"name":"material",
			"pbrMetallicRoughness":{
				"baseColorFactor":[
					0.1654801070690155,
					0.38727375864982605,
					0.6912592649459839,
					0.1399557888507843
				],
				"baseColorTexture":{
					"index":0
				},
				"metallicFactor":0
			}
		},
		{
			"alphaMode":"BLEND",
			"doubleSided":true,
			"emissiveFactor":[
				0.012404283508658409,
				1,
				1
			],
			"name":"Mat.1",
			"pbrMetallicRoughness":{
				"baseColorFactor":[
					0,
					0.4219779074192047,
					1,
					0.41331231594085693
				],
				"metallicFactor":0.7627882957458496,
				"roughnessFactor":0.3036687970161438
			}
		}
	],
	"meshes":[
		{
			"name":"Object_1",
			"primitives":[
				{
					"attributes":{
						"POSITION":0,
						"NORMAL":1,
						"TEXCOORD_0":2
					},
					"indices":3,
					"material":0
				}
			]
		},
		{
			"name":"Object_0",
			"primitives":[
				{
					"attributes":{
						"POSITION":4,
						"NORMAL":5,
						"TEXCOORD_0":6
					},
					"indices":7,
					"material":1
				}
			]
		}
	],
	"textures":[
		{
			"sampler":0,
			"source":0
		}
	],
	"images":[
		{
			"mimeType":"image/png",
			"name":"material_baseColor",
			"uri":"material_baseColor.png"
		}
	],
	"accessors":[
		{
			"bufferView":0,
			"componentType":5126,
			"count":6724,
			"max":[
				131.7218475341797,
				-33.02774429321289,
				439.0382385253906
			],
			"min":[
				-42.06142807006836,
				-197.42002868652344,
				11.401067733764648
			],
			"type":"VEC3"
		},
		{
			"bufferView":1,
			"componentType":5126,
			"count":6724,
			"type":"VEC3"
		},
		{
			"bufferView":2,
			"componentType":5126,
			"count":6724,
			"type":"VEC2"
		},
		{
			"bufferView":3,
			"componentType":5123,
			"count":38400,
			"type":"SCALAR"
		},
		{
			"bufferView":4,
			"componentType":5126,
			"count":266,
			"max":[
				89.4638671875,
				-72.00096893310547,
				106.22566986083984
			],
			"min":[
				17.585708618164062,
				-143.87913513183594,
				34.34750747680664
			],
			"type":"VEC3"
		},
		{
			"bufferView":5,
			"componentType":5126,
			"count":266,
			"type":"VEC3"
		},
		{
			"bufferView":6,
			"componentType":5126,
			"count":266,
			"type":"VEC2"
		},
		{
			"bufferView":7,
			"componentType":5123,
			"count":1584,
			"type":"SCALAR"
		}
	],
	"bufferViews":[
		{
			"buffer":0,
			"byteLength":80688,
			"byteOffset":0,
			"target":34962
		},
		{
			"buffer":0,
			"byteLength":80688,
			"byteOffset":80688,
			"target":34962
		},
		{
			"buffer":0,
			"byteLength":53792,
			"byteOffset":161376,
			"target":34962
		},
		{
			"buffer":0,
			"byteLength":76800,
			"byteOffset":215168,
			"target":34963
		},
		{
			"buffer":0,
			"byteLength":3192,
			"byteOffset":291968,
			"target":34962
		},
		{
			"buffer":0,
			"byteLength":3192,
			"byteOffset":295160,
			"target":34962
		},
		{
			"buffer":0,
			"byteLength":2128,
			"byteOffset":298352,
			"target":34962
		},
		{
			"buffer":0,
			"byteLength":3168,
			"byteOffset":300480,
			"target":34963
		}
	],
	"samplers":[
		{
			"magFilter":9729,
			"minFilter":9987
		}
	],
	"buffers":[
		{
			"byteLength":303648,
			"uri":"smoke.bin"
		}
	]
}
