{
	"asset":{
		"generator":"Khronos glTF Blender I/O v4.0.44",
		"version":"2.0"
	},
	"extensionsUsed":[
		"KHR_materials_specular",
		"KHR_materials_ior",
		"KHR_materials_emissive_strength"
	],
	"scene":0,
	"scenes":[
		{
			"name":"Scene",
			"nodes":[
				0
			]
		}
	],
	"nodes":[
		{
			"mesh":0,
			"name":"Component#10_960",
			"translation":[
				0.7330000400543213,
				2.6989991664886475,
				0.21884459257125854
			]
		}
	],
	"materials":[
		{
			"doubleSided":true,
			"extensions":{
				"KHR_materials_specular":{
					"specularColorFactor":[
						2.0,
						2.0,
						2.0
					]
				},
				"KHR_materials_ior":{
					"ior":1.4500000476837158
				}
			},
			"name":"Material #58",
			"pbrMetallicRoughness":{
				"baseColorFactor":[
					0,
					0,
					0,
					1
				],
				"metallicFactor":0,
				"roughnessFactor":0.5527864098548889
			}
		},
		{
			"doubleSided":true,
			"emissiveFactor":[
				1,
				0.46274513244628906,
				0.06666666984558106
			],
			"extensions":{
				"KHR_materials_emissive_strength":{
					"emissiveStrength":50
				},
				"KHR_materials_specular":{
					"specularFactor":0
				},
				"KHR_materials_ior":{
					"ior":1.4500000476837158
				}
			},
			"name":"Material #54",
			"pbrMetallicRoughness":{
				"baseColorFactor":[
					0,
					0,
					0,
					1
				],
				"metallicFactor":0,
				"roughnessFactor":0.5527864098548889
			}
		},
		{
			"doubleSided":true,
			"extensions":{
				"KHR_materials_specular":{
					"specularColorFactor":[
						2.0,
						2.0,
						2.0
					]
				},
				"KHR_materials_ior":{
					"ior":1.4500000476837158
				}
			},
			"name":"Material #42",
			"pbrMetallicRoughness":{
				"baseColorFactor":[
					0.011764707043766975,
					0.011764707043766975,
					0.011764707043766975,
					0.14500004053115845
				],
				"metallicFactor":0,
				"roughnessFactor":0.5527864098548889
			}
		}
	],
	"meshes":[
		{
			"name":"Mesh",
			"primitives":[
				{
					"attributes":{
						"POSITION":0,
						"NORMAL":1,
						"TEXCOORD_0":2,
						"TEXCOORD_1":3
					},
					"indices":4,
					"material":0
				},
				{
					"attributes":{
						"POSITION":5,
						"NORMAL":6,
						"TEXCOORD_0":7,
						"TEXCOORD_1":8
					},
					"indices":9,
					"material":1
				},
				{
					"attributes":{
						"POSITION":10,
						"NORMAL":11,
						"TEXCOORD_0":12,
						"TEXCOORD_1":13
					},
					"indices":14,
					"material":2
				}
			]
		}
	],
	"accessors":[
		{
			"bufferView":0,
			"componentType":5126,
			"count":107136,
			"max":[
				1.2507884502410889,
				0.01238858699798584,
				0.12797965109348297
			],
			"min":[
				-2.8982653617858887,
				-1.0697288513183594,
				-0.6319590210914612
			],
			"type":"VEC3"
		},
		{
			"bufferView":1,
			"componentType":5126,
			"count":107136,
			"type":"VEC3"
		},
		{
			"bufferView":2,
			"componentType":5126,
			"count":107136,
			"type":"VEC2"
		},
		{
			"bufferView":3,
			"componentType":5126,
			"count":107136,
			"type":"VEC2"
		},
		{
			"bufferView":4,
			"componentType":5125,
			"count":308016,
			"type":"SCALAR"
		},
		{
			"bufferView":5,
			"componentType":5126,
			"count":129456,
			"max":[
				1.250610589981079,
				0.0024132728576660156,
				0.12780450284481049
			],
			"min":[
				-2.898054599761963,
				-1.074798583984375,
				-0.6317840218544006
			],
			"type":"VEC3"
		},
		{
			"bufferView":6,
			"componentType":5126,
			"count":129456,
			"type":"VEC3"
		},
		{
			"bufferView":7,
			"componentType":5126,
			"count":129456,
			"type":"VEC2"
		},
		{
			"bufferView":8,
			"componentType":5126,
			"count":129456,
			"type":"VEC2"
		},
		{
			"bufferView":9,
			"componentType":5125,
			"count":234360,
			"type":"SCALAR"
		},
		{
			"bufferView":10,
			"componentType":5126,
			"count":111600,
			"max":[
				1.268967866897583,
				0.3020009994506836,
				0.14600221812725067
			],
			"min":[
				-2.91697359085083,
				-1.059590458869934,
				-0.6499749422073364
			],
			"type":"VEC3"
		},
		{
			"bufferView":11,
			"componentType":5126,
			"count":111600,
			"type":"VEC3"
		},
		{
			"bufferView":12,
			"componentType":5126,
			"count":111600,
			"type":"VEC2"
		},
		{
			"bufferView":13,
			"componentType":5126,
			"count":111600,
			"type":"VEC2"
		},
		{
			"bufferView":14,
			"componentType":5125,
			"count":322524,
			"type":"SCALAR"
		}
	],
	"bufferViews":[
		{
			"buffer":0,
			"byteLength":1285632,
			"byteOffset":0,
			"target":34962
		},
		{
			"buffer":0,
			"byteLength":1285632,
			"byteOffset":1285632,
			"target":34962
		},
		{
			"buffer":0,
			"byteLength":857088,
			"byteOffset":2571264,
			"target":34962
		},
		{
			"buffer":0,
			"byteLength":857088,
			"byteOffset":3428352,
			"target":34962
		},
		{
			"buffer":0,
			"byteLength":1232064,
			"byteOffset":4285440,
			"target":34963
		},
		{
			"buffer":0,
			"byteLength":1553472,
			"byteOffset":5517504,
			"target":34962
		},
		{
			"buffer":0,
			"byteLength":1553472,
			"byteOffset":7070976,
			"target":34962
		},
		{
			"buffer":0,
			"byteLength":1035648,
			"byteOffset":8624448,
			"target":34962
		},
		{
			"buffer":0,
			"byteLength":1035648,
			"byteOffset":9660096,
			"target":34962
		},
		{
			"buffer":0,
			"byteLength":937440,
			"byteOffset":10695744,
			"target":34963
		},
		{
			"buffer":0,
			"byteLength":1339200,
			"byteOffset":11633184,
			"target":34962
		},
		{
			"buffer":0,
			"byteLength":1339200,
			"byteOffset":12972384,
			"target":34962
		},
		{
			"buffer":0,
			"byteLength":892800,
			"byteOffset":14311584,
			"target":34962
		},
		{
			"buffer":0,
			"byteLength":892800,
			"byteOffset":15204384,
			"target":34962
		},
		{
			"buffer":0,
			"byteLength":1290096,
			"byteOffset":16097184,
			"target":34963
		}
	],
	"buffers":[
		{
			"byteLength":17387280,
			"uri":"chandelier.bin"
		}
	]
}
