{
	"asset":{
		"generator":"Khronos glTF Blender I/O v4.0.44",
		"version":"2.0"
	},
	"extensionsUsed":[
		"KHR_materials_specular",
		"KHR_materials_ior"
	],
	"scene":0,
	"scenes":[
		{
			"name":"Scene",
			"nodes":[
				5,
				6,
				7,
				8,
				9,
				10,
				11,
				12,
				13,
				14,
				15,
				16,
				17,
				18,
				19,
				20,
				21
			]
		}
	],
	"nodes":[
		{
			"mesh":0,
			"name":"Cylinder001",
			"scale":[
				1.8392618894577026,
				1.3605220317840576,
				1.8392618894577026
			],
			"translation":[
				9.194334983825684,
				-84.14147186279297,
				1.9680700302124023
			]
		},
		{
			"mesh":1,
			"name":"Lamp Base",
			"rotation":[
				0.698678195476532,
				0.12685419619083405,
				-0.13079999387264252,
				0.6918440461158752
			],
			"scale":[
				100.00032043457031,
				100.00225830078125,
				129.01510620117188
			],
			"translation":[
				-1949.5242919921875,
				-108.19557189941406,
				4252.06884765625
			]
		},
		{
			"mesh":2,
			"name":"Lamp Head",
			"rotation":[
				0.20571692287921906,
				-0.3473430871963501,
				0.06238027662038803,
				0.9127662777900696
			],
			"scale":[
				0.8447189927101135,
				0.8447189927101135,
				0.8447199463844299
			],
			"translation":[
				38.32112121582031,
				45.121585845947266,
				-36.00502395629883
			]
		},
		{
			"mesh":3,
			"name":"Line001",
			"translation":[
				-23.865724563598633,
				-83.4645767211914,
				36.157470703125
			]
		},
		{
			"name":"OctaneLight_012",
			"rotation":[
				0.4605455994606018,
				-0.36706265807151794,
				0.5074664354324341,
				0.6289997100830078
			],
			"translation":[
				35.446044921875,
				53.05293655395508,
				-34.030029296875
			]
		},
		{
			"children":[
				0,
				1,
				2,
				3,
				4
			],
			"name":"LAMP",
			"scale":[
				0.009999999776482582,
				0.009999999776482582,
				0.009999999776482582
			],
			"translation":[
				-0.20847590267658234,
				0.8418211936950684,
				-0.10017989575862885
			]
		},
		{
			"mesh":4,
			"name":"Plane001",
			"scale":[
				0.009999999776482582,
				0.009999999776482582,
				0.009999999776482582
			],
			"translation":[
				1.1030256748199463,
				0,
				0.011955718509852886
			]
		},
		{
			"mesh":5,
			"name":"Box001",
			"scale":[
				0.009999999776482582,
				0.009999999776482582,
				0.009999999776482582
			],
			"translation":[
				0.913343608379364,
				0,
				0.4871513247489929
			]
		},
		{
			"mesh":6,
			"name":"Box002",
			"rotation":[
				0,
				0.7071067094802856,
				0,
				0.7071068286895752
			],
			"scale":[
				0.009999999776482582,
				0.009999999776482582,
				0.009999999776482582
			],
			"translation":[
				-0.624143660068512,
				0,
				-0.04615890234708786
			]
		},
		{
			"name":"PhysCamera001",
			"rotation":[
				0.003138623433187604,
				-0.6946519017219543,
				0.7193328142166138,
				0.0030307078268378973
			],
			"scale":[
				0.010000002570450306,
				0.010000000707805157,
				0.009999998845160007
			],
			"translation":[
				0.5485521554946899,
				0.7036473155021667,
				-4.5335845947265625
			]
		},
		{
			"name":"PhysCamera001.Target",
			"rotation":[
				0.003138428321108222,
				-0.6946519017219543,
				0.7193328142166138,
				0.0030308510176837444
			],
			"scale":[
				0.009999999776482582,
				0.009999999776482582,
				0.009999999776482582
			],
			"translation":[
				0.5887523889541626,
				0.8645240664482117,
				0.07321350276470184
			]
		},
		{
			"name":"OctaneLight_013",
			"rotation":[
				0.5963677167892456,
				-0.37992823123931885,
				0.37992823123931885,
				0.5963678359985352
			],
			"scale":[
				0.009999999776482582,
				0.009999999776482582,
				0.009999999776482582
			],
			"translation":[
				2.275118589401245,
				1.0522798299789429,
				-0.8340146541595459
			]
		},
		{
			"name":"OctaneLight_014",
			"rotation":[
				0.6743797063827515,
				0.2126309722661972,
				-0.21263092756271362,
				0.674379825592041
			],
			"scale":[
				0.009999999776482582,
				0.009999999776482582,
				0.009999999776482582
			],
			"translation":[
				-0.13481932878494263,
				1.4616832733154297,
				-3.8946306705474854
			]
		},
		{
			"name":"OctaneLight_015",
			"rotation":[
				0,
				0,
				-1,
				7.549790126404332e-08
			],
			"scale":[
				0.009999999776482582,
				0.009999999776482582,
				0.009999999776482582
			],
			"translation":[
				-0.33672279119491577,
				2.7072558403015137,
				-1.214802622795105
			]
		},
		{
			"name":"OctaneLight_016",
			"rotation":[
				0,
				0,
				-1,
				7.549790126404332e-08
			],
			"scale":[
				0.009999999776482582,
				0.009999999776482582,
				0.009999999776482582
			],
			"translation":[
				0.007743606343865395,
				2.7072558403015137,
				-1.214802622795105
			]
		},
		{
			"name":"OctaneLight_017",
			"rotation":[
				0,
				0,
				-1,
				7.549790126404332e-08
			],
			"scale":[
				0.009999999776482582,
				0.009999999776482582,
				0.009999999776482582
			],
			"translation":[
				0.35220998525619507,
				2.7072558403015137,
				-1.214802622795105
			]
		},
		{
			"name":"OctaneLight_018",
			"rotation":[
				0,
				0,
				-1,
				7.549790126404332e-08
			],
			"scale":[
				0.009999999776482582,
				0.009999999776482582,
				0.009999999776482582
			],
			"translation":[
				0.6966763734817505,
				2.7072558403015137,
				-1.214802622795105
			]
		},
		{
			"name":"OctaneLight_019",
			"rotation":[
				0,
				0,
				-1,
				7.549790126404332e-08
			],
			"scale":[
				0.009999999776482582,
				0.009999999776482582,
				0.009999999776482582
			],
			"translation":[
				1.0411428213119507,
				2.7072558403015137,
				-1.214802622795105
			]
		},
		{
			"name":"OctaneLight_020",
			"rotation":[
				0,
				0,
				-1,
				7.549790126404332e-08
			],
			"scale":[
				0.009999999776482582,
				0.009999999776482582,
				0.009999999776482582
			],
			"translation":[
				1.3856091499328613,
				2.7072558403015137,
				-1.214802622795105
			]
		},
		{
			"name":"OctaneLight_021",
			"rotation":[
				0,
				0,
				-1,
				7.549790126404332e-08
			],
			"scale":[
				0.009999999776482582,
				0.009999999776482582,
				0.009999999776482582
			],
			"translation":[
				1.730075478553772,
				2.7072558403015137,
				-1.214802622795105
			]
		},
		{
			"name":"OctaneLight_022",
			"rotation":[
				0,
				0,
				-1,
				7.549790126404332e-08
			],
			"scale":[
				0.009999999776482582,
				0.009999999776482582,
				0.009999999776482582
			],
			"translation":[
				2.0745418071746826,
				2.7072558403015137,
				-1.214802622795105
			]
		},
		{
			"name":"OctaneLight_023",
			"rotation":[
				0,
				0,
				-1,
				7.549790126404332e-08
			],
			"scale":[
				0.009999999776482582,
				0.009999999776482582,
				0.009999999776482582
			],
			"translation":[
				2.419008255004883,
				2.7072558403015137,
				-1.214802622795105
			]
		}
	],
	"animations":[
		{
			"channels":[
				{
					"sampler":0,
					"target":{
						"node":9,
						"path":"translation"
					}
				},
				{
					"sampler":1,
					"target":{
						"node":9,
						"path":"rotation"
					}
				},
				{
					"sampler":2,
					"target":{
						"node":9,
						"path":"scale"
					}
				}
			],
			"name":"PhysCamera001|Take 001|BaseLayer",
			"samplers":[
				{
					"input":26,
					"interpolation":"STEP",
					"output":27
				},
				{
					"input":26,
					"interpolation":"STEP",
					"output":28
				},
				{
					"input":26,
					"interpolation":"STEP",
					"output":29
				}
			]
		}
	],
	"materials":[
		{
			"doubleSided":true,
			"extensions":{
				"KHR_materials_specular":{
					"specularColorFactor":[
						2.0,
						2.0,
						2.0
					]
				},
				"KHR_materials_ior":{
					"ior":1.4500000476837158
				}
			},
			"name":"ROSE GOLD",
			"pbrMetallicRoughness":{
				"baseColorFactor":[
					0,
					0,
					0,
					1
				],
				"metallicFactor":0,
				"roughnessFactor":0.5527864098548889
			}
		},
		{
			"doubleSided":true,
			"extensions":{
				"KHR_materials_specular":{
					"specularColorFactor":[
						2.0,
						2.0,
						2.0
					]
				},
				"KHR_materials_ior":{
					"ior":1.4500000476837158
				}
			},
			"name":"CORD",
			"pbrMetallicRoughness":{
				"baseColorFactor":[
					0,
					0,
					0,
					1
				],
				"metallicFactor":0,
				"roughnessFactor":0.5527864098548889
			}
		},
		{
			"doubleSided":true,
			"extensions":{
				"KHR_materials_specular":{
					"specularColorFactor":[
						2.0,
						2.0,
						2.0
					]
				},
				"KHR_materials_ior":{
					"ior":1.4500000476837158
				}
			},
			"name":"Material #2766489",
			"pbrMetallicRoughness":{
				"baseColorFactor":[
					0.003921568859368563,
					0.003921568859368563,
					0.003921568859368563,
					1
				],
				"metallicFactor":0,
				"roughnessFactor":0.5527864098548889
			}
		},
		{
			"doubleSided":true,
			"extensions":{
				"KHR_materials_specular":{
					"specularColorFactor":[
						2.0,
						2.0,
						2.0
					]
				},
				"KHR_materials_ior":{
					"ior":1.4500000476837158
				}
			},
			"name":"Material #2766486",
			"pbrMetallicRoughness":{
				"baseColorFactor":[
					0.09803922474384308,
					0.09803922474384308,
					0.09803922474384308,
					1
				],
				"metallicFactor":0,
				"roughnessFactor":0.5527864098548889
			}
		}
	],
	"meshes":[
		{
			"name":"Mesh.001",
			"primitives":[
				{
					"attributes":{
						"POSITION":0,
						"NORMAL":1,
						"TEXCOORD_0":2
					},
					"indices":3,
					"material":0
				}
			]
		},
		{
			"name":"Mesh",
			"primitives":[
				{
					"attributes":{
						"POSITION":4,
						"NORMAL":5,
						"TEXCOORD_0":6
					},
					"indices":7,
					"material":0
				}
			]
		},
		{
			"name":"Mesh.003",
			"primitives":[
				{
					"attributes":{
						"POSITION":8,
						"NORMAL":9,
						"TEXCOORD_0":10
					},
					"indices":11,
					"material":0
				}
			]
		},
		{
			"name":"Mesh.002",
			"primitives":[
				{
					"attributes":{
						"POSITION":12,
						"NORMAL":13
					},
					"indices":14,
					"material":1
				}
			]
		},
		{
			"name":"Mesh.004",
			"primitives":[
				{
					"attributes":{
						"POSITION":15,
						"NORMAL":16,
						"TEXCOORD_0":17
					},
					"indices":18,
					"material":2
				}
			]
		},
		{
			"name":"Mesh.005",
			"primitives":[
				{
					"attributes":{
						"POSITION":19,
						"NORMAL":20,
						"TEXCOORD_0":21
					},
					"indices":22,
					"material":3
				}
			]
		},
		{
			"name":"Mesh.006",
			"primitives":[
				{
					"attributes":{
						"POSITION":23,
						"NORMAL":24,
						"TEXCOORD_0":25
					},
					"indices":22,
					"material":3
				}
			]
		}
	],
	"accessors":[
		{
			"bufferView":0,
			"componentType":5126,
			"count":1540,
			"max":[
				11.869247436523438,
				2.0221669673919678,
				11.864033699035645
			],
			"min":[
				-11.848402976989746,
				0,
				-11.864034652709961
			],
			"type":"VEC3"
		},
		{
			"bufferView":1,
			"componentType":5126,
			"count":1540,
			"type":"VEC3"
		},
		{
			"bufferView":2,
			"componentType":5126,
			"count":1540,
			"type":"VEC2"
		},
		{
			"bufferView":3,
			"componentType":5123,
			"count":4758,
			"type":"SCALAR"
		},
		{
			"bufferView":4,
			"componentType":5126,
			"count":3038,
			"max":[
				33.879024505615234,
				-32.58701705932617,
				-0.03238370642066002
			],
			"min":[
				33.35190200805664,
				-32.9036750793457,
				-1.3208510875701904
			],
			"type":"VEC3"
		},
		{
			"bufferView":5,
			"componentType":5126,
			"count":3038,
			"type":"VEC3"
		},
		{
			"bufferView":6,
			"componentType":5126,
			"count":3038,
			"type":"VEC2"
		},
		{
			"bufferView":7,
			"componentType":5123,
			"count":4677,
			"type":"SCALAR"
		},
		{
			"bufferView":8,
			"componentType":5126,
			"count":560,
			"max":[
				16.286598205566406,
				16.286598205566406,
				16.286598205566406
			],
			"min":[
				-16.286598205566406,
				-2.842817783355713,
				-16.286598205566406
			],
			"type":"VEC3"
		},
		{
			"bufferView":9,
			"componentType":5126,
			"count":560,
			"type":"VEC3"
		},
		{
			"bufferView":10,
			"componentType":5126,
			"count":560,
			"type":"VEC2"
		},
		{
			"bufferView":11,
			"componentType":5123,
			"count":2976,
			"type":"SCALAR"
		},
		{
			"bufferView":12,
			"componentType":5126,
			"count":990,
			"max":[
				21.512887954711914,
				1.0729303359985352,
				13.442838668823242
			],
			"min":[
				-28.019500732421875,
				-0.3346312344074249,
				-20.656391143798828
			],
			"type":"VEC3"
		},
		{
			"bufferView":13,
			"componentType":5126,
			"count":990,
			"type":"VEC3"
		},
		{
			"bufferView":14,
			"componentType":5123,
			"count":5748,
			"type":"SCALAR"
		},
		{
			"bufferView":15,
			"componentType":5126,
			"count":25,
			"max":[
				234.96817016601562,
				0,
				149.9183349609375
			],
			"min":[
				-234.96817016601562,
				0,
				-149.9183349609375
			],
			"type":"VEC3"
		},
		{
			"bufferView":16,
			"componentType":5126,
			"count":25,
			"type":"VEC3"
		},
		{
			"bufferView":17,
			"componentType":5126,
			"count":25,
			"type":"VEC2"
		},
		{
			"bufferView":18,
			"componentType":5123,
			"count":96,
			"type":"SCALAR"
		},
		{
			"bufferView":19,
			"componentType":5126,
			"count":24,
			"max":[
				214.77828979492188,
				275.6578369140625,
				4.079902648925781
			],
			"min":[
				-214.77828979492188,
				0,
				-4.079902648925781
			],
			"type":"VEC3"
		},
		{
			"bufferView":20,
			"componentType":5126,
			"count":24,
			"type":"VEC3"
		},
		{
			"bufferView":21,
			"componentType":5126,
			"count":24,
			"type":"VEC2"
		},
		{
			"bufferView":22,
			"componentType":5123,
			"count":36,
			"type":"SCALAR"
		},
		{
			"bufferView":23,
			"componentType":5126,
			"count":24,
			"max":[
				214.77828979492188,
				275.6578369140625,
				4.079902648925781
			],
			"min":[
				-214.77828979492188,
				0,
				-4.079902648925781
			],
			"type":"VEC3"
		},
		{
			"bufferView":24,
			"componentType":5126,
			"count":24,
			"type":"VEC3"
		},
		{
			"bufferView":25,
			"componentType":5126,
			"count":24,
			"type":"VEC2"
		},
		{
			"bufferView":26,
			"componentType":5126,
			"count":2,
			"max":[
				3.3666666666666667
			],
			"min":[
				0.03333333333333333
			],
			"type":"SCALAR"
		},
		{
			"bufferView":27,
			"componentType":5126,
			"count":2,
			"type":"VEC3"
		},
		{
			"bufferView":28,
			"componentType":5126,
			"count":2,
			"type":"VEC4"
		},
		{
			"bufferView":29,
			"componentType":5126,
			"count":2,
			"type":"VEC3"
		}
	],
	"bufferViews":[
		{
			"buffer":0,
			"byteLength":18480,
			"byteOffset":0,
			"target":34962
		},
		{
			"buffer":0,
			"byteLength":18480,
			"byteOffset":18480,
			"target":34962
		},
		{
			"buffer":0,
			"byteLength":12320,
			"byteOffset":36960,
			"target":34962
		},
		{
			"buffer":0,
			"byteLength":9516,
			"byteOffset":49280,
			"target":34963
		},
		{
			"buffer":0,
			"byteLength":36456,
			"byteOffset":58796,
			"target":34962
		},
		{
			"buffer":0,
			"byteLength":36456,
			"byteOffset":95252,
			"target":34962
		},
		{
			"buffer":0,
			"byteLength":24304,
			"byteOffset":131708,
			"target":34962
		},
		{
			"buffer":0,
			"byteLength":9354,
			"byteOffset":156012,
			"target":34963
		},
		{
			"buffer":0,
			"byteLength":6720,
			"byteOffset":165368,
			"target":34962
		},
		{
			"buffer":0,
			"byteLength":6720,
			"byteOffset":172088,
			"target":34962
		},
		{
			"buffer":0,
			"byteLength":4480,
			"byteOffset":178808,
			"target":34962
		},
		{
			"buffer":0,
			"byteLength":5952,
			"byteOffset":183288,
			"target":34963
		},
		{
			"buffer":0,
			"byteLength":11880,
			"byteOffset":189240,
			"target":34962
		},
		{
			"buffer":0,
			"byteLength":11880,
			"byteOffset":201120,
			"target":34962
		},
		{
			"buffer":0,
			"byteLength":11496,
			"byteOffset":213000,
			"target":34963
		},
		{
			"buffer":0,
			"byteLength":300,
			"byteOffset":224496,
			"target":34962
		},
		{
			"buffer":0,
			"byteLength":300,
			"byteOffset":224796,
			"target":34962
		},
		{
			"buffer":0,
			"byteLength":200,
			"byteOffset":225096,
			"target":34962
		},
		{
			"buffer":0,
			"byteLength":192,
			"byteOffset":225296,
			"target":34963
		},
		{
			"buffer":0,
			"byteLength":288,
			"byteOffset":225488,
			"target":34962
		},
		{
			"buffer":0,
			"byteLength":288,
			"byteOffset":225776,
			"target":34962
		},
		{
			"buffer":0,
			"byteLength":192,
			"byteOffset":226064,
			"target":34962
		},
		{
			"buffer":0,
			"byteLength":72,
			"byteOffset":226256,
			"target":34963
		},
		{
			"buffer":0,
			"byteLength":288,
			"byteOffset":226328,
			"target":34962
		},
		{
			"buffer":0,
			"byteLength":288,
			"byteOffset":226616,
			"target":34962
		},
		{
			"buffer":0,
			"byteLength":192,
			"byteOffset":226904,
			"target":34962
		},
		{
			"buffer":0,
			"byteLength":8,
			"byteOffset":227096
		},
		{
			"buffer":0,
			"byteLength":24,
			"byteOffset":227104
		},
		{
			"buffer":0,
			"byteLength":32,
			"byteOffset":227128
		},
		{
			"buffer":0,
			"byteLength":24,
			"byteOffset":227160
		}
	],
	"buffers":[
		{
			"byteLength":227184,
			"uri":"lampWithWalls.bin"
		}
	]
}
