{
	"asset":{
		"generator":"Khronos glTF Blender I/O v4.0.44",
		"version":"2.0"
	},
	"extensionsUsed":[
		"KHR_materials_specular",
		"KHR_materials_ior"
	],
	"scene":0,
	"scenes":[
		{
			"name":"Scene",
			"nodes":[
				4,
				5,
				6,
				7,
				8,
				9,
				10,
				11,
				12,
				13,
				14,
				15,
				16
			]
		}
	],
	"nodes":[
		{
			"mesh":0,
			"name":"Cylinder001",
			"scale":[
				1.8392618894577026,
				1.3605220317840576,
				1.8392618894577026
			],
			"translation":[
				9.194334983825684,
				-84.14147186279297,
				1.9680700302124023
			]
		},
		{
			"mesh":1,
			"name":"Lamp Base",
			"rotation":[
				0.698678195476532,
				0.12685419619083405,
				-0.13079999387264252,
				0.6918440461158752
			],
			"scale":[
				100.00032043457031,
				100.00225830078125,
				129.01510620117188
			],
			"translation":[
				-1949.5242919921875,
				-108.19557189941406,
				4252.06884765625
			]
		},
		{
			"mesh":2,
			"name":"Lamp Head",
			"rotation":[
				0.20571692287921906,
				-0.3473430871963501,
				0.06238027662038803,
				0.9127662777900696
			],
			"scale":[
				0.8447189927101135,
				0.8447189927101135,
				0.8447199463844299
			],
			"translation":[
				38.32112121582031,
				45.121585845947266,
				-36.00502395629883
			]
		},
		{
			"name":"OctaneLight_012",
			"rotation":[
				0.4605455994606018,
				-0.36706265807151794,
				0.5074664354324341,
				0.6289997100830078
			],
			"translation":[
				35.446044921875,
				53.05293655395508,
				-34.030029296875
			]
		},
		{
			"children":[
				0,
				1,
				2,
				3
			],
			"name":"LAMP",
			"scale":[
				0.009999999776482582,
				0.009999999776482582,
				0.009999999776482582
			],
			"translation":[
				-0.20847590267658234,
				0.8418211936950684,
				-0.10017989575862885
			]
		},
		{
			"name":"PhysCamera001",
			"rotation":[
				0.003138623433187604,
				-0.6946519017219543,
				0.7193328142166138,
				0.0030307078268378973
			],
			"scale":[
				0.010000002570450306,
				0.010000000707805157,
				0.009999998845160007
			],
			"translation":[
				0.5485521554946899,
				0.7036473155021667,
				-4.5335845947265625
			]
		},
		{
			"name":"OctaneLight_013",
			"rotation":[
				0.5963677167892456,
				-0.37992823123931885,
				0.37992823123931885,
				0.5963678359985352
			],
			"scale":[
				0.009999999776482582,
				0.009999999776482582,
				0.009999999776482582
			],
			"translation":[
				2.275118589401245,
				1.0522798299789429,
				-0.8340146541595459
			]
		},
		{
			"name":"OctaneLight_014",
			"rotation":[
				0.6743797063827515,
				0.2126309722661972,
				-0.21263092756271362,
				0.674379825592041
			],
			"scale":[
				0.009999999776482582,
				0.009999999776482582,
				0.009999999776482582
			],
			"translation":[
				-0.13481932878494263,
				1.4616832733154297,
				-3.8946306705474854
			]
		},
		{
			"name":"OctaneLight_015",
			"rotation":[
				0,
				0,
				-1,
				7.549790126404332e-08
			],
			"scale":[
				0.009999999776482582,
				0.009999999776482582,
				0.009999999776482582
			],
			"translation":[
				-0.33672279119491577,
				2.7072558403015137,
				-1.214802622795105
			]
		},
		{
			"name":"OctaneLight_016",
			"rotation":[
				0,
				0,
				-1,
				7.549790126404332e-08
			],
			"scale":[
				0.009999999776482582,
				0.009999999776482582,
				0.009999999776482582
			],
			"translation":[
				0.007743606343865395,
				2.7072558403015137,
				-1.214802622795105
			]
		},
		{
			"name":"OctaneLight_017",
			"rotation":[
				0,
				0,
				-1,
				7.549790126404332e-08
			],
			"scale":[
				0.009999999776482582,
				0.009999999776482582,
				0.009999999776482582
			],
			"translation":[
				0.35220998525619507,
				2.7072558403015137,
				-1.214802622795105
			]
		},
		{
			"name":"OctaneLight_018",
			"rotation":[
				0,
				0,
				-1,
				7.549790126404332e-08
			],
			"scale":[
				0.009999999776482582,
				0.009999999776482582,
				0.009999999776482582
			],
			"translation":[
				0.6966763734817505,
				2.7072558403015137,
				-1.214802622795105
			]
		},
		{
			"name":"OctaneLight_019",
			"rotation":[
				0,
				0,
				-1,
				7.549790126404332e-08
			],
			"scale":[
				0.009999999776482582,
				0.009999999776482582,
				0.009999999776482582
			],
			"translation":[
				1.0411428213119507,
				2.7072558403015137,
				-1.214802622795105
			]
		},
		{
			"name":"OctaneLight_020",
			"rotation":[
				0,
				0,
				-1,
				7.549790126404332e-08
			],
			"scale":[
				0.009999999776482582,
				0.009999999776482582,
				0.009999999776482582
			],
			"translation":[
				1.3856091499328613,
				2.7072558403015137,
				-1.214802622795105
			]
		},
		{
			"name":"OctaneLight_021",
			"rotation":[
				0,
				0,
				-1,
				7.549790126404332e-08
			],
			"scale":[
				0.009999999776482582,
				0.009999999776482582,
				0.009999999776482582
			],
			"translation":[
				1.730075478553772,
				2.7072558403015137,
				-1.214802622795105
			]
		},
		{
			"name":"OctaneLight_022",
			"rotation":[
				0,
				0,
				-1,
				7.549790126404332e-08
			],
			"scale":[
				0.009999999776482582,
				0.009999999776482582,
				0.009999999776482582
			],
			"translation":[
				2.0745418071746826,
				2.7072558403015137,
				-1.214802622795105
			]
		},
		{
			"name":"OctaneLight_023",
			"rotation":[
				0,
				0,
				-1,
				7.549790126404332e-08
			],
			"scale":[
				0.009999999776482582,
				0.009999999776482582,
				0.009999999776482582
			],
			"translation":[
				2.419008255004883,
				2.7072558403015137,
				-1.214802622795105
			]
		}
	],
	"animations":[
		{
			"channels":[
				{
					"sampler":0,
					"target":{
						"node":5,
						"path":"translation"
					}
				},
				{
					"sampler":1,
					"target":{
						"node":5,
						"path":"rotation"
					}
				},
				{
					"sampler":2,
					"target":{
						"node":5,
						"path":"scale"
					}
				}
			],
			"name":"PhysCamera001|Take 001|BaseLayer",
			"samplers":[
				{
					"input":12,
					"interpolation":"STEP",
					"output":13
				},
				{
					"input":12,
					"interpolation":"STEP",
					"output":14
				},
				{
					"input":12,
					"interpolation":"STEP",
					"output":15
				}
			]
		}
	],
	"materials":[
		{
			"doubleSided":true,
			"extensions":{
				"KHR_materials_specular":{
					"specularColorFactor":[
						2.0,
						2.0,
						2.0
					]
				},
				"KHR_materials_ior":{
					"ior":1.4500000476837158
				}
			},
			"name":"ROSE GOLD",
			"pbrMetallicRoughness":{
				"baseColorFactor":[
					0,
					0,
					0,
					1
				],
				"metallicFactor":0,
				"roughnessFactor":0.5527864098548889
			}
		}
	],
	"meshes":[
		{
			"name":"Mesh.001",
			"primitives":[
				{
					"attributes":{
						"POSITION":0,
						"NORMAL":1,
						"TEXCOORD_0":2
					},
					"indices":3,
					"material":0
				}
			]
		},
		{
			"name":"Mesh",
			"primitives":[
				{
					"attributes":{
						"POSITION":4,
						"NORMAL":5,
						"TEXCOORD_0":6
					},
					"indices":7,
					"material":0
				}
			]
		},
		{
			"name":"Mesh.003",
			"primitives":[
				{
					"attributes":{
						"POSITION":8,
						"NORMAL":9,
						"TEXCOORD_0":10
					},
					"indices":11,
					"material":0
				}
			]
		}
	],
	"accessors":[
		{
			"bufferView":0,
			"componentType":5126,
			"count":1540,
			"max":[
				11.869247436523438,
				2.0221669673919678,
				11.864033699035645
			],
			"min":[
				-11.848402976989746,
				0,
				-11.864034652709961
			],
			"type":"VEC3"
		},
		{
			"bufferView":1,
			"componentType":5126,
			"count":1540,
			"type":"VEC3"
		},
		{
			"bufferView":2,
			"componentType":5126,
			"count":1540,
			"type":"VEC2"
		},
		{
			"bufferView":3,
			"componentType":5123,
			"count":4758,
			"type":"SCALAR"
		},
		{
			"bufferView":4,
			"componentType":5126,
			"count":3038,
			"max":[
				33.879024505615234,
				-32.58701705932617,
				-0.03238370642066002
			],
			"min":[
				33.35190200805664,
				-32.9036750793457,
				-1.3208510875701904
			],
			"type":"VEC3"
		},
		{
			"bufferView":5,
			"componentType":5126,
			"count":3038,
			"type":"VEC3"
		},
		{
			"bufferView":6,
			"componentType":5126,
			"count":3038,
			"type":"VEC2"
		},
		{
			"bufferView":7,
			"componentType":5123,
			"count":4677,
			"type":"SCALAR"
		},
		{
			"bufferView":8,
			"componentType":5126,
			"count":560,
			"max":[
				16.286598205566406,
				16.286598205566406,
				16.286598205566406
			],
			"min":[
				-16.286598205566406,
				-2.842817783355713,
				-16.286598205566406
			],
			"type":"VEC3"
		},
		{
			"bufferView":9,
			"componentType":5126,
			"count":560,
			"type":"VEC3"
		},
		{
			"bufferView":10,
			"componentType":5126,
			"count":560,
			"type":"VEC2"
		},
		{
			"bufferView":11,
			"componentType":5123,
			"count":2976,
			"type":"SCALAR"
		},
		{
			"bufferView":12,
			"componentType":5126,
			"count":2,
			"max":[
				3.3666666666666667
			],
			"min":[
				0.03333333333333333
			],
			"type":"SCALAR"
		},
		{
			"bufferView":13,
			"componentType":5126,
			"count":2,
			"type":"VEC3"
		},
		{
			"bufferView":14,
			"componentType":5126,
			"count":2,
			"type":"VEC4"
		},
		{
			"bufferView":15,
			"componentType":5126,
			"count":2,
			"type":"VEC3"
		}
	],
	"bufferViews":[
		{
			"buffer":0,
			"byteLength":18480,
			"byteOffset":0,
			"target":34962
		},
		{
			"buffer":0,
			"byteLength":18480,
			"byteOffset":18480,
			"target":34962
		},
		{
			"buffer":0,
			"byteLength":12320,
			"byteOffset":36960,
			"target":34962
		},
		{
			"buffer":0,
			"byteLength":9516,
			"byteOffset":49280,
			"target":34963
		},
		{
			"buffer":0,
			"byteLength":36456,
			"byteOffset":58796,
			"target":34962
		},
		{
			"buffer":0,
			"byteLength":36456,
			"byteOffset":95252,
			"target":34962
		},
		{
			"buffer":0,
			"byteLength":24304,
			"byteOffset":131708,
			"target":34962
		},
		{
			"buffer":0,
			"byteLength":9354,
			"byteOffset":156012,
			"target":34963
		},
		{
			"buffer":0,
			"byteLength":6720,
			"byteOffset":165368,
			"target":34962
		},
		{
			"buffer":0,
			"byteLength":6720,
			"byteOffset":172088,
			"target":34962
		},
		{
			"buffer":0,
			"byteLength":4480,
			"byteOffset":178808,
			"target":34962
		},
		{
			"buffer":0,
			"byteLength":5952,
			"byteOffset":183288,
			"target":34963
		},
		{
			"buffer":0,
			"byteLength":8,
			"byteOffset":189240
		},
		{
			"buffer":0,
			"byteLength":24,
			"byteOffset":189248
		},
		{
			"buffer":0,
			"byteLength":32,
			"byteOffset":189272
		},
		{
			"buffer":0,
			"byteLength":24,
			"byteOffset":189304
		}
	],
	"buffers":[
		{
			"byteLength":189328,
			"uri":"lamp.bin"
		}
	]
}
