{
	"asset":{
		"generator":"Khronos glTF Blender I/O v4.0.44",
		"version":"2.0"
	},
	"scene":0,
	"scenes":[
		{
			"name":"Scene",
			"nodes":[
				2,
				5
			]
		}
	],
	"nodes":[
		{
			"mesh":0,
			"name":"Object_18",
			"scale":[
				2,
				1,
				1
			]
		},
		{
			"children":[
				0
			],
			"name":"vibe1.obj.cleaner.materialmerger.gles"
		},
		{
			"children":[
				1
			],
			"name":"Sketchfab_model",
			"rotation":[
				-0.70710688829422,
				0,
				0,
				0.7071066498756409
			],
			"scale":[
				0.0022375774569809437,
				0.0014098657993599772,
				0.0014248924562707543
			]
		},
		{
			"name":"GLTF_SceneRootNode.002",
			"rotation":[
				0.70710688829422,
				0,
				0,
				0.7071066498756409
			]
		},
		{
			"children":[
				3
			],
			"name":"root.002"
		},
		{
			"children":[
				4
			],
			"name":"Sketchfab_model.003",
			"rotation":[
				-0.4457142651081085,
				-0.437649667263031,
				-0.5471145510673523,
				0.5571959018707275
			],
			"scale":[
				0.45056572556495667,
				0.20575100183486938,
				0.2216300666332245
			],
			"translation":[
				-1.7965466976165771,
				1.5810872316360474,
				-1.4350217580795288
			]
		}
	],
	"materials":[
		{
			"doubleSided":true,
			"emissiveFactor":[
				0.19999998807907104,
				0.19999998807907104,
				0.19999998807907104
			],
			"name":"wire_229166215",
			"pbrMetallicRoughness":{
				"baseColorTexture":{
					"index":0
				},
				"metallicFactor":0,
				"roughnessFactor":0.2800000011920929
			}
		}
	],
	"meshes":[
		{
			"name":"Object_16.002",
			"primitives":[
				{
					"attributes":{
						"POSITION":0,
						"NORMAL":1,
						"TEXCOORD_0":2
					},
					"indices":3,
					"material":0
				}
			]
		}
	],
	"textures":[
		{
			"sampler":0,
			"source":0
		}
	],
	"images":[
		{
			"mimeType":"image/jpeg",
			"name":"marble",
			"uri":"marble.jpg"
		}
	],
	"accessors":[
		{
			"bufferView":0,
			"componentType":5126,
			"count":907,
			"max":[
				893.5330200195312,
				704.9334716796875,
				1043.3175048828125
			],
			"min":[
				-895.380126953125,
				-90.13919830322266,
				9.232000350952148
			],
			"type":"VEC3"
		},
		{
			"bufferView":1,
			"componentType":5126,
			"count":907,
			"type":"VEC3"
		},
		{
			"bufferView":2,
			"componentType":5126,
			"count":907,
			"type":"VEC2"
		},
		{
			"bufferView":3,
			"componentType":5123,
			"count":3984,
			"type":"SCALAR"
		}
	],
	"bufferViews":[
		{
			"buffer":0,
			"byteLength":10884,
			"byteOffset":0,
			"target":34962
		},
		{
			"buffer":0,
			"byteLength":10884,
			"byteOffset":10884,
			"target":34962
		},
		{
			"buffer":0,
			"byteLength":7256,
			"byteOffset":21768,
			"target":34962
		},
		{
			"buffer":0,
			"byteLength":7968,
			"byteOffset":29024,
			"target":34963
		}
	],
	"samplers":[
		{
			"magFilter":9729,
			"minFilter":9987
		}
	],
	"buffers":[
		{
			"byteLength":36992,
			"uri":"makeuptable.bin"
		}
	]
}
