{
	"asset":{
		"generator":"Khronos glTF Blender I/O v4.0.44",
		"version":"2.0"
	},
	"scene":0,
	"scenes":[
		{
			"name":"Scene",
			"nodes":[
				10
			]
		}
	],
	"nodes":[
		{
			"mesh":0,
			"name":"Cone_Cone_0"
		},
		{
			"children":[
				0
			],
			"name":"Cone"
		},
		{
			"mesh":1,
			"name":"Lipstick_colour_Lipstick_colour_0"
		},
		{
			"children":[
				2
			],
			"name":"Lipstick_colour"
		},
		{
			"mesh":2,
			"name":"Rectangle_Rectangle_0"
		},
		{
			"children":[
				4
			],
			"name":"Rectangle"
		},
		{
			"mesh":3,
			"name":"Rectangle1_Rectangle1_0"
		},
		{
			"children":[
				6
			],
			"name":"Rectangle1"
		},
		{
			"children":[
				1,
				3,
				5,
				7
			],
			"name":"RootNode"
		},
		{
			"children":[
				8
			],
			"name":"Rectangle.fbx",
			"rotation":[
				0.70710688829422,
				0,
				0,
				0.7071066498756409
			],
			"scale":[
				0.009999999776482582,
				0.010000000707805157,
				0.010000000707805157
			]
		},
		{
			"children":[
				9
			],
			"name":"Sketchfab_model",
			"rotation":[
				-0.70710688829422,
				0,
				0,
				0.7071066498756409
			],
			"scale":[
				10,
				10.000000953674316,
				10.000000953674316
			]
		}
	],
	"materials":[
		{
			"doubleSided":true,
			"name":"Cone",
			"pbrMetallicRoughness":{
				"baseColorTexture":{
					"index":0
				},
				"metallicRoughnessTexture":{
					"index":1
				}
			}
		},
		{
			"doubleSided":true,
			"emissiveFactor":[
				1,
				1,
				1
			],
			"emissiveTexture":{
				"index":2
			},
			"name":"Lipstick_colour",
			"normalTexture":{
				"index":3
			},
			"pbrMetallicRoughness":{
				"baseColorTexture":{
					"index":4
				},
				"metallicRoughnessTexture":{
					"index":5
				}
			}
		},
		{
			"doubleSided":true,
			"name":"Rectangle",
			"normalTexture":{
				"index":6
			},
			"pbrMetallicRoughness":{
				"baseColorTexture":{
					"index":7
				},
				"metallicRoughnessTexture":{
					"index":8
				},
				"roughnessFactor":0.7374110221862793
			}
		},
		{
			"doubleSided":true,
			"name":"Rectangle1",
			"normalTexture":{
				"index":9
			},
			"pbrMetallicRoughness":{
				"baseColorTexture":{
					"index":10
				},
				"metallicRoughnessTexture":{
					"index":11
				},
				"roughnessFactor":0.7369999885559082
			}
		}
	],
	"meshes":[
		{
			"name":"Cone_Cone_0",
			"primitives":[
				{
					"attributes":{
						"POSITION":0,
						"NORMAL":1,
						"TEXCOORD_0":2
					},
					"indices":3,
					"material":0
				}
			]
		},
		{
			"name":"Lipstick_colour_Lipstick_colour_0",
			"primitives":[
				{
					"attributes":{
						"POSITION":4,
						"NORMAL":5,
						"TEXCOORD_0":6
					},
					"indices":7,
					"material":1
				}
			]
		},
		{
			"name":"Rectangle_Rectangle_0",
			"primitives":[
				{
					"attributes":{
						"POSITION":8,
						"NORMAL":9,
						"TEXCOORD_0":10
					},
					"indices":11,
					"material":2
				}
			]
		},
		{
			"name":"Rectangle1_Rectangle1_0",
			"primitives":[
				{
					"attributes":{
						"POSITION":12,
						"NORMAL":13,
						"TEXCOORD_0":14
					},
					"indices":15,
					"material":3
				}
			]
		}
	],
	"textures":[
		{
			"sampler":0,
			"source":0
		},
		{
			"sampler":0,
			"source":1
		},
		{
			"sampler":0,
			"source":2
		},
		{
			"sampler":0,
			"source":3
		},
		{
			"sampler":0,
			"source":4
		},
		{
			"sampler":0,
			"source":5
		},
		{
			"sampler":0,
			"source":6
		},
		{
			"sampler":0,
			"source":7
		},
		{
			"sampler":0,
			"source":8
		},
		{
			"sampler":0,
			"source":9
		},
		{
			"sampler":0,
			"source":10
		},
		{
			"sampler":0,
			"source":11
		}
	],
	"images":[
		{
			"mimeType":"image/jpeg",
			"name":"Cone_baseColor",
			"uri":"Cone_baseColor.jpg"
		},
		{
			"mimeType":"image/png",
			"name":"Cone_metallicRoughness",
			"uri":"Cone_metallicRoughness.png"
		},
		{
			"mimeType":"image/jpeg",
			"name":"Lipstick_colour_emissive",
			"uri":"Lipstick_colour_emissive.jpg"
		},
		{
			"mimeType":"image/png",
			"name":"Lipstick_colour_normal",
			"uri":"Lipstick_colour_normal.png"
		},
		{
			"mimeType":"image/jpeg",
			"name":"Lipstick_colour_baseColor",
			"uri":"Lipstick_colour_baseColor.jpg"
		},
		{
			"mimeType":"image/png",
			"name":"Lipstick_colour_metallicRoughness",
			"uri":"Lipstick_colour_metallicRoughness.png"
		},
		{
			"mimeType":"image/png",
			"name":"Rectangle_normal",
			"uri":"Rectangle_normal.png"
		},
		{
			"mimeType":"image/jpeg",
			"name":"Rectangle_baseColor",
			"uri":"Rectangle_baseColor.jpg"
		},
		{
			"mimeType":"image/png",
			"name":"Rectangle_metallicRoughness",
			"uri":"Rectangle_metallicRoughness.png"
		},
		{
			"mimeType":"image/png",
			"name":"Rectangle1_normal",
			"uri":"Rectangle1_normal.png"
		},
		{
			"mimeType":"image/jpeg",
			"name":"Rectangle1_baseColor",
			"uri":"Rectangle1_baseColor.jpg"
		},
		{
			"mimeType":"image/png",
			"name":"Rectangle1_metallicRoughness",
			"uri":"Rectangle1_metallicRoughness.png"
		}
	],
	"accessors":[
		{
			"bufferView":0,
			"componentType":5126,
			"count":403,
			"max":[
				0.9840680956840515,
				7.039812088012695,
				0.984067976474762
			],
			"min":[
				-0.984067976474762,
				2.1911628246307373,
				-0.984067976474762
			],
			"type":"VEC3"
		},
		{
			"bufferView":1,
			"componentType":5126,
			"count":403,
			"type":"VEC3"
		},
		{
			"bufferView":2,
			"componentType":5126,
			"count":403,
			"type":"VEC2"
		},
		{
			"bufferView":3,
			"componentType":5123,
			"count":2016,
			"type":"SCALAR"
		},
		{
			"bufferView":4,
			"componentType":5126,
			"count":934,
			"max":[
				0.8135933876037598,
				10.236331939697266,
				0.810758113861084
			],
			"min":[
				-0.8117402195930481,
				6.7498860359191895,
				-0.8112783432006836
			],
			"type":"VEC3"
		},
		{
			"bufferView":5,
			"componentType":5126,
			"count":934,
			"type":"VEC3"
		},
		{
			"bufferView":6,
			"componentType":5126,
			"count":934,
			"type":"VEC2"
		},
		{
			"bufferView":7,
			"componentType":5123,
			"count":5022,
			"type":"SCALAR"
		},
		{
			"bufferView":8,
			"componentType":5126,
			"count":452,
			"max":[
				1.390660047531128,
				2.48419189453125,
				1.3906619548797607
			],
			"min":[
				-1.3906619548797607,
				-2.4841909408569336,
				-1.3906619548797607
			],
			"type":"VEC3"
		},
		{
			"bufferView":9,
			"componentType":5126,
			"count":452,
			"type":"VEC3"
		},
		{
			"bufferView":10,
			"componentType":5126,
			"count":452,
			"type":"VEC2"
		},
		{
			"bufferView":11,
			"componentType":5123,
			"count":2208,
			"type":"SCALAR"
		},
		{
			"bufferView":12,
			"componentType":5126,
			"count":462,
			"max":[
				4.374927997589111,
				2.48419189453125,
				1.3906619548797607
			],
			"min":[
				1.5936059951782227,
				-2.4841909408569336,
				-1.3906619548797607
			],
			"type":"VEC3"
		},
		{
			"bufferView":13,
			"componentType":5126,
			"count":462,
			"type":"VEC3"
		},
		{
			"bufferView":14,
			"componentType":5126,
			"count":462,
			"type":"VEC2"
		},
		{
			"bufferView":15,
			"componentType":5123,
			"count":2232,
			"type":"SCALAR"
		}
	],
	"bufferViews":[
		{
			"buffer":0,
			"byteLength":4836,
			"byteOffset":0,
			"target":34962
		},
		{
			"buffer":0,
			"byteLength":4836,
			"byteOffset":4836,
			"target":34962
		},
		{
			"buffer":0,
			"byteLength":3224,
			"byteOffset":9672,
			"target":34962
		},
		{
			"buffer":0,
			"byteLength":4032,
			"byteOffset":12896,
			"target":34963
		},
		{
			"buffer":0,
			"byteLength":11208,
			"byteOffset":16928,
			"target":34962
		},
		{
			"buffer":0,
			"byteLength":11208,
			"byteOffset":28136,
			"target":34962
		},
		{
			"buffer":0,
			"byteLength":7472,
			"byteOffset":39344,
			"target":34962
		},
		{
			"buffer":0,
			"byteLength":10044,
			"byteOffset":46816,
			"target":34963
		},
		{
			"buffer":0,
			"byteLength":5424,
			"byteOffset":56860,
			"target":34962
		},
		{
			"buffer":0,
			"byteLength":5424,
			"byteOffset":62284,
			"target":34962
		},
		{
			"buffer":0,
			"byteLength":3616,
			"byteOffset":67708,
			"target":34962
		},
		{
			"buffer":0,
			"byteLength":4416,
			"byteOffset":71324,
			"target":34963
		},
		{
			"buffer":0,
			"byteLength":5544,
			"byteOffset":75740,
			"target":34962
		},
		{
			"buffer":0,
			"byteLength":5544,
			"byteOffset":81284,
			"target":34962
		},
		{
			"buffer":0,
			"byteLength":3696,
			"byteOffset":86828,
			"target":34962
		},
		{
			"buffer":0,
			"byteLength":4464,
			"byteOffset":90524,
			"target":34963
		}
	],
	"samplers":[
		{
			"magFilter":9729,
			"minFilter":9987
		}
	],
	"buffers":[
		{
			"byteLength":94988,
			"uri":"glitterLipstic.bin"
		}
	]
}
