{
	"asset":{
		"generator":"Khronos glTF Blender I/O v4.0.44",
		"version":"2.0"
	},
	"scene":0,
	"scenes":[
		{
			"name":"Scene",
			"nodes":[
				6,
				9
			]
		}
	],
	"nodes":[
		{
			"mesh":0,
			"name":"Object_18",
			"scale":[
				2,
				1,
				1
			]
		},
		{
			"mesh":1,
			"name":"Object_2"
		},
		{
			"mesh":2,
			"name":"Object_3"
		},
		{
			"mesh":3,
			"name":"Object_4"
		},
		{
			"mesh":4,
			"name":"Object_5"
		},
		{
			"children":[
				0,
				1,
				2,
				3,
				4
			],
			"name":"vibe1.obj.cleaner.materialmerger.gles"
		},
		{
			"children":[
				5
			],
			"name":"Sketchfab_model",
			"rotation":[
				-0.70710688829422,
				0,
				0,
				0.7071066498756409
			],
			"scale":[
				0.0022375774569809437,
				0.0014098657993599772,
				0.0014248924562707543
			]
		},
		{
			"name":"GLTF_SceneRootNode.002",
			"rotation":[
				0.70710688829422,
				0,
				0,
				0.7071066498756409
			]
		},
		{
			"children":[
				7
			],
			"name":"root.002"
		},
		{
			"children":[
				8
			],
			"name":"Sketchfab_model.003",
			"rotation":[
				-0.4457142651081085,
				-0.437649667263031,
				-0.5471145510673523,
				0.5571959018707275
			],
			"scale":[
				0.45056572556495667,
				0.20575100183486938,
				0.2216300666332245
			],
			"translation":[
				-1.7965466976165771,
				1.5810872316360474,
				-1.4350217580795288
			]
		}
	],
	"materials":[
		{
			"doubleSided":true,
			"emissiveFactor":[
				0.19999998807907104,
				0.19999998807907104,
				0.19999998807907104
			],
			"name":"wire_229166215",
			"pbrMetallicRoughness":{
				"baseColorTexture":{
					"index":0
				},
				"metallicFactor":0,
				"roughnessFactor":0.2800000011920929
			}
		},
		{
			"doubleSided":true,
			"name":"wire_087225087",
			"pbrMetallicRoughness":{
				"baseColorFactor":[
					0.0827801376581192,
					0.0827801376581192,
					0.0827801376581192,
					1
				],
				"metallicFactor":0,
				"roughnessFactor":0.6000000238418579
			}
		}
	],
	"meshes":[
		{
			"name":"Object_16.002",
			"primitives":[
				{
					"attributes":{
						"POSITION":0,
						"NORMAL":1,
						"TEXCOORD_0":2
					},
					"indices":3,
					"material":0
				}
			]
		},
		{
			"name":"Object_0.004",
			"primitives":[
				{
					"attributes":{
						"POSITION":4,
						"NORMAL":5,
						"TEXCOORD_0":6
					},
					"indices":7,
					"material":1
				}
			]
		},
		{
			"name":"Object_1.003",
			"primitives":[
				{
					"attributes":{
						"POSITION":8,
						"NORMAL":9,
						"TEXCOORD_0":10
					},
					"indices":7,
					"material":1
				}
			]
		},
		{
			"name":"Object_2.003",
			"primitives":[
				{
					"attributes":{
						"POSITION":11,
						"NORMAL":12,
						"TEXCOORD_0":13
					},
					"indices":7,
					"material":1
				}
			]
		},
		{
			"name":"Object_3.003",
			"primitives":[
				{
					"attributes":{
						"POSITION":14,
						"NORMAL":15,
						"TEXCOORD_0":16
					},
					"indices":7,
					"material":1
				}
			]
		}
	],
	"textures":[
		{
			"sampler":0,
			"source":0
		}
	],
	"images":[
		{
			"mimeType":"image/jpeg",
			"name":"marble",
			"uri":"marble.jpg"
		}
	],
	"accessors":[
		{
			"bufferView":0,
			"componentType":5126,
			"count":907,
			"max":[
				893.5330200195312,
				704.9334716796875,
				1043.3175048828125
			],
			"min":[
				-895.380126953125,
				-90.13919830322266,
				9.232000350952148
			],
			"type":"VEC3"
		},
		{
			"bufferView":1,
			"componentType":5126,
			"count":907,
			"type":"VEC3"
		},
		{
			"bufferView":2,
			"componentType":5126,
			"count":907,
			"type":"VEC2"
		},
		{
			"bufferView":3,
			"componentType":5123,
			"count":3984,
			"type":"SCALAR"
		},
		{
			"bufferView":4,
			"componentType":5126,
			"count":26585,
			"max":[
				884.901123046875,
				666.593017578125,
				10.490500450134277
			],
			"min":[
				852.4528198242188,
				634.1445922851562,
				0.5175999999046326
			],
			"type":"VEC3"
		},
		{
			"bufferView":5,
			"componentType":5126,
			"count":26585,
			"type":"VEC3"
		},
		{
			"bufferView":6,
			"componentType":5126,
			"count":26585,
			"type":"VEC2"
		},
		{
			"bufferView":7,
			"componentType":5123,
			"count":154752,
			"type":"SCALAR"
		},
		{
			"bufferView":8,
			"componentType":5126,
			"count":26585,
			"max":[
				-854.4522094726562,
				666.593017578125,
				10.490500450134277
			],
			"min":[
				-886.9005737304688,
				634.1445922851562,
				0.5175999999046326
			],
			"type":"VEC3"
		},
		{
			"bufferView":9,
			"componentType":5126,
			"count":26585,
			"type":"VEC3"
		},
		{
			"bufferView":10,
			"componentType":5126,
			"count":26585,
			"type":"VEC2"
		},
		{
			"bufferView":11,
			"componentType":5126,
			"count":26585,
			"max":[
				-854.4522094726562,
				-15.964599609375,
				10.490500450134277
			],
			"min":[
				-886.9005737304688,
				-48.412899017333984,
				0.5175999999046326
			],
			"type":"VEC3"
		},
		{
			"bufferView":12,
			"componentType":5126,
			"count":26585,
			"type":"VEC3"
		},
		{
			"bufferView":13,
			"componentType":5126,
			"count":26585,
			"type":"VEC2"
		},
		{
			"bufferView":14,
			"componentType":5126,
			"count":26585,
			"max":[
				884.901123046875,
				-15.964599609375,
				10.490500450134277
			],
			"min":[
				852.4528198242188,
				-48.412899017333984,
				0.5175999999046326
			],
			"type":"VEC3"
		},
		{
			"bufferView":15,
			"componentType":5126,
			"count":26585,
			"type":"VEC3"
		},
		{
			"bufferView":16,
			"componentType":5126,
			"count":26585,
			"type":"VEC2"
		}
	],
	"bufferViews":[
		{
			"buffer":0,
			"byteLength":10884,
			"byteOffset":0,
			"target":34962
		},
		{
			"buffer":0,
			"byteLength":10884,
			"byteOffset":10884,
			"target":34962
		},
		{
			"buffer":0,
			"byteLength":7256,
			"byteOffset":21768,
			"target":34962
		},
		{
			"buffer":0,
			"byteLength":7968,
			"byteOffset":29024,
			"target":34963
		},
		{
			"buffer":0,
			"byteLength":319020,
			"byteOffset":36992,
			"target":34962
		},
		{
			"buffer":0,
			"byteLength":319020,
			"byteOffset":356012,
			"target":34962
		},
		{
			"buffer":0,
			"byteLength":212680,
			"byteOffset":675032,
			"target":34962
		},
		{
			"buffer":0,
			"byteLength":309504,
			"byteOffset":887712,
			"target":34963
		},
		{
			"buffer":0,
			"byteLength":319020,
			"byteOffset":1197216,
			"target":34962
		},
		{
			"buffer":0,
			"byteLength":319020,
			"byteOffset":1516236,
			"target":34962
		},
		{
			"buffer":0,
			"byteLength":212680,
			"byteOffset":1835256,
			"target":34962
		},
		{
			"buffer":0,
			"byteLength":319020,
			"byteOffset":2047936,
			"target":34962
		},
		{
			"buffer":0,
			"byteLength":319020,
			"byteOffset":2366956,
			"target":34962
		},
		{
			"buffer":0,
			"byteLength":212680,
			"byteOffset":2685976,
			"target":34962
		},
		{
			"buffer":0,
			"byteLength":319020,
			"byteOffset":2898656,
			"target":34962
		},
		{
			"buffer":0,
			"byteLength":319020,
			"byteOffset":3217676,
			"target":34962
		},
		{
			"buffer":0,
			"byteLength":212680,
			"byteOffset":3536696,
			"target":34962
		}
	],
	"samplers":[
		{
			"magFilter":9729,
			"minFilter":9987
		}
	],
	"buffers":[
		{
			"byteLength":3749376,
			"uri":"makeuptable.bin"
		}
	]
}
