{
	"asset":{
		"generator":"Khronos glTF Blender I/O v4.0.44",
		"version":"2.0"
	},
	"scene":0,
	"scenes":[
		{
			"name":"Scene",
			"nodes":[
				5
			]
		}
	],
	"nodes":[
		{
			"mesh":0,
			"name":"Brush_Brush_0"
		},
		{
			"mesh":1,
			"name":"Brush_Pallete_0"
		},
		{
			"children":[
				0,
				1
			],
			"name":"Brush",
			"rotation":[
				-0.70710688829422,
				0,
				0,
				0.7071066498756409
			],
			"scale":[
				100,
				99.99999237060547,
				99.99999237060547
			]
		},
		{
			"children":[
				2
			],
			"name":"RootNode"
		},
		{
			"children":[
				3
			],
			"name":"db49650eb6dd49fe8c91e811a585dc1c.fbx",
			"rotation":[
				0.70710688829422,
				0,
				0,
				0.7071066498756409
			]
		},
		{
			"children":[
				4
			],
			"name":"Sketchfab_model",
			"rotation":[
				-0.70710688829422,
				0,
				0,
				0.7071066498756409
			],
			"scale":[
				0.10000000149011612,
				0.10000001639127731,
				0.10000001639127731
			]
		}
	],
	"materials":[
		{
			"doubleSided":true,
			"name":"Brush",
			"pbrMetallicRoughness":{
				"baseColorTexture":{
					"index":0
				},
				"metallicFactor":0.6996455788612366,
				"metallicRoughnessTexture":{
					"index":1
				}
			}
		},
		{
			"doubleSided":true,
			"name":"Pallete",
			"normalTexture":{
				"index":2
			},
			"pbrMetallicRoughness":{
				"baseColorTexture":{
					"index":3
				},
				"metallicRoughnessTexture":{
					"index":4
				}
			}
		}
	],
	"meshes":[
		{
			"name":"Brush_Brush_0",
			"primitives":[
				{
					"attributes":{
						"POSITION":0,
						"NORMAL":1,
						"TEXCOORD_0":2
					},
					"indices":3,
					"material":0
				}
			]
		},
		{
			"name":"Brush_Pallete_0",
			"primitives":[
				{
					"attributes":{
						"POSITION":4,
						"NORMAL":5,
						"TEXCOORD_0":6,
						"TEXCOORD_1":7,
						"TEXCOORD_2":8
					},
					"indices":9,
					"material":1
				}
			]
		}
	],
	"textures":[
		{
			"sampler":0,
			"source":0
		},
		{
			"sampler":0,
			"source":1
		},
		{
			"sampler":0,
			"source":2
		},
		{
			"sampler":0,
			"source":3
		},
		{
			"sampler":0,
			"source":4
		}
	],
	"images":[
		{
			"mimeType":"image/png",
			"name":"Brush_baseColor",
			"uri":"Brush_baseColor.png"
		},
		{
			"mimeType":"image/png",
			"name":"Brush_metallicRoughness",
			"uri":"Brush_metallicRoughness.png"
		},
		{
			"mimeType":"image/png",
			"name":"Pallete_normal",
			"uri":"Pallete_normal.png"
		},
		{
			"mimeType":"image/png",
			"name":"Pallete_baseColor",
			"uri":"Pallete_baseColor.png"
		},
		{
			"mimeType":"image/png",
			"name":"Pallete_metallicRoughness",
			"uri":"Pallete_metallicRoughness.png"
		}
	],
	"accessors":[
		{
			"bufferView":0,
			"componentType":5126,
			"count":202,
			"max":[
				0.04867129027843475,
				0.18169808387756348,
				0.02090984582901001
			],
			"min":[
				-0.019902564585208893,
				0.0217108353972435,
				9.46270301938057e-05
			],
			"type":"VEC3"
		},
		{
			"bufferView":1,
			"componentType":5126,
			"count":202,
			"type":"VEC3"
		},
		{
			"bufferView":2,
			"componentType":5126,
			"count":202,
			"type":"VEC2"
		},
		{
			"bufferView":3,
			"componentType":5123,
			"count":792,
			"type":"SCALAR"
		},
		{
			"bufferView":4,
			"componentType":5126,
			"count":192,
			"max":[
				0.04500000923871994,
				0.07000003755092621,
				0.09536567330360413
			],
			"min":[
				-0.1023063212633133,
				-0.0700000673532486,
				0.00015647336840629578
			],
			"type":"VEC3"
		},
		{
			"bufferView":5,
			"componentType":5126,
			"count":192,
			"type":"VEC3"
		},
		{
			"bufferView":6,
			"componentType":5126,
			"count":192,
			"type":"VEC2"
		},
		{
			"bufferView":7,
			"componentType":5126,
			"count":192,
			"type":"VEC2"
		},
		{
			"bufferView":8,
			"componentType":5126,
			"count":192,
			"type":"VEC2"
		},
		{
			"bufferView":9,
			"componentType":5123,
			"count":408,
			"type":"SCALAR"
		}
	],
	"bufferViews":[
		{
			"buffer":0,
			"byteLength":2424,
			"byteOffset":0,
			"target":34962
		},
		{
			"buffer":0,
			"byteLength":2424,
			"byteOffset":2424,
			"target":34962
		},
		{
			"buffer":0,
			"byteLength":1616,
			"byteOffset":4848,
			"target":34962
		},
		{
			"buffer":0,
			"byteLength":1584,
			"byteOffset":6464,
			"target":34963
		},
		{
			"buffer":0,
			"byteLength":2304,
			"byteOffset":8048,
			"target":34962
		},
		{
			"buffer":0,
			"byteLength":2304,
			"byteOffset":10352,
			"target":34962
		},
		{
			"buffer":0,
			"byteLength":1536,
			"byteOffset":12656,
			"target":34962
		},
		{
			"buffer":0,
			"byteLength":1536,
			"byteOffset":14192,
			"target":34962
		},
		{
			"buffer":0,
			"byteLength":1536,
			"byteOffset":15728,
			"target":34962
		},
		{
			"buffer":0,
			"byteLength":816,
			"byteOffset":17264,
			"target":34963
		}
	],
	"samplers":[
		{
			"magFilter":9729,
			"minFilter":9987
		}
	],
	"buffers":[
		{
			"byteLength":18080,
			"uri":"palette.bin"
		}
	]
}
