{
	"asset":{
		"generator":"Khronos glTF Blender I/O v4.0.44",
		"version":"2.0"
	},
	"scene":0,
	"scenes":[
		{
			"name":"Scene",
			"nodes":[
				11
			]
		}
	],
	"nodes":[
		{
			"mesh":0,
			"name":"MI_AirPurifier_Pro_Small_Body_0"
		},
		{
			"mesh":1,
			"name":"MI_AirPurifier_Pro_Small_Fan_Top_0"
		},
		{
			"mesh":2,
			"name":"MI_AirPurifier_Pro_Small_Filter_0"
		},
		{
			"mesh":3,
			"name":"MI_AirPurifier_Pro_Small_Material #164_0"
		},
		{
			"mesh":4,
			"name":"MI_AirPurifier_Pro_Small_Material #170_0"
		},
		{
			"mesh":5,
			"name":"MI_AirPurifier_Pro_Small_Material #171_0"
		},
		{
			"mesh":6,
			"name":"MI_AirPurifier_Pro_Small_Material #56_0"
		},
		{
			"mesh":7,
			"name":"MI_AirPurifier_Pro_Small_Material #57_0"
		},
		{
			"children":[
				0,
				1,
				2,
				3,
				4,
				5,
				6,
				7
			],
			"name":"MI_AirPurifier_Pro_Small",
			"rotation":[
				-0.70710688829422,
				0,
				0,
				0.7071066498756409
			]
		},
		{
			"children":[
				8
			],
			"name":"RootNode"
		},
		{
			"children":[
				9
			],
			"name":"e33241c5323a49b485842e58f67f80bb.fbx",
			"rotation":[
				0.70710688829422,
				0,
				0,
				0.7071066498756409
			],
			"scale":[
				0.009999999776482582,
				0.010000000707805157,
				0.010000000707805157
			]
		},
		{
			"children":[
				10
			],
			"name":"Sketchfab_model",
			"rotation":[
				-0.70710688829422,
				0,
				0,
				0.7071066498756409
			],
			"scale":[
				5,
				5.000000476837158,
				5.000000476837158
			]
		}
	],
	"materials":[
		{
			"alphaCutoff":0.10000000149011612,
			"alphaMode":"MASK",
			"doubleSided":true,
			"name":"Body",
			"normalTexture":{
				"index":0,
				"scale":0.5063644051551819
			},
			"pbrMetallicRoughness":{
				"baseColorTexture":{
					"index":1
				},
				"metallicFactor":0.6158075332641602,
				"metallicRoughnessTexture":{
					"index":2
				}
			}
		},
		{
			"doubleSided":true,
			"name":"Fan_Top",
			"normalTexture":{
				"index":3
			},
			"pbrMetallicRoughness":{
				"baseColorTexture":{
					"index":4
				},
				"metallicFactor":0.25707733631134033,
				"roughnessFactor":0.09234414994716644
			}
		},
		{
			"doubleSided":true,
			"name":"Filter",
			"pbrMetallicRoughness":{
				"baseColorTexture":{
					"index":5
				},
				"metallicFactor":0.6887696385383606
			}
		},
		{
			"doubleSided":true,
			"name":"Material_164",
			"pbrMetallicRoughness":{
				"metallicFactor":0.6826894283294678,
				"roughnessFactor":0.659267008304596
			}
		},
		{
			"doubleSided":true,
			"emissiveFactor":[
				1,
				1,
				1
			],
			"emissiveTexture":{
				"index":6
			},
			"name":"Material_170",
			"pbrMetallicRoughness":{
				"baseColorTexture":{
					"index":7
				},
				"metallicFactor":0,
				"roughnessFactor":0.8929713368415833
			}
		},
		{
			"alphaMode":"BLEND",
			"doubleSided":true,
			"name":"Material_171",
			"pbrMetallicRoughness":{
				"baseColorFactor":[
					0.5,
					0.5,
					0.5,
					0.08683247119188309
				],
				"roughnessFactor":0.0027042319998145103
			}
		},
		{
			"doubleSided":true,
			"name":"Material_56",
			"pbrMetallicRoughness":{
				"metallicFactor":0,
				"roughnessFactor":0.6000000238418579
			}
		},
		{
			"doubleSided":true,
			"name":"Material_57",
			"pbrMetallicRoughness":{
				"metallicFactor":0,
				"roughnessFactor":0.6000000238418579
			}
		}
	],
	"meshes":[
		{
			"name":"MI_AirPurifier_Pro_Small_Body_0",
			"primitives":[
				{
					"attributes":{
						"POSITION":0,
						"NORMAL":1,
						"TEXCOORD_0":2,
						"TEXCOORD_1":3,
						"TEXCOORD_2":4,
						"TEXCOORD_3":5
					},
					"indices":6,
					"material":0
				}
			]
		},
		{
			"name":"MI_AirPurifier_Pro_Small_Fan_Top_0",
			"primitives":[
				{
					"attributes":{
						"POSITION":7,
						"NORMAL":8,
						"TEXCOORD_0":9,
						"TEXCOORD_1":10,
						"TEXCOORD_2":11
					},
					"indices":12,
					"material":1
				}
			]
		},
		{
			"name":"MI_AirPurifier_Pro_Small_Filter_0",
			"primitives":[
				{
					"attributes":{
						"POSITION":13,
						"NORMAL":14,
						"TEXCOORD_0":15,
						"TEXCOORD_1":16,
						"TEXCOORD_2":17
					},
					"indices":18,
					"material":2
				}
			]
		},
		{
			"name":"MI_AirPurifier_Pro_Small_Material #164_0",
			"primitives":[
				{
					"attributes":{
						"POSITION":19,
						"NORMAL":20,
						"TEXCOORD_0":21
					},
					"indices":22,
					"material":3
				}
			]
		},
		{
			"name":"MI_AirPurifier_Pro_Small_Material #170_0",
			"primitives":[
				{
					"attributes":{
						"POSITION":23,
						"NORMAL":24,
						"TEXCOORD_0":25,
						"TEXCOORD_1":26
					},
					"indices":27,
					"material":4
				}
			]
		},
		{
			"name":"MI_AirPurifier_Pro_Small_Material #171_0",
			"primitives":[
				{
					"attributes":{
						"POSITION":28,
						"NORMAL":29,
						"TEXCOORD_0":30
					},
					"indices":31,
					"material":5
				}
			]
		},
		{
			"name":"MI_AirPurifier_Pro_Small_Material #56_0",
			"primitives":[
				{
					"attributes":{
						"POSITION":32,
						"NORMAL":33,
						"TEXCOORD_0":34
					},
					"indices":35,
					"material":6
				}
			]
		},
		{
			"name":"MI_AirPurifier_Pro_Small_Material #57_0",
			"primitives":[
				{
					"attributes":{
						"POSITION":36,
						"NORMAL":37,
						"TEXCOORD_0":38
					},
					"indices":39,
					"material":7
				}
			]
		}
	],
	"textures":[
		{
			"sampler":0,
			"source":0
		},
		{
			"sampler":0,
			"source":1
		},
		{
			"sampler":0,
			"source":2
		},
		{
			"sampler":0,
			"source":3
		},
		{
			"sampler":0,
			"source":4
		},
		{
			"sampler":0,
			"source":5
		},
		{
			"sampler":0,
			"source":6
		},
		{
			"sampler":0,
			"source":6
		}
	],
	"images":[
		{
			"mimeType":"image/jpeg",
			"name":"Body_normal",
			"uri":"Body_normal.jpg"
		},
		{
			"mimeType":"image/png",
			"name":"Body_baseColor",
			"uri":"Body_baseColor.png"
		},
		{
			"mimeType":"image/png",
			"name":"Body_metallicRoughness",
			"uri":"Body_metallicRoughness.png"
		},
		{
			"mimeType":"image/jpeg",
			"name":"Fan_Top_normal",
			"uri":"Fan_Top_normal.jpg"
		},
		{
			"mimeType":"image/jpeg",
			"name":"Fan_Top_baseColor",
			"uri":"Fan_Top_baseColor.jpg"
		},
		{
			"mimeType":"image/jpeg",
			"name":"Filter_baseColor",
			"uri":"Filter_baseColor.jpg"
		},
		{
			"mimeType":"image/png",
			"name":"Material_170_baseColor",
			"uri":"Material_170_baseColor.png"
		}
	],
	"accessors":[
		{
			"bufferView":0,
			"componentType":5126,
			"count":27033,
			"max":[
				11.599615097045898,
				11.233549118041992,
				52.25065231323242
			],
			"min":[
				-11.693196296691895,
				-11.186944961547852,
				1.5219535827636719
			],
			"type":"VEC3"
		},
		{
			"bufferView":1,
			"componentType":5126,
			"count":27033,
			"type":"VEC3"
		},
		{
			"bufferView":2,
			"componentType":5126,
			"count":27033,
			"type":"VEC2"
		},
		{
			"bufferView":3,
			"componentType":5126,
			"count":27033,
			"type":"VEC2"
		},
		{
			"bufferView":4,
			"componentType":5126,
			"count":27033,
			"type":"VEC2"
		},
		{
			"bufferView":5,
			"componentType":5126,
			"count":27033,
			"type":"VEC2"
		},
		{
			"bufferView":6,
			"componentType":5123,
			"count":102492,
			"type":"SCALAR"
		},
		{
			"bufferView":7,
			"componentType":5126,
			"count":48743,
			"max":[
				11.449067115783691,
				11.05312728881836,
				52.2526741027832
			],
			"min":[
				-11.542656898498535,
				-11.042678833007812,
				25.49355697631836
			],
			"type":"VEC3"
		},
		{
			"bufferView":8,
			"componentType":5126,
			"count":48743,
			"type":"VEC3"
		},
		{
			"bufferView":9,
			"componentType":5126,
			"count":48743,
			"type":"VEC2"
		},
		{
			"bufferView":10,
			"componentType":5126,
			"count":48743,
			"type":"VEC2"
		},
		{
			"bufferView":11,
			"componentType":5126,
			"count":48743,
			"type":"VEC2"
		},
		{
			"bufferView":12,
			"componentType":5123,
			"count":158565,
			"type":"SCALAR"
		},
		{
			"bufferView":13,
			"componentType":5126,
			"count":2560,
			"max":[
				8.912565231323242,
				8.208974838256836,
				24.8131046295166
			],
			"min":[
				-9.006145477294922,
				-9.011649131774902,
				4.107499599456787
			],
			"type":"VEC3"
		},
		{
			"bufferView":14,
			"componentType":5126,
			"count":2560,
			"type":"VEC3"
		},
		{
			"bufferView":15,
			"componentType":5126,
			"count":2560,
			"type":"VEC2"
		},
		{
			"bufferView":16,
			"componentType":5126,
			"count":2560,
			"type":"VEC2"
		},
		{
			"bufferView":17,
			"componentType":5126,
			"count":2560,
			"type":"VEC2"
		},
		{
			"bufferView":18,
			"componentType":5123,
			"count":6768,
			"type":"SCALAR"
		},
		{
			"bufferView":19,
			"componentType":5126,
			"count":1152,
			"max":[
				2.4604392051696777,
				11.016931533813477,
				39.46925735473633
			],
			"min":[
				-2.6163079738616943,
				10.586398124694824,
				37.35851287841797
			],
			"type":"VEC3"
		},
		{
			"bufferView":20,
			"componentType":5126,
			"count":1152,
			"type":"VEC3"
		},
		{
			"bufferView":21,
			"componentType":5126,
			"count":1152,
			"type":"VEC2"
		},
		{
			"bufferView":22,
			"componentType":5123,
			"count":2268,
			"type":"SCALAR"
		},
		{
			"bufferView":23,
			"componentType":5126,
			"count":81,
			"max":[
				1.7974348068237305,
				-10.801229476928711,
				45.48032760620117
			],
			"min":[
				-1.8910095691680908,
				-10.801237106323242,
				41.84619140625
			],
			"type":"VEC3"
		},
		{
			"bufferView":24,
			"componentType":5126,
			"count":81,
			"type":"VEC3"
		},
		{
			"bufferView":25,
			"componentType":5126,
			"count":81,
			"type":"VEC2"
		},
		{
			"bufferView":26,
			"componentType":5126,
			"count":81,
			"type":"VEC2"
		},
		{
			"bufferView":27,
			"componentType":5123,
			"count":90,
			"type":"SCALAR"
		},
		{
			"bufferView":28,
			"componentType":5126,
			"count":234,
			"max":[
				1.7974364757537842,
				-10.805558204650879,
				45.480323791503906
			],
			"min":[
				-1.891011118888855,
				-10.891668319702148,
				41.84618377685547
			],
			"type":"VEC3"
		},
		{
			"bufferView":29,
			"componentType":5126,
			"count":234,
			"type":"VEC3"
		},
		{
			"bufferView":30,
			"componentType":5126,
			"count":234,
			"type":"VEC2"
		},
		{
			"bufferView":31,
			"componentType":5123,
			"count":372,
			"type":"SCALAR"
		},
		{
			"bufferView":32,
			"componentType":5126,
			"count":821,
			"max":[
				11.447288513183594,
				11.074533462524414,
				25.40839195251465
			],
			"min":[
				-11.54817008972168,
				-11.097460746765137,
				4.092957973480225
			],
			"type":"VEC3"
		},
		{
			"bufferView":33,
			"componentType":5126,
			"count":821,
			"type":"VEC3"
		},
		{
			"bufferView":34,
			"componentType":5126,
			"count":821,
			"type":"VEC2"
		},
		{
			"bufferView":35,
			"componentType":5123,
			"count":2196,
			"type":"SCALAR"
		},
		{
			"bufferView":36,
			"componentType":5126,
			"count":424,
			"max":[
				10.375432014465332,
				-6.808547496795654,
				52.26106643676758
			],
			"min":[
				9.94499683380127,
				-7.222212791442871,
				52.193939208984375
			],
			"type":"VEC3"
		},
		{
			"bufferView":37,
			"componentType":5126,
			"count":424,
			"type":"VEC3"
		},
		{
			"bufferView":38,
			"componentType":5126,
			"count":424,
			"type":"VEC2"
		},
		{
			"bufferView":39,
			"componentType":5123,
			"count":648,
			"type":"SCALAR"
		}
	],
	"bufferViews":[
		{
			"buffer":0,
			"byteLength":324396,
			"byteOffset":0,
			"target":34962
		},
		{
			"buffer":0,
			"byteLength":324396,
			"byteOffset":324396,
			"target":34962
		},
		{
			"buffer":0,
			"byteLength":216264,
			"byteOffset":648792,
			"target":34962
		},
		{
			"buffer":0,
			"byteLength":216264,
			"byteOffset":865056,
			"target":34962
		},
		{
			"buffer":0,
			"byteLength":216264,
			"byteOffset":1081320,
			"target":34962
		},
		{
			"buffer":0,
			"byteLength":216264,
			"byteOffset":1297584,
			"target":34962
		},
		{
			"buffer":0,
			"byteLength":204984,
			"byteOffset":1513848,
			"target":34963
		},
		{
			"buffer":0,
			"byteLength":584916,
			"byteOffset":1718832,
			"target":34962
		},
		{
			"buffer":0,
			"byteLength":584916,
			"byteOffset":2303748,
			"target":34962
		},
		{
			"buffer":0,
			"byteLength":389944,
			"byteOffset":2888664,
			"target":34962
		},
		{
			"buffer":0,
			"byteLength":389944,
			"byteOffset":3278608,
			"target":34962
		},
		{
			"buffer":0,
			"byteLength":389944,
			"byteOffset":3668552,
			"target":34962
		},
		{
			"buffer":0,
			"byteLength":317130,
			"byteOffset":4058496,
			"target":34963
		},
		{
			"buffer":0,
			"byteLength":30720,
			"byteOffset":4375628,
			"target":34962
		},
		{
			"buffer":0,
			"byteLength":30720,
			"byteOffset":4406348,
			"target":34962
		},
		{
			"buffer":0,
			"byteLength":20480,
			"byteOffset":4437068,
			"target":34962
		},
		{
			"buffer":0,
			"byteLength":20480,
			"byteOffset":4457548,
			"target":34962
		},
		{
			"buffer":0,
			"byteLength":20480,
			"byteOffset":4478028,
			"target":34962
		},
		{
			"buffer":0,
			"byteLength":13536,
			"byteOffset":4498508,
			"target":34963
		},
		{
			"buffer":0,
			"byteLength":13824,
			"byteOffset":4512044,
			"target":34962
		},
		{
			"buffer":0,
			"byteLength":13824,
			"byteOffset":4525868,
			"target":34962
		},
		{
			"buffer":0,
			"byteLength":9216,
			"byteOffset":4539692,
			"target":34962
		},
		{
			"buffer":0,
			"byteLength":4536,
			"byteOffset":4548908,
			"target":34963
		},
		{
			"buffer":0,
			"byteLength":972,
			"byteOffset":4553444,
			"target":34962
		},
		{
			"buffer":0,
			"byteLength":972,
			"byteOffset":4554416,
			"target":34962
		},
		{
			"buffer":0,
			"byteLength":648,
			"byteOffset":4555388,
			"target":34962
		},
		{
			"buffer":0,
			"byteLength":648,
			"byteOffset":4556036,
			"target":34962
		},
		{
			"buffer":0,
			"byteLength":180,
			"byteOffset":4556684,
			"target":34963
		},
		{
			"buffer":0,
			"byteLength":2808,
			"byteOffset":4556864,
			"target":34962
		},
		{
			"buffer":0,
			"byteLength":2808,
			"byteOffset":4559672,
			"target":34962
		},
		{
			"buffer":0,
			"byteLength":1872,
			"byteOffset":4562480,
			"target":34962
		},
		{
			"buffer":0,
			"byteLength":744,
			"byteOffset":4564352,
			"target":34963
		},
		{
			"buffer":0,
			"byteLength":9852,
			"byteOffset":4565096,
			"target":34962
		},
		{
			"buffer":0,
			"byteLength":9852,
			"byteOffset":4574948,
			"target":34962
		},
		{
			"buffer":0,
			"byteLength":6568,
			"byteOffset":4584800,
			"target":34962
		},
		{
			"buffer":0,
			"byteLength":4392,
			"byteOffset":4591368,
			"target":34963
		},
		{
			"buffer":0,
			"byteLength":5088,
			"byteOffset":4595760,
			"target":34962
		},
		{
			"buffer":0,
			"byteLength":5088,
			"byteOffset":4600848,
			"target":34962
		},
		{
			"buffer":0,
			"byteLength":3392,
			"byteOffset":4605936,
			"target":34962
		},
		{
			"buffer":0,
			"byteLength":1296,
			"byteOffset":4609328,
			"target":34963
		}
	],
	"samplers":[
		{
			"magFilter":9729,
			"minFilter":9987
		}
	],
	"buffers":[
		{
			"byteLength":4610624,
			"uri":"airpurifier.bin"
		}
	]
}
