{
	"asset":{
		"generator":"Khronos glTF Blender I/O v4.0.44",
		"version":"2.0"
	},
	"scene":0,
	"scenes":[
		{
			"name":"Scene",
			"nodes":[
				14
			]
		}
	],
	"nodes":[
		{
			"mesh":0,
			"name":"Frame_Metal_0"
		},
		{
			"children":[
				0
			],
			"name":"Frame"
		},
		{
			"mesh":1,
			"name":"Plane1_Planes_0"
		},
		{
			"children":[
				2
			],
			"name":"Plane1"
		},
		{
			"mesh":2,
			"name":"Plane2_Planes_0"
		},
		{
			"children":[
				4
			],
			"name":"Plane2"
		},
		{
			"mesh":3,
			"name":"Plane3_Planes_0"
		},
		{
			"children":[
				6
			],
			"name":"Plane3"
		},
		{
			"mesh":4,
			"name":"Plane4_Planes_0"
		},
		{
			"children":[
				8
			],
			"name":"Plane4"
		},
		{
			"mesh":5,
			"name":"Plane5_Planes_0"
		},
		{
			"children":[
				10
			],
			"name":"Plane5"
		},
		{
			"children":[
				1,
				3,
				5,
				7,
				9,
				11
			],
			"name":"RootNode"
		},
		{
			"children":[
				12
			],
			"name":"7d96794589f14a9cbdcce97dd85aa904.fbx",
			"rotation":[
				0.70710688829422,
				0,
				0,
				0.7071066498756409
			],
			"scale":[
				0.009999999776482582,
				0.009999999776482582,
				0.009999999776482582
			]
		},
		{
			"children":[
				13
			],
			"name":"Sketchfab_model",
			"rotation":[
				-0.70710688829422,
				0,
				0,
				0.7071066498756409
			],
			"scale":[
				5,
				5,
				5
			]
		}
	],
	"materials":[
		{
			"doubleSided":true,
			"name":"Metal",
			"pbrMetallicRoughness":{
				"baseColorFactor":[
					0.011566299945116043,
					0.011566299945116043,
					0.011566299945116043,
					1
				],
				"metallicFactor":0.16587471961975098,
				"roughnessFactor":0.21451610326766968
			}
		},
		{
			"doubleSided":true,
			"name":"Planes",
			"pbrMetallicRoughness":{
				"metallicFactor":0,
				"roughnessFactor":0.8211145401000977
			}
		}
	],
	"meshes":[
		{
			"name":"Frame_Metal_0",
			"primitives":[
				{
					"attributes":{
						"POSITION":0,
						"NORMAL":1,
						"TEXCOORD_0":2
					},
					"indices":3,
					"material":0
				}
			]
		},
		{
			"name":"Plane1_Planes_0",
			"primitives":[
				{
					"attributes":{
						"POSITION":4,
						"NORMAL":5,
						"TEXCOORD_0":6
					},
					"indices":7,
					"material":1
				}
			]
		},
		{
			"name":"Plane2_Planes_0",
			"primitives":[
				{
					"attributes":{
						"POSITION":8,
						"NORMAL":9,
						"TEXCOORD_0":10
					},
					"indices":7,
					"material":1
				}
			]
		},
		{
			"name":"Plane3_Planes_0",
			"primitives":[
				{
					"attributes":{
						"POSITION":11,
						"NORMAL":12,
						"TEXCOORD_0":13
					},
					"indices":7,
					"material":1
				}
			]
		},
		{
			"name":"Plane4_Planes_0",
			"primitives":[
				{
					"attributes":{
						"POSITION":14,
						"NORMAL":15,
						"TEXCOORD_0":16
					},
					"indices":17,
					"material":1
				}
			]
		},
		{
			"name":"Plane5_Planes_0",
			"primitives":[
				{
					"attributes":{
						"POSITION":18,
						"NORMAL":19,
						"TEXCOORD_0":20
					},
					"indices":7,
					"material":1
				}
			]
		}
	],
	"accessors":[
		{
			"bufferView":0,
			"componentType":5126,
			"count":2644,
			"max":[
				38,
				78,
				22
			],
			"min":[
				-38,
				0,
				1.1175870895385742e-06
			],
			"type":"VEC3"
		},
		{
			"bufferView":1,
			"componentType":5126,
			"count":2644,
			"type":"VEC3"
		},
		{
			"bufferView":2,
			"componentType":5126,
			"count":2644,
			"type":"VEC2"
		},
		{
			"bufferView":3,
			"componentType":5123,
			"count":4296,
			"type":"SCALAR"
		},
		{
			"bufferView":4,
			"componentType":5126,
			"count":24,
			"max":[
				36,
				77.70000457763672,
				20
			],
			"min":[
				-36,
				76.30000305175781,
				1.9999994039535522
			],
			"type":"VEC3"
		},
		{
			"bufferView":5,
			"componentType":5126,
			"count":24,
			"type":"VEC3"
		},
		{
			"bufferView":6,
			"componentType":5126,
			"count":24,
			"type":"VEC2"
		},
		{
			"bufferView":7,
			"componentType":5123,
			"count":36,
			"type":"SCALAR"
		},
		{
			"bufferView":8,
			"componentType":5126,
			"count":24,
			"max":[
				-4.999998092651367,
				50.70000457763672,
				20
			],
			"min":[
				-36,
				49.30000305175781,
				1.9999994039535522
			],
			"type":"VEC3"
		},
		{
			"bufferView":9,
			"componentType":5126,
			"count":24,
			"type":"VEC3"
		},
		{
			"bufferView":10,
			"componentType":5126,
			"count":24,
			"type":"VEC2"
		},
		{
			"bufferView":11,
			"componentType":5126,
			"count":24,
			"max":[
				36,
				40.70000457763672,
				20
			],
			"min":[
				-3.0000030994415283,
				39.30000305175781,
				1.9999994039535522
			],
			"type":"VEC3"
		},
		{
			"bufferView":12,
			"componentType":5126,
			"count":24,
			"type":"VEC3"
		},
		{
			"bufferView":13,
			"componentType":5126,
			"count":24,
			"type":"VEC2"
		},
		{
			"bufferView":14,
			"componentType":5126,
			"count":28,
			"max":[
				9.000003814697266,
				25.700002670288086,
				20
			],
			"min":[
				-36,
				24.300004959106445,
				1.9999994039535522
			],
			"type":"VEC3"
		},
		{
			"bufferView":15,
			"componentType":5126,
			"count":28,
			"type":"VEC3"
		},
		{
			"bufferView":16,
			"componentType":5126,
			"count":28,
			"type":"VEC2"
		},
		{
			"bufferView":17,
			"componentType":5123,
			"count":42,
			"type":"SCALAR"
		},
		{
			"bufferView":18,
			"componentType":5126,
			"count":24,
			"max":[
				36,
				1.7000006437301636,
				20
			],
			"min":[
				-36,
				0.29999953508377075,
				1.9999994039535522
			],
			"type":"VEC3"
		},
		{
			"bufferView":19,
			"componentType":5126,
			"count":24,
			"type":"VEC3"
		},
		{
			"bufferView":20,
			"componentType":5126,
			"count":24,
			"type":"VEC2"
		}
	],
	"bufferViews":[
		{
			"buffer":0,
			"byteLength":31728,
			"byteOffset":0,
			"target":34962
		},
		{
			"buffer":0,
			"byteLength":31728,
			"byteOffset":31728,
			"target":34962
		},
		{
			"buffer":0,
			"byteLength":21152,
			"byteOffset":63456,
			"target":34962
		},
		{
			"buffer":0,
			"byteLength":8592,
			"byteOffset":84608,
			"target":34963
		},
		{
			"buffer":0,
			"byteLength":288,
			"byteOffset":93200,
			"target":34962
		},
		{
			"buffer":0,
			"byteLength":288,
			"byteOffset":93488,
			"target":34962
		},
		{
			"buffer":0,
			"byteLength":192,
			"byteOffset":93776,
			"target":34962
		},
		{
			"buffer":0,
			"byteLength":72,
			"byteOffset":93968,
			"target":34963
		},
		{
			"buffer":0,
			"byteLength":288,
			"byteOffset":94040,
			"target":34962
		},
		{
			"buffer":0,
			"byteLength":288,
			"byteOffset":94328,
			"target":34962
		},
		{
			"buffer":0,
			"byteLength":192,
			"byteOffset":94616,
			"target":34962
		},
		{
			"buffer":0,
			"byteLength":288,
			"byteOffset":94808,
			"target":34962
		},
		{
			"buffer":0,
			"byteLength":288,
			"byteOffset":95096,
			"target":34962
		},
		{
			"buffer":0,
			"byteLength":192,
			"byteOffset":95384,
			"target":34962
		},
		{
			"buffer":0,
			"byteLength":336,
			"byteOffset":95576,
			"target":34962
		},
		{
			"buffer":0,
			"byteLength":336,
			"byteOffset":95912,
			"target":34962
		},
		{
			"buffer":0,
			"byteLength":224,
			"byteOffset":96248,
			"target":34962
		},
		{
			"buffer":0,
			"byteLength":84,
			"byteOffset":96472,
			"target":34963
		},
		{
			"buffer":0,
			"byteLength":288,
			"byteOffset":96556,
			"target":34962
		},
		{
			"buffer":0,
			"byteLength":288,
			"byteOffset":96844,
			"target":34962
		},
		{
			"buffer":0,
			"byteLength":192,
			"byteOffset":97132,
			"target":34962
		}
	],
	"buffers":[
		{
			"byteLength":97324,
			"uri":"shelf1.bin"
		}
	]
}
