{
	"asset":{
		"generator":"Khronos glTF Blender I/O v4.0.44",
		"version":"2.0"
	},
	"scene":0,
	"scenes":[
		{
			"name":"Scene",
			"nodes":[
				0
			]
		}
	],
	"nodes":[
		{
			"mesh":0,
			"name":"Cube",
			"rotation":[
				0,
				0.005002113990485668,
				0,
				0.9999874830245972
			],
			"scale":[
				0.7856848239898682,
				0.7856849431991577,
				0.7856848239898682
			],
			"translation":[
				-0.2809738516807556,
				0,
				-0.37796691060066223
			]
		}
	],
	"materials":[
		{
			"doubleSided":true,
			"name":"Bean bag",
			"pbrMetallicRoughness":{
				"baseColorFactor":[
					0.800000011920929,
					0.800000011920929,
					0.800000011920929,
					1
				],
				"metallicFactor":0,
				"roughnessFactor":0.4000000059604645
			}
		}
	],
	"meshes":[
		{
			"name":"Cube.005",
			"primitives":[
				{
					"attributes":{
						"POSITION":0,
						"NORMAL":1,
						"TEXCOORD_0":2
					},
					"indices":3,
					"material":0
				}
			]
		}
	],
	"accessors":[
		{
			"bufferView":0,
			"componentType":5126,
			"count":29920,
			"max":[
				0.8593877553939819,
				0.9829558730125427,
				0.6155554056167603
			],
			"min":[
				-0.8488050699234009,
				0.005428805015981197,
				-1.0867193937301636
			],
			"type":"VEC3"
		},
		{
			"bufferView":1,
			"componentType":5126,
			"count":29920,
			"type":"VEC3"
		},
		{
			"bufferView":2,
			"componentType":5126,
			"count":29920,
			"type":"VEC2"
		},
		{
			"bufferView":3,
			"componentType":5123,
			"count":166608,
			"type":"SCALAR"
		}
	],
	"bufferViews":[
		{
			"buffer":0,
			"byteLength":359040,
			"byteOffset":0,
			"target":34962
		},
		{
			"buffer":0,
			"byteLength":359040,
			"byteOffset":359040,
			"target":34962
		},
		{
			"buffer":0,
			"byteLength":239360,
			"byteOffset":718080,
			"target":34962
		},
		{
			"buffer":0,
			"byteLength":333216,
			"byteOffset":957440,
			"target":34963
		}
	],
	"buffers":[
		{
			"byteLength":1290656,
			"uri":"BeanBag.bin"
		}
	]
}
