{
	"asset":{
		"generator":"Khronos glTF Blender I/O v4.0.44",
		"version":"2.0"
	},
	"extensionsUsed":[
		"KHR_materials_specular",
		"KHR_materials_ior"
	],
	"scene":0,
	"scenes":[
		{
			"name":"Scene",
			"nodes":[
				0,
				1,
				2,
				3,
				4,
				5,
				6,
				7,
				8,
				9,
				10,
				11
			]
		}
	],
	"nodes":[
		{
			"mesh":0,
			"name":"Cushion_Seats.001_Cushion_Seats",
			"rotation":[
				0.7071068286895752,
				0,
				0,
				0.7071068286895752
			]
		},
		{
			"mesh":1,
			"name":"Cushion_Seats_.002_Cushion_Seats",
			"rotation":[
				0.7071068286895752,
				0,
				0,
				0.7071068286895752
			]
		},
		{
			"mesh":2,
			"name":"Cushion_Seats_.003_Cushion_Seats",
			"rotation":[
				0.7071068286895752,
				0,
				0,
				0.7071068286895752
			]
		},
		{
			"mesh":3,
			"name":"William:_Cushion.003",
			"rotation":[
				0.7071068286895752,
				0,
				0,
				0.7071068286895752
			]
		},
		{
			"mesh":4,
			"name":"William:_Cushion.004",
			"rotation":[
				0.7071068286895752,
				0,
				0,
				0.7071068286895752
			]
		},
		{
			"mesh":5,
			"name":"William:_Cushion.005",
			"rotation":[
				0.7071068286895752,
				0,
				0,
				0.7071068286895752
			]
		},
		{
			"mesh":6,
			"name":"William:_Cushion_side",
			"rotation":[
				0.7071068286895752,
				0,
				0,
				0.7071068286895752
			]
		},
		{
			"mesh":7,
			"name":"William:_Cushion_side.001",
			"rotation":[
				0.7071068286895752,
				0,
				0,
				0.7071068286895752
			]
		},
		{
			"mesh":8,
			"name":"William_302_Zanotta.003",
			"rotation":[
				0.7071068286895752,
				0,
				0,
				0.7071068286895752
			]
		},
		{
			"mesh":9,
			"name":"William_302_Zanotta.004",
			"rotation":[
				0.7071068286895752,
				0,
				0,
				0.7071068286895752
			]
		},
		{
			"mesh":10,
			"name":"William_302_Zanotta.005",
			"rotation":[
				0.7071068286895752,
				0,
				0,
				0.7071068286895752
			]
		},
		{
			"mesh":11,
			"name":"William_302_Zanotta_Legs.001",
			"rotation":[
				0.7071068286895752,
				0,
				0,
				0.7071068286895752
			]
		}
	],
	"materials":[
		{
			"doubleSided":true,
			"extensions":{
				"KHR_materials_specular":{
					"specularFactor":0
				},
				"KHR_materials_ior":{
					"ior":1.4500000476837158
				}
			},
			"name":"Fabric_Couch.001",
			"pbrMetallicRoughness":{
				"baseColorFactor":[
					0.800000011920929,
					0.800000011920929,
					0.800000011920929,
					1
				],
				"metallicFactor":0
			}
		},
		{
			"doubleSided":true,
			"extensions":{
				"KHR_materials_specular":{
					"specularFactor":0
				},
				"KHR_materials_ior":{
					"ior":1.4500000476837158
				}
			},
			"name":"Metal.001",
			"pbrMetallicRoughness":{
				"baseColorFactor":[
					0.800000011920929,
					0.800000011920929,
					0.800000011920929,
					1
				],
				"metallicFactor":0
			}
		}
	],
	"meshes":[
		{
			"name":"Cushion_Seats.001_Cushion_Seats.001",
			"primitives":[
				{
					"attributes":{
						"POSITION":0,
						"NORMAL":1,
						"TEXCOORD_0":2
					},
					"indices":3,
					"material":0
				}
			]
		},
		{
			"name":"Cushion_Seats_.002_Cushion_Seats.001",
			"primitives":[
				{
					"attributes":{
						"POSITION":4,
						"NORMAL":5,
						"TEXCOORD_0":6
					},
					"indices":7,
					"material":0
				}
			]
		},
		{
			"name":"Cushion_Seats_.003_Cushion_Seats.001",
			"primitives":[
				{
					"attributes":{
						"POSITION":8,
						"NORMAL":9,
						"TEXCOORD_0":10
					},
					"indices":11,
					"material":0
				}
			]
		},
		{
			"name":"William:_Cushion.001",
			"primitives":[
				{
					"attributes":{
						"POSITION":12,
						"NORMAL":13,
						"TEXCOORD_0":14
					},
					"indices":15,
					"material":0
				}
			]
		},
		{
			"name":"William:_Cushion.002",
			"primitives":[
				{
					"attributes":{
						"POSITION":16,
						"NORMAL":17,
						"TEXCOORD_0":18
					},
					"indices":19,
					"material":0
				}
			]
		},
		{
			"name":"William:_Cushion.006",
			"primitives":[
				{
					"attributes":{
						"POSITION":20,
						"NORMAL":21,
						"TEXCOORD_0":22
					},
					"indices":23,
					"material":0
				}
			]
		},
		{
			"name":"William:_Cushion_side.002",
			"primitives":[
				{
					"attributes":{
						"POSITION":24,
						"NORMAL":25,
						"TEXCOORD_0":26
					},
					"indices":27,
					"material":0
				}
			]
		},
		{
			"name":"William:_Cushion_side.003",
			"primitives":[
				{
					"attributes":{
						"POSITION":28,
						"NORMAL":29,
						"TEXCOORD_0":30
					},
					"indices":31,
					"material":0
				}
			]
		},
		{
			"name":"William_302_Zanotta.001",
			"primitives":[
				{
					"attributes":{
						"POSITION":32,
						"NORMAL":33,
						"TEXCOORD_0":34
					},
					"indices":35,
					"material":0
				}
			]
		},
		{
			"name":"William_302_Zanotta.002",
			"primitives":[
				{
					"attributes":{
						"POSITION":36,
						"NORMAL":37,
						"TEXCOORD_0":38
					},
					"indices":39,
					"material":0
				}
			]
		},
		{
			"name":"William_302_Zanotta.006",
			"primitives":[
				{
					"attributes":{
						"POSITION":40,
						"NORMAL":41,
						"TEXCOORD_0":42
					},
					"indices":43,
					"material":0
				}
			]
		},
		{
			"name":"William_302_Zanotta_Legs.002",
			"primitives":[
				{
					"attributes":{
						"POSITION":44,
						"NORMAL":45,
						"TEXCOORD_0":46
					},
					"indices":47,
					"material":1
				}
			]
		}
	],
	"accessors":[
		{
			"bufferView":0,
			"componentType":5126,
			"count":22215,
			"max":[
				-0.3468180000782013,
				0.42849698662757874,
				-0.3201949894428253
			],
			"min":[
				-1.0429350137710571,
				-0.2676190137863159,
				-0.41749000549316406
			],
			"type":"VEC3"
		},
		{
			"bufferView":1,
			"componentType":5126,
			"count":22215,
			"type":"VEC3"
		},
		{
			"bufferView":2,
			"componentType":5126,
			"count":22215,
			"type":"VEC2"
		},
		{
			"bufferView":3,
			"componentType":5123,
			"count":129024,
			"type":"SCALAR"
		},
		{
			"bufferView":4,
			"componentType":5126,
			"count":22215,
			"max":[
				1.073199987411499,
				0.4287180006504059,
				-0.3201949894428253
			],
			"min":[
				0.3762679994106293,
				-0.2682360112667084,
				-0.41749000549316406
			],
			"type":"VEC3"
		},
		{
			"bufferView":5,
			"componentType":5126,
			"count":22215,
			"type":"VEC3"
		},
		{
			"bufferView":6,
			"componentType":5126,
			"count":22215,
			"type":"VEC2"
		},
		{
			"bufferView":7,
			"componentType":5123,
			"count":129024,
			"type":"SCALAR"
		},
		{
			"bufferView":8,
			"componentType":5126,
			"count":22215,
			"max":[
				0.3635160028934479,
				0.43289801478385925,
				-0.3201949894428253
			],
			"min":[
				-0.33260101079940796,
				-0.2632189989089966,
				-0.41749000549316406
			],
			"type":"VEC3"
		},
		{
			"bufferView":9,
			"componentType":5126,
			"count":22215,
			"type":"VEC3"
		},
		{
			"bufferView":10,
			"componentType":5126,
			"count":22215,
			"type":"VEC2"
		},
		{
			"bufferView":11,
			"componentType":5123,
			"count":129024,
			"type":"SCALAR"
		},
		{
			"bufferView":12,
			"componentType":5126,
			"count":5876,
			"max":[
				1.0507630109786987,
				-0.18861599266529083,
				-0.32335200905799866
			],
			"min":[
				0.34599199891090393,
				-0.5249210000038147,
				-0.9454169869422913
			],
			"type":"VEC3"
		},
		{
			"bufferView":13,
			"componentType":5126,
			"count":5876,
			"type":"VEC3"
		},
		{
			"bufferView":14,
			"componentType":5126,
			"count":5876,
			"type":"VEC2"
		},
		{
			"bufferView":15,
			"componentType":5123,
			"count":32226,
			"type":"SCALAR"
		},
		{
			"bufferView":16,
			"componentType":5126,
			"count":5874,
			"max":[
				0.35596001148223877,
				-0.18598200380802155,
				-0.32354098558425903
			],
			"min":[
				-0.34356799721717834,
				-0.5281090140342712,
				-0.9445269703865051
			],
			"type":"VEC3"
		},
		{
			"bufferView":17,
			"componentType":5126,
			"count":5874,
			"type":"VEC3"
		},
		{
			"bufferView":18,
			"componentType":5126,
			"count":5874,
			"type":"VEC2"
		},
		{
			"bufferView":19,
			"componentType":5123,
			"count":32220,
			"type":"SCALAR"
		},
		{
			"bufferView":20,
			"componentType":5126,
			"count":5876,
			"max":[
				-0.3551650047302246,
				-0.2052450031042099,
				-0.32331499457359314
			],
			"min":[
				-1.0641249418258667,
				-0.5168480277061462,
				-0.9579929709434509
			],
			"type":"VEC3"
		},
		{
			"bufferView":21,
			"componentType":5126,
			"count":5876,
			"type":"VEC3"
		},
		{
			"bufferView":22,
			"componentType":5126,
			"count":5876,
			"type":"VEC2"
		},
		{
			"bufferView":23,
			"componentType":5123,
			"count":32226,
			"type":"SCALAR"
		},
		{
			"bufferView":24,
			"componentType":5126,
			"count":3176,
			"max":[
				-0.8841699957847595,
				0.3451389968395233,
				-0.40199100971221924
			],
			"min":[
				-1.1143280267715454,
				-0.2272299975156784,
				-0.8061349987983704
			],
			"type":"VEC3"
		},
		{
			"bufferView":25,
			"componentType":5126,
			"count":3176,
			"type":"VEC3"
		},
		{
			"bufferView":26,
			"componentType":5126,
			"count":3176,
			"type":"VEC2"
		},
		{
			"bufferView":27,
			"componentType":5123,
			"count":17232,
			"type":"SCALAR"
		},
		{
			"bufferView":28,
			"componentType":5126,
			"count":3176,
			"max":[
				1.1080989837646484,
				0.33441299200057983,
				-0.4034450054168701
			],
			"min":[
				0.8581780195236206,
				-0.24839000403881073,
				-0.7937110066413879
			],
			"type":"VEC3"
		},
		{
			"bufferView":29,
			"componentType":5126,
			"count":3176,
			"type":"VEC3"
		},
		{
			"bufferView":30,
			"componentType":5126,
			"count":3176,
			"type":"VEC2"
		},
		{
			"bufferView":31,
			"componentType":5123,
			"count":17232,
			"type":"SCALAR"
		},
		{
			"bufferView":32,
			"componentType":5126,
			"count":4624,
			"max":[
				1.1012250185012817,
				0.25818100571632385,
				-0.2532469928264618
			],
			"min":[
				-1.1152210235595703,
				-0.47368600964546204,
				-0.6635410189628601
			],
			"type":"VEC3"
		},
		{
			"bufferView":33,
			"componentType":5126,
			"count":4624,
			"type":"VEC3"
		},
		{
			"bufferView":34,
			"componentType":5126,
			"count":4624,
			"type":"VEC2"
		},
		{
			"bufferView":35,
			"componentType":5123,
			"count":24768,
			"type":"SCALAR"
		},
		{
			"bufferView":36,
			"componentType":5126,
			"count":6288,
			"max":[
				1.1207599639892578,
				0.43491700291633606,
				-0.2539980113506317
			],
			"min":[
				-1.1192409992218018,
				-0.4228230118751526,
				-0.31959301233291626
			],
			"type":"VEC3"
		},
		{
			"bufferView":37,
			"componentType":5126,
			"count":6288,
			"type":"VEC3"
		},
		{
			"bufferView":38,
			"componentType":5126,
			"count":6288,
			"type":"VEC2"
		},
		{
			"bufferView":39,
			"componentType":5123,
			"count":34176,
			"type":"SCALAR"
		},
		{
			"bufferView":40,
			"componentType":5126,
			"count":2814,
			"max":[
				1.1208319664001465,
				0.43480798602104187,
				-0.18765200674533844
			],
			"min":[
				-1.1191680431365967,
				-0.4759179949760437,
				-0.2532469928264618
			],
			"type":"VEC3"
		},
		{
			"bufferView":41,
			"componentType":5126,
			"count":2814,
			"type":"VEC3"
		},
		{
			"bufferView":42,
			"componentType":5126,
			"count":2814,
			"type":"VEC2"
		},
		{
			"bufferView":43,
			"componentType":5123,
			"count":15360,
			"type":"SCALAR"
		},
		{
			"bufferView":44,
			"componentType":5126,
			"count":2711,
			"max":[
				1.103840947151184,
				0.42059600353240967,
				-0.00010299999848939478
			],
			"min":[
				-1.1021770238876343,
				-0.4617060124874115,
				-0.18617799878120422
			],
			"type":"VEC3"
		},
		{
			"bufferView":45,
			"componentType":5126,
			"count":2711,
			"type":"VEC3"
		},
		{
			"bufferView":46,
			"componentType":5126,
			"count":2711,
			"type":"VEC2"
		},
		{
			"bufferView":47,
			"componentType":5123,
			"count":13440,
			"type":"SCALAR"
		}
	],
	"bufferViews":[
		{
			"buffer":0,
			"byteLength":266580,
			"byteOffset":0,
			"target":34962
		},
		{
			"buffer":0,
			"byteLength":266580,
			"byteOffset":266580,
			"target":34962
		},
		{
			"buffer":0,
			"byteLength":177720,
			"byteOffset":533160,
			"target":34962
		},
		{
			"buffer":0,
			"byteLength":258048,
			"byteOffset":710880,
			"target":34963
		},
		{
			"buffer":0,
			"byteLength":266580,
			"byteOffset":968928,
			"target":34962
		},
		{
			"buffer":0,
			"byteLength":266580,
			"byteOffset":1235508,
			"target":34962
		},
		{
			"buffer":0,
			"byteLength":177720,
			"byteOffset":1502088,
			"target":34962
		},
		{
			"buffer":0,
			"byteLength":258048,
			"byteOffset":1679808,
			"target":34963
		},
		{
			"buffer":0,
			"byteLength":266580,
			"byteOffset":1937856,
			"target":34962
		},
		{
			"buffer":0,
			"byteLength":266580,
			"byteOffset":2204436,
			"target":34962
		},
		{
			"buffer":0,
			"byteLength":177720,
			"byteOffset":2471016,
			"target":34962
		},
		{
			"buffer":0,
			"byteLength":258048,
			"byteOffset":2648736,
			"target":34963
		},
		{
			"buffer":0,
			"byteLength":70512,
			"byteOffset":2906784,
			"target":34962
		},
		{
			"buffer":0,
			"byteLength":70512,
			"byteOffset":2977296,
			"target":34962
		},
		{
			"buffer":0,
			"byteLength":47008,
			"byteOffset":3047808,
			"target":34962
		},
		{
			"buffer":0,
			"byteLength":64452,
			"byteOffset":3094816,
			"target":34963
		},
		{
			"buffer":0,
			"byteLength":70488,
			"byteOffset":3159268,
			"target":34962
		},
		{
			"buffer":0,
			"byteLength":70488,
			"byteOffset":3229756,
			"target":34962
		},
		{
			"buffer":0,
			"byteLength":46992,
			"byteOffset":3300244,
			"target":34962
		},
		{
			"buffer":0,
			"byteLength":64440,
			"byteOffset":3347236,
			"target":34963
		},
		{
			"buffer":0,
			"byteLength":70512,
			"byteOffset":3411676,
			"target":34962
		},
		{
			"buffer":0,
			"byteLength":70512,
			"byteOffset":3482188,
			"target":34962
		},
		{
			"buffer":0,
			"byteLength":47008,
			"byteOffset":3552700,
			"target":34962
		},
		{
			"buffer":0,
			"byteLength":64452,
			"byteOffset":3599708,
			"target":34963
		},
		{
			"buffer":0,
			"byteLength":38112,
			"byteOffset":3664160,
			"target":34962
		},
		{
			"buffer":0,
			"byteLength":38112,
			"byteOffset":3702272,
			"target":34962
		},
		{
			"buffer":0,
			"byteLength":25408,
			"byteOffset":3740384,
			"target":34962
		},
		{
			"buffer":0,
			"byteLength":34464,
			"byteOffset":3765792,
			"target":34963
		},
		{
			"buffer":0,
			"byteLength":38112,
			"byteOffset":3800256,
			"target":34962
		},
		{
			"buffer":0,
			"byteLength":38112,
			"byteOffset":3838368,
			"target":34962
		},
		{
			"buffer":0,
			"byteLength":25408,
			"byteOffset":3876480,
			"target":34962
		},
		{
			"buffer":0,
			"byteLength":34464,
			"byteOffset":3901888,
			"target":34963
		},
		{
			"buffer":0,
			"byteLength":55488,
			"byteOffset":3936352,
			"target":34962
		},
		{
			"buffer":0,
			"byteLength":55488,
			"byteOffset":3991840,
			"target":34962
		},
		{
			"buffer":0,
			"byteLength":36992,
			"byteOffset":4047328,
			"target":34962
		},
		{
			"buffer":0,
			"byteLength":49536,
			"byteOffset":4084320,
			"target":34963
		},
		{
			"buffer":0,
			"byteLength":75456,
			"byteOffset":4133856,
			"target":34962
		},
		{
			"buffer":0,
			"byteLength":75456,
			"byteOffset":4209312,
			"target":34962
		},
		{
			"buffer":0,
			"byteLength":50304,
			"byteOffset":4284768,
			"target":34962
		},
		{
			"buffer":0,
			"byteLength":68352,
			"byteOffset":4335072,
			"target":34963
		},
		{
			"buffer":0,
			"byteLength":33768,
			"byteOffset":4403424,
			"target":34962
		},
		{
			"buffer":0,
			"byteLength":33768,
			"byteOffset":4437192,
			"target":34962
		},
		{
			"buffer":0,
			"byteLength":22512,
			"byteOffset":4470960,
			"target":34962
		},
		{
			"buffer":0,
			"byteLength":30720,
			"byteOffset":4493472,
			"target":34963
		},
		{
			"buffer":0,
			"byteLength":32532,
			"byteOffset":4524192,
			"target":34962
		},
		{
			"buffer":0,
			"byteLength":32532,
			"byteOffset":4556724,
			"target":34962
		},
		{
			"buffer":0,
			"byteLength":21688,
			"byteOffset":4589256,
			"target":34962
		},
		{
			"buffer":0,
			"byteLength":26880,
			"byteOffset":4610944,
			"target":34963
		}
	],
	"buffers":[
		{
			"byteLength":4637824,
			"uri":"couch.bin"
		}
	]
}
