{
	"asset":{
		"generator":"Khronos glTF Blender I/O v4.0.44",
		"version":"2.0"
	},
	"extensionsUsed":[
		"KHR_materials_specular",
		"KHR_materials_ior"
	],
	"scene":0,
	"scenes":[
		{
			"name":"Scene",
			"nodes":[
				0,
				1
			]
		}
	],
	"nodes":[
		{
			"mesh":0,
			"name":"sobc_legs",
			"scale":[
				0.009999999776482582,
				0.009999999776482582,
				0.009999999776482582
			],
			"translation":[
				0.00016479492478538305,
				0.017500033602118492,
				0.0003845214669127017
			]
		},
		{
			"mesh":1,
			"name":"sobc_body",
			"scale":[
				0.009999999776482582,
				0.009999999776482582,
				0.009999999776482582
			],
			"translation":[
				0,
				0.37869560718536377,
				0
			]
		}
	],
	"materials":[
		{
			"doubleSided":true,
			"extensions":{
				"KHR_materials_specular":{
					"specularTexture":{
						"index":0
					}
				},
				"KHR_materials_ior":{
					"ior":1.4500000476837158
				}
			},
			"name":"wood_Mat",
			"normalTexture":{
				"index":1,
				"scale":0.30000001192092896
			},
			"pbrMetallicRoughness":{
				"baseColorTexture":{
					"index":2
				},
				"metallicRoughnessTexture":{
					"index":3
				}
			}
		},
		{
			"doubleSided":true,
			"extensions":{
				"KHR_materials_specular":{
					"specularTexture":{
						"index":4
					}
				},
				"KHR_materials_ior":{
					"ior":1.4500000476837158
				}
			},
			"name":"upholstery_Mat",
			"normalTexture":{
				"index":5,
				"scale":0.30000001192092896
			},
			"pbrMetallicRoughness":{
				"baseColorTexture":{
					"index":6
				},
				"metallicRoughnessTexture":{
					"index":7
				}
			}
		}
	],
	"meshes":[
		{
			"name":"Mesh",
			"primitives":[
				{
					"attributes":{
						"POSITION":0,
						"NORMAL":1,
						"TEXCOORD_0":2
					},
					"indices":3,
					"material":0
				}
			]
		},
		{
			"name":"Mesh.001",
			"primitives":[
				{
					"attributes":{
						"POSITION":4,
						"NORMAL":5,
						"TEXCOORD_0":6
					},
					"indices":7,
					"material":1
				}
			]
		}
	],
	"textures":[
		{
			"sampler":0,
			"source":0
		},
		{
			"sampler":0,
			"source":1
		},
		{
			"sampler":0,
			"source":2
		},
		{
			"sampler":0,
			"source":3
		},
		{
			"sampler":0,
			"source":4
		},
		{
			"sampler":0,
			"source":5
		},
		{
			"sampler":0,
			"source":6
		},
		{
			"sampler":0,
			"source":7
		}
	],
	"images":[
		{
			"mimeType":"image/png",
			"name":"sofacabochon_wood_Mat_Specular",
			"uri":"sofacabochon_wood_Mat_Specular.png"
		},
		{
			"mimeType":"image/jpeg",
			"name":"sofacabochon_wood_Mat_Normal",
			"uri":"sofacabochon_wood_Mat_Normal.jpg"
		},
		{
			"mimeType":"image/jpeg",
			"name":"sofacabochon_wood_Mat_Diffuse",
			"uri":"sofacabochon_wood_Mat_Diffuse.jpg"
		},
		{
			"mimeType":"image/png",
			"name":"sofacabochon_wood_Mat_Glossiness",
			"uri":"sofacabochon_wood_Mat_Glossiness.png"
		},
		{
			"mimeType":"image/png",
			"name":"sofacabochon_upholstery_Mat_Specular",
			"uri":"sofacabochon_upholstery_Mat_Specular.png"
		},
		{
			"mimeType":"image/jpeg",
			"name":"sofacabochon_upholstery_Mat_Normal",
			"uri":"sofacabochon_upholstery_Mat_Normal.jpg"
		},
		{
			"mimeType":"image/jpeg",
			"name":"sofacabochon_upholstery_Mat_Diffuse",
			"uri":"sofacabochon_upholstery_Mat_Diffuse.jpg"
		},
		{
			"mimeType":"image/png",
			"name":"sofacabochon_upholstery_Mat_Glossiness",
			"uri":"sofacabochon_upholstery_Mat_Glossiness.png"
		}
	],
	"accessors":[
		{
			"bufferView":0,
			"componentType":5126,
			"count":2736,
			"max":[
				94.6751708984375,
				1.7500028610229492,
				36.7313232421875
			],
			"min":[
				-94.6751708984375,
				-1.7500027418136597,
				-36.7313232421875
			],
			"type":"VEC3"
		},
		{
			"bufferView":1,
			"componentType":5126,
			"count":2736,
			"type":"VEC3"
		},
		{
			"bufferView":2,
			"componentType":5126,
			"count":2736,
			"type":"VEC2"
		},
		{
			"bufferView":3,
			"componentType":5123,
			"count":13824,
			"type":"SCALAR"
		},
		{
			"bufferView":4,
			"componentType":5126,
			"count":15666,
			"max":[
				103.63251495361328,
				34.713775634765625,
				45.287967681884766
			],
			"min":[
				-103.63251495361328,
				-34.71377182006836,
				-45.287967681884766
			],
			"type":"VEC3"
		},
		{
			"bufferView":5,
			"componentType":5126,
			"count":15666,
			"type":"VEC3"
		},
		{
			"bufferView":6,
			"componentType":5126,
			"count":15666,
			"type":"VEC2"
		},
		{
			"bufferView":7,
			"componentType":5123,
			"count":91152,
			"type":"SCALAR"
		}
	],
	"bufferViews":[
		{
			"buffer":0,
			"byteLength":32832,
			"byteOffset":0,
			"target":34962
		},
		{
			"buffer":0,
			"byteLength":32832,
			"byteOffset":32832,
			"target":34962
		},
		{
			"buffer":0,
			"byteLength":21888,
			"byteOffset":65664,
			"target":34962
		},
		{
			"buffer":0,
			"byteLength":27648,
			"byteOffset":87552,
			"target":34963
		},
		{
			"buffer":0,
			"byteLength":187992,
			"byteOffset":115200,
			"target":34962
		},
		{
			"buffer":0,
			"byteLength":187992,
			"byteOffset":303192,
			"target":34962
		},
		{
			"buffer":0,
			"byteLength":125328,
			"byteOffset":491184,
			"target":34962
		},
		{
			"buffer":0,
			"byteLength":182304,
			"byteOffset":616512,
			"target":34963
		}
	],
	"samplers":[
		{
			"magFilter":9729,
			"minFilter":9987
		}
	],
	"buffers":[
		{
			"byteLength":798816,
			"uri":"SofaBaker.bin"
		}
	]
}
