{
	"asset":{
		"generator":"Khronos glTF Blender I/O v4.0.44",
		"version":"2.0"
	},
	"extensionsUsed":[
		"KHR_materials_emissive_strength"
	],
	"scene":0,
	"scenes":[
		{
			"name":"Scene",
			"nodes":[
				0,
				1,
				2,
				3,
				4,
				5,
				6,
				7,
				8,
				9,
				10,
				11
			]
		}
	],
	"nodes":[
		{
			"mesh":0,
			"name":"Cube",
			"scale":[
				1.9296518564224243,
				0.10965204238891602,
				5.269651889801025
			],
			"translation":[
				1.0469971895217896,
				12.905702590942383,
				3.2900283336639404
			]
		},
		{
			"mesh":1,
			"name":"Cube.001",
			"rotation":[
				0,
				0.7071066498756409,
				0,
				0.70710688829422
			],
			"scale":[
				1.7884273529052734,
				0.6119681000709534,
				0.7384274005889893
			],
			"translation":[
				-0.025944899767637253,
				12.603350639343262,
				0
			]
		},
		{
			"mesh":2,
			"name":"Cube.002",
			"rotation":[
				0,
				0.7071066498756409,
				0,
				0.70710688829422
			],
			"scale":[
				1.9296518564224243,
				0.10965204238891602,
				5.269651889801025
			],
			"translation":[
				0.9843094944953918,
				11.885271072387695,
				0.18927431106567383
			]
		},
		{
			"mesh":3,
			"name":"Cube.003",
			"scale":[
				1.9296518564224243,
				0.10965204238891602,
				5.269651889801025
			],
			"translation":[
				-1.0912160873413086,
				12.105740547180176,
				-1.4099520444869995
			]
		},
		{
			"mesh":4,
			"name":"Cylinder",
			"rotation":[
				0,
				0,
				-0.7071068286895752,
				0.7071068286895752
			],
			"scale":[
				0.017034225165843964,
				0.18104514479637146,
				0.017034225165843964
			],
			"translation":[
				0.6578359603881836,
				12.121743202209473,
				1.4233452081680298
			]
		},
		{
			"mesh":5,
			"name":"Cylinder.001",
			"rotation":[
				0,
				0,
				-0.7071068286895752,
				0.7071068286895752
			],
			"scale":[
				0.017034225165843964,
				0.18104514479637146,
				0.017034225165843964
			],
			"translation":[
				0.6578359603881836,
				12.121743202209473,
				-0.11324000358581543
			]
		},
		{
			"mesh":6,
			"name":"Cylinder.002",
			"rotation":[
				0,
				0,
				-0.7071068286895752,
				0.7071068286895752
			],
			"scale":[
				0.017034225165843964,
				0.18104514479637146,
				0.017034225165843964
			],
			"translation":[
				0.6578359603881836,
				12.121743202209473,
				-1.4500185251235962
			]
		},
		{
			"mesh":7,
			"name":"Cylinder.003",
			"rotation":[
				0,
				0,
				0.7071068286895752,
				0.7071068286895752
			],
			"scale":[
				0.017034225165843964,
				0.18104514479637146,
				0.017034225165843964
			],
			"translation":[
				-0.703423798084259,
				12.879355430603027,
				1.4233452081680298
			]
		},
		{
			"mesh":8,
			"name":"Cylinder.004",
			"rotation":[
				0,
				0,
				0.7071068286895752,
				0.7071068286895752
			],
			"scale":[
				0.017034225165843964,
				0.18104514479637146,
				0.017034225165843964
			],
			"translation":[
				-0.703423798084259,
				12.879355430603027,
				-0.11324000358581543
			]
		},
		{
			"mesh":9,
			"name":"Cylinder.005",
			"rotation":[
				0,
				0,
				0.7071068286895752,
				0.7071068286895752
			],
			"scale":[
				0.017034225165843964,
				0.18104514479637146,
				0.017034225165843964
			],
			"translation":[
				-0.703423798084259,
				12.879355430603027,
				-1.4500185251235962
			]
		},
		{
			"mesh":10,
			"name":"Cylinder.006",
			"rotation":[
				-0.5,
				0.5,
				-0.5,
				0.5000000596046448
			],
			"scale":[
				0.017034225165843964,
				0.18104514479637146,
				0.017034225165843964
			],
			"translation":[
				0.429054856300354,
				12.8966646194458,
				-1.7988651990890503
			]
		},
		{
			"mesh":11,
			"name":"Cylinder.007",
			"rotation":[
				-0.5,
				0.5,
				-0.5,
				0.5000000596046448
			],
			"scale":[
				0.017034225165843964,
				0.18104514479637146,
				0.017034225165843964
			],
			"translation":[
				-0.5198580622673035,
				12.8966646194458,
				-1.7988651990890503
			]
		}
	],
	"materials":[
		{
			"doubleSided":true,
			"name":"1.001",
			"pbrMetallicRoughness":{
				"baseColorFactor":[
					0.348927766084671,
					0.2304016500711441,
					0.11315593868494034,
					1
				],
				"roughnessFactor":0
			}
		},
		{
			"doubleSided":true,
			"emissiveFactor":[
				1,
				1,
				1
			],
			"extensions":{
				"KHR_materials_emissive_strength":{
					"emissiveStrength":20
				}
			},
			"name":"LIGHT.001",
			"pbrMetallicRoughness":{
				"baseColorFactor":[
					0.800000011920929,
					0.800000011920929,
					0.800000011920929,
					1
				],
				"metallicFactor":0,
				"roughnessFactor":0.5
			}
		},
		{
			"doubleSided":true,
			"name":"Material.006",
			"pbrMetallicRoughness":{
				"baseColorFactor":[
					0,
					0,
					0,
					1
				],
				"roughnessFactor":0
			}
		},
		{
			"doubleSided":true,
			"name":"Material.007",
			"pbrMetallicRoughness":{
				"baseColorFactor":[
					0.800000011920929,
					0.800000011920929,
					0.800000011920929,
					1
				],
				"metallicFactor":0
			}
		}
	],
	"meshes":[
		{
			"name":"Cube.007",
			"primitives":[
				{
					"attributes":{
						"POSITION":0,
						"NORMAL":1,
						"TEXCOORD_0":2
					},
					"indices":3,
					"material":0
				},
				{
					"attributes":{
						"POSITION":4,
						"NORMAL":5,
						"TEXCOORD_0":6
					},
					"indices":7,
					"material":1
				}
			]
		},
		{
			"name":"Cube.008",
			"primitives":[
				{
					"attributes":{
						"POSITION":8,
						"NORMAL":9,
						"TEXCOORD_0":10
					},
					"indices":11,
					"material":2
				},
				{
					"attributes":{
						"POSITION":12,
						"NORMAL":13,
						"TEXCOORD_0":14
					},
					"indices":15,
					"material":3
				}
			]
		},
		{
			"name":"Cube.009",
			"primitives":[
				{
					"attributes":{
						"POSITION":16,
						"NORMAL":17,
						"TEXCOORD_0":18
					},
					"indices":3,
					"material":0
				},
				{
					"attributes":{
						"POSITION":19,
						"NORMAL":20,
						"TEXCOORD_0":21
					},
					"indices":7,
					"material":1
				}
			]
		},
		{
			"name":"Cube.010",
			"primitives":[
				{
					"attributes":{
						"POSITION":22,
						"NORMAL":23,
						"TEXCOORD_0":24
					},
					"indices":3,
					"material":0
				},
				{
					"attributes":{
						"POSITION":25,
						"NORMAL":26,
						"TEXCOORD_0":27
					},
					"indices":7,
					"material":1
				}
			]
		},
		{
			"name":"Cylinder.009",
			"primitives":[
				{
					"attributes":{
						"POSITION":28,
						"NORMAL":29,
						"TEXCOORD_0":30
					},
					"indices":31
				}
			]
		},
		{
			"name":"Cylinder.010",
			"primitives":[
				{
					"attributes":{
						"POSITION":32,
						"NORMAL":33,
						"TEXCOORD_0":34
					},
					"indices":31
				}
			]
		},
		{
			"name":"Cylinder.011",
			"primitives":[
				{
					"attributes":{
						"POSITION":35,
						"NORMAL":36,
						"TEXCOORD_0":37
					},
					"indices":31
				}
			]
		},
		{
			"name":"Cylinder.012",
			"primitives":[
				{
					"attributes":{
						"POSITION":38,
						"NORMAL":39,
						"TEXCOORD_0":40
					},
					"indices":31
				}
			]
		},
		{
			"name":"Cylinder.013",
			"primitives":[
				{
					"attributes":{
						"POSITION":41,
						"NORMAL":42,
						"TEXCOORD_0":43
					},
					"indices":31
				}
			]
		},
		{
			"name":"Cylinder.014",
			"primitives":[
				{
					"attributes":{
						"POSITION":44,
						"NORMAL":45,
						"TEXCOORD_0":46
					},
					"indices":31
				}
			]
		},
		{
			"name":"Cylinder.015",
			"primitives":[
				{
					"attributes":{
						"POSITION":47,
						"NORMAL":48,
						"TEXCOORD_0":49
					},
					"indices":31
				}
			]
		},
		{
			"name":"Cylinder.016",
			"primitives":[
				{
					"attributes":{
						"POSITION":50,
						"NORMAL":51,
						"TEXCOORD_0":52
					},
					"indices":31
				}
			]
		}
	],
	"accessors":[
		{
			"bufferView":0,
			"componentType":5126,
			"count":32,
			"max":[
				1,
				1,
				1
			],
			"min":[
				-1,
				-1,
				-1
			],
			"type":"VEC3"
		},
		{
			"bufferView":1,
			"componentType":5126,
			"count":32,
			"type":"VEC3"
		},
		{
			"bufferView":2,
			"componentType":5126,
			"count":32,
			"type":"VEC2"
		},
		{
			"bufferView":3,
			"componentType":5123,
			"count":72,
			"type":"SCALAR"
		},
		{
			"bufferView":4,
			"componentType":5126,
			"count":16,
			"max":[
				0.9366718530654907,
				1,
				0.9727893471717834
			],
			"min":[
				-0.9366718530654907,
				-1,
				-0.976525604724884
			],
			"type":"VEC3"
		},
		{
			"bufferView":5,
			"componentType":5126,
			"count":16,
			"type":"VEC3"
		},
		{
			"bufferView":6,
			"componentType":5126,
			"count":16,
			"type":"VEC2"
		},
		{
			"bufferView":7,
			"componentType":5123,
			"count":24,
			"type":"SCALAR"
		},
		{
			"bufferView":8,
			"componentType":5126,
			"count":84,
			"max":[
				1.026458501815796,
				1,
				1
			],
			"min":[
				-0.9944878220558167,
				-1,
				-1
			],
			"type":"VEC3"
		},
		{
			"bufferView":9,
			"componentType":5126,
			"count":84,
			"type":"VEC3"
		},
		{
			"bufferView":10,
			"componentType":5126,
			"count":84,
			"type":"VEC2"
		},
		{
			"bufferView":11,
			"componentType":5123,
			"count":270,
			"type":"SCALAR"
		},
		{
			"bufferView":12,
			"componentType":5126,
			"count":124,
			"max":[
				1.026458501815796,
				1.355947732925415,
				1
			],
			"min":[
				-0.9944878220558167,
				1,
				-1
			],
			"type":"VEC3"
		},
		{
			"bufferView":13,
			"componentType":5126,
			"count":124,
			"type":"VEC3"
		},
		{
			"bufferView":14,
			"componentType":5126,
			"count":124,
			"type":"VEC2"
		},
		{
			"bufferView":15,
			"componentType":5123,
			"count":270,
			"type":"SCALAR"
		},
		{
			"bufferView":16,
			"componentType":5126,
			"count":32,
			"max":[
				1,
				1,
				1
			],
			"min":[
				-1,
				-1,
				-1
			],
			"type":"VEC3"
		},
		{
			"bufferView":17,
			"componentType":5126,
			"count":32,
			"type":"VEC3"
		},
		{
			"bufferView":18,
			"componentType":5126,
			"count":32,
			"type":"VEC2"
		},
		{
			"bufferView":19,
			"componentType":5126,
			"count":16,
			"max":[
				0.9366718530654907,
				1,
				0.9727893471717834
			],
			"min":[
				-0.9366718530654907,
				-1,
				-0.976525604724884
			],
			"type":"VEC3"
		},
		{
			"bufferView":20,
			"componentType":5126,
			"count":16,
			"type":"VEC3"
		},
		{
			"bufferView":21,
			"componentType":5126,
			"count":16,
			"type":"VEC2"
		},
		{
			"bufferView":22,
			"componentType":5126,
			"count":32,
			"max":[
				1,
				1,
				1
			],
			"min":[
				-1,
				-1,
				-1
			],
			"type":"VEC3"
		},
		{
			"bufferView":23,
			"componentType":5126,
			"count":32,
			"type":"VEC3"
		},
		{
			"bufferView":24,
			"componentType":5126,
			"count":32,
			"type":"VEC2"
		},
		{
			"bufferView":25,
			"componentType":5126,
			"count":16,
			"max":[
				0.9366718530654907,
				1,
				0.9727893471717834
			],
			"min":[
				-0.9366718530654907,
				-1,
				-0.976525604724884
			],
			"type":"VEC3"
		},
		{
			"bufferView":26,
			"componentType":5126,
			"count":16,
			"type":"VEC3"
		},
		{
			"bufferView":27,
			"componentType":5126,
			"count":16,
			"type":"VEC2"
		},
		{
			"bufferView":28,
			"componentType":5126,
			"count":514,
			"max":[
				2.297966241836548,
				1.1384896039962769,
				2.2946958541870117
			],
			"min":[
				-2.297966241836548,
				-1,
				-2.2990565299987793
			],
			"type":"VEC3"
		},
		{
			"bufferView":29,
			"componentType":5126,
			"count":514,
			"type":"VEC3"
		},
		{
			"bufferView":30,
			"componentType":5126,
			"count":514,
			"type":"VEC2"
		},
		{
			"bufferView":31,
			"componentType":5123,
			"count":1212,
			"type":"SCALAR"
		},
		{
			"bufferView":32,
			"componentType":5126,
			"count":514,
			"max":[
				2.297966241836548,
				1.1384896039962769,
				2.2946958541870117
			],
			"min":[
				-2.297966241836548,
				-1,
				-2.2990565299987793
			],
			"type":"VEC3"
		},
		{
			"bufferView":33,
			"componentType":5126,
			"count":514,
			"type":"VEC3"
		},
		{
			"bufferView":34,
			"componentType":5126,
			"count":514,
			"type":"VEC2"
		},
		{
			"bufferView":35,
			"componentType":5126,
			"count":514,
			"max":[
				2.297966241836548,
				1.1384896039962769,
				2.2946958541870117
			],
			"min":[
				-2.297966241836548,
				-1,
				-2.2990565299987793
			],
			"type":"VEC3"
		},
		{
			"bufferView":36,
			"componentType":5126,
			"count":514,
			"type":"VEC3"
		},
		{
			"bufferView":37,
			"componentType":5126,
			"count":514,
			"type":"VEC2"
		},
		{
			"bufferView":38,
			"componentType":5126,
			"count":514,
			"max":[
				2.297966241836548,
				1.1384896039962769,
				2.2946958541870117
			],
			"min":[
				-2.297966241836548,
				-1,
				-2.2990565299987793
			],
			"type":"VEC3"
		},
		{
			"bufferView":39,
			"componentType":5126,
			"count":514,
			"type":"VEC3"
		},
		{
			"bufferView":40,
			"componentType":5126,
			"count":514,
			"type":"VEC2"
		},
		{
			"bufferView":41,
			"componentType":5126,
			"count":514,
			"max":[
				2.297966241836548,
				1.1384896039962769,
				2.2946958541870117
			],
			"min":[
				-2.297966241836548,
				-1,
				-2.2990565299987793
			],
			"type":"VEC3"
		},
		{
			"bufferView":42,
			"componentType":5126,
			"count":514,
			"type":"VEC3"
		},
		{
			"bufferView":43,
			"componentType":5126,
			"count":514,
			"type":"VEC2"
		},
		{
			"bufferView":44,
			"componentType":5126,
			"count":514,
			"max":[
				2.297966241836548,
				1.1384896039962769,
				2.2946958541870117
			],
			"min":[
				-2.297966241836548,
				-1,
				-2.2990565299987793
			],
			"type":"VEC3"
		},
		{
			"bufferView":45,
			"componentType":5126,
			"count":514,
			"type":"VEC3"
		},
		{
			"bufferView":46,
			"componentType":5126,
			"count":514,
			"type":"VEC2"
		},
		{
			"bufferView":47,
			"componentType":5126,
			"count":514,
			"max":[
				2.297966241836548,
				1.1384896039962769,
				2.2946958541870117
			],
			"min":[
				-2.297966241836548,
				-1,
				-2.2990565299987793
			],
			"type":"VEC3"
		},
		{
			"bufferView":48,
			"componentType":5126,
			"count":514,
			"type":"VEC3"
		},
		{
			"bufferView":49,
			"componentType":5126,
			"count":514,
			"type":"VEC2"
		},
		{
			"bufferView":50,
			"componentType":5126,
			"count":514,
			"max":[
				2.297966241836548,
				1.1384896039962769,
				2.2946958541870117
			],
			"min":[
				-2.297966241836548,
				-1,
				-2.2990565299987793
			],
			"type":"VEC3"
		},
		{
			"bufferView":51,
			"componentType":5126,
			"count":514,
			"type":"VEC3"
		},
		{
			"bufferView":52,
			"componentType":5126,
			"count":514,
			"type":"VEC2"
		}
	],
	"bufferViews":[
		{
			"buffer":0,
			"byteLength":384,
			"byteOffset":0,
			"target":34962
		},
		{
			"buffer":0,
			"byteLength":384,
			"byteOffset":384,
			"target":34962
		},
		{
			"buffer":0,
			"byteLength":256,
			"byteOffset":768,
			"target":34962
		},
		{
			"buffer":0,
			"byteLength":144,
			"byteOffset":1024,
			"target":34963
		},
		{
			"buffer":0,
			"byteLength":192,
			"byteOffset":1168,
			"target":34962
		},
		{
			"buffer":0,
			"byteLength":192,
			"byteOffset":1360,
			"target":34962
		},
		{
			"buffer":0,
			"byteLength":128,
			"byteOffset":1552,
			"target":34962
		},
		{
			"buffer":0,
			"byteLength":48,
			"byteOffset":1680,
			"target":34963
		},
		{
			"buffer":0,
			"byteLength":1008,
			"byteOffset":1728,
			"target":34962
		},
		{
			"buffer":0,
			"byteLength":1008,
			"byteOffset":2736,
			"target":34962
		},
		{
			"buffer":0,
			"byteLength":672,
			"byteOffset":3744,
			"target":34962
		},
		{
			"buffer":0,
			"byteLength":540,
			"byteOffset":4416,
			"target":34963
		},
		{
			"buffer":0,
			"byteLength":1488,
			"byteOffset":4956,
			"target":34962
		},
		{
			"buffer":0,
			"byteLength":1488,
			"byteOffset":6444,
			"target":34962
		},
		{
			"buffer":0,
			"byteLength":992,
			"byteOffset":7932,
			"target":34962
		},
		{
			"buffer":0,
			"byteLength":540,
			"byteOffset":8924,
			"target":34963
		},
		{
			"buffer":0,
			"byteLength":384,
			"byteOffset":9464,
			"target":34962
		},
		{
			"buffer":0,
			"byteLength":384,
			"byteOffset":9848,
			"target":34962
		},
		{
			"buffer":0,
			"byteLength":256,
			"byteOffset":10232,
			"target":34962
		},
		{
			"buffer":0,
			"byteLength":192,
			"byteOffset":10488,
			"target":34962
		},
		{
			"buffer":0,
			"byteLength":192,
			"byteOffset":10680,
			"target":34962
		},
		{
			"buffer":0,
			"byteLength":128,
			"byteOffset":10872,
			"target":34962
		},
		{
			"buffer":0,
			"byteLength":384,
			"byteOffset":11000,
			"target":34962
		},
		{
			"buffer":0,
			"byteLength":384,
			"byteOffset":11384,
			"target":34962
		},
		{
			"buffer":0,
			"byteLength":256,
			"byteOffset":11768,
			"target":34962
		},
		{
			"buffer":0,
			"byteLength":192,
			"byteOffset":12024,
			"target":34962
		},
		{
			"buffer":0,
			"byteLength":192,
			"byteOffset":12216,
			"target":34962
		},
		{
			"buffer":0,
			"byteLength":128,
			"byteOffset":12408,
			"target":34962
		},
		{
			"buffer":0,
			"byteLength":6168,
			"byteOffset":12536,
			"target":34962
		},
		{
			"buffer":0,
			"byteLength":6168,
			"byteOffset":18704,
			"target":34962
		},
		{
			"buffer":0,
			"byteLength":4112,
			"byteOffset":24872,
			"target":34962
		},
		{
			"buffer":0,
			"byteLength":2424,
			"byteOffset":28984,
			"target":34963
		},
		{
			"buffer":0,
			"byteLength":6168,
			"byteOffset":31408,
			"target":34962
		},
		{
			"buffer":0,
			"byteLength":6168,
			"byteOffset":37576,
			"target":34962
		},
		{
			"buffer":0,
			"byteLength":4112,
			"byteOffset":43744,
			"target":34962
		},
		{
			"buffer":0,
			"byteLength":6168,
			"byteOffset":47856,
			"target":34962
		},
		{
			"buffer":0,
			"byteLength":6168,
			"byteOffset":54024,
			"target":34962
		},
		{
			"buffer":0,
			"byteLength":4112,
			"byteOffset":60192,
			"target":34962
		},
		{
			"buffer":0,
			"byteLength":6168,
			"byteOffset":64304,
			"target":34962
		},
		{
			"buffer":0,
			"byteLength":6168,
			"byteOffset":70472,
			"target":34962
		},
		{
			"buffer":0,
			"byteLength":4112,
			"byteOffset":76640,
			"target":34962
		},
		{
			"buffer":0,
			"byteLength":6168,
			"byteOffset":80752,
			"target":34962
		},
		{
			"buffer":0,
			"byteLength":6168,
			"byteOffset":86920,
			"target":34962
		},
		{
			"buffer":0,
			"byteLength":4112,
			"byteOffset":93088,
			"target":34962
		},
		{
			"buffer":0,
			"byteLength":6168,
			"byteOffset":97200,
			"target":34962
		},
		{
			"buffer":0,
			"byteLength":6168,
			"byteOffset":103368,
			"target":34962
		},
		{
			"buffer":0,
			"byteLength":4112,
			"byteOffset":109536,
			"target":34962
		},
		{
			"buffer":0,
			"byteLength":6168,
			"byteOffset":113648,
			"target":34962
		},
		{
			"buffer":0,
			"byteLength":6168,
			"byteOffset":119816,
			"target":34962
		},
		{
			"buffer":0,
			"byteLength":4112,
			"byteOffset":125984,
			"target":34962
		},
		{
			"buffer":0,
			"byteLength":6168,
			"byteOffset":130096,
			"target":34962
		},
		{
			"buffer":0,
			"byteLength":6168,
			"byteOffset":136264,
			"target":34962
		},
		{
			"buffer":0,
			"byteLength":4112,
			"byteOffset":142432,
			"target":34962
		}
	],
	"buffers":[
		{
			"byteLength":146544,
			"uri":"ceilingLight.bin"
		}
	]
}
