{
	"asset":{
		"generator":"Khronos glTF Blender I/O v4.0.44",
		"version":"2.0"
	},
	"scene":0,
	"scenes":[
		{
			"name":"Scene",
			"nodes":[
				13
			]
		}
	],
	"nodes":[
		{
			"mesh":0,
			"name":"Object_11"
		},
		{
			"mesh":1,
			"name":"Object_2"
		},
		{
			"mesh":2,
			"name":"Object_3"
		},
		{
			"mesh":3,
			"name":"Object_12"
		},
		{
			"children":[
				3
			],
			"mesh":4,
			"name":"Object_40"
		},
		{
			"mesh":5,
			"name":"Object_41"
		},
		{
			"mesh":6,
			"name":"Object_56"
		},
		{
			"mesh":7,
			"name":"Object_78"
		},
		{
			"mesh":8,
			"name":"Object_79"
		},
		{
			"mesh":9,
			"name":"Object_80"
		},
		{
			"mesh":10,
			"name":"Object_81"
		},
		{
			"mesh":11,
			"name":"Object_9"
		},
		{
			"children":[
				0,
				1,
				2,
				4,
				5,
				6,
				7,
				8,
				9,
				10,
				11
			],
			"name":"export.obj.cleaner.materialmerger.gles"
		},
		{
			"children":[
				12
			],
			"name":"Sketchfab_model",
			"rotation":[
				-0.70710688829422,
				0,
				0,
				0.7071066498756409
			]
		}
	],
	"materials":[
		{
			"doubleSided":true,
			"name":"enduit_004_Room_Entity_Material",
			"pbrMetallicRoughness":{
				"metallicFactor":0
			}
		},
		{
			"doubleSided":true,
			"name":"brique_004_Wall_Entity_Material",
			"pbrMetallicRoughness":{
				"metallicFactor":0
			}
		},
		{
			"doubleSided":true,
			"name":"brique_011_ovcold4a838colpic06contpic00_Wall_Entity_Material",
			"pbrMetallicRoughness":{
				"metallicFactor":0
			}
		},
		{
			"doubleSided":true,
			"name":"enduit_004_Wall_Entity_Material",
			"pbrMetallicRoughness":{
				"metallicFactor":0
			}
		},
		{
			"alphaMode":"BLEND",
			"doubleSided":true,
			"name":"fenetre_043________phong1sg6",
			"pbrMetallicRoughness":{
				"baseColorFactor":[
					0.9960780143737793,
					0.9960780143737793,
					0.9960780143737793,
					0.3019610047340393
				],
				"metallicFactor":0
			}
		},
		{
			"doubleSided":true,
			"name":"fenetre_043____mat_metalbasique006sg",
			"pbrMetallicRoughness":{
				"baseColorFactor":[
					0,
					0,
					0.009999999776482582,
					1
				],
				"metallicFactor":0,
				"roughnessFactor":0.949999988079071
			}
		},
		{
			"doubleSided":true,
			"name":"photo-1585348697655-652a03ee7cc4_Room_Entity_Material",
			"pbrMetallicRoughness":{
				"baseColorTexture":{
					"index":0
				},
				"metallicFactor":0
			}
		},
		{
			"doubleSided":true,
			"name":"porte_041___initialshadinggroup",
			"pbrMetallicRoughness":{
				"baseColorFactor":[
					0.5,
					0.5,
					0.5,
					1
				],
				"metallicFactor":0
			}
		},
		{
			"alphaMode":"BLEND",
			"doubleSided":true,
			"name":"porte_041___lambert2sg",
			"pbrMetallicRoughness":{
				"baseColorFactor":[
					0.9960780143737793,
					0.9960780143737793,
					0.9960780143737793,
					0.3019610047340393
				],
				"metallicFactor":0
			}
		},
		{
			"doubleSided":true,
			"name":"porte_041___mat_metalbasique001sg",
			"pbrMetallicRoughness":{
				"baseColorFactor":[
					0.7300000190734863,
					0.8899999856948853,
					1,
					1
				],
				"metallicFactor":0,
				"roughnessFactor":0.949999988079071
			}
		},
		{
			"doubleSided":true,
			"name":"porte_041___mat_metalbasique004sg",
			"pbrMetallicRoughness":{
				"baseColorFactor":[
					0,
					0.009999999776482582,
					0.009999999776482582,
					1
				],
				"metallicFactor":0,
				"roughnessFactor":0.949999988079071
			}
		},
		{
			"doubleSided":true,
			"name":"dark-grey-slate-tiles-mohawk-vinyl-sheet-flooring-u4770-196c999",
			"pbrMetallicRoughness":{
				"baseColorTexture":{
					"index":1
				},
				"metallicFactor":0
			}
		}
	],
	"meshes":[
		{
			"name":"Object_9",
			"primitives":[
				{
					"attributes":{
						"POSITION":0,
						"NORMAL":1,
						"TEXCOORD_0":2
					},
					"indices":3,
					"material":0
				}
			]
		},
		{
			"name":"Object_0",
			"primitives":[
				{
					"attributes":{
						"POSITION":4,
						"NORMAL":5,
						"TEXCOORD_0":6
					},
					"indices":7,
					"material":1
				}
			]
		},
		{
			"name":"Object_1",
			"primitives":[
				{
					"attributes":{
						"POSITION":8,
						"NORMAL":9,
						"TEXCOORD_0":10
					},
					"indices":11,
					"material":2
				}
			]
		},
		{
			"name":"Object_10",
			"primitives":[
				{
					"attributes":{
						"POSITION":12,
						"NORMAL":13,
						"TEXCOORD_0":14
					},
					"indices":15,
					"material":3
				}
			]
		},
		{
			"name":"Object_38",
			"primitives":[
				{
					"attributes":{
						"POSITION":16,
						"NORMAL":17
					},
					"indices":18,
					"material":4
				}
			]
		},
		{
			"name":"Object_39",
			"primitives":[
				{
					"attributes":{
						"POSITION":19,
						"NORMAL":20
					},
					"indices":21,
					"material":5
				}
			]
		},
		{
			"name":"Object_54",
			"primitives":[
				{
					"attributes":{
						"POSITION":22,
						"NORMAL":23,
						"TEXCOORD_0":24
					},
					"indices":25,
					"material":6
				}
			]
		},
		{
			"name":"Object_76",
			"primitives":[
				{
					"attributes":{
						"POSITION":26,
						"NORMAL":27
					},
					"indices":28,
					"material":7
				}
			]
		},
		{
			"name":"Object_77",
			"primitives":[
				{
					"attributes":{
						"POSITION":29,
						"NORMAL":30
					},
					"indices":31,
					"material":8
				}
			]
		},
		{
			"name":"Object_78",
			"primitives":[
				{
					"attributes":{
						"POSITION":32,
						"NORMAL":33
					},
					"indices":34,
					"material":9
				}
			]
		},
		{
			"name":"Object_79",
			"primitives":[
				{
					"attributes":{
						"POSITION":35,
						"NORMAL":36
					},
					"indices":37,
					"material":10
				}
			]
		},
		{
			"name":"Object_7",
			"primitives":[
				{
					"attributes":{
						"POSITION":38,
						"NORMAL":39,
						"TEXCOORD_0":40
					},
					"indices":41,
					"material":11
				}
			]
		}
	],
	"textures":[
		{
			"sampler":0,
			"source":0
		},
		{
			"sampler":0,
			"source":1
		}
	],
	"images":[
		{
			"mimeType":"image/jpeg",
			"name":"photo-1585348697655-652a03ee7cc4_Room_Entity_Material_baseColor",
			"uri":"photo-1585348697655-652a03ee7cc4_Room_Entity_Material_baseColor.jpg"
		},
		{
			"mimeType":"image/jpeg",
			"name":"dark-grey-slate-tiles-mohawk-vinyl-sheet-flooring-u4770-196c999p158-64_300_Room_Entity_Material_baseColor",
			"uri":"dark-grey-slate-tiles-mohawk-vinyl-sheet-flooring-u4770-196c999p158-64_300_Room_Entity_Material_baseColor.jpg"
		}
	],
	"accessors":[
		{
			"bufferView":0,
			"componentType":5126,
			"count":26,
			"max":[
				7.78667688369751,
				9.790888786315918,
				-0.24999970197677612
			],
			"min":[
				-14.206607818603516,
				-6.742950439453125,
				-0.2500004172325134
			],
			"type":"VEC3"
		},
		{
			"bufferView":1,
			"componentType":5126,
			"count":26,
			"type":"VEC3"
		},
		{
			"bufferView":2,
			"componentType":5126,
			"count":26,
			"type":"VEC2"
		},
		{
			"bufferView":3,
			"componentType":5123,
			"count":75,
			"type":"SCALAR"
		},
		{
			"bufferView":4,
			"componentType":5126,
			"count":225,
			"max":[
				7.78667688369751,
				9.790888786315918,
				2.700000286102295
			],
			"min":[
				-14.206607818603516,
				-6.742950439453125,
				-0.2500004172325134
			],
			"type":"VEC3"
		},
		{
			"bufferView":5,
			"componentType":5126,
			"count":225,
			"type":"VEC3"
		},
		{
			"bufferView":6,
			"componentType":5126,
			"count":225,
			"type":"VEC2"
		},
		{
			"bufferView":7,
			"componentType":5123,
			"count":354,
			"type":"SCALAR"
		},
		{
			"bufferView":8,
			"componentType":5126,
			"count":370,
			"max":[
				7.586677551269531,
				9.590933799743652,
				2.7000012397766113
			],
			"min":[
				-14.006607055664062,
				-6.558884620666504,
				-0.2500004172325134
			],
			"type":"VEC3"
		},
		{
			"bufferView":9,
			"componentType":5126,
			"count":370,
			"type":"VEC3"
		},
		{
			"bufferView":10,
			"componentType":5126,
			"count":370,
			"type":"VEC2"
		},
		{
			"bufferView":11,
			"componentType":5123,
			"count":477,
			"type":"SCALAR"
		},
		{
			"bufferView":12,
			"componentType":5126,
			"count":122,
			"max":[
				7.78667688369751,
				9.790888786315918,
				2.700000286102295
			],
			"min":[
				-14.206607818603516,
				-6.742950439453125,
				-2.004429461521795e-06
			],
			"type":"VEC3"
		},
		{
			"bufferView":13,
			"componentType":5126,
			"count":122,
			"type":"VEC3"
		},
		{
			"bufferView":14,
			"componentType":5126,
			"count":122,
			"type":"VEC2"
		},
		{
			"bufferView":15,
			"componentType":5123,
			"count":273,
			"type":"SCALAR"
		},
		{
			"bufferView":16,
			"componentType":5126,
			"count":50,
			"max":[
				4.4239912033081055,
				-6.25383186340332,
				2.367607355117798
			],
			"min":[
				-3.890658378601074,
				-6.502227306365967,
				0.020824270322918892
			],
			"type":"VEC3"
		},
		{
			"bufferView":17,
			"componentType":5126,
			"count":50,
			"type":"VEC3"
		},
		{
			"bufferView":18,
			"componentType":5123,
			"count":72,
			"type":"SCALAR"
		},
		{
			"bufferView":19,
			"componentType":5126,
			"count":2450,
			"max":[
				4.452329635620117,
				-6.193419456481934,
				2.3865623474121094
			],
			"min":[
				-3.917172431945801,
				-6.559329032897949,
				2.7072294983554457e-07
			],
			"type":"VEC3"
		},
		{
			"bufferView":20,
			"componentType":5126,
			"count":2450,
			"type":"VEC3"
		},
		{
			"bufferView":21,
			"componentType":5123,
			"count":5460,
			"type":"SCALAR"
		},
		{
			"bufferView":22,
			"componentType":5126,
			"count":11,
			"max":[
				7.686676979064941,
				9.690888404846191,
				2.9037272497589584e-07
			],
			"min":[
				-14.106607437133789,
				-6.642953395843506,
				-4.236021879933105e-07
			],
			"type":"VEC3"
		},
		{
			"bufferView":23,
			"componentType":5126,
			"count":11,
			"type":"VEC3"
		},
		{
			"bufferView":24,
			"componentType":5126,
			"count":11,
			"type":"VEC2"
		},
		{
			"bufferView":25,
			"componentType":5123,
			"count":24,
			"type":"SCALAR"
		},
		{
			"bufferView":26,
			"componentType":5126,
			"count":225,
			"max":[
				-0.24243688583374023,
				-6.421723365783691,
				1.9876832962036133
			],
			"min":[
				-0.25077155232429504,
				-6.430058002471924,
				0.045367281883955
			],
			"type":"VEC3"
		},
		{
			"bufferView":27,
			"componentType":5126,
			"count":225,
			"type":"VEC3"
		},
		{
			"bufferView":28,
			"componentType":5123,
			"count":384,
			"type":"SCALAR"
		},
		{
			"bufferView":29,
			"componentType":5126,
			"count":76,
			"max":[
				1.1862481832504272,
				-6.4005231857299805,
				1.9372742176055908
			],
			"min":[
				-0.6996726989746094,
				-6.489572048187256,
				0.05269628018140793
			],
			"type":"VEC3"
		},
		{
			"bufferView":30,
			"componentType":5126,
			"count":76,
			"type":"VEC3"
		},
		{
			"bufferView":31,
			"componentType":5123,
			"count":108,
			"type":"SCALAR"
		},
		{
			"bufferView":32,
			"componentType":5126,
			"count":806,
			"max":[
				0.7226352691650391,
				-6.366056442260742,
				1.075216293334961
			],
			"min":[
				0.5798472166061401,
				-6.517675876617432,
				0.952461302280426
			],
			"type":"VEC3"
		},
		{
			"bufferView":33,
			"componentType":5126,
			"count":806,
			"type":"VEC3"
		},
		{
			"bufferView":34,
			"componentType":5123,
			"count":1218,
			"type":"SCALAR"
		},
		{
			"bufferView":35,
			"componentType":5126,
			"count":548,
			"max":[
				1.2479108572006226,
				-6.3886542320251465,
				2.08561635017395
			],
			"min":[
				-0.7613354921340942,
				-6.501440048217773,
				2.7925693757424597e-07
			],
			"type":"VEC3"
		},
		{
			"bufferView":36,
			"componentType":5126,
			"count":548,
			"type":"VEC3"
		},
		{
			"bufferView":37,
			"componentType":5123,
			"count":996,
			"type":"SCALAR"
		},
		{
			"bufferView":38,
			"componentType":5126,
			"count":4,
			"max":[
				7.686676979064941,
				9.690888404846191,
				-3.2120360060616804e-07
			],
			"min":[
				3.865300178527832,
				7.3482818603515625,
				-4.236021879933105e-07
			],
			"type":"VEC3"
		},
		{
			"bufferView":39,
			"componentType":5126,
			"count":4,
			"type":"VEC3"
		},
		{
			"bufferView":40,
			"componentType":5126,
			"count":4,
			"type":"VEC2"
		},
		{
			"bufferView":41,
			"componentType":5123,
			"count":6,
			"type":"SCALAR"
		}
	],
	"bufferViews":[
		{
			"buffer":0,
			"byteLength":312,
			"byteOffset":0,
			"target":34962
		},
		{
			"buffer":0,
			"byteLength":312,
			"byteOffset":312,
			"target":34962
		},
		{
			"buffer":0,
			"byteLength":208,
			"byteOffset":624,
			"target":34962
		},
		{
			"buffer":0,
			"byteLength":150,
			"byteOffset":832,
			"target":34963
		},
		{
			"buffer":0,
			"byteLength":2700,
			"byteOffset":984,
			"target":34962
		},
		{
			"buffer":0,
			"byteLength":2700,
			"byteOffset":3684,
			"target":34962
		},
		{
			"buffer":0,
			"byteLength":1800,
			"byteOffset":6384,
			"target":34962
		},
		{
			"buffer":0,
			"byteLength":708,
			"byteOffset":8184,
			"target":34963
		},
		{
			"buffer":0,
			"byteLength":4440,
			"byteOffset":8892,
			"target":34962
		},
		{
			"buffer":0,
			"byteLength":4440,
			"byteOffset":13332,
			"target":34962
		},
		{
			"buffer":0,
			"byteLength":2960,
			"byteOffset":17772,
			"target":34962
		},
		{
			"buffer":0,
			"byteLength":954,
			"byteOffset":20732,
			"target":34963
		},
		{
			"buffer":0,
			"byteLength":1464,
			"byteOffset":21688,
			"target":34962
		},
		{
			"buffer":0,
			"byteLength":1464,
			"byteOffset":23152,
			"target":34962
		},
		{
			"buffer":0,
			"byteLength":976,
			"byteOffset":24616,
			"target":34962
		},
		{
			"buffer":0,
			"byteLength":546,
			"byteOffset":25592,
			"target":34963
		},
		{
			"buffer":0,
			"byteLength":600,
			"byteOffset":26140,
			"target":34962
		},
		{
			"buffer":0,
			"byteLength":600,
			"byteOffset":26740,
			"target":34962
		},
		{
			"buffer":0,
			"byteLength":144,
			"byteOffset":27340,
			"target":34963
		},
		{
			"buffer":0,
			"byteLength":29400,
			"byteOffset":27484,
			"target":34962
		},
		{
			"buffer":0,
			"byteLength":29400,
			"byteOffset":56884,
			"target":34962
		},
		{
			"buffer":0,
			"byteLength":10920,
			"byteOffset":86284,
			"target":34963
		},
		{
			"buffer":0,
			"byteLength":132,
			"byteOffset":97204,
			"target":34962
		},
		{
			"buffer":0,
			"byteLength":132,
			"byteOffset":97336,
			"target":34962
		},
		{
			"buffer":0,
			"byteLength":88,
			"byteOffset":97468,
			"target":34962
		},
		{
			"buffer":0,
			"byteLength":48,
			"byteOffset":97556,
			"target":34963
		},
		{
			"buffer":0,
			"byteLength":2700,
			"byteOffset":97604,
			"target":34962
		},
		{
			"buffer":0,
			"byteLength":2700,
			"byteOffset":100304,
			"target":34962
		},
		{
			"buffer":0,
			"byteLength":768,
			"byteOffset":103004,
			"target":34963
		},
		{
			"buffer":0,
			"byteLength":912,
			"byteOffset":103772,
			"target":34962
		},
		{
			"buffer":0,
			"byteLength":912,
			"byteOffset":104684,
			"target":34962
		},
		{
			"buffer":0,
			"byteLength":216,
			"byteOffset":105596,
			"target":34963
		},
		{
			"buffer":0,
			"byteLength":9672,
			"byteOffset":105812,
			"target":34962
		},
		{
			"buffer":0,
			"byteLength":9672,
			"byteOffset":115484,
			"target":34962
		},
		{
			"buffer":0,
			"byteLength":2436,
			"byteOffset":125156,
			"target":34963
		},
		{
			"buffer":0,
			"byteLength":6576,
			"byteOffset":127592,
			"target":34962
		},
		{
			"buffer":0,
			"byteLength":6576,
			"byteOffset":134168,
			"target":34962
		},
		{
			"buffer":0,
			"byteLength":1992,
			"byteOffset":140744,
			"target":34963
		},
		{
			"buffer":0,
			"byteLength":48,
			"byteOffset":142736,
			"target":34962
		},
		{
			"buffer":0,
			"byteLength":48,
			"byteOffset":142784,
			"target":34962
		},
		{
			"buffer":0,
			"byteLength":32,
			"byteOffset":142832,
			"target":34962
		},
		{
			"buffer":0,
			"byteLength":12,
			"byteOffset":142864,
			"target":34963
		}
	],
	"samplers":[
		{
			"magFilter":9729,
			"minFilter":9987
		}
	],
	"buffers":[
		{
			"byteLength":142876,
			"uri":"room2.bin"
		}
	]
}
