{
	"asset":{
		"generator":"Khronos glTF Blender I/O v4.0.44",
		"version":"2.0"
	},
	"extensionsUsed":[
		"KHR_materials_specular",
		"KHR_materials_ior"
	],
	"scene":0,
	"scenes":[
		{
			"name":"Scene",
			"nodes":[
				2,
				3,
				4,
				5,
				6,
				7
			]
		}
	],
	"nodes":[
		{
			"name":"transform1",
			"rotation":[
				-0.7071068286895752,
				0,
				0,
				0.7071068286895752
			],
			"scale":[
				100,
				100,
				100
			],
			"translation":[
				0,
				1.8343724012374878,
				5.029661178588867
			]
		},
		{
			"children":[
				0
			],
			"name":"Espejo",
			"translation":[
				0,
				-1.8343724012374878,
				-5.029661178588867
			]
		},
		{
			"children":[
				1
			],
			"name":"Accesorios",
			"rotation":[
				0.7071068286895752,
				0,
				0,
				0.7071068286895752
			],
			"scale":[
				0.009999999776482582,
				0.009999999776482582,
				0.009999999776482582
			]
		},
		{
			"name":"Cuarto",
			"rotation":[
				0.7071068286895752,
				0,
				0,
				0.7071068286895752
			],
			"scale":[
				0.009999999776482582,
				0.009999999776482582,
				0.009999999776482582
			]
		},
		{
			"name":"aiSkyDomeLight1",
			"rotation":[
				0.7071068286895752,
				0,
				0,
				0.7071068286895752
			],
			"scale":[
				0.009999999776482582,
				0.009999999776482582,
				0.009999999776482582
			]
		},
		{
			"mesh":0,
			"name":"Nori_L_GalottiRadice_LP",
			"scale":[
				0.010003159753978252,
				0.010017230175435543,
				0.01000163983553648
			],
			"translation":[
				0.008268259465694427,
				-0.00023277213040273637,
				0.019468000158667564
			]
		},
		{
			"mesh":1,
			"name":"Nori_XL_GalottiRadice_LP",
			"scale":[
				0.010003159753978252,
				0.010017230175435543,
				0.01000163983553648
			],
			"translation":[
				0.008268259465694427,
				-0.00023276734282262623,
				-1.1283549070358276
			]
		},
		{
			"mesh":2,
			"name":"Nori_S_GalottiRadice_LP.001",
			"scale":[
				0.010003159753978252,
				0.010017230175435543,
				0.01000163983553648
			],
			"translation":[
				0.8347429037094116,
				-0.10243573784828186,
				0.2377791702747345
			]
		}
	],
	"materials":[
		{
			"doubleSided":true,
			"extensions":{
				"KHR_materials_specular":{
					"specularFactor":0
				},
				"KHR_materials_ior":{
					"ior":1.4500000476837158
				}
			},
			"name":"Material #73.001",
			"pbrMetallicRoughness":{
				"baseColorFactor":[
					0.5879999995231628,
					0.5879999995231628,
					0.5879999995231628,
					1
				],
				"roughnessFactor":0.858578622341156
			}
		}
	],
	"meshes":[
		{
			"name":"Mesh.023",
			"primitives":[
				{
					"attributes":{
						"POSITION":0,
						"NORMAL":1,
						"TEXCOORD_0":2
					},
					"indices":3,
					"material":0
				}
			]
		},
		{
			"name":"Mesh.024",
			"primitives":[
				{
					"attributes":{
						"POSITION":4,
						"NORMAL":5,
						"TEXCOORD_0":6
					},
					"indices":3,
					"material":0
				}
			]
		},
		{
			"name":"Mesh.026",
			"primitives":[
				{
					"attributes":{
						"POSITION":7,
						"NORMAL":8,
						"TEXCOORD_0":9
					},
					"indices":3,
					"material":0
				}
			]
		}
	],
	"accessors":[
		{
			"bufferView":0,
			"componentType":5126,
			"count":308,
			"max":[
				42.6596794128418,
				28.450969696044922,
				43.85858917236328
			],
			"min":[
				-44.312808990478516,
				0,
				-47.126529693603516
			],
			"type":"VEC3"
		},
		{
			"bufferView":1,
			"componentType":5126,
			"count":308,
			"type":"VEC3"
		},
		{
			"bufferView":2,
			"componentType":5126,
			"count":308,
			"type":"VEC2"
		},
		{
			"bufferView":3,
			"componentType":5123,
			"count":1080,
			"type":"SCALAR"
		},
		{
			"bufferView":4,
			"componentType":5126,
			"count":308,
			"max":[
				49.65745162963867,
				25.829275131225586,
				51.357364654541016
			],
			"min":[
				-51.310585021972656,
				2.3697030544281006,
				-54.62532043457031
			],
			"type":"VEC3"
		},
		{
			"bufferView":5,
			"componentType":5126,
			"count":308,
			"type":"VEC3"
		},
		{
			"bufferView":6,
			"componentType":5126,
			"count":308,
			"type":"VEC2"
		},
		{
			"bufferView":7,
			"componentType":5126,
			"count":308,
			"max":[
				24.415447235107422,
				38.43376541137695,
				24.861663818359375
			],
			"min":[
				-26.068572998046875,
				-3.334134817123413e-07,
				-28.129669189453125
			],
			"type":"VEC3"
		},
		{
			"bufferView":8,
			"componentType":5126,
			"count":308,
			"type":"VEC3"
		},
		{
			"bufferView":9,
			"componentType":5126,
			"count":308,
			"type":"VEC2"
		}
	],
	"bufferViews":[
		{
			"buffer":0,
			"byteLength":3696,
			"byteOffset":0,
			"target":34962
		},
		{
			"buffer":0,
			"byteLength":3696,
			"byteOffset":3696,
			"target":34962
		},
		{
			"buffer":0,
			"byteLength":2464,
			"byteOffset":7392,
			"target":34962
		},
		{
			"buffer":0,
			"byteLength":2160,
			"byteOffset":9856,
			"target":34963
		},
		{
			"buffer":0,
			"byteLength":3696,
			"byteOffset":12016,
			"target":34962
		},
		{
			"buffer":0,
			"byteLength":3696,
			"byteOffset":15712,
			"target":34962
		},
		{
			"buffer":0,
			"byteLength":2464,
			"byteOffset":19408,
			"target":34962
		},
		{
			"buffer":0,
			"byteLength":3696,
			"byteOffset":21872,
			"target":34962
		},
		{
			"buffer":0,
			"byteLength":3696,
			"byteOffset":25568,
			"target":34962
		},
		{
			"buffer":0,
			"byteLength":2464,
			"byteOffset":29264,
			"target":34962
		}
	],
	"buffers":[
		{
			"byteLength":31728,
			"uri":"table.bin"
		}
	]
}
