{
	"asset":{
		"generator":"Khronos glTF Blender I/O v4.0.44",
		"version":"2.0"
	},
	"extensionsUsed":[
		"KHR_materials_clearcoat",
		"KHR_materials_transmission"
	],
	"scene":0,
	"scenes":[
		{
			"name":"Scene",
			"nodes":[
				4
			]
		}
	],
	"nodes":[
		{
			"mesh":0,
			"name":"Object_2"
		},
		{
			"mesh":1,
			"name":"Object_3"
		},
		{
			"mesh":2,
			"name":"Object_4"
		},
		{
			"children":[
				0,
				1,
				2
			],
			"name":"NoguchiCoffeeTable.obj.cleaner.materialmerger.gles"
		},
		{
			"children":[
				3
			],
			"name":"Sketchfab_model",
			"rotation":[
				-0.70710688829422,
				0,
				0,
				0.7071066498756409
			],
			"scale":[
				0.004999999888241291,
				0.005000000353902578,
				0.005000000353902578
			]
		}
	],
	"materials":[
		{
			"doubleSided":true,
			"name":"material",
			"pbrMetallicRoughness":{
				"metallicFactor":0
			}
		},
		{
			"doubleSided":true,
			"name":"Ash_1",
			"pbrMetallicRoughness":{
				"metallicFactor":0
			}
		},
		{
			"alphaMode":"BLEND",
			"doubleSided":true,
			"extensions":{
				"KHR_materials_clearcoat":{
					"clearcoatFactor":1,
					"clearcoatRoughnessFactor":0.03999999910593033
				},
				"KHR_materials_transmission":{
					"transmissionFactor":0.8462753295898438
				}
			},
			"name":"Glass_Solid_Grey",
			"pbrMetallicRoughness":{
				"baseColorFactor":[
					0.9989252686500549,
					0.9989252686500549,
					0.9989252686500549,
					0.25
				],
				"metallicFactor":0,
				"roughnessFactor":0.46927937865257263
			}
		}
	],
	"meshes":[
		{
			"name":"Object_0",
			"primitives":[
				{
					"attributes":{
						"POSITION":0,
						"NORMAL":1,
						"TEXCOORD_0":2
					},
					"indices":3,
					"material":0
				}
			]
		},
		{
			"name":"Object_1",
			"primitives":[
				{
					"attributes":{
						"POSITION":4,
						"NORMAL":5,
						"TEXCOORD_0":6
					},
					"indices":7,
					"material":1
				}
			]
		},
		{
			"name":"Object_2",
			"primitives":[
				{
					"attributes":{
						"POSITION":8,
						"NORMAL":9,
						"TEXCOORD_0":10
					},
					"indices":11,
					"material":2
				}
			]
		}
	],
	"accessors":[
		{
			"bufferView":0,
			"componentType":5126,
			"count":6811,
			"max":[
				1054.449951171875,
				278.8299865722656,
				382.59100341796875
			],
			"min":[
				258.1099853515625,
				115.21800231933594,
				2.887190103530884
			],
			"type":"VEC3"
		},
		{
			"bufferView":1,
			"componentType":5126,
			"count":6811,
			"type":"VEC3"
		},
		{
			"bufferView":2,
			"componentType":5126,
			"count":6811,
			"type":"VEC2"
		},
		{
			"bufferView":3,
			"componentType":5123,
			"count":32400,
			"type":"SCALAR"
		},
		{
			"bufferView":4,
			"componentType":5126,
			"count":6826,
			"max":[
				1023.4099731445312,
				846.3419799804688,
				379.7040100097656
			],
			"min":[
				577.6279907226562,
				144.8769989013672,
				3.4166901059506927e-06
			],
			"type":"VEC3"
		},
		{
			"bufferView":5,
			"componentType":5126,
			"count":6826,
			"type":"VEC3"
		},
		{
			"bufferView":6,
			"componentType":5126,
			"count":6826,
			"type":"VEC2"
		},
		{
			"bufferView":7,
			"componentType":5123,
			"count":32400,
			"type":"SCALAR"
		},
		{
			"bufferView":8,
			"componentType":5126,
			"count":5713,
			"max":[
				1290.5400390625,
				949.302001953125,
				402.364013671875
			],
			"min":[
				-25.635299682617188,
				1.4538099765777588,
				383.364013671875
			],
			"type":"VEC3"
		},
		{
			"bufferView":9,
			"componentType":5126,
			"count":5713,
			"type":"VEC3"
		},
		{
			"bufferView":10,
			"componentType":5126,
			"count":5713,
			"type":"VEC2"
		},
		{
			"bufferView":11,
			"componentType":5123,
			"count":27630,
			"type":"SCALAR"
		}
	],
	"bufferViews":[
		{
			"buffer":0,
			"byteLength":81732,
			"byteOffset":0,
			"target":34962
		},
		{
			"buffer":0,
			"byteLength":81732,
			"byteOffset":81732,
			"target":34962
		},
		{
			"buffer":0,
			"byteLength":54488,
			"byteOffset":163464,
			"target":34962
		},
		{
			"buffer":0,
			"byteLength":64800,
			"byteOffset":217952,
			"target":34963
		},
		{
			"buffer":0,
			"byteLength":81912,
			"byteOffset":282752,
			"target":34962
		},
		{
			"buffer":0,
			"byteLength":81912,
			"byteOffset":364664,
			"target":34962
		},
		{
			"buffer":0,
			"byteLength":54608,
			"byteOffset":446576,
			"target":34962
		},
		{
			"buffer":0,
			"byteLength":64800,
			"byteOffset":501184,
			"target":34963
		},
		{
			"buffer":0,
			"byteLength":68556,
			"byteOffset":565984,
			"target":34962
		},
		{
			"buffer":0,
			"byteLength":68556,
			"byteOffset":634540,
			"target":34962
		},
		{
			"buffer":0,
			"byteLength":45704,
			"byteOffset":703096,
			"target":34962
		},
		{
			"buffer":0,
			"byteLength":55260,
			"byteOffset":748800,
			"target":34963
		}
	],
	"buffers":[
		{
			"byteLength":804060,
			"uri":"coffeTable.bin"
		}
	]
}
