{
	"asset":{
		"generator":"Khronos glTF Blender I/O v4.0.44",
		"version":"2.0"
	},
	"extensionsUsed":[
		"KHR_materials_clearcoat"
	],
	"scene":0,
	"scenes":[
		{
			"name":"Scene",
			"nodes":[
				8
			]
		}
	],
	"nodes":[
		{
			"mesh":0,
			"name":"GrowFX01_01 - Default_0"
		},
		{
			"mesh":1,
			"name":"GrowFX01_02 - Default_0"
		},
		{
			"mesh":2,
			"name":"GrowFX01_Material #60_0"
		},
		{
			"children":[
				0,
				1,
				2
			],
			"name":"GrowFX01",
			"rotation":[
				-0.70710688829422,
				0,
				0,
				0.7071066498756409
			],
			"translation":[
				-0.0007710159989073873,
				2.6405420303344727,
				-0.0001257958065252751
			]
		},
		{
			"mesh":3,
			"name":"Plane01_Material #34_0"
		},
		{
			"children":[
				4
			],
			"name":"Plane01",
			"rotation":[
				-0.70710688829422,
				0,
				0,
				0.7071066498756409
			],
			"translation":[
				-0.0007710159989073873,
				0.0008476186776533723,
				-0.0001257958065252751
			]
		},
		{
			"children":[
				3,
				5
			],
			"name":"RootNode"
		},
		{
			"children":[
				6
			],
			"name":"flower.FBX",
			"rotation":[
				0.70710688829422,
				0,
				0,
				0.7071066498756409
			]
		},
		{
			"children":[
				7
			],
			"name":"Sketchfab_model",
			"rotation":[
				-0.70710688829422,
				0,
				0,
				0.7071066498756409
			],
			"scale":[
				0.04000001400709152,
				0.04000001773238182,
				0.04000001773238182
			],
			"translation":[
				-9.038582902576309e-06,
				0,
				-3.858716354443459e-06
			]
		}
	],
	"materials":[
		{
			"doubleSided":true,
			"name":"01_-_Default",
			"pbrMetallicRoughness":{
				"baseColorTexture":{
					"index":0
				},
				"metallicFactor":0,
				"roughnessFactor":0.6000000238418579
			}
		},
		{
			"alphaMode":"BLEND",
			"doubleSided":true,
			"extensions":{
				"KHR_materials_clearcoat":{
					"clearcoatFactor":1,
					"clearcoatRoughnessFactor":0.24561737477779388
				}
			},
			"name":"02_-_Default",
			"pbrMetallicRoughness":{
				"baseColorFactor":[
					1,
					1,
					1,
					0.9468368887901306
				],
				"baseColorTexture":{
					"index":1
				},
				"metallicFactor":0,
				"roughnessFactor":0.27610519528388977
			}
		},
		{
			"doubleSided":true,
			"name":"Material_60",
			"pbrMetallicRoughness":{
				"baseColorTexture":{
					"index":2
				},
				"metallicFactor":0.11756859719753265,
				"roughnessFactor":0.4651295840740204
			}
		},
		{
			"doubleSided":true,
			"name":"Material_34",
			"pbrMetallicRoughness":{
				"baseColorFactor":[
					0,
					0,
					0,
					1
				],
				"metallicFactor":0.7761051654815674,
				"roughnessFactor":0
			}
		}
	],
	"meshes":[
		{
			"name":"GrowFX01_01 - Default_0",
			"primitives":[
				{
					"attributes":{
						"POSITION":0,
						"NORMAL":1,
						"TEXCOORD_0":2
					},
					"indices":3,
					"material":0
				}
			]
		},
		{
			"name":"GrowFX01_02 - Default_0",
			"primitives":[
				{
					"attributes":{
						"POSITION":4,
						"NORMAL":5,
						"TEXCOORD_0":6
					},
					"indices":7,
					"material":1
				}
			]
		},
		{
			"name":"GrowFX01_Material #60_0",
			"primitives":[
				{
					"attributes":{
						"POSITION":8,
						"NORMAL":9,
						"TEXCOORD_0":10
					},
					"indices":11,
					"material":2
				}
			]
		},
		{
			"name":"Plane01_Material #34_0",
			"primitives":[
				{
					"attributes":{
						"POSITION":12,
						"NORMAL":13,
						"TEXCOORD_0":14
					},
					"indices":15,
					"material":3
				}
			]
		}
	],
	"textures":[
		{
			"sampler":0,
			"source":0
		},
		{
			"sampler":0,
			"source":1
		},
		{
			"sampler":0,
			"source":2
		}
	],
	"images":[
		{
			"mimeType":"image/jpeg",
			"name":"01_-_Default_baseColor",
			"uri":"01_-_Default_baseColor.jpg"
		},
		{
			"mimeType":"image/png",
			"name":"02_-_Default_baseColor",
			"uri":"02_-_Default_baseColor.png"
		},
		{
			"mimeType":"image/png",
			"name":"Material_60_baseColor",
			"uri":"Material_60_baseColor.png"
		}
	],
	"accessors":[
		{
			"bufferView":0,
			"componentType":5126,
			"count":38205,
			"max":[
				31.806365966796875,
				44.07062530517578,
				88.92537689208984
			],
			"min":[
				-33.55554962158203,
				-24.607351303100586,
				44.104339599609375
			],
			"type":"VEC3"
		},
		{
			"bufferView":1,
			"componentType":5126,
			"count":38205,
			"type":"VEC3"
		},
		{
			"bufferView":2,
			"componentType":5126,
			"count":38205,
			"type":"VEC2"
		},
		{
			"bufferView":3,
			"componentType":5123,
			"count":57240,
			"type":"SCALAR"
		},
		{
			"bufferView":4,
			"componentType":5126,
			"count":22365,
			"max":[
				35.08446502685547,
				47.60981750488281,
				93.45054626464844
			],
			"min":[
				-38.23514175415039,
				-29.753231048583984,
				39.222557067871094
			],
			"type":"VEC3"
		},
		{
			"bufferView":5,
			"componentType":5126,
			"count":22365,
			"type":"VEC3"
		},
		{
			"bufferView":6,
			"componentType":5126,
			"count":22365,
			"type":"VEC2"
		},
		{
			"bufferView":7,
			"componentType":5123,
			"count":120960,
			"type":"SCALAR"
		},
		{
			"bufferView":8,
			"componentType":5126,
			"count":6280,
			"max":[
				30.678186416625977,
				43.4080810546875,
				88.5815658569336
			],
			"min":[
				-33.138221740722656,
				-24.01325798034668,
				-0.5817696452140808
			],
			"type":"VEC3"
		},
		{
			"bufferView":9,
			"componentType":5126,
			"count":6280,
			"type":"VEC3"
		},
		{
			"bufferView":10,
			"componentType":5126,
			"count":6280,
			"type":"VEC2"
		},
		{
			"bufferView":11,
			"componentType":5123,
			"count":26844,
			"type":"SCALAR"
		},
		{
			"bufferView":12,
			"componentType":5126,
			"count":7554,
			"max":[
				8.309755325317383,
				8.487907409667969,
				46.335182189941406
			],
			"min":[
				-8.308496475219727,
				-8.484500885009766,
				0.00023610850621480495
			],
			"type":"VEC3"
		},
		{
			"bufferView":13,
			"componentType":5126,
			"count":7554,
			"type":"VEC3"
		},
		{
			"bufferView":14,
			"componentType":5126,
			"count":7554,
			"type":"VEC2"
		},
		{
			"bufferView":15,
			"componentType":5123,
			"count":45312,
			"type":"SCALAR"
		}
	],
	"bufferViews":[
		{
			"buffer":0,
			"byteLength":458460,
			"byteOffset":0,
			"target":34962
		},
		{
			"buffer":0,
			"byteLength":458460,
			"byteOffset":458460,
			"target":34962
		},
		{
			"buffer":0,
			"byteLength":305640,
			"byteOffset":916920,
			"target":34962
		},
		{
			"buffer":0,
			"byteLength":114480,
			"byteOffset":1222560,
			"target":34963
		},
		{
			"buffer":0,
			"byteLength":268380,
			"byteOffset":1337040,
			"target":34962
		},
		{
			"buffer":0,
			"byteLength":268380,
			"byteOffset":1605420,
			"target":34962
		},
		{
			"buffer":0,
			"byteLength":178920,
			"byteOffset":1873800,
			"target":34962
		},
		{
			"buffer":0,
			"byteLength":241920,
			"byteOffset":2052720,
			"target":34963
		},
		{
			"buffer":0,
			"byteLength":75360,
			"byteOffset":2294640,
			"target":34962
		},
		{
			"buffer":0,
			"byteLength":75360,
			"byteOffset":2370000,
			"target":34962
		},
		{
			"buffer":0,
			"byteLength":50240,
			"byteOffset":2445360,
			"target":34962
		},
		{
			"buffer":0,
			"byteLength":53688,
			"byteOffset":2495600,
			"target":34963
		},
		{
			"buffer":0,
			"byteLength":90648,
			"byteOffset":2549288,
			"target":34962
		},
		{
			"buffer":0,
			"byteLength":90648,
			"byteOffset":2639936,
			"target":34962
		},
		{
			"buffer":0,
			"byteLength":60432,
			"byteOffset":2730584,
			"target":34962
		},
		{
			"buffer":0,
			"byteLength":90624,
			"byteOffset":2791016,
			"target":34963
		}
	],
	"samplers":[
		{
			"magFilter":9729,
			"minFilter":9987
		}
	],
	"buffers":[
		{
			"byteLength":2881640,
			"uri":"flower.bin"
		}
	]
}
