{
	"asset":{
		"generator":"Khronos glTF Blender I/O v4.0.44",
		"version":"2.0"
	},
	"scene":0,
	"scenes":[
		{
			"name":"Scene",
			"nodes":[
				4
			]
		}
	],
	"nodes":[
		{
			"mesh":0,
			"name":"KAC_KAC_0"
		},
		{
			"children":[
				0
			],
			"name":"KAC"
		},
		{
			"children":[
				1
			],
			"name":"RootNode"
		},
		{
			"children":[
				2
			],
			"name":"KAC.fbx",
			"rotation":[
				-1,
				0,
				0,
				7.105428204633949e-15
			]
		},
		{
			"children":[
				3
			],
			"name":"Sketchfab_model",
			"rotation":[
				0.7071069478988647,
				0,
				0,
				0.7071066498756409
			],
			"scale":[
				0.3242815434932709,
				0.3242815434932709,
				0.3242815434932709
			]
		}
	],
	"materials":[
		{
			"doubleSided":true,
			"name":"material",
			"normalTexture":{
				"index":0
			},
			"occlusionTexture":{
				"index":1
			},
			"pbrMetallicRoughness":{
				"metallicRoughnessTexture":{
					"index":1
				}
			}
		}
	],
	"meshes":[
		{
			"name":"KAC_KAC_0",
			"primitives":[
				{
					"attributes":{
						"POSITION":0,
						"NORMAL":1,
						"TEXCOORD_0":2,
						"TEXCOORD_1":3
					},
					"indices":4,
					"material":0
				}
			]
		}
	],
	"textures":[
		{
			"sampler":0,
			"source":0
		},
		{
			"sampler":0,
			"source":1
		}
	],
	"images":[
		{
			"mimeType":"image/png",
			"name":"material_normal",
			"uri":"material_normal.png"
		},
		{
			"mimeType":"image/png",
			"name":"material_metallicRoughness",
			"uri":"material_metallicRoughness.png"
		}
	],
	"accessors":[
		{
			"bufferView":0,
			"componentType":5126,
			"count":51149,
			"max":[
				0.903400182723999,
				0.714411735534668,
				3.055579423904419
			],
			"min":[
				-0.935487687587738,
				-0.7145017385482788,
				0.0003506425709929317
			],
			"type":"VEC3"
		},
		{
			"bufferView":1,
			"componentType":5126,
			"count":51149,
			"type":"VEC3"
		},
		{
			"bufferView":2,
			"componentType":5126,
			"count":51149,
			"type":"VEC2"
		},
		{
			"bufferView":3,
			"componentType":5126,
			"count":51149,
			"type":"VEC2"
		},
		{
			"bufferView":4,
			"componentType":5123,
			"count":219648,
			"type":"SCALAR"
		}
	],
	"bufferViews":[
		{
			"buffer":0,
			"byteLength":613788,
			"byteOffset":0,
			"target":34962
		},
		{
			"buffer":0,
			"byteLength":613788,
			"byteOffset":613788,
			"target":34962
		},
		{
			"buffer":0,
			"byteLength":409192,
			"byteOffset":1227576,
			"target":34962
		},
		{
			"buffer":0,
			"byteLength":409192,
			"byteOffset":1636768,
			"target":34962
		},
		{
			"buffer":0,
			"byteLength":439296,
			"byteOffset":2045960,
			"target":34963
		}
	],
	"samplers":[
		{
			"magFilter":9729,
			"minFilter":9987
		}
	],
	"buffers":[
		{
			"byteLength":2485256,
			"uri":"chair.bin"
		}
	]
}
