{
	"asset":{
		"generator":"Khronos glTF Blender I/O v4.0.44",
		"version":"2.0"
	},
	"extensionsUsed":[
		"KHR_materials_specular",
		"KHR_materials_ior"
	],
	"scene":0,
	"scenes":[
		{
			"name":"Scene",
			"nodes":[
				0
			]
		}
	],
	"nodes":[
		{
			"mesh":0,
			"name":"pot",
			"rotation":[
				0,
				-0.8659197688102722,
				0,
				0.5001829266548157
			],
			"translation":[
				0.14646466076374054,
				0.9801446795463562,
				-0.23766463994979858
			]
		}
	],
	"materials":[
		{
			"alphaMode":"BLEND",
			"doubleSided":true,
			"extensions":{
				"KHR_materials_specular":{
					"specularColorFactor":[
						2.0,
						2.0,
						2.0
					]
				},
				"KHR_materials_ior":{
					"ior":1.4500000476837158
				}
			},
			"name":"Material.002",
			"normalTexture":{
				"index":0,
				"scale":0.2999999225139618
			},
			"pbrMetallicRoughness":{
				"baseColorTexture":{
					"index":1
				},
				"metallicFactor":0
			}
		},
		{
			"doubleSided":true,
			"name":"Material.001",
			"pbrMetallicRoughness":{
				"baseColorFactor":[
					0.800000011920929,
					0.800000011920929,
					0.800000011920929,
					1
				],
				"metallicFactor":0,
				"roughnessFactor":0.7954545021057129
			}
		},
		{
			"doubleSided":true,
			"extensions":{
				"KHR_materials_specular":{
					"specularColorFactor":[
						2.0,
						2.0,
						2.0
					]
				},
				"KHR_materials_ior":{
					"ior":1.4500000476837158
				}
			},
			"name":"Material.003",
			"normalTexture":{
				"index":2,
				"scale":0.20000004768371582
			},
			"pbrMetallicRoughness":{
				"baseColorTexture":{
					"index":3
				},
				"metallicFactor":0,
				"roughnessFactor":0.290909081697464
			}
		}
	],
	"meshes":[
		{
			"name":"Cube.001",
			"primitives":[
				{
					"attributes":{
						"POSITION":0,
						"NORMAL":1,
						"TEXCOORD_0":2
					},
					"indices":3,
					"material":0
				},
				{
					"attributes":{
						"POSITION":4,
						"NORMAL":5,
						"TEXCOORD_0":6
					},
					"indices":7,
					"material":1
				},
				{
					"attributes":{
						"POSITION":8,
						"NORMAL":9,
						"TEXCOORD_0":10
					},
					"indices":11,
					"material":2
				}
			]
		}
	],
	"textures":[
		{
			"sampler":0,
			"source":0
		},
		{
			"sampler":0,
			"source":1
		},
		{
			"sampler":0,
			"source":2
		},
		{
			"sampler":0,
			"source":3
		}
	],
	"images":[
		{
			"mimeType":"image/png",
			"name":"pot normal",
			"uri":"pot%20normal.png"
		},
		{
			"mimeType":"image/png",
			"name":"pot diffuse",
			"uri":"pot%20diffuse.png"
		},
		{
			"mimeType":"image/png",
			"name":"normal",
			"uri":"normal.png"
		},
		{
			"mimeType":"image/png",
			"name":"Untitled",
			"uri":"Untitled.png"
		}
	],
	"accessors":[
		{
			"bufferView":0,
			"componentType":5126,
			"count":114,
			"max":[
				1.0000001192092896,
				1.0000001192092896,
				1.0000001192092896
			],
			"min":[
				-1.0000001192092896,
				-1.0000001192092896,
				-1.0000001192092896
			],
			"type":"VEC3"
		},
		{
			"bufferView":1,
			"componentType":5126,
			"count":114,
			"type":"VEC3"
		},
		{
			"bufferView":2,
			"componentType":5126,
			"count":114,
			"type":"VEC2"
		},
		{
			"bufferView":3,
			"componentType":5123,
			"count":336,
			"type":"SCALAR"
		},
		{
			"bufferView":4,
			"componentType":5126,
			"count":1089,
			"max":[
				1.0000001192092896,
				0.7042874693870544,
				1.0000001192092896
			],
			"min":[
				-1.0000001192092896,
				0.7042874693870544,
				-1.0000001192092896
			],
			"type":"VEC3"
		},
		{
			"bufferView":5,
			"componentType":5126,
			"count":1089,
			"type":"VEC3"
		},
		{
			"bufferView":6,
			"componentType":5126,
			"count":1089,
			"type":"VEC2"
		},
		{
			"bufferView":7,
			"componentType":5123,
			"count":6144,
			"type":"SCALAR"
		},
		{
			"bufferView":8,
			"componentType":5126,
			"count":5007,
			"max":[
				0.7975654006004333,
				4.682639122009277,
				0.9570403099060059
			],
			"min":[
				-0.7822767496109009,
				0.11457014083862305,
				-0.9956443309783936
			],
			"type":"VEC3"
		},
		{
			"bufferView":9,
			"componentType":5126,
			"count":5007,
			"type":"VEC3"
		},
		{
			"bufferView":10,
			"componentType":5126,
			"count":5007,
			"type":"VEC2"
		},
		{
			"bufferView":11,
			"componentType":5123,
			"count":29664,
			"type":"SCALAR"
		}
	],
	"bufferViews":[
		{
			"buffer":0,
			"byteLength":1368,
			"byteOffset":0,
			"target":34962
		},
		{
			"buffer":0,
			"byteLength":1368,
			"byteOffset":1368,
			"target":34962
		},
		{
			"buffer":0,
			"byteLength":912,
			"byteOffset":2736,
			"target":34962
		},
		{
			"buffer":0,
			"byteLength":672,
			"byteOffset":3648,
			"target":34963
		},
		{
			"buffer":0,
			"byteLength":13068,
			"byteOffset":4320,
			"target":34962
		},
		{
			"buffer":0,
			"byteLength":13068,
			"byteOffset":17388,
			"target":34962
		},
		{
			"buffer":0,
			"byteLength":8712,
			"byteOffset":30456,
			"target":34962
		},
		{
			"buffer":0,
			"byteLength":12288,
			"byteOffset":39168,
			"target":34963
		},
		{
			"buffer":0,
			"byteLength":60084,
			"byteOffset":51456,
			"target":34962
		},
		{
			"buffer":0,
			"byteLength":60084,
			"byteOffset":111540,
			"target":34962
		},
		{
			"buffer":0,
			"byteLength":40056,
			"byteOffset":171624,
			"target":34962
		},
		{
			"buffer":0,
			"byteLength":59328,
			"byteOffset":211680,
			"target":34963
		}
	],
	"samplers":[
		{
			"magFilter":9729,
			"minFilter":9987
		}
	],
	"buffers":[
		{
			"byteLength":271008,
			"uri":"pot.bin"
		}
	]
}
