{
	"asset":{
		"generator":"Khronos glTF Blender I/O v4.0.44",
		"version":"2.0"
	},
	"scene":0,
	"scenes":[
		{
			"name":"Scene",
			"nodes":[
				12
			]
		}
	],
	"nodes":[
		{
			"mesh":0,
			"name":"Object_6"
		},
		{
			"mesh":1,
			"name":"Object_7"
		},
		{
			"mesh":2,
			"name":"Object_8"
		},
		{
			"children":[
				0,
				1,
				2
			],
			"name":"frange1_0",
			"translation":[
				-1.4881788492202759,
				0.0013064222875982523,
				0.013496698811650276
			]
		},
		{
			"mesh":3,
			"name":"Object_10"
		},
		{
			"mesh":4,
			"name":"Object_11"
		},
		{
			"mesh":5,
			"name":"Object_12"
		},
		{
			"children":[
				4,
				5,
				6
			],
			"name":"frange2_1",
			"translation":[
				1.5211881399154663,
				0.0005001515964977443,
				0.005637748166918755
			]
		},
		{
			"mesh":6,
			"name":"Object_4"
		},
		{
			"children":[
				3,
				7,
				8
			],
			"name":"Old Persian Tudeshk Carpet_2"
		},
		{
			"children":[
				9
			],
			"name":"GLTF_SceneRootNode",
			"rotation":[
				0.70710688829422,
				0,
				0,
				0.7071066498756409
			]
		},
		{
			"children":[
				10
			],
			"name":"root"
		},
		{
			"children":[
				11
			],
			"name":"Sketchfab_model",
			"rotation":[
				-0.70710688829422,
				0,
				0,
				0.7071066498756409
			],
			"scale":[
				2,
				2.000000238418579,
				2.000000238418579
			]
		}
	],
	"materials":[
		{
			"doubleSided":true,
			"name":"VELVET-GREEN__Budapest",
			"pbrMetallicRoughness":{
				"baseColorFactor":[
					0.800000011920929,
					0.7726370096206665,
					0.6053289771080017,
					1
				],
				"metallicFactor":0,
				"roughnessFactor":0.949999988079071
			}
		},
		{
			"doubleSided":true,
			"name":"carpet",
			"pbrMetallicRoughness":{
				"baseColorTexture":{
					"index":0
				},
				"metallicFactor":0,
				"roughnessFactor":0.699999988079071
			}
		}
	],
	"meshes":[
		{
			"name":"Object_1",
			"primitives":[
				{
					"attributes":{
						"POSITION":0,
						"NORMAL":1,
						"TEXCOORD_0":2
					},
					"indices":3,
					"material":0
				}
			]
		},
		{
			"name":"Object_2",
			"primitives":[
				{
					"attributes":{
						"POSITION":4,
						"NORMAL":5,
						"TEXCOORD_0":6
					},
					"indices":7,
					"material":0
				}
			]
		},
		{
			"name":"Object_3",
			"primitives":[
				{
					"attributes":{
						"POSITION":8,
						"NORMAL":9,
						"TEXCOORD_0":10
					},
					"indices":11,
					"material":0
				}
			]
		},
		{
			"name":"Object_4",
			"primitives":[
				{
					"attributes":{
						"POSITION":12,
						"NORMAL":13,
						"TEXCOORD_0":14
					},
					"indices":15,
					"material":0
				}
			]
		},
		{
			"name":"Object_5",
			"primitives":[
				{
					"attributes":{
						"POSITION":16,
						"NORMAL":17,
						"TEXCOORD_0":18
					},
					"indices":19,
					"material":0
				}
			]
		},
		{
			"name":"Object_6",
			"primitives":[
				{
					"attributes":{
						"POSITION":20,
						"NORMAL":21,
						"TEXCOORD_0":22
					},
					"indices":23,
					"material":0
				}
			]
		},
		{
			"name":"Object_0.001",
			"primitives":[
				{
					"attributes":{
						"POSITION":24,
						"NORMAL":25,
						"TEXCOORD_0":26
					},
					"indices":27,
					"material":1
				}
			]
		}
	],
	"textures":[
		{
			"sampler":0,
			"source":0
		}
	],
	"images":[
		{
			"mimeType":"image/jpeg",
			"name":"carpet_baseColor",
			"uri":"carpet_baseColor.jpg"
		}
	],
	"accessors":[
		{
			"bufferView":0,
			"componentType":5126,
			"count":69292,
			"max":[
				0.037607863545417786,
				0.006555298808962107,
				1.00821053981781
			],
			"min":[
				-0.017249230295419693,
				-0.007577098440378904,
				-1.0015008449554443
			],
			"type":"VEC3"
		},
		{
			"bufferView":1,
			"componentType":5126,
			"count":69292,
			"type":"VEC3"
		},
		{
			"bufferView":2,
			"componentType":5126,
			"count":69292,
			"type":"VEC2"
		},
		{
			"bufferView":3,
			"componentType":5125,
			"count":379410,
			"type":"SCALAR"
		},
		{
			"bufferView":4,
			"componentType":5126,
			"count":70138,
			"max":[
				0.037607863545417786,
				0.006436648312956095,
				1.0023201704025269
			],
			"min":[
				-0.017197445034980774,
				-0.00820265244692564,
				-1.007827639579773
			],
			"type":"VEC3"
		},
		{
			"bufferView":5,
			"componentType":5126,
			"count":70138,
			"type":"VEC3"
		},
		{
			"bufferView":6,
			"componentType":5126,
			"count":70138,
			"type":"VEC2"
		},
		{
			"bufferView":7,
			"componentType":5125,
			"count":380988,
			"type":"SCALAR"
		},
		{
			"bufferView":8,
			"componentType":5126,
			"count":33085,
			"max":[
				0.037573691457509995,
				0.006233931053429842,
				1.0045303106307983
			],
			"min":[
				-0.01724650338292122,
				-0.007086483296006918,
				-1.0001212358474731
			],
			"type":"VEC3"
		},
		{
			"bufferView":9,
			"componentType":5126,
			"count":33085,
			"type":"VEC3"
		},
		{
			"bufferView":10,
			"componentType":5126,
			"count":33085,
			"type":"VEC2"
		},
		{
			"bufferView":11,
			"componentType":5123,
			"count":159534,
			"type":"SCALAR"
		},
		{
			"bufferView":12,
			"componentType":5126,
			"count":69357,
			"max":[
				0.01780598610639572,
				0.006886920891702175,
				1.0076342821121216
			],
			"min":[
				-0.033939141780138016,
				-0.007892665453255177,
				-0.9970363974571228
			],
			"type":"VEC3"
		},
		{
			"bufferView":13,
			"componentType":5126,
			"count":69357,
			"type":"VEC3"
		},
		{
			"bufferView":14,
			"componentType":5126,
			"count":69357,
			"type":"VEC2"
		},
		{
			"bufferView":15,
			"componentType":5125,
			"count":379917,
			"type":"SCALAR"
		},
		{
			"bufferView":16,
			"componentType":5126,
			"count":70518,
			"max":[
				0.01810694858431816,
				0.007400219794362783,
				1.004406452178955
			],
			"min":[
				-0.03352794423699379,
				-0.00772505346685648,
				-0.9975451231002808
			],
			"type":"VEC3"
		},
		{
			"bufferView":17,
			"componentType":5126,
			"count":70518,
			"type":"VEC3"
		},
		{
			"bufferView":18,
			"componentType":5126,
			"count":70518,
			"type":"VEC2"
		},
		{
			"bufferView":19,
			"componentType":5125,
			"count":381840,
			"type":"SCALAR"
		},
		{
			"bufferView":20,
			"componentType":5126,
			"count":32521,
			"max":[
				0.018155129626393318,
				0.006617843639105558,
				1.0049434900283813
			],
			"min":[
				-0.033697374165058136,
				-0.008518218994140625,
				-0.988124430179596
			],
			"type":"VEC3"
		},
		{
			"bufferView":21,
			"componentType":5126,
			"count":32521,
			"type":"VEC3"
		},
		{
			"bufferView":22,
			"componentType":5126,
			"count":32521,
			"type":"VEC2"
		},
		{
			"bufferView":23,
			"componentType":5123,
			"count":158385,
			"type":"SCALAR"
		},
		{
			"bufferView":24,
			"componentType":5126,
			"count":4472,
			"max":[
				1.51260244846344,
				0.005000000353902578,
				1.0086827278137207
			],
			"min":[
				-1.4750967025756836,
				0,
				-0.9973509311676025
			],
			"type":"VEC3"
		},
		{
			"bufferView":25,
			"componentType":5126,
			"count":4472,
			"type":"VEC3"
		},
		{
			"bufferView":26,
			"componentType":5126,
			"count":4472,
			"type":"VEC2"
		},
		{
			"bufferView":27,
			"componentType":5123,
			"count":5688,
			"type":"SCALAR"
		}
	],
	"bufferViews":[
		{
			"buffer":0,
			"byteLength":831504,
			"byteOffset":0,
			"target":34962
		},
		{
			"buffer":0,
			"byteLength":831504,
			"byteOffset":831504,
			"target":34962
		},
		{
			"buffer":0,
			"byteLength":554336,
			"byteOffset":1663008,
			"target":34962
		},
		{
			"buffer":0,
			"byteLength":1517640,
			"byteOffset":2217344,
			"target":34963
		},
		{
			"buffer":0,
			"byteLength":841656,
			"byteOffset":3734984,
			"target":34962
		},
		{
			"buffer":0,
			"byteLength":841656,
			"byteOffset":4576640,
			"target":34962
		},
		{
			"buffer":0,
			"byteLength":561104,
			"byteOffset":5418296,
			"target":34962
		},
		{
			"buffer":0,
			"byteLength":1523952,
			"byteOffset":5979400,
			"target":34963
		},
		{
			"buffer":0,
			"byteLength":397020,
			"byteOffset":7503352,
			"target":34962
		},
		{
			"buffer":0,
			"byteLength":397020,
			"byteOffset":7900372,
			"target":34962
		},
		{
			"buffer":0,
			"byteLength":264680,
			"byteOffset":8297392,
			"target":34962
		},
		{
			"buffer":0,
			"byteLength":319068,
			"byteOffset":8562072,
			"target":34963
		},
		{
			"buffer":0,
			"byteLength":832284,
			"byteOffset":8881140,
			"target":34962
		},
		{
			"buffer":0,
			"byteLength":832284,
			"byteOffset":9713424,
			"target":34962
		},
		{
			"buffer":0,
			"byteLength":554856,
			"byteOffset":10545708,
			"target":34962
		},
		{
			"buffer":0,
			"byteLength":1519668,
			"byteOffset":11100564,
			"target":34963
		},
		{
			"buffer":0,
			"byteLength":846216,
			"byteOffset":12620232,
			"target":34962
		},
		{
			"buffer":0,
			"byteLength":846216,
			"byteOffset":13466448,
			"target":34962
		},
		{
			"buffer":0,
			"byteLength":564144,
			"byteOffset":14312664,
			"target":34962
		},
		{
			"buffer":0,
			"byteLength":1527360,
			"byteOffset":14876808,
			"target":34963
		},
		{
			"buffer":0,
			"byteLength":390252,
			"byteOffset":16404168,
			"target":34962
		},
		{
			"buffer":0,
			"byteLength":390252,
			"byteOffset":16794420,
			"target":34962
		},
		{
			"buffer":0,
			"byteLength":260168,
			"byteOffset":17184672,
			"target":34962
		},
		{
			"buffer":0,
			"byteLength":316770,
			"byteOffset":17444840,
			"target":34963
		},
		{
			"buffer":0,
			"byteLength":53664,
			"byteOffset":17761612,
			"target":34962
		},
		{
			"buffer":0,
			"byteLength":53664,
			"byteOffset":17815276,
			"target":34962
		},
		{
			"buffer":0,
			"byteLength":35776,
			"byteOffset":17868940,
			"target":34962
		},
		{
			"buffer":0,
			"byteLength":11376,
			"byteOffset":17904716,
			"target":34963
		}
	],
	"samplers":[
		{
			"magFilter":9729,
			"minFilter":9987
		}
	],
	"buffers":[
		{
			"byteLength":17916092,
			"uri":"carpet.bin"
		}
	]
}
