{
	"asset":{
		"generator":"Khronos glTF Blender I/O v4.0.44",
		"version":"2.0"
	},
	"extensionsUsed":[
		"KHR_materials_transmission",
		"KHR_materials_specular"
	],
	"scene":0,
	"scenes":[
		{
			"name":"Scene",
			"nodes":[
				23
			]
		}
	],
	"nodes":[
		{
			"mesh":0,
			"name":"Box001_07 - Default_0"
		},
		{
			"children":[
				0
			],
			"name":"Object_11",
			"translation":[
				0,
				-2.452664852142334,
				-1.4259148836135864
			]
		},
		{
			"children":[
				1
			],
			"name":"Box001",
			"scale":[
				1,
				1,
				5.990955352783203
			],
			"translation":[
				0,
				32.455257415771484,
				0
			]
		},
		{
			"mesh":1,
			"name":"Box002_03 - Default_0"
		},
		{
			"children":[
				3
			],
			"name":"Object_14",
			"translation":[
				0,
				0,
				-13.02306079864502
			]
		},
		{
			"children":[
				4
			],
			"name":"Box002",
			"scale":[
				1.0129070281982422,
				1,
				1
			],
			"translation":[
				0,
				26.207637786865234,
				0
			]
		},
		{
			"mesh":2,
			"name":"Cylinder001_02 - Default_0",
			"translation":[
				0,
				0,
				-7.62939453125e-06
			]
		},
		{
			"children":[
				6
			],
			"name":"Cylinder001",
			"rotation":[
				-0.70710688829422,
				0,
				0,
				0.7071066498756409
			],
			"translation":[
				0,
				58.47821807861328,
				0
			]
		},
		{
			"mesh":3,
			"name":"Cylinder002_02 - Default_0",
			"translation":[
				0,
				0,
				-3.814697265625e-06
			]
		},
		{
			"children":[
				8
			],
			"name":"Cylinder002",
			"rotation":[
				-0.70710688829422,
				0,
				0,
				0.7071066498756409
			],
			"translation":[
				0,
				56.11798095703125,
				0
			]
		},
		{
			"mesh":4,
			"name":"Cylinder007_08 - Default_0",
			"translation":[
				0,
				0,
				-3.814697265625e-06
			]
		},
		{
			"children":[
				10
			],
			"name":"Cylinder007",
			"rotation":[
				-0.70710688829422,
				0,
				0,
				0.7071066498756409
			],
			"translation":[
				0,
				50.1676025390625,
				0
			]
		},
		{
			"mesh":5,
			"name":"Cylinder008_01 - Default_0",
			"translation":[
				0,
				-2.9283874027896672e-05,
				-1.5823490684852004e-05
			]
		},
		{
			"children":[
				12
			],
			"name":"Cylinder008",
			"scale":[
				0.16748300194740295,
				0.16748300194740295,
				0.01877100020647049
			],
			"translation":[
				0,
				78.8735580444336,
				4.727019309997559
			]
		},
		{
			"mesh":6,
			"name":"Line001_03 - Default_0",
			"translation":[
				0,
				3.814697720372351e-06,
				0
			]
		},
		{
			"children":[
				14
			],
			"name":"Object_4",
			"translation":[
				8.679978370666504,
				0.06774520874023438,
				0
			]
		},
		{
			"children":[
				15
			],
			"name":"Line001",
			"translation":[
				0,
				57.2878532409668,
				2.4999073957587825e-06
			]
		},
		{
			"mesh":7,
			"name":"Line002_08 - Default_0"
		},
		{
			"children":[
				17
			],
			"name":"Line002",
			"translation":[
				8.442166328430176,
				30.506071090698242,
				0
			]
		},
		{
			"mesh":8,
			"name":"Text001_09 - Default_0",
			"translation":[
				0,
				-1.7507041775388643e-05,
				0
			]
		},
		{
			"children":[
				19
			],
			"name":"Text001",
			"scale":[
				0.06380400061607361,
				0.05616699904203415,
				0.05616699904203415
			],
			"translation":[
				0,
				44.2171630859375,
				13.02444076538086
			]
		},
		{
			"children":[
				2,
				5,
				7,
				9,
				11,
				13,
				16,
				18,
				20
			],
			"name":"RootNode"
		},
		{
			"children":[
				21
			],
			"name":"cf118db5056045dbb43953586233332b.fbx",
			"rotation":[
				0.70710688829422,
				0,
				0,
				0.7071066498756409
			],
			"scale":[
				0.10000000149011612,
				0.10000001639127731,
				0.10000001639127731
			]
		},
		{
			"children":[
				22
			],
			"name":"Sketchfab_model",
			"rotation":[
				-0.70710688829422,
				0,
				0,
				0.7071066498756409
			]
		}
	],
	"materials":[
		{
			"alphaMode":"BLEND",
			"doubleSided":true,
			"extensions":{
				"KHR_materials_transmission":{
					"transmissionFactor":0.9150000214576721
				}
			},
			"name":"07_-_Default",
			"pbrMetallicRoughness":{
				"baseColorFactor":[
					1,
					0.4507857859134674,
					0.03071344457566738,
					0.25
				],
				"roughnessFactor":0
			}
		},
		{
			"alphaMode":"BLEND",
			"doubleSided":true,
			"name":"03_-_Default",
			"pbrMetallicRoughness":{
				"baseColorFactor":[
					0.5906188488006592,
					0.3915724754333496,
					0.109461709856987,
					0.28600001335144043
				],
				"roughnessFactor":0
			}
		},
		{
			"doubleSided":true,
			"name":"02_-_Default",
			"pbrMetallicRoughness":{
				"baseColorFactor":[
					0.8713670969009399,
					0.47353148460388184,
					0.23074005544185638,
					1
				],
				"roughnessFactor":0.020999999716877937
			}
		},
		{
			"alphaMode":"BLEND",
			"doubleSided":true,
			"name":"08_-_Default",
			"pbrMetallicRoughness":{
				"baseColorFactor":[
					1,
					1,
					1,
					0.11500000208616257
				],
				"metallicFactor":0.1459999978542328,
				"roughnessFactor":0.41600000858306885
			}
		},
		{
			"doubleSided":true,
			"extensions":{
				"KHR_materials_specular":{
					"specularFactor":0.048368532210588455
				}
			},
			"name":"01_-_Default",
			"pbrMetallicRoughness":{
				"baseColorFactor":[
					0.6065212488174438,
					0.5572882294654846,
					0.5572882294654846,
					1
				],
				"metallicFactor":0.24914364516735077,
				"roughnessFactor":0.6000000238418579
			}
		},
		{
			"alphaMode":"BLEND",
			"doubleSided":true,
			"extensions":{
				"KHR_materials_transmission":{
					"transmissionFactor":0.6110000014305115
				}
			},
			"name":"09_-_Default",
			"pbrMetallicRoughness":{
				"baseColorFactor":[
					1,
					1,
					1,
					0.3889999985694885
				],
				"metallicFactor":0.4620000123977661,
				"roughnessFactor":0.6000000238418579
			}
		}
	],
	"meshes":[
		{
			"name":"Box001_07 - Default_0",
			"primitives":[
				{
					"attributes":{
						"POSITION":0,
						"NORMAL":1,
						"TEXCOORD_0":2
					},
					"indices":3,
					"material":0
				}
			]
		},
		{
			"name":"Box002_03 - Default_0",
			"primitives":[
				{
					"attributes":{
						"POSITION":4,
						"NORMAL":5,
						"TEXCOORD_0":6
					},
					"indices":7,
					"material":1
				}
			]
		},
		{
			"name":"Cylinder001_02 - Default_0",
			"primitives":[
				{
					"attributes":{
						"POSITION":8,
						"NORMAL":9,
						"TEXCOORD_0":10
					},
					"indices":11,
					"material":2
				}
			]
		},
		{
			"name":"Cylinder002_02 - Default_0",
			"primitives":[
				{
					"attributes":{
						"POSITION":12,
						"NORMAL":13,
						"TEXCOORD_0":14
					},
					"indices":15,
					"material":2
				}
			]
		},
		{
			"name":"Cylinder007_08 - Default_0",
			"primitives":[
				{
					"attributes":{
						"POSITION":16,
						"NORMAL":17,
						"TEXCOORD_0":18
					},
					"indices":19,
					"material":3
				}
			]
		},
		{
			"name":"Cylinder008_01 - Default_0",
			"primitives":[
				{
					"attributes":{
						"POSITION":20,
						"NORMAL":21,
						"TEXCOORD_0":22
					},
					"indices":23,
					"material":4
				}
			]
		},
		{
			"name":"Line001_03 - Default_0",
			"primitives":[
				{
					"attributes":{
						"POSITION":24,
						"NORMAL":25
					},
					"indices":26,
					"material":1
				}
			]
		},
		{
			"name":"Line002_08 - Default_0",
			"primitives":[
				{
					"attributes":{
						"POSITION":27,
						"NORMAL":28
					},
					"indices":29,
					"material":3
				}
			]
		},
		{
			"name":"Text001_09 - Default_0",
			"primitives":[
				{
					"attributes":{
						"POSITION":30,
						"NORMAL":31
					},
					"indices":32,
					"material":5
				}
			]
		}
	],
	"accessors":[
		{
			"bufferView":0,
			"componentType":5126,
			"count":6256,
			"max":[
				26.228809356689453,
				24.049510955810547,
				2.851830244064331
			],
			"min":[
				-26.228809356689453,
				-19.144184112548828,
				-5.296619178807305e-07
			],
			"type":"VEC3"
		},
		{
			"bufferView":1,
			"componentType":5126,
			"count":6256,
			"type":"VEC3"
		},
		{
			"bufferView":2,
			"componentType":5126,
			"count":6256,
			"type":"VEC2"
		},
		{
			"bufferView":3,
			"componentType":5123,
			"count":35328,
			"type":"SCALAR"
		},
		{
			"bufferView":4,
			"componentType":5126,
			"count":790,
			"max":[
				30.00619888305664,
				28.06737518310547,
				26.046123504638672
			],
			"min":[
				-30.00619888305664,
				-28.29206657409668,
				0
			],
			"type":"VEC3"
		},
		{
			"bufferView":5,
			"componentType":5126,
			"count":790,
			"type":"VEC3"
		},
		{
			"bufferView":6,
			"componentType":5126,
			"count":790,
			"type":"VEC2"
		},
		{
			"bufferView":7,
			"componentType":5123,
			"count":3558,
			"type":"SCALAR"
		},
		{
			"bufferView":8,
			"componentType":5126,
			"count":925,
			"max":[
				7.1118340492248535,
				7.111833572387695,
				15.923018455505371
			],
			"min":[
				-7.111833572387695,
				-7.111833572387695,
				0
			],
			"type":"VEC3"
		},
		{
			"bufferView":9,
			"componentType":5126,
			"count":925,
			"type":"VEC3"
		},
		{
			"bufferView":10,
			"componentType":5126,
			"count":925,
			"type":"VEC2"
		},
		{
			"bufferView":11,
			"componentType":5123,
			"count":5280,
			"type":"SCALAR"
		},
		{
			"bufferView":12,
			"componentType":5126,
			"count":333,
			"max":[
				5.176863670349121,
				5.176863670349121,
				25.44816780090332
			],
			"min":[
				-5.176863670349121,
				-5.176863670349121,
				0
			],
			"type":"VEC3"
		},
		{
			"bufferView":13,
			"componentType":5126,
			"count":333,
			"type":"VEC3"
		},
		{
			"bufferView":14,
			"componentType":5126,
			"count":333,
			"type":"VEC2"
		},
		{
			"bufferView":15,
			"componentType":5123,
			"count":846,
			"type":"SCALAR"
		},
		{
			"bufferView":16,
			"componentType":5126,
			"count":155,
			"max":[
				1.9907960891723633,
				1.9907960891723633,
				6.378427028656006
			],
			"min":[
				-1.9907960891723633,
				-1.9907960891723633,
				0
			],
			"type":"VEC3"
		},
		{
			"bufferView":17,
			"componentType":5126,
			"count":155,
			"type":"VEC3"
		},
		{
			"bufferView":18,
			"componentType":5126,
			"count":155,
			"type":"VEC2"
		},
		{
			"bufferView":19,
			"componentType":5123,
			"count":672,
			"type":"SCALAR"
		},
		{
			"bufferView":20,
			"componentType":5126,
			"count":164,
			"max":[
				10.31367015838623,
				10.31367015838623,
				2.384752035140991
			],
			"min":[
				-10.31367015838623,
				-10.31367015838623,
				0
			],
			"type":"VEC3"
		},
		{
			"bufferView":21,
			"componentType":5126,
			"count":164,
			"type":"VEC3"
		},
		{
			"bufferView":22,
			"componentType":5126,
			"count":164,
			"type":"VEC2"
		},
		{
			"bufferView":23,
			"componentType":5123,
			"count":384,
			"type":"SCALAR"
		},
		{
			"bufferView":24,
			"componentType":5126,
			"count":14632,
			"max":[
				22.782896041870117,
				3.1214709281921387,
				9.70121955871582
			],
			"min":[
				-40.142860412597656,
				-59.23181915283203,
				-9.70121955871582
			],
			"type":"VEC3"
		},
		{
			"bufferView":25,
			"componentType":5126,
			"count":14632,
			"type":"VEC3"
		},
		{
			"bufferView":26,
			"componentType":5123,
			"count":87792,
			"type":"SCALAR"
		},
		{
			"bufferView":27,
			"componentType":5126,
			"count":1233,
			"max":[
				14.096030235290527,
				20.068359375,
				0.48325324058532715
			],
			"min":[
				-8.748485565185547,
				-15.584880828857422,
				-0.48325324058532715
			],
			"type":"VEC3"
		},
		{
			"bufferView":28,
			"componentType":5126,
			"count":1233,
			"type":"VEC3"
		},
		{
			"bufferView":29,
			"componentType":5123,
			"count":6480,
			"type":"SCALAR"
		},
		{
			"bufferView":30,
			"componentType":5126,
			"count":23381,
			"max":[
				288.7125244140625,
				64.0999984741211,
				0
			],
			"min":[
				-288.8874816894531,
				-718.4401245117188,
				-0.08726521581411362
			],
			"type":"VEC3"
		},
		{
			"bufferView":31,
			"componentType":5126,
			"count":23381,
			"type":"VEC3"
		},
		{
			"bufferView":32,
			"componentType":5123,
			"count":68172,
			"type":"SCALAR"
		}
	],
	"bufferViews":[
		{
			"buffer":0,
			"byteLength":75072,
			"byteOffset":0,
			"target":34962
		},
		{
			"buffer":0,
			"byteLength":75072,
			"byteOffset":75072,
			"target":34962
		},
		{
			"buffer":0,
			"byteLength":50048,
			"byteOffset":150144,
			"target":34962
		},
		{
			"buffer":0,
			"byteLength":70656,
			"byteOffset":200192,
			"target":34963
		},
		{
			"buffer":0,
			"byteLength":9480,
			"byteOffset":270848,
			"target":34962
		},
		{
			"buffer":0,
			"byteLength":9480,
			"byteOffset":280328,
			"target":34962
		},
		{
			"buffer":0,
			"byteLength":6320,
			"byteOffset":289808,
			"target":34962
		},
		{
			"buffer":0,
			"byteLength":7116,
			"byteOffset":296128,
			"target":34963
		},
		{
			"buffer":0,
			"byteLength":11100,
			"byteOffset":303244,
			"target":34962
		},
		{
			"buffer":0,
			"byteLength":11100,
			"byteOffset":314344,
			"target":34962
		},
		{
			"buffer":0,
			"byteLength":7400,
			"byteOffset":325444,
			"target":34962
		},
		{
			"buffer":0,
			"byteLength":10560,
			"byteOffset":332844,
			"target":34963
		},
		{
			"buffer":0,
			"byteLength":3996,
			"byteOffset":343404,
			"target":34962
		},
		{
			"buffer":0,
			"byteLength":3996,
			"byteOffset":347400,
			"target":34962
		},
		{
			"buffer":0,
			"byteLength":2664,
			"byteOffset":351396,
			"target":34962
		},
		{
			"buffer":0,
			"byteLength":1692,
			"byteOffset":354060,
			"target":34963
		},
		{
			"buffer":0,
			"byteLength":1860,
			"byteOffset":355752,
			"target":34962
		},
		{
			"buffer":0,
			"byteLength":1860,
			"byteOffset":357612,
			"target":34962
		},
		{
			"buffer":0,
			"byteLength":1240,
			"byteOffset":359472,
			"target":34962
		},
		{
			"buffer":0,
			"byteLength":1344,
			"byteOffset":360712,
			"target":34963
		},
		{
			"buffer":0,
			"byteLength":1968,
			"byteOffset":362056,
			"target":34962
		},
		{
			"buffer":0,
			"byteLength":1968,
			"byteOffset":364024,
			"target":34962
		},
		{
			"buffer":0,
			"byteLength":1312,
			"byteOffset":365992,
			"target":34962
		},
		{
			"buffer":0,
			"byteLength":768,
			"byteOffset":367304,
			"target":34963
		},
		{
			"buffer":0,
			"byteLength":175584,
			"byteOffset":368072,
			"target":34962
		},
		{
			"buffer":0,
			"byteLength":175584,
			"byteOffset":543656,
			"target":34962
		},
		{
			"buffer":0,
			"byteLength":175584,
			"byteOffset":719240,
			"target":34963
		},
		{
			"buffer":0,
			"byteLength":14796,
			"byteOffset":894824,
			"target":34962
		},
		{
			"buffer":0,
			"byteLength":14796,
			"byteOffset":909620,
			"target":34962
		},
		{
			"buffer":0,
			"byteLength":12960,
			"byteOffset":924416,
			"target":34963
		},
		{
			"buffer":0,
			"byteLength":280572,
			"byteOffset":937376,
			"target":34962
		},
		{
			"buffer":0,
			"byteLength":280572,
			"byteOffset":1217948,
			"target":34962
		},
		{
			"buffer":0,
			"byteLength":136344,
			"byteOffset":1498520,
			"target":34963
		}
	],
	"buffers":[
		{
			"byteLength":1634864,
			"uri":"perfume.bin"
		}
	]
}
