{
	"asset":{
		"generator":"Khronos glTF Blender I/O v4.0.44",
		"version":"2.0"
	},
	"extensionsUsed":[
		"KHR_materials_transmission"
	],
	"scene":0,
	"scenes":[
		{
			"name":"Scene",
			"nodes":[
				24
			]
		}
	],
	"nodes":[
		{
			"name":"Object_16"
		},
		{
			"children":[
				0
			],
			"name":"Camera.001",
			"rotation":[
				0.010133828967809677,
				0.9999426603317261,
				3.534903589752503e-05,
				0.003491292940452695
			],
			"scale":[
				100.00003051757812,
				99.99999237060547,
				100.0000228881836
			],
			"translation":[
				545,
				60.99999237060547,
				0
			]
		},
		{
			"name":"Object_19"
		},
		{
			"children":[
				2
			],
			"name":"Object_18",
			"rotation":[
				0.7071068286895752,
				0,
				0,
				0.7071067094802856
			]
		},
		{
			"children":[
				3
			],
			"name":"fill",
			"rotation":[
				-0.2037510722875595,
				0.09732266515493393,
				-0.41987860202789307,
				0.8790425658226013
			],
			"scale":[
				99.99999237060547,
				100,
				99.99998474121094
			],
			"translation":[
				1708.9105224609375,
				3362.354736328125,
				-651.0609741210938
			]
		},
		{
			"name":"Object_22"
		},
		{
			"children":[
				5
			],
			"name":"Object_21",
			"rotation":[
				0.70710688829422,
				0,
				0,
				0.7071066498756409
			]
		},
		{
			"children":[
				6
			],
			"name":"main",
			"rotation":[
				-0.5974957346916199,
				-0.31656837463378906,
				-0.2770795524120331,
				0.682649552822113
			],
			"scale":[
				100,
				100.00000762939453,
				99.99999237060547
			],
			"translation":[
				928.7931518554688,
				513.2296752929688,
				-751.0443725585938
			]
		},
		{
			"mesh":0,
			"name":"label_label_mat_0"
		},
		{
			"children":[
				8
			],
			"name":"label",
			"rotation":[
				0,
				0,
				0.25206947326660156,
				0.9677091240882874
			],
			"scale":[
				1.0018020868301392,
				1.0018020868301392,
				1
			],
			"translation":[
				0,
				0,
				-0.0949154794216156
			]
		},
		{
			"mesh":1,
			"name":"metal_cap_metal_cap_mat_0"
		},
		{
			"children":[
				10
			],
			"name":"metal_cap",
			"rotation":[
				0,
				0,
				0.7071068286895752,
				0.7071067094802856
			],
			"translation":[
				0,
				0,
				0.1701209843158722
			]
		},
		{
			"mesh":2,
			"name":"NEW-bottle_glass_bottle_mat.001_0"
		},
		{
			"mesh":3,
			"name":"NEW-oil_oil_mat_0"
		},
		{
			"children":[
				13
			],
			"name":"NEW-oil",
			"scale":[
				0.9968752264976501,
				0.9968752264976501,
				1
			]
		},
		{
			"mesh":4,
			"name":"pipette_glass_bottle_mat_0"
		},
		{
			"children":[
				15
			],
			"name":"pipette",
			"rotation":[
				0,
				0,
				0.7071068286895752,
				0.7071067094802856
			],
			"scale":[
				0.1642298549413681,
				0.1642298400402069,
				1.1007277965545654
			],
			"translation":[
				0,
				0,
				0.0636872798204422
			]
		},
		{
			"mesh":5,
			"name":"plastic_cap_plastic_cap_mat_0"
		},
		{
			"children":[
				17
			],
			"name":"plastic_cap",
			"rotation":[
				0,
				0,
				0.7071068286895752,
				0.7071067094802856
			],
			"translation":[
				0,
				0,
				0.15702515840530396
			]
		},
		{
			"children":[
				9,
				11,
				12,
				14,
				16,
				18
			],
			"name":"NEW-bottle",
			"rotation":[
				-0.5,
				-0.5,
				-0.5,
				0.5
			],
			"scale":[
				60.89026641845703,
				60.8902702331543,
				99.99999237060547
			],
			"translation":[
				0,
				5.663797378540039,
				0
			]
		},
		{
			"mesh":6,
			"name":"stage_floor_mat_0"
		},
		{
			"children":[
				20
			],
			"name":"stage",
			"rotation":[
				0,
				-0.70710688829422,
				-0.7071066498756409,
				3.0908619663705394e-08
			],
			"scale":[
				-145.1818389892578,
				-145.18182373046875,
				-13.614874839782715
			],
			"translation":[
				0,
				-106.64761352539062,
				0
			]
		},
		{
			"children":[
				1,
				4,
				7,
				19,
				21
			],
			"name":"RootNode"
		},
		{
			"children":[
				22
			],
			"name":"846e365826174eee8d7db54c897d75fd.fbx",
			"rotation":[
				0.70710688829422,
				0,
				0,
				0.7071066498756409
			],
			"scale":[
				0.009999999776482582,
				0.010000000707805157,
				0.010000000707805157
			]
		},
		{
			"children":[
				23
			],
			"name":"Sketchfab_model",
			"rotation":[
				-0.70710688829422,
				0,
				0,
				0.7071066498756409
			],
			"translation":[
				0.06771840155124664,
				-0.3690981864929199,
				0.043493837118148804
			]
		}
	],
	"materials":[
		{
			"doubleSided":true,
			"name":"label_mat",
			"pbrMetallicRoughness":{
				"baseColorFactor":[
					0.7929608225822449,
					0.3095529079437256,
					0.12565384805202484,
					1
				],
				"metallicFactor":0,
				"roughnessFactor":0.23416683077812195
			}
		},
		{
			"doubleSided":true,
			"name":"metal_cap_mat",
			"pbrMetallicRoughness":{
				"baseColorFactor":[
					1,
					0.46610027551651,
					0.01970836892724037,
					1
				],
				"roughnessFactor":0.2633742690086365
			}
		},
		{
			"alphaMode":"BLEND",
			"doubleSided":true,
			"name":"glass_bottle_mat.001",
			"pbrMetallicRoughness":{
				"baseColorFactor":[
					0.800000011920929,
					0.800000011920929,
					0.800000011920929,
					0.15000000596046448
				],
				"metallicFactor":0,
				"roughnessFactor":0
			}
		},
		{
			"alphaMode":"BLEND",
			"doubleSided":true,
			"extensions":{
				"KHR_materials_transmission":{
					"transmissionFactor":0.8160790801048279
				}
			},
			"name":"oil_mat",
			"pbrMetallicRoughness":{
				"baseColorFactor":[
					1,
					0.7588794827461243,
					0.39218956232070923,
					0.25
				],
				"metallicFactor":0,
				"roughnessFactor":0
			}
		},
		{
			"alphaMode":"BLEND",
			"doubleSided":true,
			"name":"glass_bottle_mat",
			"pbrMetallicRoughness":{
				"baseColorFactor":[
					0.800000011920929,
					0.800000011920929,
					0.800000011920929,
					0.37862375378608704
				],
				"metallicFactor":0,
				"roughnessFactor":0
			}
		},
		{
			"doubleSided":true,
			"name":"plastic_cap_mat",
			"pbrMetallicRoughness":{
				"baseColorFactor":[
					0.4571419954299927,
					0.42556899785995483,
					0.40163201093673706,
					1
				],
				"metallicFactor":0,
				"roughnessFactor":0.8945364356040955
			}
		},
		{
			"doubleSided":true,
			"name":"floor_mat",
			"pbrMetallicRoughness":{
				"baseColorFactor":[
					1,
					0.8545551896095276,
					0.5978448987007141,
					1
				],
				"metallicFactor":0
			}
		}
	],
	"meshes":[
		{
			"name":"label_label_mat_0",
			"primitives":[
				{
					"attributes":{
						"POSITION":0,
						"NORMAL":1,
						"TEXCOORD_0":2
					},
					"indices":3,
					"material":0
				}
			]
		},
		{
			"name":"metal_cap_metal_cap_mat_0",
			"primitives":[
				{
					"attributes":{
						"POSITION":4,
						"NORMAL":5,
						"TEXCOORD_0":6
					},
					"indices":7,
					"material":1
				}
			]
		},
		{
			"name":"NEW-bottle_glass_bottle_mat.001_0",
			"primitives":[
				{
					"attributes":{
						"POSITION":8,
						"NORMAL":9,
						"TEXCOORD_0":10
					},
					"indices":11,
					"material":2
				}
			]
		},
		{
			"name":"NEW-oil_oil_mat_0",
			"primitives":[
				{
					"attributes":{
						"POSITION":12,
						"NORMAL":13,
						"TEXCOORD_0":14
					},
					"indices":15,
					"material":3
				}
			]
		},
		{
			"name":"pipette_glass_bottle_mat_0",
			"primitives":[
				{
					"attributes":{
						"POSITION":16,
						"NORMAL":17,
						"TEXCOORD_0":18
					},
					"indices":19,
					"material":4
				}
			]
		},
		{
			"name":"plastic_cap_plastic_cap_mat_0",
			"primitives":[
				{
					"attributes":{
						"POSITION":20,
						"NORMAL":21,
						"TEXCOORD_0":22
					},
					"indices":23,
					"material":5
				}
			]
		},
		{
			"name":"stage_floor_mat_0",
			"primitives":[
				{
					"attributes":{
						"POSITION":24,
						"NORMAL":25,
						"TEXCOORD_0":26
					},
					"indices":27,
					"material":6
				}
			]
		}
	],
	"accessors":[
		{
			"bufferView":0,
			"componentType":5126,
			"count":196,
			"max":[
				0.9238795638084412,
				1,
				0.7585223317146301
			],
			"min":[
				-1,
				-1,
				-0.7191046476364136
			],
			"type":"VEC3"
		},
		{
			"bufferView":1,
			"componentType":5126,
			"count":196,
			"type":"VEC3"
		},
		{
			"bufferView":2,
			"componentType":5126,
			"count":196,
			"type":"VEC2"
		},
		{
			"bufferView":3,
			"componentType":5123,
			"count":888,
			"type":"SCALAR"
		},
		{
			"bufferView":4,
			"componentType":5126,
			"count":3435,
			"max":[
				0.6641347408294678,
				0.6641348600387573,
				1.7395939826965332
			],
			"min":[
				-0.6641348600387573,
				-0.6641348600387573,
				1.1091270446777344
			],
			"type":"VEC3"
		},
		{
			"bufferView":5,
			"componentType":5126,
			"count":3435,
			"type":"VEC3"
		},
		{
			"bufferView":6,
			"componentType":5126,
			"count":3435,
			"type":"VEC2"
		},
		{
			"bufferView":7,
			"componentType":5123,
			"count":16896,
			"type":"SCALAR"
		},
		{
			"bufferView":8,
			"componentType":5126,
			"count":8918,
			"max":[
				0.9965067505836487,
				0.9965068101882935,
				1.5025091171264648
			],
			"min":[
				-0.9965067505836487,
				-0.9965067505836487,
				-0.9775263667106628
			],
			"type":"VEC3"
		},
		{
			"bufferView":9,
			"componentType":5126,
			"count":8918,
			"type":"VEC3"
		},
		{
			"bufferView":10,
			"componentType":5126,
			"count":8918,
			"type":"VEC2"
		},
		{
			"bufferView":11,
			"componentType":5123,
			"count":43392,
			"type":"SCALAR"
		},
		{
			"bufferView":12,
			"componentType":5126,
			"count":2912,
			"max":[
				0.9838337898254395,
				0.983833909034729,
				1.1318289041519165
			],
			"min":[
				-0.9838337898254395,
				-0.983833909034729,
				-0.7091107368469238
			],
			"type":"VEC3"
		},
		{
			"bufferView":13,
			"componentType":5126,
			"count":2912,
			"type":"VEC3"
		},
		{
			"bufferView":14,
			"componentType":5126,
			"count":2912,
			"type":"VEC2"
		},
		{
			"bufferView":15,
			"componentType":5123,
			"count":13440,
			"type":"SCALAR"
		},
		{
			"bufferView":16,
			"componentType":5126,
			"count":8480,
			"max":[
				0.9935951828956604,
				0.9935951828956604,
				1.666427731513977
			],
			"min":[
				-0.9935951828956604,
				-0.9935951828956604,
				-0.6906759738922119
			],
			"type":"VEC3"
		},
		{
			"bufferView":17,
			"componentType":5126,
			"count":8480,
			"type":"VEC3"
		},
		{
			"bufferView":18,
			"componentType":5126,
			"count":8480,
			"type":"VEC2"
		},
		{
			"bufferView":19,
			"componentType":5123,
			"count":12480,
			"type":"SCALAR"
		},
		{
			"bufferView":20,
			"componentType":5126,
			"count":3962,
			"max":[
				0.6129560470581055,
				0.6129560470581055,
				2.5407962799072266
			],
			"min":[
				-0.6129560470581055,
				-0.6129561066627502,
				1.7063509225845337
			],
			"type":"VEC3"
		},
		{
			"bufferView":21,
			"componentType":5126,
			"count":3962,
			"type":"VEC3"
		},
		{
			"bufferView":22,
			"componentType":5126,
			"count":3962,
			"type":"VEC2"
		},
		{
			"bufferView":23,
			"componentType":5123,
			"count":18816,
			"type":"SCALAR"
		},
		{
			"bufferView":24,
			"componentType":5126,
			"count":1674,
			"max":[
				0.9935951828956604,
				0.9935951828956604,
				1.0000004768371582
			],
			"min":[
				-0.9935951828956604,
				-0.9935951828956604,
				-1.0000004768371582
			],
			"type":"VEC3"
		},
		{
			"bufferView":25,
			"componentType":5126,
			"count":1674,
			"type":"VEC3"
		},
		{
			"bufferView":26,
			"componentType":5126,
			"count":1674,
			"type":"VEC2"
		},
		{
			"bufferView":27,
			"componentType":5123,
			"count":6528,
			"type":"SCALAR"
		}
	],
	"bufferViews":[
		{
			"buffer":0,
			"byteLength":2352,
			"byteOffset":0,
			"target":34962
		},
		{
			"buffer":0,
			"byteLength":2352,
			"byteOffset":2352,
			"target":34962
		},
		{
			"buffer":0,
			"byteLength":1568,
			"byteOffset":4704,
			"target":34962
		},
		{
			"buffer":0,
			"byteLength":1776,
			"byteOffset":6272,
			"target":34963
		},
		{
			"buffer":0,
			"byteLength":41220,
			"byteOffset":8048,
			"target":34962
		},
		{
			"buffer":0,
			"byteLength":41220,
			"byteOffset":49268,
			"target":34962
		},
		{
			"buffer":0,
			"byteLength":27480,
			"byteOffset":90488,
			"target":34962
		},
		{
			"buffer":0,
			"byteLength":33792,
			"byteOffset":117968,
			"target":34963
		},
		{
			"buffer":0,
			"byteLength":107016,
			"byteOffset":151760,
			"target":34962
		},
		{
			"buffer":0,
			"byteLength":107016,
			"byteOffset":258776,
			"target":34962
		},
		{
			"buffer":0,
			"byteLength":71344,
			"byteOffset":365792,
			"target":34962
		},
		{
			"buffer":0,
			"byteLength":86784,
			"byteOffset":437136,
			"target":34963
		},
		{
			"buffer":0,
			"byteLength":34944,
			"byteOffset":523920,
			"target":34962
		},
		{
			"buffer":0,
			"byteLength":34944,
			"byteOffset":558864,
			"target":34962
		},
		{
			"buffer":0,
			"byteLength":23296,
			"byteOffset":593808,
			"target":34962
		},
		{
			"buffer":0,
			"byteLength":26880,
			"byteOffset":617104,
			"target":34963
		},
		{
			"buffer":0,
			"byteLength":101760,
			"byteOffset":643984,
			"target":34962
		},
		{
			"buffer":0,
			"byteLength":101760,
			"byteOffset":745744,
			"target":34962
		},
		{
			"buffer":0,
			"byteLength":67840,
			"byteOffset":847504,
			"target":34962
		},
		{
			"buffer":0,
			"byteLength":24960,
			"byteOffset":915344,
			"target":34963
		},
		{
			"buffer":0,
			"byteLength":47544,
			"byteOffset":940304,
			"target":34962
		},
		{
			"buffer":0,
			"byteLength":47544,
			"byteOffset":987848,
			"target":34962
		},
		{
			"buffer":0,
			"byteLength":31696,
			"byteOffset":1035392,
			"target":34962
		},
		{
			"buffer":0,
			"byteLength":37632,
			"byteOffset":1067088,
			"target":34963
		},
		{
			"buffer":0,
			"byteLength":20088,
			"byteOffset":1104720,
			"target":34962
		},
		{
			"buffer":0,
			"byteLength":20088,
			"byteOffset":1124808,
			"target":34962
		},
		{
			"buffer":0,
			"byteLength":13392,
			"byteOffset":1144896,
			"target":34962
		},
		{
			"buffer":0,
			"byteLength":13056,
			"byteOffset":1158288,
			"target":34963
		}
	],
	"buffers":[
		{
			"byteLength":1171344,
			"uri":"beautyOil.bin"
		}
	]
}
