{
	"asset":{
		"generator":"Khronos glTF Blender I/O v4.0.44",
		"version":"2.0"
	},
	"extensionsUsed":[
		"KHR_materials_specular",
		"KHR_materials_ior"
	],
	"scene":0,
	"scenes":[
		{
			"name":"Scene",
			"nodes":[
				0
			]
		}
	],
	"nodes":[
		{
			"mesh":0,
			"name":"Areca_palm_Cylinder.2601",
			"rotation":[
				0.7071068286895752,
				0,
				0,
				0.7071068286895752
			]
		}
	],
	"materials":[
		{
			"doubleSided":true,
			"extensions":{
				"KHR_materials_specular":{
					"specularFactor":0
				},
				"KHR_materials_ior":{
					"ior":1.4500000476837158
				}
			},
			"name":"metal.001",
			"pbrMetallicRoughness":{
				"baseColorFactor":[
					0.800000011920929,
					0.800000011920929,
					0.800000011920929,
					1
				],
				"metallicFactor":0
			}
		},
		{
			"doubleSided":true,
			"extensions":{
				"KHR_materials_specular":{
					"specularFactor":0
				},
				"KHR_materials_ior":{
					"ior":1.4500000476837158
				}
			},
			"name":"Soil2.001",
			"pbrMetallicRoughness":{
				"baseColorFactor":[
					0.800000011920929,
					0.800000011920929,
					0.800000011920929,
					1
				],
				"metallicFactor":0
			}
		},
		{
			"doubleSided":true,
			"extensions":{
				"KHR_materials_specular":{
					"specularFactor":0
				},
				"KHR_materials_ior":{
					"ior":1.4500000476837158
				}
			},
			"name":"Areca_palm.001",
			"pbrMetallicRoughness":{
				"baseColorFactor":[
					0.800000011920929,
					0.800000011920929,
					0.800000011920929,
					1
				],
				"metallicFactor":0
			}
		},
		{
			"doubleSided":true,
			"extensions":{
				"KHR_materials_specular":{
					"specularFactor":0
				},
				"KHR_materials_ior":{
					"ior":1.4500000476837158
				}
			},
			"name":"Areca_palm2.001",
			"pbrMetallicRoughness":{
				"baseColorFactor":[
					0.800000011920929,
					0.800000011920929,
					0.800000011920929,
					1
				],
				"metallicFactor":0
			}
		}
	],
	"meshes":[
		{
			"name":"Areca_palm_Cylinder.001",
			"primitives":[
				{
					"attributes":{
						"POSITION":0,
						"NORMAL":1,
						"TEXCOORD_0":2
					},
					"indices":3,
					"material":0
				},
				{
					"attributes":{
						"POSITION":4,
						"NORMAL":5,
						"TEXCOORD_0":6
					},
					"indices":7,
					"material":1
				},
				{
					"attributes":{
						"POSITION":8,
						"NORMAL":9,
						"TEXCOORD_0":10
					},
					"indices":11,
					"material":2
				},
				{
					"attributes":{
						"POSITION":12,
						"NORMAL":13,
						"TEXCOORD_0":14
					},
					"indices":15,
					"material":3
				}
			]
		}
	],
	"accessors":[
		{
			"bufferView":0,
			"componentType":5126,
			"count":224,
			"max":[
				-2.3808019161224365,
				0.7222719788551331,
				0
			],
			"min":[
				-3.825345039367676,
				-0.7222710251808167,
				-0.9345329999923706
			],
			"type":"VEC3"
		},
		{
			"bufferView":1,
			"componentType":5126,
			"count":224,
			"type":"VEC3"
		},
		{
			"bufferView":2,
			"componentType":5126,
			"count":224,
			"type":"VEC2"
		},
		{
			"bufferView":3,
			"componentType":5123,
			"count":666,
			"type":"SCALAR"
		},
		{
			"bufferView":4,
			"componentType":5126,
			"count":32,
			"max":[
				-2.3846940994262695,
				0.718379020690918,
				-0.8979740142822266
			],
			"min":[
				-3.8214519023895264,
				-0.718379020690918,
				-0.8979740142822266
			],
			"type":"VEC3"
		},
		{
			"bufferView":5,
			"componentType":5126,
			"count":32,
			"type":"VEC3"
		},
		{
			"bufferView":6,
			"componentType":5126,
			"count":32,
			"type":"VEC2"
		},
		{
			"bufferView":7,
			"componentType":5123,
			"count":90,
			"type":"SCALAR"
		},
		{
			"bufferView":8,
			"componentType":5126,
			"count":4800,
			"max":[
				-0.6389300227165222,
				1.528190016746521,
				-0.8975030183792114
			],
			"min":[
				-5.138988018035889,
				-1.945444941520691,
				-6.622599124908447
			],
			"type":"VEC3"
		},
		{
			"bufferView":9,
			"componentType":5126,
			"count":4800,
			"type":"VEC3"
		},
		{
			"bufferView":10,
			"componentType":5126,
			"count":4800,
			"type":"VEC2"
		},
		{
			"bufferView":11,
			"componentType":5123,
			"count":7272,
			"type":"SCALAR"
		},
		{
			"bufferView":12,
			"componentType":5126,
			"count":12507,
			"max":[
				-0.20683999359607697,
				2.3131420612335205,
				-1.5015289783477783
			],
			"min":[
				-5.44310998916626,
				-2.4361488819122314,
				-6.732819080352783
			],
			"type":"VEC3"
		},
		{
			"bufferView":13,
			"componentType":5126,
			"count":12507,
			"type":"VEC3"
		},
		{
			"bufferView":14,
			"componentType":5126,
			"count":12507,
			"type":"VEC2"
		},
		{
			"bufferView":15,
			"componentType":5123,
			"count":19416,
			"type":"SCALAR"
		}
	],
	"bufferViews":[
		{
			"buffer":0,
			"byteLength":2688,
			"byteOffset":0,
			"target":34962
		},
		{
			"buffer":0,
			"byteLength":2688,
			"byteOffset":2688,
			"target":34962
		},
		{
			"buffer":0,
			"byteLength":1792,
			"byteOffset":5376,
			"target":34962
		},
		{
			"buffer":0,
			"byteLength":1332,
			"byteOffset":7168,
			"target":34963
		},
		{
			"buffer":0,
			"byteLength":384,
			"byteOffset":8500,
			"target":34962
		},
		{
			"buffer":0,
			"byteLength":384,
			"byteOffset":8884,
			"target":34962
		},
		{
			"buffer":0,
			"byteLength":256,
			"byteOffset":9268,
			"target":34962
		},
		{
			"buffer":0,
			"byteLength":180,
			"byteOffset":9524,
			"target":34963
		},
		{
			"buffer":0,
			"byteLength":57600,
			"byteOffset":9704,
			"target":34962
		},
		{
			"buffer":0,
			"byteLength":57600,
			"byteOffset":67304,
			"target":34962
		},
		{
			"buffer":0,
			"byteLength":38400,
			"byteOffset":124904,
			"target":34962
		},
		{
			"buffer":0,
			"byteLength":14544,
			"byteOffset":163304,
			"target":34963
		},
		{
			"buffer":0,
			"byteLength":150084,
			"byteOffset":177848,
			"target":34962
		},
		{
			"buffer":0,
			"byteLength":150084,
			"byteOffset":327932,
			"target":34962
		},
		{
			"buffer":0,
			"byteLength":100056,
			"byteOffset":478016,
			"target":34962
		},
		{
			"buffer":0,
			"byteLength":38832,
			"byteOffset":578072,
			"target":34963
		}
	],
	"buffers":[
		{
			"byteLength":616904,
			"uri":"areca-palm.bin"
		}
	]
}
