{
	"asset":{
		"generator":"Khronos glTF Blender I/O v4.0.44",
		"version":"2.0"
	},
	"extensionsUsed":[
		"KHR_materials_specular",
		"KHR_materials_ior"
	],
	"scene":0,
	"scenes":[
		{
			"name":"Scene",
			"nodes":[
				0
			]
		}
	],
	"nodes":[
		{
			"mesh":0,
			"name":"Corn_plant_Cylinder.2436",
			"rotation":[
				0.7071068286895752,
				0,
				0,
				0.7071068286895752
			]
		}
	],
	"materials":[
		{
			"doubleSided":true,
			"extensions":{
				"KHR_materials_specular":{
					"specularFactor":0
				},
				"KHR_materials_ior":{
					"ior":1.4500000476837158
				}
			},
			"name":"Flower_pot_1.002",
			"pbrMetallicRoughness":{
				"baseColorFactor":[
					0.800000011920929,
					0.800000011920929,
					0.800000011920929,
					1
				],
				"metallicFactor":0
			}
		},
		{
			"doubleSided":true,
			"extensions":{
				"KHR_materials_specular":{
					"specularFactor":0
				},
				"KHR_materials_ior":{
					"ior":1.4500000476837158
				}
			},
			"name":"Soil2.002",
			"pbrMetallicRoughness":{
				"baseColorFactor":[
					0.800000011920929,
					0.800000011920929,
					0.800000011920929,
					1
				],
				"metallicFactor":0
			}
		},
		{
			"doubleSided":true,
			"extensions":{
				"KHR_materials_specular":{
					"specularFactor":0
				},
				"KHR_materials_ior":{
					"ior":1.4500000476837158
				}
			},
			"name":"Corn_plant.002",
			"pbrMetallicRoughness":{
				"baseColorFactor":[
					0.800000011920929,
					0.800000011920929,
					0.800000011920929,
					1
				],
				"metallicFactor":0
			}
		},
		{
			"doubleSided":true,
			"extensions":{
				"KHR_materials_specular":{
					"specularFactor":0
				},
				"KHR_materials_ior":{
					"ior":1.4500000476837158
				}
			},
			"name":"Leaves.002",
			"pbrMetallicRoughness":{
				"baseColorFactor":[
					0.800000011920929,
					0.800000011920929,
					0.800000011920929,
					1
				],
				"metallicFactor":0
			}
		}
	],
	"meshes":[
		{
			"name":"Corn_plant_Cylinder.002",
			"primitives":[
				{
					"attributes":{
						"POSITION":0,
						"NORMAL":1,
						"TEXCOORD_0":2
					},
					"indices":3,
					"material":0
				},
				{
					"attributes":{
						"POSITION":4,
						"NORMAL":5,
						"TEXCOORD_0":6
					},
					"indices":7,
					"material":1
				},
				{
					"attributes":{
						"POSITION":8,
						"NORMAL":9,
						"TEXCOORD_0":10
					},
					"indices":11,
					"material":2
				},
				{
					"attributes":{
						"POSITION":12,
						"NORMAL":13,
						"TEXCOORD_0":14
					},
					"indices":15,
					"material":3
				}
			]
		}
	],
	"accessors":[
		{
			"bufferView":0,
			"componentType":5126,
			"count":738,
			"max":[
				2.3598220348358154,
				0.5197479724884033,
				0.005051999818533659
			],
			"min":[
				1.3203259706497192,
				-0.5197479724884033,
				-2.0061349868774414
			],
			"type":"VEC3"
		},
		{
			"bufferView":1,
			"componentType":5126,
			"count":738,
			"type":"VEC3"
		},
		{
			"bufferView":2,
			"componentType":5126,
			"count":738,
			"type":"VEC2"
		},
		{
			"bufferView":3,
			"componentType":5123,
			"count":1242,
			"type":"SCALAR"
		},
		{
			"bufferView":4,
			"componentType":5126,
			"count":32,
			"max":[
				2.3163468837738037,
				0.4762740135192871,
				-1.823518991470337
			],
			"min":[
				1.3638010025024414,
				-0.4762730002403259,
				-1.823518991470337
			],
			"type":"VEC3"
		},
		{
			"bufferView":5,
			"componentType":5126,
			"count":32,
			"type":"VEC3"
		},
		{
			"bufferView":6,
			"componentType":5126,
			"count":32,
			"type":"VEC2"
		},
		{
			"bufferView":7,
			"componentType":5123,
			"count":90,
			"type":"SCALAR"
		},
		{
			"bufferView":8,
			"componentType":5126,
			"count":1536,
			"max":[
				2.1552820205688477,
				0.2111780047416687,
				-1.823518991470337
			],
			"min":[
				1.5236239433288574,
				-0.3342759907245636,
				-4.255143165588379
			],
			"type":"VEC3"
		},
		{
			"bufferView":9,
			"componentType":5126,
			"count":1536,
			"type":"VEC3"
		},
		{
			"bufferView":10,
			"componentType":5126,
			"count":1536,
			"type":"VEC2"
		},
		{
			"bufferView":11,
			"componentType":5123,
			"count":2304,
			"type":"SCALAR"
		},
		{
			"bufferView":12,
			"componentType":5126,
			"count":36560,
			"max":[
				2.9288299083709717,
				0.7716749906539917,
				-3.122606039047241
			],
			"min":[
				1.1362440586090088,
				-0.7797690033912659,
				-6.165561199188232
			],
			"type":"VEC3"
		},
		{
			"bufferView":13,
			"componentType":5126,
			"count":36560,
			"type":"VEC3"
		},
		{
			"bufferView":14,
			"componentType":5126,
			"count":36560,
			"type":"VEC2"
		},
		{
			"bufferView":15,
			"componentType":5123,
			"count":54966,
			"type":"SCALAR"
		}
	],
	"bufferViews":[
		{
			"buffer":0,
			"byteLength":8856,
			"byteOffset":0,
			"target":34962
		},
		{
			"buffer":0,
			"byteLength":8856,
			"byteOffset":8856,
			"target":34962
		},
		{
			"buffer":0,
			"byteLength":5904,
			"byteOffset":17712,
			"target":34962
		},
		{
			"buffer":0,
			"byteLength":2484,
			"byteOffset":23616,
			"target":34963
		},
		{
			"buffer":0,
			"byteLength":384,
			"byteOffset":26100,
			"target":34962
		},
		{
			"buffer":0,
			"byteLength":384,
			"byteOffset":26484,
			"target":34962
		},
		{
			"buffer":0,
			"byteLength":256,
			"byteOffset":26868,
			"target":34962
		},
		{
			"buffer":0,
			"byteLength":180,
			"byteOffset":27124,
			"target":34963
		},
		{
			"buffer":0,
			"byteLength":18432,
			"byteOffset":27304,
			"target":34962
		},
		{
			"buffer":0,
			"byteLength":18432,
			"byteOffset":45736,
			"target":34962
		},
		{
			"buffer":0,
			"byteLength":12288,
			"byteOffset":64168,
			"target":34962
		},
		{
			"buffer":0,
			"byteLength":4608,
			"byteOffset":76456,
			"target":34963
		},
		{
			"buffer":0,
			"byteLength":438720,
			"byteOffset":81064,
			"target":34962
		},
		{
			"buffer":0,
			"byteLength":438720,
			"byteOffset":519784,
			"target":34962
		},
		{
			"buffer":0,
			"byteLength":292480,
			"byteOffset":958504,
			"target":34962
		},
		{
			"buffer":0,
			"byteLength":109932,
			"byteOffset":1250984,
			"target":34963
		}
	],
	"buffers":[
		{
			"byteLength":1360916,
			"uri":"corn-plant.bin"
		}
	]
}
