{
	"asset":{
		"generator":"Khronos glTF Blender I/O v4.0.44",
		"version":"2.0"
	},
	"extensionsUsed":[
		"KHR_materials_specular",
		"KHR_materials_ior"
	],
	"scene":0,
	"scenes":[
		{
			"name":"Scene",
			"nodes":[
				0
			]
		}
	],
	"nodes":[
		{
			"mesh":0,
			"name":"flask_philodendron_Cylinder.2611",
			"rotation":[
				0.7071068286895752,
				0,
				0,
				0.7071068286895752
			]
		}
	],
	"materials":[
		{
			"doubleSided":true,
			"extensions":{
				"KHR_materials_specular":{
					"specularFactor":0
				},
				"KHR_materials_ior":{
					"ior":1.4500000476837158
				}
			},
			"name":"Flower_pot_2.005",
			"pbrMetallicRoughness":{
				"baseColorFactor":[
					0.800000011920929,
					0.800000011920929,
					0.800000011920929,
					1
				],
				"metallicFactor":0
			}
		},
		{
			"doubleSided":true,
			"extensions":{
				"KHR_materials_specular":{
					"specularFactor":0
				},
				"KHR_materials_ior":{
					"ior":1.4500000476837158
				}
			},
			"name":"Soil2.005",
			"pbrMetallicRoughness":{
				"baseColorFactor":[
					0.800000011920929,
					0.800000011920929,
					0.800000011920929,
					1
				],
				"metallicFactor":0
			}
		},
		{
			"doubleSided":true,
			"extensions":{
				"KHR_materials_specular":{
					"specularFactor":0
				},
				"KHR_materials_ior":{
					"ior":1.4500000476837158
				}
			},
			"name":"Stone.005",
			"pbrMetallicRoughness":{
				"baseColorFactor":[
					0.800000011920929,
					0.800000011920929,
					0.800000011920929,
					1
				],
				"metallicFactor":0
			}
		},
		{
			"doubleSided":true,
			"extensions":{
				"KHR_materials_specular":{
					"specularFactor":0
				},
				"KHR_materials_ior":{
					"ior":1.4500000476837158
				}
			},
			"name":"flask_philodendron.010",
			"pbrMetallicRoughness":{
				"baseColorFactor":[
					0.800000011920929,
					0.800000011920929,
					0.800000011920929,
					1
				],
				"metallicFactor":0
			}
		},
		{
			"doubleSided":true,
			"extensions":{
				"KHR_materials_specular":{
					"specularFactor":0
				},
				"KHR_materials_ior":{
					"ior":1.4500000476837158
				}
			},
			"name":"flask_philodendron.011",
			"pbrMetallicRoughness":{
				"baseColorFactor":[
					0.800000011920929,
					0.800000011920929,
					0.800000011920929,
					1
				],
				"metallicFactor":0
			}
		}
	],
	"meshes":[
		{
			"name":"flask_philodendron_Cylinder.005",
			"primitives":[
				{
					"attributes":{
						"POSITION":0,
						"NORMAL":1,
						"TEXCOORD_0":2
					},
					"indices":3,
					"material":0
				},
				{
					"attributes":{
						"POSITION":4,
						"NORMAL":5,
						"TEXCOORD_0":6
					},
					"indices":7,
					"material":1
				},
				{
					"attributes":{
						"POSITION":8,
						"NORMAL":9,
						"TEXCOORD_0":10
					},
					"indices":11,
					"material":2
				},
				{
					"attributes":{
						"POSITION":12,
						"NORMAL":13,
						"TEXCOORD_0":14
					},
					"indices":15,
					"material":3
				},
				{
					"attributes":{
						"POSITION":16,
						"NORMAL":17,
						"TEXCOORD_0":18
					},
					"indices":19,
					"material":4
				}
			]
		}
	],
	"accessors":[
		{
			"bufferView":0,
			"componentType":5126,
			"count":2100,
			"max":[
				-5.376424789428711,
				0.7362229824066162,
				0
			],
			"min":[
				-6.789433002471924,
				-0.6767899990081787,
				-1.7224849462509155
			],
			"type":"VEC3"
		},
		{
			"bufferView":1,
			"componentType":5126,
			"count":2100,
			"type":"VEC3"
		},
		{
			"bufferView":2,
			"componentType":5126,
			"count":2100,
			"type":"VEC2"
		},
		{
			"bufferView":3,
			"componentType":5123,
			"count":4122,
			"type":"SCALAR"
		},
		{
			"bufferView":4,
			"componentType":5126,
			"count":32,
			"max":[
				-5.43100118637085,
				0.6816490292549133,
				-1.6790130138397217
			],
			"min":[
				-6.734869003295898,
				-0.622215986251831,
				-1.6790130138397217
			],
			"type":"VEC3"
		},
		{
			"bufferView":5,
			"componentType":5126,
			"count":32,
			"type":"VEC3"
		},
		{
			"bufferView":6,
			"componentType":5126,
			"count":32,
			"type":"VEC2"
		},
		{
			"bufferView":7,
			"componentType":5123,
			"count":90,
			"type":"SCALAR"
		},
		{
			"bufferView":8,
			"componentType":5126,
			"count":15708,
			"max":[
				-5.436590194702148,
				0.6735910177230835,
				-1.6790130138397217
			],
			"min":[
				-6.728003978729248,
				-0.6164759993553162,
				-1.7988100051879883
			],
			"type":"VEC3"
		},
		{
			"bufferView":9,
			"componentType":5126,
			"count":15708,
			"type":"VEC3"
		},
		{
			"bufferView":10,
			"componentType":5126,
			"count":15708,
			"type":"VEC2"
		},
		{
			"bufferView":11,
			"componentType":5123,
			"count":71808,
			"type":"SCALAR"
		},
		{
			"bufferView":12,
			"componentType":5126,
			"count":7142,
			"max":[
				-4.889434814453125,
				1.2604219913482666,
				-1.8087400197982788
			],
			"min":[
				-7.882024765014648,
				-1.1807090044021606,
				-3.2365379333496094
			],
			"type":"VEC3"
		},
		{
			"bufferView":13,
			"componentType":5126,
			"count":7142,
			"type":"VEC3"
		},
		{
			"bufferView":14,
			"componentType":5126,
			"count":7142,
			"type":"VEC2"
		},
		{
			"bufferView":15,
			"componentType":5123,
			"count":10800,
			"type":"SCALAR"
		},
		{
			"bufferView":16,
			"componentType":5126,
			"count":19104,
			"max":[
				-4.888984203338623,
				1.2608400583267212,
				-1.679010033607483
			],
			"min":[
				-7.882609844207764,
				-1.180912971496582,
				-3.2278249263763428
			],
			"type":"VEC3"
		},
		{
			"bufferView":17,
			"componentType":5126,
			"count":19104,
			"type":"VEC3"
		},
		{
			"bufferView":18,
			"componentType":5126,
			"count":19104,
			"type":"VEC2"
		},
		{
			"bufferView":19,
			"componentType":5123,
			"count":29034,
			"type":"SCALAR"
		}
	],
	"bufferViews":[
		{
			"buffer":0,
			"byteLength":25200,
			"byteOffset":0,
			"target":34962
		},
		{
			"buffer":0,
			"byteLength":25200,
			"byteOffset":25200,
			"target":34962
		},
		{
			"buffer":0,
			"byteLength":16800,
			"byteOffset":50400,
			"target":34962
		},
		{
			"buffer":0,
			"byteLength":8244,
			"byteOffset":67200,
			"target":34963
		},
		{
			"buffer":0,
			"byteLength":384,
			"byteOffset":75444,
			"target":34962
		},
		{
			"buffer":0,
			"byteLength":384,
			"byteOffset":75828,
			"target":34962
		},
		{
			"buffer":0,
			"byteLength":256,
			"byteOffset":76212,
			"target":34962
		},
		{
			"buffer":0,
			"byteLength":180,
			"byteOffset":76468,
			"target":34963
		},
		{
			"buffer":0,
			"byteLength":188496,
			"byteOffset":76648,
			"target":34962
		},
		{
			"buffer":0,
			"byteLength":188496,
			"byteOffset":265144,
			"target":34962
		},
		{
			"buffer":0,
			"byteLength":125664,
			"byteOffset":453640,
			"target":34962
		},
		{
			"buffer":0,
			"byteLength":143616,
			"byteOffset":579304,
			"target":34963
		},
		{
			"buffer":0,
			"byteLength":85704,
			"byteOffset":722920,
			"target":34962
		},
		{
			"buffer":0,
			"byteLength":85704,
			"byteOffset":808624,
			"target":34962
		},
		{
			"buffer":0,
			"byteLength":57136,
			"byteOffset":894328,
			"target":34962
		},
		{
			"buffer":0,
			"byteLength":21600,
			"byteOffset":951464,
			"target":34963
		},
		{
			"buffer":0,
			"byteLength":229248,
			"byteOffset":973064,
			"target":34962
		},
		{
			"buffer":0,
			"byteLength":229248,
			"byteOffset":1202312,
			"target":34962
		},
		{
			"buffer":0,
			"byteLength":152832,
			"byteOffset":1431560,
			"target":34962
		},
		{
			"buffer":0,
			"byteLength":58068,
			"byteOffset":1584392,
			"target":34963
		}
	],
	"buffers":[
		{
			"byteLength":1642460,
			"uri":"flask2.bin"
		}
	]
}
