{
	"asset":{
		"generator":"Khronos glTF Blender I/O v4.0.44",
		"version":"2.0"
	},
	"extensionsUsed":[
		"KHR_materials_specular",
		"KHR_materials_ior"
	],
	"scene":0,
	"scenes":[
		{
			"name":"Scene",
			"nodes":[
				0
			]
		}
	],
	"nodes":[
		{
			"mesh":0,
			"name":"Orchid_Cube.2068",
			"rotation":[
				0.7071068286895752,
				0,
				0,
				0.7071068286895752
			]
		}
	],
	"materials":[
		{
			"doubleSided":true,
			"extensions":{
				"KHR_materials_specular":{
					"specularFactor":0
				},
				"KHR_materials_ior":{
					"ior":1.4500000476837158
				}
			},
			"name":"Black_flower_pot.003",
			"pbrMetallicRoughness":{
				"baseColorFactor":[
					0.800000011920929,
					0.800000011920929,
					0.800000011920929,
					1
				],
				"metallicFactor":0
			}
		},
		{
			"doubleSided":true,
			"extensions":{
				"KHR_materials_specular":{
					"specularFactor":0
				},
				"KHR_materials_ior":{
					"ior":1.4500000476837158
				}
			},
			"name":"Soil_1.003",
			"pbrMetallicRoughness":{
				"baseColorFactor":[
					0.800000011920929,
					0.800000011920929,
					0.800000011920929,
					1
				],
				"metallicFactor":0
			}
		},
		{
			"doubleSided":true,
			"extensions":{
				"KHR_materials_specular":{
					"specularFactor":0
				},
				"KHR_materials_ior":{
					"ior":1.4500000476837158
				}
			},
			"name":"Orchid.009",
			"pbrMetallicRoughness":{
				"baseColorFactor":[
					0.800000011920929,
					0.800000011920929,
					0.800000011920929,
					1
				],
				"metallicFactor":0
			}
		},
		{
			"doubleSided":true,
			"extensions":{
				"KHR_materials_specular":{
					"specularFactor":0
				},
				"KHR_materials_ior":{
					"ior":1.4500000476837158
				}
			},
			"name":"Orchid.010",
			"pbrMetallicRoughness":{
				"baseColorFactor":[
					0.800000011920929,
					0.800000011920929,
					0.800000011920929,
					1
				],
				"metallicFactor":0
			}
		},
		{
			"doubleSided":true,
			"extensions":{
				"KHR_materials_specular":{
					"specularFactor":0
				},
				"KHR_materials_ior":{
					"ior":1.4500000476837158
				}
			},
			"name":"Orchid.011",
			"pbrMetallicRoughness":{
				"baseColorFactor":[
					0.800000011920929,
					0.800000011920929,
					0.800000011920929,
					1
				],
				"metallicFactor":0
			}
		},
		{
			"doubleSided":true,
			"extensions":{
				"KHR_materials_specular":{
					"specularFactor":0
				},
				"KHR_materials_ior":{
					"ior":1.4500000476837158
				}
			},
			"name":"Leaves.003",
			"pbrMetallicRoughness":{
				"baseColorFactor":[
					0.800000011920929,
					0.800000011920929,
					0.800000011920929,
					1
				],
				"metallicFactor":0
			}
		}
	],
	"meshes":[
		{
			"name":"Orchid_Cube.003",
			"primitives":[
				{
					"attributes":{
						"POSITION":0,
						"NORMAL":1,
						"TEXCOORD_0":2
					},
					"indices":3,
					"material":0
				},
				{
					"attributes":{
						"POSITION":4,
						"NORMAL":5,
						"TEXCOORD_0":6
					},
					"indices":7,
					"material":1
				},
				{
					"attributes":{
						"POSITION":8,
						"NORMAL":9,
						"TEXCOORD_0":10
					},
					"indices":11,
					"material":2
				},
				{
					"attributes":{
						"POSITION":12,
						"NORMAL":13,
						"TEXCOORD_0":14
					},
					"indices":15,
					"material":3
				},
				{
					"attributes":{
						"POSITION":16,
						"NORMAL":17,
						"TEXCOORD_0":18
					},
					"indices":19,
					"material":4
				},
				{
					"attributes":{
						"POSITION":20,
						"NORMAL":21,
						"TEXCOORD_0":22
					},
					"indices":23,
					"material":5
				}
			]
		}
	],
	"accessors":[
		{
			"bufferView":0,
			"componentType":5126,
			"count":52,
			"max":[
				4.02764892578125,
				0.5099279880523682,
				-0.008971000090241432
			],
			"min":[
				3.0077929496765137,
				-0.5099279880523682,
				-2.2780508995056152
			],
			"type":"VEC3"
		},
		{
			"bufferView":1,
			"componentType":5126,
			"count":52,
			"type":"VEC3"
		},
		{
			"bufferView":2,
			"componentType":5126,
			"count":52,
			"type":"VEC2"
		},
		{
			"bufferView":3,
			"componentType":5123,
			"count":78,
			"type":"SCALAR"
		},
		{
			"bufferView":4,
			"componentType":5126,
			"count":4,
			"max":[
				3.9829421043395996,
				0.46522000432014465,
				-2.0465381145477295
			],
			"min":[
				3.0525009632110596,
				-0.46522000432014465,
				-2.0465381145477295
			],
			"type":"VEC3"
		},
		{
			"bufferView":5,
			"componentType":5126,
			"count":4,
			"type":"VEC3"
		},
		{
			"bufferView":6,
			"componentType":5126,
			"count":4,
			"type":"VEC2"
		},
		{
			"bufferView":7,
			"componentType":5123,
			"count":6,
			"type":"SCALAR"
		},
		{
			"bufferView":8,
			"componentType":5126,
			"count":8880,
			"max":[
				3.9816269874572754,
				0.45583298802375793,
				-2.7823140621185303
			],
			"min":[
				2.8348050117492676,
				-0.4840959906578064,
				-3.426529884338379
			],
			"type":"VEC3"
		},
		{
			"bufferView":9,
			"componentType":5126,
			"count":8880,
			"type":"VEC3"
		},
		{
			"bufferView":10,
			"componentType":5126,
			"count":8880,
			"type":"VEC2"
		},
		{
			"bufferView":11,
			"componentType":5123,
			"count":13320,
			"type":"SCALAR"
		},
		{
			"bufferView":12,
			"componentType":5126,
			"count":14720,
			"max":[
				4.029138088226318,
				0.5583310127258301,
				-2.6801249980926514
			],
			"min":[
				2.7723240852355957,
				-0.5760149955749512,
				-3.5341780185699463
			],
			"type":"VEC3"
		},
		{
			"bufferView":13,
			"componentType":5126,
			"count":14720,
			"type":"VEC3"
		},
		{
			"bufferView":14,
			"componentType":5126,
			"count":14720,
			"type":"VEC2"
		},
		{
			"bufferView":15,
			"componentType":5123,
			"count":22080,
			"type":"SCALAR"
		},
		{
			"bufferView":16,
			"componentType":5126,
			"count":2635,
			"max":[
				4.066047191619873,
				0.5654550194740295,
				-2.046536922454834
			],
			"min":[
				2.8723199367523193,
				-0.43346500396728516,
				-4.5745768547058105
			],
			"type":"VEC3"
		},
		{
			"bufferView":17,
			"componentType":5126,
			"count":2635,
			"type":"VEC3"
		},
		{
			"bufferView":18,
			"componentType":5126,
			"count":2635,
			"type":"VEC2"
		},
		{
			"bufferView":19,
			"componentType":5123,
			"count":9534,
			"type":"SCALAR"
		},
		{
			"bufferView":20,
			"componentType":5126,
			"count":3232,
			"max":[
				4.481594085693359,
				0.7853760123252869,
				-2.046536922454834
			],
			"min":[
				2.466125965118408,
				-0.9644929766654968,
				-2.913640022277832
			],
			"type":"VEC3"
		},
		{
			"bufferView":21,
			"componentType":5126,
			"count":3232,
			"type":"VEC3"
		},
		{
			"bufferView":22,
			"componentType":5126,
			"count":3232,
			"type":"VEC2"
		},
		{
			"bufferView":23,
			"componentType":5123,
			"count":4848,
			"type":"SCALAR"
		}
	],
	"bufferViews":[
		{
			"buffer":0,
			"byteLength":624,
			"byteOffset":0,
			"target":34962
		},
		{
			"buffer":0,
			"byteLength":624,
			"byteOffset":624,
			"target":34962
		},
		{
			"buffer":0,
			"byteLength":416,
			"byteOffset":1248,
			"target":34962
		},
		{
			"buffer":0,
			"byteLength":156,
			"byteOffset":1664,
			"target":34963
		},
		{
			"buffer":0,
			"byteLength":48,
			"byteOffset":1820,
			"target":34962
		},
		{
			"buffer":0,
			"byteLength":48,
			"byteOffset":1868,
			"target":34962
		},
		{
			"buffer":0,
			"byteLength":32,
			"byteOffset":1916,
			"target":34962
		},
		{
			"buffer":0,
			"byteLength":12,
			"byteOffset":1948,
			"target":34963
		},
		{
			"buffer":0,
			"byteLength":106560,
			"byteOffset":1960,
			"target":34962
		},
		{
			"buffer":0,
			"byteLength":106560,
			"byteOffset":108520,
			"target":34962
		},
		{
			"buffer":0,
			"byteLength":71040,
			"byteOffset":215080,
			"target":34962
		},
		{
			"buffer":0,
			"byteLength":26640,
			"byteOffset":286120,
			"target":34963
		},
		{
			"buffer":0,
			"byteLength":176640,
			"byteOffset":312760,
			"target":34962
		},
		{
			"buffer":0,
			"byteLength":176640,
			"byteOffset":489400,
			"target":34962
		},
		{
			"buffer":0,
			"byteLength":117760,
			"byteOffset":666040,
			"target":34962
		},
		{
			"buffer":0,
			"byteLength":44160,
			"byteOffset":783800,
			"target":34963
		},
		{
			"buffer":0,
			"byteLength":31620,
			"byteOffset":827960,
			"target":34962
		},
		{
			"buffer":0,
			"byteLength":31620,
			"byteOffset":859580,
			"target":34962
		},
		{
			"buffer":0,
			"byteLength":21080,
			"byteOffset":891200,
			"target":34962
		},
		{
			"buffer":0,
			"byteLength":19068,
			"byteOffset":912280,
			"target":34963
		},
		{
			"buffer":0,
			"byteLength":38784,
			"byteOffset":931348,
			"target":34962
		},
		{
			"buffer":0,
			"byteLength":38784,
			"byteOffset":970132,
			"target":34962
		},
		{
			"buffer":0,
			"byteLength":25856,
			"byteOffset":1008916,
			"target":34962
		},
		{
			"buffer":0,
			"byteLength":9696,
			"byteOffset":1034772,
			"target":34963
		}
	],
	"buffers":[
		{
			"byteLength":1044468,
			"uri":"orchid-cube.bin"
		}
	]
}
