{
	"asset":{
		"generator":"Khronos glTF Blender I/O v4.0.44",
		"version":"2.0"
	},
	"extensionsUsed":[
		"KHR_materials_specular",
		"KHR_materials_ior"
	],
	"scene":0,
	"scenes":[
		{
			"name":"Scene",
			"nodes":[
				0
			]
		}
	],
	"nodes":[
		{
			"mesh":0,
			"name":"Snake_plant_Cylinder.2418",
			"rotation":[
				0.7071068286895752,
				0,
				0,
				0.7071068286895752
			]
		}
	],
	"materials":[
		{
			"doubleSided":true,
			"extensions":{
				"KHR_materials_specular":{
					"specularFactor":0
				},
				"KHR_materials_ior":{
					"ior":1.4500000476837158
				}
			},
			"name":"Soil_1.004",
			"pbrMetallicRoughness":{
				"baseColorFactor":[
					0.800000011920929,
					0.800000011920929,
					0.800000011920929,
					1
				],
				"metallicFactor":0
			}
		},
		{
			"doubleSided":true,
			"extensions":{
				"KHR_materials_specular":{
					"specularFactor":0
				},
				"KHR_materials_ior":{
					"ior":1.4500000476837158
				}
			},
			"name":"White_flower_pot.004",
			"pbrMetallicRoughness":{
				"baseColorFactor":[
					0.800000011920929,
					0.800000011920929,
					0.800000011920929,
					1
				],
				"metallicFactor":0
			}
		},
		{
			"doubleSided":true,
			"extensions":{
				"KHR_materials_specular":{
					"specularFactor":0
				},
				"KHR_materials_ior":{
					"ior":1.4500000476837158
				}
			},
			"name":"Snake_plant.004",
			"pbrMetallicRoughness":{
				"baseColorFactor":[
					0.800000011920929,
					0.800000011920929,
					0.800000011920929,
					1
				],
				"metallicFactor":0
			}
		}
	],
	"meshes":[
		{
			"name":"Snake_plant_Cylinder.004",
			"primitives":[
				{
					"attributes":{
						"POSITION":0,
						"NORMAL":1,
						"TEXCOORD_0":2
					},
					"indices":3,
					"material":0
				},
				{
					"attributes":{
						"POSITION":4,
						"NORMAL":5,
						"TEXCOORD_0":6
					},
					"indices":7,
					"material":1
				},
				{
					"attributes":{
						"POSITION":8,
						"NORMAL":9,
						"TEXCOORD_0":10
					},
					"indices":11,
					"material":2
				}
			]
		}
	],
	"accessors":[
		{
			"bufferView":0,
			"componentType":5126,
			"count":64,
			"max":[
				7.655635833740234,
				0.6431170105934143,
				-0.9331269860267639
			],
			"min":[
				6.369401931762695,
				-0.6431170105934143,
				-0.9331269860267639
			],
			"type":"VEC3"
		},
		{
			"bufferView":1,
			"componentType":5126,
			"count":64,
			"type":"VEC3"
		},
		{
			"bufferView":2,
			"componentType":5126,
			"count":64,
			"type":"VEC2"
		},
		{
			"bufferView":3,
			"componentType":5123,
			"count":186,
			"type":"SCALAR"
		},
		{
			"bufferView":4,
			"componentType":5126,
			"count":2112,
			"max":[
				7.707479953765869,
				0.6949610114097595,
				-0.017131000757217407
			],
			"min":[
				6.3175578117370605,
				-0.6949610114097595,
				-1.002634048461914
			],
			"type":"VEC3"
		},
		{
			"bufferView":5,
			"componentType":5126,
			"count":2112,
			"type":"VEC3"
		},
		{
			"bufferView":6,
			"componentType":5126,
			"count":2112,
			"type":"VEC2"
		},
		{
			"bufferView":7,
			"componentType":5123,
			"count":3258,
			"type":"SCALAR"
		},
		{
			"bufferView":8,
			"componentType":5126,
			"count":3346,
			"max":[
				7.573490142822266,
				0.9052000045776367,
				-0.9331250190734863
			],
			"min":[
				6.389019012451172,
				-0.638143002986908,
				-6.005997180938721
			],
			"type":"VEC3"
		},
		{
			"bufferView":9,
			"componentType":5126,
			"count":3346,
			"type":"VEC3"
		},
		{
			"bufferView":10,
			"componentType":5126,
			"count":3346,
			"type":"VEC2"
		},
		{
			"bufferView":11,
			"componentType":5123,
			"count":5064,
			"type":"SCALAR"
		}
	],
	"bufferViews":[
		{
			"buffer":0,
			"byteLength":768,
			"byteOffset":0,
			"target":34962
		},
		{
			"buffer":0,
			"byteLength":768,
			"byteOffset":768,
			"target":34962
		},
		{
			"buffer":0,
			"byteLength":512,
			"byteOffset":1536,
			"target":34962
		},
		{
			"buffer":0,
			"byteLength":372,
			"byteOffset":2048,
			"target":34963
		},
		{
			"buffer":0,
			"byteLength":25344,
			"byteOffset":2420,
			"target":34962
		},
		{
			"buffer":0,
			"byteLength":25344,
			"byteOffset":27764,
			"target":34962
		},
		{
			"buffer":0,
			"byteLength":16896,
			"byteOffset":53108,
			"target":34962
		},
		{
			"buffer":0,
			"byteLength":6516,
			"byteOffset":70004,
			"target":34963
		},
		{
			"buffer":0,
			"byteLength":40152,
			"byteOffset":76520,
			"target":34962
		},
		{
			"buffer":0,
			"byteLength":40152,
			"byteOffset":116672,
			"target":34962
		},
		{
			"buffer":0,
			"byteLength":26768,
			"byteOffset":156824,
			"target":34962
		},
		{
			"buffer":0,
			"byteLength":10128,
			"byteOffset":183592,
			"target":34963
		}
	],
	"buffers":[
		{
			"byteLength":193720,
			"uri":"snake-plant.bin"
		}
	]
}
