{
	"asset":{
		"generator":"Khronos glTF Blender I/O v4.0.44",
		"version":"2.0"
	},
	"extensionsUsed":[
		"KHR_materials_specular",
		"KHR_materials_clearcoat"
	],
	"scene":0,
	"scenes":[
		{
			"name":"Scene",
			"nodes":[
				7
			]
		}
	],
	"nodes":[
		{
			"mesh":0,
			"name":"top.001_Material.002_0"
		},
		{
			"mesh":1,
			"name":"top.001_Material.003_0"
		},
		{
			"mesh":2,
			"name":"top.001_Material.004_0"
		},
		{
			"mesh":3,
			"name":"top.001_Material.009_0"
		},
		{
			"children":[
				0,
				1,
				2,
				3
			],
			"name":"top.001",
			"rotation":[
				-0.0013609742745757103,
				0.7071055769920349,
				-0.7071053385734558,
				0.0013609742745757103
			],
			"scale":[
				99.99999237060547,
				99.99999237060547,
				99.99998474121094
			],
			"translation":[
				1.9854284524917603,
				90.6659164428711,
				0.5062401294708252
			]
		},
		{
			"children":[
				4
			],
			"name":"RootNode"
		},
		{
			"children":[
				5
			],
			"name":"7a42b63135854e528d00363f305009bd.fbx",
			"rotation":[
				0.70710688829422,
				0,
				0,
				0.7071066498756409
			],
			"scale":[
				0.009999999776482582,
				0.010000000707805157,
				0.010000000707805157
			]
		},
		{
			"children":[
				6
			],
			"name":"Sketchfab_model",
			"rotation":[
				-0.70710688829422,
				0,
				0,
				0.7071066498756409
			]
		}
	],
	"materials":[
		{
			"doubleSided":true,
			"extensions":{
				"KHR_materials_specular":{
					"specularFactor":0.9249551892280579
				}
			},
			"name":"Material.002",
			"normalTexture":{
				"index":0
			},
			"pbrMetallicRoughness":{
				"baseColorTexture":{
					"index":1
				},
				"metallicRoughnessTexture":{
					"index":2
				},
				"roughnessFactor":0.6689544320106506
			}
		},
		{
			"doubleSided":true,
			"name":"Material.003",
			"pbrMetallicRoughness":{
				"baseColorTexture":{
					"index":3
				},
				"metallicRoughnessTexture":{
					"index":4
				},
				"roughnessFactor":0.20914044976234436
			}
		},
		{
			"doubleSided":true,
			"extensions":{
				"KHR_materials_clearcoat":{
					"clearcoatFactor":0.16914337873458862,
					"clearcoatRoughnessFactor":0.29104849696159363
				},
				"KHR_materials_specular":{
					"specularFactor":0.010666699148714542
				}
			},
			"name":"Material.004",
			"pbrMetallicRoughness":{
				"baseColorTexture":{
					"index":5
				},
				"metallicFactor":0,
				"metallicRoughnessTexture":{
					"index":6
				}
			}
		},
		{
			"alphaMode":"BLEND",
			"doubleSided":true,
			"extensions":{
				"KHR_materials_clearcoat":{
					"clearcoatFactor":0.18742914497852325,
					"clearcoatRoughnessFactor":0.4556204378604889
				}
			},
			"name":"Material.009",
			"pbrMetallicRoughness":{
				"baseColorFactor":[
					1,
					1,
					1,
					0.4434299170970917
				],
				"baseColorTexture":{
					"index":7
				},
				"metallicRoughnessTexture":{
					"index":8
				}
			}
		}
	],
	"meshes":[
		{
			"name":"top.001_Material.002_0",
			"primitives":[
				{
					"attributes":{
						"POSITION":0,
						"NORMAL":1,
						"TEXCOORD_0":2
					},
					"indices":3,
					"material":0
				}
			]
		},
		{
			"name":"top.001_Material.003_0",
			"primitives":[
				{
					"attributes":{
						"POSITION":4,
						"NORMAL":5,
						"TEXCOORD_0":6
					},
					"indices":7,
					"material":1
				}
			]
		},
		{
			"name":"top.001_Material.004_0",
			"primitives":[
				{
					"attributes":{
						"POSITION":8,
						"NORMAL":9,
						"TEXCOORD_0":10
					},
					"indices":11,
					"material":2
				}
			]
		},
		{
			"name":"top.001_Material.009_0",
			"primitives":[
				{
					"attributes":{
						"POSITION":12,
						"NORMAL":13,
						"TEXCOORD_0":14
					},
					"indices":15,
					"material":3
				}
			]
		}
	],
	"textures":[
		{
			"sampler":0,
			"source":0
		},
		{
			"sampler":0,
			"source":1
		},
		{
			"sampler":0,
			"source":2
		},
		{
			"sampler":0,
			"source":3
		},
		{
			"sampler":0,
			"source":4
		},
		{
			"sampler":0,
			"source":5
		},
		{
			"sampler":0,
			"source":6
		},
		{
			"sampler":0,
			"source":7
		},
		{
			"sampler":0,
			"source":8
		}
	],
	"images":[
		{
			"mimeType":"image/png",
			"name":"Material.002_normal",
			"uri":"Material_002_normal.png"
		},
		{
			"mimeType":"image/png",
			"name":"Material.002_baseColor",
			"uri":"Material_002_baseColor.png"
		},
		{
			"mimeType":"image/png",
			"name":"Material.002_metallicRoughness",
			"uri":"Material_002_metallicRoughness.png"
		},
		{
			"mimeType":"image/png",
			"name":"Material.003_baseColor",
			"uri":"Material_003_baseColor.png"
		},
		{
			"mimeType":"image/png",
			"name":"Material.003_metallicRoughness",
			"uri":"Material_003_metallicRoughness.png"
		},
		{
			"mimeType":"image/png",
			"name":"Material.004_baseColor",
			"uri":"Material_004_baseColor.png"
		},
		{
			"mimeType":"image/png",
			"name":"Material.004_metallicRoughness",
			"uri":"Material_004_metallicRoughness.png"
		},
		{
			"mimeType":"image/png",
			"name":"Material.009_baseColor",
			"uri":"Material_009_baseColor.png"
		},
		{
			"mimeType":"image/png",
			"name":"Material.009_metallicRoughness",
			"uri":"Material_009_metallicRoughness.png"
		}
	],
	"accessors":[
		{
			"bufferView":0,
			"componentType":5126,
			"count":4567,
			"max":[
				0.29213520884513855,
				0.2763277590274811,
				0.9011892080307007
			],
			"min":[
				-0.25097745656967163,
				-0.26620304584503174,
				0.02291036956012249
			],
			"type":"VEC3"
		},
		{
			"bufferView":1,
			"componentType":5126,
			"count":4567,
			"type":"VEC3"
		},
		{
			"bufferView":2,
			"componentType":5126,
			"count":4567,
			"type":"VEC2"
		},
		{
			"bufferView":3,
			"componentType":5123,
			"count":9498,
			"type":"SCALAR"
		},
		{
			"bufferView":4,
			"componentType":5126,
			"count":1078,
			"max":[
				0.18811121582984924,
				0.17318767309188843,
				0.24863651394844055
			],
			"min":[
				-0.15075835585594177,
				-0.16356785595417023,
				-0.3512703776359558
			],
			"type":"VEC3"
		},
		{
			"bufferView":5,
			"componentType":5126,
			"count":1078,
			"type":"VEC3"
		},
		{
			"bufferView":6,
			"componentType":5126,
			"count":1078,
			"type":"VEC2"
		},
		{
			"bufferView":7,
			"componentType":5123,
			"count":5694,
			"type":"SCALAR"
		},
		{
			"bufferView":8,
			"componentType":5126,
			"count":258,
			"max":[
				0.1590607911348343,
				0.14492030441761017,
				0.024446751922369003
			],
			"min":[
				-0.12350860238075256,
				-0.13530036807060242,
				-0.9494881629943848
			],
			"type":"VEC3"
		},
		{
			"bufferView":9,
			"componentType":5126,
			"count":258,
			"type":"VEC3"
		},
		{
			"bufferView":10,
			"componentType":5126,
			"count":258,
			"type":"VEC2"
		},
		{
			"bufferView":11,
			"componentType":5123,
			"count":1074,
			"type":"SCALAR"
		},
		{
			"bufferView":12,
			"componentType":5126,
			"count":1207,
			"max":[
				0.2635832130908966,
				0.256601482629776,
				0.022613048553466797
			],
			"min":[
				-0.23949827253818512,
				-0.24647636711597443,
				-1.0232508182525635
			],
			"type":"VEC3"
		},
		{
			"bufferView":13,
			"componentType":5126,
			"count":1207,
			"type":"VEC3"
		},
		{
			"bufferView":14,
			"componentType":5126,
			"count":1207,
			"type":"VEC2"
		},
		{
			"bufferView":15,
			"componentType":5123,
			"count":3930,
			"type":"SCALAR"
		}
	],
	"bufferViews":[
		{
			"buffer":0,
			"byteLength":54804,
			"byteOffset":0,
			"target":34962
		},
		{
			"buffer":0,
			"byteLength":54804,
			"byteOffset":54804,
			"target":34962
		},
		{
			"buffer":0,
			"byteLength":36536,
			"byteOffset":109608,
			"target":34962
		},
		{
			"buffer":0,
			"byteLength":18996,
			"byteOffset":146144,
			"target":34963
		},
		{
			"buffer":0,
			"byteLength":12936,
			"byteOffset":165140,
			"target":34962
		},
		{
			"buffer":0,
			"byteLength":12936,
			"byteOffset":178076,
			"target":34962
		},
		{
			"buffer":0,
			"byteLength":8624,
			"byteOffset":191012,
			"target":34962
		},
		{
			"buffer":0,
			"byteLength":11388,
			"byteOffset":199636,
			"target":34963
		},
		{
			"buffer":0,
			"byteLength":3096,
			"byteOffset":211024,
			"target":34962
		},
		{
			"buffer":0,
			"byteLength":3096,
			"byteOffset":214120,
			"target":34962
		},
		{
			"buffer":0,
			"byteLength":2064,
			"byteOffset":217216,
			"target":34962
		},
		{
			"buffer":0,
			"byteLength":2148,
			"byteOffset":219280,
			"target":34963
		},
		{
			"buffer":0,
			"byteLength":14484,
			"byteOffset":221428,
			"target":34962
		},
		{
			"buffer":0,
			"byteLength":14484,
			"byteOffset":235912,
			"target":34962
		},
		{
			"buffer":0,
			"byteLength":9656,
			"byteOffset":250396,
			"target":34962
		},
		{
			"buffer":0,
			"byteLength":7860,
			"byteOffset":260052,
			"target":34963
		}
	],
	"samplers":[
		{
			"magFilter":9729,
			"minFilter":9987
		}
	],
	"buffers":[
		{
			"byteLength":267912,
			"uri":"lipstick1.bin"
		}
	]
}
