{
	"asset":{
		"generator":"Khronos glTF Blender I/O v4.0.44",
		"version":"2.0"
	},
	"extensionsUsed":[
		"KHR_materials_clearcoat",
		"KHR_texture_transform"
	],
	"extensionsRequired":[
		"KHR_texture_transform"
	],
	"scene":0,
	"scenes":[
		{
			"name":"Scene",
			"nodes":[
				8
			]
		}
	],
	"nodes":[
		{
			"mesh":0,
			"name":"Object_4"
		},
		{
			"mesh":1,
			"name":"Object_5"
		},
		{
			"mesh":2,
			"name":"Object_6"
		},
		{
			"mesh":3,
			"name":"Object_7"
		},
		{
			"mesh":4,
			"name":"Object_8"
		},
		{
			"children":[
				0,
				1,
				2,
				3,
				4
			],
			"name":"#SHL0004_Wood_Gray_L_Wall_0"
		},
		{
			"children":[
				5
			],
			"name":"GLTF_SceneRootNode",
			"rotation":[
				0.70710688829422,
				0,
				0,
				0.7071066498756409
			]
		},
		{
			"children":[
				6
			],
			"name":"root"
		},
		{
			"children":[
				7
			],
			"name":"Sketchfab_model",
			"rotation":[
				-0.70710688829422,
				0,
				0,
				0.7071066498756409
			],
			"scale":[
				5,
				5.000000476837158,
				5.000000476837158
			]
		}
	],
	"materials":[
		{
			"doubleSided":true,
			"extensions":{
				"KHR_materials_clearcoat":{
					"clearcoatFactor":1,
					"clearcoatRoughnessFactor":0.3482799232006073
				}
			},
			"name":"SHL0004_Wood_A",
			"normalTexture":{
				"extensions":{
					"KHR_texture_transform":{
						"scale":[
							3.5,
							3.5
						]
					}
				},
				"index":0
			},
			"pbrMetallicRoughness":{
				"baseColorTexture":{
					"extensions":{
						"KHR_texture_transform":{
							"scale":[
								3.5,
								3.5
							]
						}
					},
					"index":1
				},
				"metallicFactor":0,
				"metallicRoughnessTexture":{
					"index":2
				}
			}
		},
		{
			"doubleSided":true,
			"name":"SHL0004_Wood_B",
			"normalTexture":{
				"index":3
			},
			"pbrMetallicRoughness":{
				"baseColorTexture":{
					"index":4
				},
				"metallicRoughnessTexture":{
					"index":5
				}
			}
		},
		{
			"doubleSided":true,
			"name":"SHL0004_Plastic_Gray",
			"pbrMetallicRoughness":{
				"baseColorFactor":[
					0.1721619963645935,
					0.1721619963645935,
					0.1721619963645935,
					1
				],
				"metallicFactor":0,
				"roughnessFactor":0.20000000298023224
			}
		},
		{
			"doubleSided":true,
			"name":"SHL0004_Metal_Screws",
			"pbrMetallicRoughness":{
				"baseColorFactor":[
					0.800000011920929,
					0.5785769820213318,
					0.3508490025997162,
					1
				],
				"roughnessFactor":0.5
			}
		},
		{
			"doubleSided":true,
			"name":"SHL0004_Metal_Silver",
			"pbrMetallicRoughness":{
				"baseColorFactor":[
					0.5222820043563843,
					0.77606600522995,
					0.800000011920929,
					1
				],
				"roughnessFactor":0.5
			}
		}
	],
	"meshes":[
		{
			"name":"Object_0",
			"primitives":[
				{
					"attributes":{
						"POSITION":0,
						"NORMAL":1,
						"TEXCOORD_0":2
					},
					"indices":3,
					"material":0
				}
			]
		},
		{
			"name":"Object_1",
			"primitives":[
				{
					"attributes":{
						"POSITION":4,
						"NORMAL":5,
						"TEXCOORD_0":6
					},
					"indices":7,
					"material":1
				}
			]
		},
		{
			"name":"Object_2",
			"primitives":[
				{
					"attributes":{
						"POSITION":8,
						"NORMAL":9,
						"TEXCOORD_0":10
					},
					"indices":11,
					"material":2
				}
			]
		},
		{
			"name":"Object_3",
			"primitives":[
				{
					"attributes":{
						"POSITION":12,
						"NORMAL":13,
						"TEXCOORD_0":14
					},
					"indices":15,
					"material":3
				}
			]
		},
		{
			"name":"Object_4",
			"primitives":[
				{
					"attributes":{
						"POSITION":16,
						"NORMAL":17,
						"TEXCOORD_0":18
					},
					"indices":19,
					"material":4
				}
			]
		}
	],
	"textures":[
		{
			"sampler":0,
			"source":0
		},
		{
			"sampler":0,
			"source":1
		},
		{
			"sampler":0,
			"source":2
		},
		{
			"sampler":0,
			"source":3
		},
		{
			"sampler":0,
			"source":4
		},
		{
			"sampler":0,
			"source":5
		}
	],
	"images":[
		{
			"mimeType":"image/png",
			"name":"SHL0004_Wood_A_normal",
			"uri":"SHL0004_Wood_A_normal.png"
		},
		{
			"mimeType":"image/png",
			"name":"SHL0004_Wood_A_baseColor",
			"uri":"SHL0004_Wood_A_baseColor.png"
		},
		{
			"mimeType":"image/png",
			"name":"SHL0004_Wood_A_metallicRoughness",
			"uri":"SHL0004_Wood_A_metallicRoughness.png"
		},
		{
			"mimeType":"image/jpeg",
			"name":"SHL0004_Wood_B_normal",
			"uri":"SHL0004_Wood_B_normal.jpg"
		},
		{
			"mimeType":"image/jpeg",
			"name":"SHL0004_Wood_B_baseColor",
			"uri":"SHL0004_Wood_B_baseColor.jpg"
		},
		{
			"mimeType":"image/png",
			"name":"SHL0004_Wood_B_metallicRoughness",
			"uri":"SHL0004_Wood_B_metallicRoughness.png"
		}
	],
	"accessors":[
		{
			"bufferView":0,
			"componentType":5126,
			"count":177,
			"max":[
				0.6003003120422363,
				0.013100002892315388,
				0.23540005087852478
			],
			"min":[
				-0.5999999046325684,
				-0.0689227432012558,
				0
			],
			"type":"VEC3"
		},
		{
			"bufferView":1,
			"componentType":5126,
			"count":177,
			"type":"VEC3"
		},
		{
			"bufferView":2,
			"componentType":5126,
			"count":177,
			"type":"VEC2"
		},
		{
			"bufferView":3,
			"componentType":5123,
			"count":450,
			"type":"SCALAR"
		},
		{
			"bufferView":4,
			"componentType":5126,
			"count":198,
			"max":[
				0.6003003120422363,
				0.013100002892315388,
				0.2200000286102295
			],
			"min":[
				-0.5996996164321899,
				-0.009299998171627522,
				0
			],
			"type":"VEC3"
		},
		{
			"bufferView":5,
			"componentType":5126,
			"count":198,
			"type":"VEC3"
		},
		{
			"bufferView":6,
			"componentType":5126,
			"count":198,
			"type":"VEC2"
		},
		{
			"bufferView":7,
			"componentType":5123,
			"count":636,
			"type":"SCALAR"
		},
		{
			"bufferView":8,
			"componentType":5126,
			"count":468,
			"max":[
				0.4628506898880005,
				-0.009299997240304947,
				0.2200000286102295
			],
			"min":[
				-0.45826852321624756,
				-0.03930002823472023,
				0.1900000274181366
			],
			"type":"VEC3"
		},
		{
			"bufferView":9,
			"componentType":5126,
			"count":468,
			"type":"VEC3"
		},
		{
			"bufferView":10,
			"componentType":5126,
			"count":468,
			"type":"VEC2"
		},
		{
			"bufferView":11,
			"componentType":5123,
			"count":1260,
			"type":"SCALAR"
		},
		{
			"bufferView":12,
			"componentType":5126,
			"count":2198,
			"max":[
				0.4540519714355469,
				0.004727059975266457,
				0.21827194094657898
			],
			"min":[
				-0.44946980476379395,
				-0.03050125017762184,
				0.0020000040531158447
			],
			"type":"VEC3"
		},
		{
			"bufferView":13,
			"componentType":5126,
			"count":2198,
			"type":"VEC3"
		},
		{
			"bufferView":14,
			"componentType":5126,
			"count":2198,
			"type":"VEC2"
		},
		{
			"bufferView":15,
			"componentType":5123,
			"count":9000,
			"type":"SCALAR"
		},
		{
			"bufferView":16,
			"componentType":5126,
			"count":520,
			"max":[
				0.4257047772407532,
				0.009300000965595245,
				0.025376617908477783
			],
			"min":[
				-0.42570480704307556,
				-0.011534687131643295,
				0
			],
			"type":"VEC3"
		},
		{
			"bufferView":17,
			"componentType":5126,
			"count":520,
			"type":"VEC3"
		},
		{
			"bufferView":18,
			"componentType":5126,
			"count":520,
			"type":"VEC2"
		},
		{
			"bufferView":19,
			"componentType":5123,
			"count":1320,
			"type":"SCALAR"
		}
	],
	"bufferViews":[
		{
			"buffer":0,
			"byteLength":2124,
			"byteOffset":0,
			"target":34962
		},
		{
			"buffer":0,
			"byteLength":2124,
			"byteOffset":2124,
			"target":34962
		},
		{
			"buffer":0,
			"byteLength":1416,
			"byteOffset":4248,
			"target":34962
		},
		{
			"buffer":0,
			"byteLength":900,
			"byteOffset":5664,
			"target":34963
		},
		{
			"buffer":0,
			"byteLength":2376,
			"byteOffset":6564,
			"target":34962
		},
		{
			"buffer":0,
			"byteLength":2376,
			"byteOffset":8940,
			"target":34962
		},
		{
			"buffer":0,
			"byteLength":1584,
			"byteOffset":11316,
			"target":34962
		},
		{
			"buffer":0,
			"byteLength":1272,
			"byteOffset":12900,
			"target":34963
		},
		{
			"buffer":0,
			"byteLength":5616,
			"byteOffset":14172,
			"target":34962
		},
		{
			"buffer":0,
			"byteLength":5616,
			"byteOffset":19788,
			"target":34962
		},
		{
			"buffer":0,
			"byteLength":3744,
			"byteOffset":25404,
			"target":34962
		},
		{
			"buffer":0,
			"byteLength":2520,
			"byteOffset":29148,
			"target":34963
		},
		{
			"buffer":0,
			"byteLength":26376,
			"byteOffset":31668,
			"target":34962
		},
		{
			"buffer":0,
			"byteLength":26376,
			"byteOffset":58044,
			"target":34962
		},
		{
			"buffer":0,
			"byteLength":17584,
			"byteOffset":84420,
			"target":34962
		},
		{
			"buffer":0,
			"byteLength":18000,
			"byteOffset":102004,
			"target":34963
		},
		{
			"buffer":0,
			"byteLength":6240,
			"byteOffset":120004,
			"target":34962
		},
		{
			"buffer":0,
			"byteLength":6240,
			"byteOffset":126244,
			"target":34962
		},
		{
			"buffer":0,
			"byteLength":4160,
			"byteOffset":132484,
			"target":34962
		},
		{
			"buffer":0,
			"byteLength":2640,
			"byteOffset":136644,
			"target":34963
		}
	],
	"samplers":[
		{
			"magFilter":9729,
			"minFilter":9987
		}
	],
	"buffers":[
		{
			"byteLength":139284,
			"uri":"wallshelf.bin"
		}
	]
}
