{
	"asset":{
		"generator":"Khronos glTF Blender I/O v4.0.44",
		"version":"2.0"
	},
	"scene":0,
	"scenes":[
		{
			"name":"Scene",
			"nodes":[
				4
			]
		}
	],
	"nodes":[
		{
			"mesh":0,
			"name":"Object_2"
		},
		{
			"mesh":1,
			"name":"Object_3"
		},
		{
			"mesh":2,
			"name":"Object_4"
		},
		{
			"children":[
				0,
				1,
				2
			],
			"name":"chennel cushion.obj.cleaner.materialmerger.gles"
		},
		{
			"children":[
				3
			],
			"name":"Sketchfab_model",
			"rotation":[
				0.0075728013180196285,
				0,
				0,
				0.999971330165863
			],
			"scale":[
				5,
				5,
				5
			]
		}
	],
	"materials":[
		{
			"doubleSided":true,
			"name":"BLACK",
			"pbrMetallicRoughness":{
				"baseColorFactor":[
					0.005572829861193895,
					0.005572829861193895,
					0.005572829861193895,
					1
				],
				"metallicFactor":0.37638211250305176,
				"roughnessFactor":0.10819080471992493
			}
		},
		{
			"doubleSided":true,
			"name":"BLACK.001",
			"pbrMetallicRoughness":{
				"baseColorFactor":[
					0.007149217650294304,
					0.007149217650294304,
					0.007149217650294304,
					1
				],
				"metallicFactor":0.7603832483291626,
				"roughnessFactor":0.2179054319858551
			}
		},
		{
			"doubleSided":true,
			"name":"CC_COVER",
			"pbrMetallicRoughness":{
				"baseColorFactor":[
					0.7325329780578613,
					0.6251052618026733,
					0.5440954566001892,
					1
				],
				"metallicFactor":0.22400067746639252,
				"roughnessFactor":0.13257183134555817
			}
		}
	],
	"meshes":[
		{
			"name":"Object_0.001",
			"primitives":[
				{
					"attributes":{
						"POSITION":0,
						"NORMAL":1,
						"TEXCOORD_0":2
					},
					"indices":3,
					"material":0
				}
			]
		},
		{
			"name":"Object_1.001",
			"primitives":[
				{
					"attributes":{
						"POSITION":4,
						"NORMAL":5,
						"TEXCOORD_0":6
					},
					"indices":7,
					"material":1
				}
			]
		},
		{
			"name":"Object_2.001",
			"primitives":[
				{
					"attributes":{
						"POSITION":8,
						"NORMAL":9,
						"TEXCOORD_0":10
					},
					"indices":11,
					"material":2
				}
			]
		}
	],
	"accessors":[
		{
			"bufferView":0,
			"componentType":5126,
			"count":5990,
			"max":[
				0.10706300288438797,
				0.104373998939991,
				0.05389099940657616
			],
			"min":[
				-0.11265400052070618,
				-0.10546600073575974,
				0.0003370000049471855
			],
			"type":"VEC3"
		},
		{
			"bufferView":1,
			"componentType":5126,
			"count":5990,
			"type":"VEC3"
		},
		{
			"bufferView":2,
			"componentType":5126,
			"count":5990,
			"type":"VEC2"
		},
		{
			"bufferView":3,
			"componentType":5123,
			"count":29124,
			"type":"SCALAR"
		},
		{
			"bufferView":4,
			"componentType":5126,
			"count":4417,
			"max":[
				0.054722998291254044,
				0.054722998291254044,
				0.0549979992210865
			],
			"min":[
				-0.054722998291254044,
				-0.054722998291254044,
				0.052014000713825226
			],
			"type":"VEC3"
		},
		{
			"bufferView":5,
			"componentType":5126,
			"count":4417,
			"type":"VEC3"
		},
		{
			"bufferView":6,
			"componentType":5126,
			"count":4417,
			"type":"VEC2"
		},
		{
			"bufferView":7,
			"componentType":5123,
			"count":18720,
			"type":"SCALAR"
		},
		{
			"bufferView":8,
			"componentType":5126,
			"count":896,
			"max":[
				0.10415299981832504,
				0.10155600309371948,
				0.05199899896979332
			],
			"min":[
				-0.10974399745464325,
				-0.10265900194644928,
				0.0519849993288517
			],
			"type":"VEC3"
		},
		{
			"bufferView":9,
			"componentType":5126,
			"count":896,
			"type":"VEC3"
		},
		{
			"bufferView":10,
			"componentType":5126,
			"count":896,
			"type":"VEC2"
		},
		{
			"bufferView":11,
			"componentType":5123,
			"count":2880,
			"type":"SCALAR"
		}
	],
	"bufferViews":[
		{
			"buffer":0,
			"byteLength":71880,
			"byteOffset":0,
			"target":34962
		},
		{
			"buffer":0,
			"byteLength":71880,
			"byteOffset":71880,
			"target":34962
		},
		{
			"buffer":0,
			"byteLength":47920,
			"byteOffset":143760,
			"target":34962
		},
		{
			"buffer":0,
			"byteLength":58248,
			"byteOffset":191680,
			"target":34963
		},
		{
			"buffer":0,
			"byteLength":53004,
			"byteOffset":249928,
			"target":34962
		},
		{
			"buffer":0,
			"byteLength":53004,
			"byteOffset":302932,
			"target":34962
		},
		{
			"buffer":0,
			"byteLength":35336,
			"byteOffset":355936,
			"target":34962
		},
		{
			"buffer":0,
			"byteLength":37440,
			"byteOffset":391272,
			"target":34963
		},
		{
			"buffer":0,
			"byteLength":10752,
			"byteOffset":428712,
			"target":34962
		},
		{
			"buffer":0,
			"byteLength":10752,
			"byteOffset":439464,
			"target":34962
		},
		{
			"buffer":0,
			"byteLength":7168,
			"byteOffset":450216,
			"target":34962
		},
		{
			"buffer":0,
			"byteLength":5760,
			"byteOffset":457384,
			"target":34963
		}
	],
	"buffers":[
		{
			"byteLength":463144,
			"uri":"chanel.bin"
		}
	]
}
