{
	"asset":{
		"generator":"Khronos glTF Blender I/O v4.0.44",
		"version":"2.0"
	},
	"extensionsUsed":[
		"KHR_materials_transmission"
	],
	"scene":0,
	"scenes":[
		{
			"name":"Scene",
			"nodes":[
				13
			]
		}
	],
	"nodes":[
		{
			"mesh":0,
			"name":"3600531312299-CARREFOUR-BOTTLE_MAYBELLINE-gel_Mat-3600531312299"
		},
		{
			"children":[
				0
			],
			"name":"3600531312299-CARREFOUR-BOTTLE_MAYBELLINE-gel"
		},
		{
			"mesh":1,
			"name":"3600531312299-CARREFOUR-BOTTLE_MAYBELLINE-glass_Mat-36005313122"
		},
		{
			"children":[
				2
			],
			"name":"3600531312299-CARREFOUR-BOTTLE_MAYBELLINE-glass"
		},
		{
			"mesh":2,
			"name":"3600531312299-CARREFOUR-BOTTLE_MAYBELLINE-paint_Mat-36005313122"
		},
		{
			"children":[
				4
			],
			"name":"3600531312299-CARREFOUR-BOTTLE_MAYBELLINE-paint"
		},
		{
			"mesh":3,
			"name":"3600531312299-CARREFOUR-BOTTLE_MAYBELLINE-plastic_a_Mat-3600531"
		},
		{
			"children":[
				6
			],
			"name":"3600531312299-CARREFOUR-BOTTLE_MAYBELLINE-plastic_a"
		},
		{
			"mesh":4,
			"name":"3600531312299-CARREFOUR-BOTTLE_MAYBELLINE-plastic_b_Mat-3600531"
		},
		{
			"children":[
				8
			],
			"name":"3600531312299-CARREFOUR-BOTTLE_MAYBELLINE-plastic_b"
		},
		{
			"children":[
				1,
				3,
				5,
				7,
				9
			],
			"name":"3600531312299-CARREFOUR-BOTTLE_MAYBELLINE",
			"rotation":[
				-0.70710688829422,
				0,
				0,
				0.7071066498756409
			]
		},
		{
			"children":[
				10
			],
			"name":"RootNode"
		},
		{
			"children":[
				11
			],
			"name":"3600531312299-CARREFOUR-BOTTLE_MAYBELLINE-BEIGE.fbx",
			"rotation":[
				0.70710688829422,
				0,
				0,
				0.7071066498756409
			],
			"scale":[
				0.0010000000474974513,
				0.0010000001639127731,
				0.0010000001639127731
			]
		},
		{
			"children":[
				12
			],
			"name":"Sketchfab_model",
			"rotation":[
				-0.70710688829422,
				0,
				0,
				0.7071066498756409
			],
			"scale":[
				10,
				10.000000953674316,
				10.000000953674316
			]
		}
	],
	"materials":[
		{
			"doubleSided":true,
			"name":"Mat-3600531312299-CARREFOUR-BOTTLE_MAYBELLINE-gel",
			"occlusionTexture":{
				"index":0
			},
			"pbrMetallicRoughness":{
				"baseColorTexture":{
					"index":1
				},
				"metallicFactor":0,
				"metallicRoughnessTexture":{
					"index":0
				}
			}
		},
		{
			"alphaMode":"BLEND",
			"doubleSided":true,
			"extensions":{
				"KHR_materials_transmission":{
					"transmissionFactor":1
				}
			},
			"name":"Mat-3600531312299-CARREFOUR-BOTTLE_MAYBELLINE-glass",
			"pbrMetallicRoughness":{
				"baseColorFactor":[
					1,
					1,
					1,
					0.25
				],
				"baseColorTexture":{
					"index":2
				},
				"metallicFactor":0,
				"roughnessFactor":0.6000000238418579
			}
		},
		{
			"alphaCutoff":0.4495251774787903,
			"alphaMode":"MASK",
			"name":"Mat-3600531312299-CARREFOUR-BOTTLE_MAYBELLINE-paint",
			"pbrMetallicRoughness":{
				"baseColorTexture":{
					"index":3
				},
				"metallicRoughnessTexture":{
					"index":4
				}
			}
		},
		{
			"alphaMode":"BLEND",
			"doubleSided":true,
			"extensions":{
				"KHR_materials_transmission":{
					"transmissionFactor":0.9466664791107178
				}
			},
			"name":"Mat-3600531312299-CARREFOUR-BOTTLE_MAYBELLINE-plastic_a",
			"pbrMetallicRoughness":{
				"baseColorFactor":[
					1,
					1,
					1,
					0.25
				],
				"baseColorTexture":{
					"index":5
				},
				"metallicFactor":0,
				"metallicRoughnessTexture":{
					"index":6
				}
			}
		},
		{
			"doubleSided":true,
			"name":"Mat-3600531312299-CARREFOUR-BOTTLE_MAYBELLINE-plastic_b",
			"occlusionTexture":{
				"index":7
			},
			"pbrMetallicRoughness":{
				"baseColorTexture":{
					"index":8
				},
				"metallicRoughnessTexture":{
					"index":7
				}
			}
		}
	],
	"meshes":[
		{
			"name":"3600531312299-CARREFOUR-BOTTLE_MAYBELLINE-gel_Mat-3600531312299",
			"primitives":[
				{
					"attributes":{
						"POSITION":0,
						"NORMAL":1,
						"TEXCOORD_0":2,
						"TEXCOORD_1":3
					},
					"indices":4,
					"material":0
				}
			]
		},
		{
			"name":"3600531312299-CARREFOUR-BOTTLE_MAYBELLINE-glass_Mat-36005313122",
			"primitives":[
				{
					"attributes":{
						"POSITION":5,
						"NORMAL":6,
						"TEXCOORD_0":7,
						"TEXCOORD_1":8
					},
					"indices":9,
					"material":1
				}
			]
		},
		{
			"name":"3600531312299-CARREFOUR-BOTTLE_MAYBELLINE-paint_Mat-36005313122",
			"primitives":[
				{
					"attributes":{
						"POSITION":10,
						"NORMAL":11,
						"TEXCOORD_0":12,
						"TEXCOORD_1":13
					},
					"indices":14,
					"material":2
				}
			]
		},
		{
			"name":"3600531312299-CARREFOUR-BOTTLE_MAYBELLINE-plastic_a_Mat-3600531",
			"primitives":[
				{
					"attributes":{
						"POSITION":15,
						"NORMAL":16,
						"TEXCOORD_0":17,
						"TEXCOORD_1":18
					},
					"indices":19,
					"material":3
				}
			]
		},
		{
			"name":"3600531312299-CARREFOUR-BOTTLE_MAYBELLINE-plastic_b_Mat-3600531",
			"primitives":[
				{
					"attributes":{
						"POSITION":20,
						"NORMAL":21,
						"TEXCOORD_0":22,
						"TEXCOORD_1":23
					},
					"indices":24,
					"material":4
				}
			]
		}
	],
	"textures":[
		{
			"sampler":0,
			"source":0
		},
		{
			"sampler":0,
			"source":1
		},
		{
			"sampler":0,
			"source":2
		},
		{
			"sampler":0,
			"source":3
		},
		{
			"sampler":0,
			"source":4
		},
		{
			"sampler":0,
			"source":5
		},
		{
			"sampler":0,
			"source":6
		},
		{
			"sampler":0,
			"source":7
		},
		{
			"sampler":0,
			"source":8
		}
	],
	"images":[
		{
			"mimeType":"image/png",
			"name":"Mat-3600531312299-CARREFOUR-BOTTLE_MAYBELLINE-gel_metallicRoughness",
			"uri":"Mat-3600531312299-CARREFOUR-BOTTLE_MAYBELLINE-gel_metallicRoughness.png"
		},
		{
			"mimeType":"image/png",
			"name":"Mat-3600531312299-CARREFOUR-BOTTLE_MAYBELLINE-gel_baseColor",
			"uri":"Mat-3600531312299-CARREFOUR-BOTTLE_MAYBELLINE-gel_baseColor.png"
		},
		{
			"mimeType":"image/png",
			"name":"Mat-3600531312299-CARREFOUR-BOTTLE_MAYBELLINE-glass_baseColor",
			"uri":"Mat-3600531312299-CARREFOUR-BOTTLE_MAYBELLINE-glass_baseColor.png"
		},
		{
			"mimeType":"image/png",
			"name":"Mat-3600531312299-CARREFOUR-BOTTLE_MAYBELLINE-paint_baseColor",
			"uri":"Mat-3600531312299-CARREFOUR-BOTTLE_MAYBELLINE-paint_baseColor.png"
		},
		{
			"mimeType":"image/png",
			"name":"Mat-3600531312299-CARREFOUR-BOTTLE_MAYBELLINE-paint_metallicRoughness",
			"uri":"Mat-3600531312299-CARREFOUR-BOTTLE_MAYBELLINE-paint_metallicRoughness.png"
		},
		{
			"mimeType":"image/png",
			"name":"Mat-3600531312299-CARREFOUR-BOTTLE_MAYBELLINE-plastic_a_baseColor",
			"uri":"Mat-3600531312299-CARREFOUR-BOTTLE_MAYBELLINE-plastic_a_baseColor.png"
		},
		{
			"mimeType":"image/png",
			"name":"Mat-3600531312299-CARREFOUR-BOTTLE_MAYBELLINE-plastic_a_metallicRoughness",
			"uri":"Mat-3600531312299-CARREFOUR-BOTTLE_MAYBELLINE-plastic_a_metallicRoughness.png"
		},
		{
			"mimeType":"image/png",
			"name":"Mat-3600531312299-CARREFOUR-BOTTLE_MAYBELLINE-plastic_b_metallicRoughness",
			"uri":"Mat-3600531312299-CARREFOUR-BOTTLE_MAYBELLINE-plastic_b_metallicRoughness.png"
		},
		{
			"mimeType":"image/png",
			"name":"Mat-3600531312299-CARREFOUR-BOTTLE_MAYBELLINE-plastic_b_baseColor",
			"uri":"Mat-3600531312299-CARREFOUR-BOTTLE_MAYBELLINE-plastic_b_baseColor.png"
		}
	],
	"accessors":[
		{
			"bufferView":0,
			"componentType":5126,
			"count":1217,
			"max":[
				15.934000015258789,
				15.934000015258789,
				78.01899719238281
			],
			"min":[
				-15.934000015258789,
				-15.934000015258789,
				10.293000221252441
			],
			"type":"VEC3"
		},
		{
			"bufferView":1,
			"componentType":5126,
			"count":1217,
			"type":"VEC3"
		},
		{
			"bufferView":2,
			"componentType":5126,
			"count":1217,
			"type":"VEC2"
		},
		{
			"bufferView":3,
			"componentType":5126,
			"count":1217,
			"type":"VEC2"
		},
		{
			"bufferView":4,
			"componentType":5123,
			"count":6624,
			"type":"SCALAR"
		},
		{
			"bufferView":5,
			"componentType":5126,
			"count":2823,
			"max":[
				16.493999481201172,
				16.493999481201172,
				78.01899719238281
			],
			"min":[
				-16.493999481201172,
				-16.493999481201172,
				0
			],
			"type":"VEC3"
		},
		{
			"bufferView":6,
			"componentType":5126,
			"count":2823,
			"type":"VEC3"
		},
		{
			"bufferView":7,
			"componentType":5126,
			"count":2823,
			"type":"VEC2"
		},
		{
			"bufferView":8,
			"componentType":5126,
			"count":2823,
			"type":"VEC2"
		},
		{
			"bufferView":9,
			"componentType":5123,
			"count":15840,
			"type":"SCALAR"
		},
		{
			"bufferView":10,
			"componentType":5126,
			"count":196,
			"max":[
				16.5,
				16.5,
				74.3949966430664
			],
			"min":[
				-16.5,
				-16.5,
				15.928999900817871
			],
			"type":"VEC3"
		},
		{
			"bufferView":11,
			"componentType":5126,
			"count":196,
			"type":"VEC3"
		},
		{
			"bufferView":12,
			"componentType":5126,
			"count":196,
			"type":"VEC2"
		},
		{
			"bufferView":13,
			"componentType":5126,
			"count":196,
			"type":"VEC2"
		},
		{
			"bufferView":14,
			"componentType":5123,
			"count":864,
			"type":"SCALAR"
		},
		{
			"bufferView":15,
			"componentType":5126,
			"count":1466,
			"max":[
				16.493999481201172,
				16.493999481201172,
				115
			],
			"min":[
				-16.493999481201172,
				-16.493999481201172,
				87.40699768066406
			],
			"type":"VEC3"
		},
		{
			"bufferView":16,
			"componentType":5126,
			"count":1466,
			"type":"VEC3"
		},
		{
			"bufferView":17,
			"componentType":5126,
			"count":1466,
			"type":"VEC2"
		},
		{
			"bufferView":18,
			"componentType":5126,
			"count":1466,
			"type":"VEC2"
		},
		{
			"bufferView":19,
			"componentType":5123,
			"count":7776,
			"type":"SCALAR"
		},
		{
			"bufferView":20,
			"componentType":5126,
			"count":3518,
			"max":[
				16.493999481201172,
				16.493999481201172,
				111.53099822998047
			],
			"min":[
				-16.493999481201172,
				-16.493999481201172,
				76.11499786376953
			],
			"type":"VEC3"
		},
		{
			"bufferView":21,
			"componentType":5126,
			"count":3518,
			"type":"VEC3"
		},
		{
			"bufferView":22,
			"componentType":5126,
			"count":3518,
			"type":"VEC2"
		},
		{
			"bufferView":23,
			"componentType":5126,
			"count":3518,
			"type":"VEC2"
		},
		{
			"bufferView":24,
			"componentType":5123,
			"count":18738,
			"type":"SCALAR"
		}
	],
	"bufferViews":[
		{
			"buffer":0,
			"byteLength":14604,
			"byteOffset":0,
			"target":34962
		},
		{
			"buffer":0,
			"byteLength":14604,
			"byteOffset":14604,
			"target":34962
		},
		{
			"buffer":0,
			"byteLength":9736,
			"byteOffset":29208,
			"target":34962
		},
		{
			"buffer":0,
			"byteLength":9736,
			"byteOffset":38944,
			"target":34962
		},
		{
			"buffer":0,
			"byteLength":13248,
			"byteOffset":48680,
			"target":34963
		},
		{
			"buffer":0,
			"byteLength":33876,
			"byteOffset":61928,
			"target":34962
		},
		{
			"buffer":0,
			"byteLength":33876,
			"byteOffset":95804,
			"target":34962
		},
		{
			"buffer":0,
			"byteLength":22584,
			"byteOffset":129680,
			"target":34962
		},
		{
			"buffer":0,
			"byteLength":22584,
			"byteOffset":152264,
			"target":34962
		},
		{
			"buffer":0,
			"byteLength":31680,
			"byteOffset":174848,
			"target":34963
		},
		{
			"buffer":0,
			"byteLength":2352,
			"byteOffset":206528,
			"target":34962
		},
		{
			"buffer":0,
			"byteLength":2352,
			"byteOffset":208880,
			"target":34962
		},
		{
			"buffer":0,
			"byteLength":1568,
			"byteOffset":211232,
			"target":34962
		},
		{
			"buffer":0,
			"byteLength":1568,
			"byteOffset":212800,
			"target":34962
		},
		{
			"buffer":0,
			"byteLength":1728,
			"byteOffset":214368,
			"target":34963
		},
		{
			"buffer":0,
			"byteLength":17592,
			"byteOffset":216096,
			"target":34962
		},
		{
			"buffer":0,
			"byteLength":17592,
			"byteOffset":233688,
			"target":34962
		},
		{
			"buffer":0,
			"byteLength":11728,
			"byteOffset":251280,
			"target":34962
		},
		{
			"buffer":0,
			"byteLength":11728,
			"byteOffset":263008,
			"target":34962
		},
		{
			"buffer":0,
			"byteLength":15552,
			"byteOffset":274736,
			"target":34963
		},
		{
			"buffer":0,
			"byteLength":42216,
			"byteOffset":290288,
			"target":34962
		},
		{
			"buffer":0,
			"byteLength":42216,
			"byteOffset":332504,
			"target":34962
		},
		{
			"buffer":0,
			"byteLength":28144,
			"byteOffset":374720,
			"target":34962
		},
		{
			"buffer":0,
			"byteLength":28144,
			"byteOffset":402864,
			"target":34962
		},
		{
			"buffer":0,
			"byteLength":37476,
			"byteOffset":431008,
			"target":34963
		}
	],
	"samplers":[
		{
			"magFilter":9729,
			"minFilter":9987
		}
	],
	"buffers":[
		{
			"byteLength":468484,
			"uri":"foundation.bin"
		}
	]
}
