{
	"asset":{
		"generator":"Khronos glTF Blender I/O v4.0.44",
		"version":"2.0"
	},
	"scene":0,
	"scenes":[
		{
			"name":"Scene",
			"nodes":[
				14
			]
		}
	],
	"nodes":[
		{
			"mesh":0,
			"name":"Base_lambert1_0"
		},
		{
			"mesh":1,
			"name":"Lomo_Interno_lambert1_0"
		},
		{
			"children":[
				1
			],
			"name":"Lomo_Interno"
		},
		{
			"mesh":2,
			"name":"Lomo_lambert1_0"
		},
		{
			"mesh":3,
			"name":"Tapa1_lambert1_0"
		},
		{
			"children":[
				4
			],
			"name":"Tapa1"
		},
		{
			"children":[
				2,
				3,
				5
			],
			"name":"Lomo"
		},
		{
			"mesh":4,
			"name":"Pincel_lambert1_0"
		},
		{
			"children":[
				7
			],
			"name":"Pincel"
		},
		{
			"mesh":5,
			"name":"Pinturas_lambert1_0"
		},
		{
			"children":[
				9
			],
			"name":"Pinturas"
		},
		{
			"children":[
				0,
				6,
				8,
				10
			],
			"name":"Base"
		},
		{
			"children":[
				11
			],
			"name":"RootNode"
		},
		{
			"children":[
				12
			],
			"name":"Makeup Palette.fbx",
			"rotation":[
				0.70710688829422,
				0,
				0,
				0.7071066498756409
			],
			"scale":[
				0.009999999776482582,
				0.010000000707805157,
				0.010000000707805157
			]
		},
		{
			"children":[
				13
			],
			"name":"Sketchfab_model",
			"rotation":[
				-0.70710688829422,
				0,
				0,
				0.7071066498756409
			],
			"scale":[
				10,
				10.000000953674316,
				10.000000953674316
			]
		}
	],
	"materials":[
		{
			"doubleSided":true,
			"name":"lambert1",
			"normalTexture":{
				"index":0
			},
			"pbrMetallicRoughness":{
				"baseColorTexture":{
					"index":1
				},
				"metallicRoughnessTexture":{
					"index":2
				}
			}
		}
	],
	"meshes":[
		{
			"name":"Base_lambert1_0",
			"primitives":[
				{
					"attributes":{
						"POSITION":0,
						"NORMAL":1,
						"TEXCOORD_0":2
					},
					"indices":3,
					"material":0
				}
			]
		},
		{
			"name":"Lomo_Interno_lambert1_0",
			"primitives":[
				{
					"attributes":{
						"POSITION":4,
						"NORMAL":5,
						"TEXCOORD_0":6
					},
					"indices":7,
					"material":0
				}
			]
		},
		{
			"name":"Lomo_lambert1_0",
			"primitives":[
				{
					"attributes":{
						"POSITION":8,
						"NORMAL":9,
						"TEXCOORD_0":10
					},
					"indices":11,
					"material":0
				}
			]
		},
		{
			"name":"Tapa1_lambert1_0",
			"primitives":[
				{
					"attributes":{
						"POSITION":12,
						"NORMAL":13,
						"TEXCOORD_0":14
					},
					"indices":15,
					"material":0
				}
			]
		},
		{
			"name":"Pincel_lambert1_0",
			"primitives":[
				{
					"attributes":{
						"POSITION":16,
						"NORMAL":17,
						"TEXCOORD_0":18
					},
					"indices":19,
					"material":0
				}
			]
		},
		{
			"name":"Pinturas_lambert1_0",
			"primitives":[
				{
					"attributes":{
						"POSITION":20,
						"NORMAL":21,
						"TEXCOORD_0":22
					},
					"indices":23,
					"material":0
				}
			]
		}
	],
	"textures":[
		{
			"sampler":0,
			"source":0
		},
		{
			"sampler":0,
			"source":1
		},
		{
			"sampler":0,
			"source":2
		}
	],
	"images":[
		{
			"mimeType":"image/png",
			"name":"lambert1_normal",
			"uri":"lambert1_normal.png"
		},
		{
			"mimeType":"image/png",
			"name":"lambert1_baseColor",
			"uri":"lambert1_baseColor.png"
		},
		{
			"mimeType":"image/png",
			"name":"lambert1_metallicRoughness",
			"uri":"lambert1_metallicRoughness.png"
		}
	],
	"accessors":[
		{
			"bufferView":0,
			"componentType":5126,
			"count":1364,
			"max":[
				10,
				0.8258699178695679,
				4.300000190734863
			],
			"min":[
				-10.000001907348633,
				-3.069639205932617e-06,
				-4.3000030517578125
			],
			"type":"VEC3"
		},
		{
			"bufferView":1,
			"componentType":5126,
			"count":1364,
			"type":"VEC3"
		},
		{
			"bufferView":2,
			"componentType":5126,
			"count":1364,
			"type":"VEC2"
		},
		{
			"bufferView":3,
			"componentType":5123,
			"count":3606,
			"type":"SCALAR"
		},
		{
			"bufferView":4,
			"componentType":5126,
			"count":109,
			"max":[
				9.909265518188477,
				0.935039758682251,
				-4.385196208953857
			],
			"min":[
				-9.909265518188477,
				0.06251038610935211,
				-4.927211761474609
			],
			"type":"VEC3"
		},
		{
			"bufferView":5,
			"componentType":5126,
			"count":109,
			"type":"VEC3"
		},
		{
			"bufferView":6,
			"componentType":5126,
			"count":109,
			"type":"VEC2"
		},
		{
			"bufferView":7,
			"componentType":5123,
			"count":444,
			"type":"SCALAR"
		},
		{
			"bufferView":8,
			"componentType":5126,
			"count":22,
			"max":[
				10,
				1.0702872276306152,
				-4.300002574920654
			],
			"min":[
				-10,
				-8.259061701210157e-07,
				-4.938074111938477
			],
			"type":"VEC3"
		},
		{
			"bufferView":9,
			"componentType":5126,
			"count":22,
			"type":"VEC3"
		},
		{
			"bufferView":10,
			"componentType":5126,
			"count":22,
			"type":"VEC2"
		},
		{
			"bufferView":11,
			"componentType":5123,
			"count":60,
			"type":"SCALAR"
		},
		{
			"bufferView":12,
			"componentType":5126,
			"count":114,
			"max":[
				10,
				9.483366012573242,
				-4.521910190582275
			],
			"min":[
				-10,
				1.0702877044677734,
				-7.143777847290039
			],
			"type":"VEC3"
		},
		{
			"bufferView":13,
			"componentType":5126,
			"count":114,
			"type":"VEC3"
		},
		{
			"bufferView":14,
			"componentType":5126,
			"count":114,
			"type":"VEC2"
		},
		{
			"bufferView":15,
			"componentType":5123,
			"count":246,
			"type":"SCALAR"
		},
		{
			"bufferView":16,
			"componentType":5126,
			"count":3410,
			"max":[
				7.176942348480225,
				0.9065731763839722,
				3.2535178661346436
			],
			"min":[
				-7.813133239746094,
				0.2766098082065582,
				2.2535176277160645
			],
			"type":"VEC3"
		},
		{
			"bufferView":17,
			"componentType":5126,
			"count":3410,
			"type":"VEC3"
		},
		{
			"bufferView":18,
			"componentType":5126,
			"count":3410,
			"type":"VEC2"
		},
		{
			"bufferView":19,
			"componentType":5123,
			"count":9852,
			"type":"SCALAR"
		},
		{
			"bufferView":20,
			"componentType":5126,
			"count":868,
			"max":[
				9.073617935180664,
				0.8258711099624634,
				1.6118133068084717
			],
			"min":[
				-9.073615074157715,
				0.6103873252868652,
				-3.3096132278442383
			],
			"type":"VEC3"
		},
		{
			"bufferView":21,
			"componentType":5126,
			"count":868,
			"type":"VEC3"
		},
		{
			"bufferView":22,
			"componentType":5126,
			"count":868,
			"type":"VEC2"
		},
		{
			"bufferView":23,
			"componentType":5123,
			"count":2436,
			"type":"SCALAR"
		}
	],
	"bufferViews":[
		{
			"buffer":0,
			"byteLength":16368,
			"byteOffset":0,
			"target":34962
		},
		{
			"buffer":0,
			"byteLength":16368,
			"byteOffset":16368,
			"target":34962
		},
		{
			"buffer":0,
			"byteLength":10912,
			"byteOffset":32736,
			"target":34962
		},
		{
			"buffer":0,
			"byteLength":7212,
			"byteOffset":43648,
			"target":34963
		},
		{
			"buffer":0,
			"byteLength":1308,
			"byteOffset":50860,
			"target":34962
		},
		{
			"buffer":0,
			"byteLength":1308,
			"byteOffset":52168,
			"target":34962
		},
		{
			"buffer":0,
			"byteLength":872,
			"byteOffset":53476,
			"target":34962
		},
		{
			"buffer":0,
			"byteLength":888,
			"byteOffset":54348,
			"target":34963
		},
		{
			"buffer":0,
			"byteLength":264,
			"byteOffset":55236,
			"target":34962
		},
		{
			"buffer":0,
			"byteLength":264,
			"byteOffset":55500,
			"target":34962
		},
		{
			"buffer":0,
			"byteLength":176,
			"byteOffset":55764,
			"target":34962
		},
		{
			"buffer":0,
			"byteLength":120,
			"byteOffset":55940,
			"target":34963
		},
		{
			"buffer":0,
			"byteLength":1368,
			"byteOffset":56060,
			"target":34962
		},
		{
			"buffer":0,
			"byteLength":1368,
			"byteOffset":57428,
			"target":34962
		},
		{
			"buffer":0,
			"byteLength":912,
			"byteOffset":58796,
			"target":34962
		},
		{
			"buffer":0,
			"byteLength":492,
			"byteOffset":59708,
			"target":34963
		},
		{
			"buffer":0,
			"byteLength":40920,
			"byteOffset":60200,
			"target":34962
		},
		{
			"buffer":0,
			"byteLength":40920,
			"byteOffset":101120,
			"target":34962
		},
		{
			"buffer":0,
			"byteLength":27280,
			"byteOffset":142040,
			"target":34962
		},
		{
			"buffer":0,
			"byteLength":19704,
			"byteOffset":169320,
			"target":34963
		},
		{
			"buffer":0,
			"byteLength":10416,
			"byteOffset":189024,
			"target":34962
		},
		{
			"buffer":0,
			"byteLength":10416,
			"byteOffset":199440,
			"target":34962
		},
		{
			"buffer":0,
			"byteLength":6944,
			"byteOffset":209856,
			"target":34962
		},
		{
			"buffer":0,
			"byteLength":4872,
			"byteOffset":216800,
			"target":34963
		}
	],
	"samplers":[
		{
			"magFilter":9729,
			"minFilter":9987
		}
	],
	"buffers":[
		{
			"byteLength":221672,
			"uri":"palette2.bin"
		}
	]
}
