{
	"asset":{
		"generator":"Khronos glTF Blender I/O v4.0.44",
		"version":"2.0"
	},
	"extensionsUsed":[
		"KHR_materials_specular"
	],
	"scene":0,
	"scenes":[
		{
			"name":"Scene",
			"nodes":[
				8
			]
		}
	],
	"nodes":[
		{
			"mesh":0,
			"name":"Circle002_Material #26_0",
			"translation":[
				3.871930857712869e-06,
				-8.310130397148896e-06,
				0
			]
		},
		{
			"children":[
				0
			],
			"name":"Object_4",
			"translation":[
				8.777809143066406,
				-80.73743438720703,
				54.32125473022461
			]
		},
		{
			"children":[
				1
			],
			"name":"Circle002",
			"rotation":[
				0.7010576128959656,
				0.09229595959186554,
				-0.09229598939418793,
				0.7010571956634521
			],
			"scale":[
				1.009490966796875,
				1.0094910860061646,
				1.0460090637207031
			],
			"translation":[
				-45.847923278808594,
				58.24305725097656,
				-17.769287109375
			]
		},
		{
			"mesh":1,
			"name":"Object001_Material #26_0",
			"translation":[
				0,
				1.4089174328546505e-05,
				0
			]
		},
		{
			"children":[
				3
			],
			"name":"Object_7",
			"translation":[
				8.777807235717773,
				-80.73743438720703,
				54.321266174316406
			]
		},
		{
			"children":[
				4
			],
			"name":"Object001",
			"rotation":[
				0.6903457641601562,
				-0.1530458629131317,
				0.15304595232009888,
				0.690345287322998
			],
			"scale":[
				1.009490966796875,
				1.0094910860061646,
				1.0460090637207031
			],
			"translation":[
				-49.42308807373047,
				58.24305725097656,
				-16.375051498413086
			]
		},
		{
			"children":[
				2,
				5
			],
			"name":"RootNode"
		},
		{
			"children":[
				6
			],
			"name":"5dfbea15334d4c2cb5ea9e7f1fc0da6c.fbx",
			"rotation":[
				0.70710688829422,
				0,
				0,
				0.7071066498756409
			],
			"scale":[
				0.009999999776482582,
				0.010000000707805157,
				0.010000000707805157
			]
		},
		{
			"children":[
				7
			],
			"name":"Sketchfab_model",
			"rotation":[
				-0.70710688829422,
				0,
				0,
				0.7071066498756409
			]
		}
	],
	"materials":[
		{
			"doubleSided":true,
			"extensions":{
				"KHR_materials_specular":{
					"specularTexture":{
						"index":0
					}
				}
			},
			"name":"Material_26",
			"normalTexture":{
				"index":1
			},
			"pbrMetallicRoughness":{
				"baseColorTexture":{
					"index":2
				},
				"metallicRoughnessTexture":{
					"index":3
				}
			}
		}
	],
	"meshes":[
		{
			"name":"Circle002_Material #26_0",
			"primitives":[
				{
					"attributes":{
						"POSITION":0,
						"NORMAL":1,
						"TEXCOORD_0":2
					},
					"indices":3,
					"material":0
				}
			]
		},
		{
			"name":"Object001_Material #26_0",
			"primitives":[
				{
					"attributes":{
						"POSITION":4,
						"NORMAL":5,
						"TEXCOORD_0":6
					},
					"indices":7,
					"material":0
				}
			]
		}
	],
	"textures":[
		{
			"sampler":0,
			"source":0
		},
		{
			"sampler":0,
			"source":1
		},
		{
			"sampler":0,
			"source":2
		},
		{
			"sampler":0,
			"source":3
		}
	],
	"images":[
		{
			"mimeType":"image/png",
			"name":"Material_26_specularf0",
			"uri":"Material_26_specularf0.png"
		},
		{
			"mimeType":"image/png",
			"name":"Material_26_normal",
			"uri":"Material_26_normal.png"
		},
		{
			"mimeType":"image/png",
			"name":"Material_26_baseColor",
			"uri":"Material_26_baseColor.png"
		},
		{
			"mimeType":"image/png",
			"name":"Material_26_metallicRoughness",
			"uri":"Material_26_metallicRoughness.png"
		}
	],
	"accessors":[
		{
			"bufferView":0,
			"componentType":5126,
			"count":20181,
			"max":[
				-15.104894638061523,
				86.40695190429688,
				1.48114013671875
			],
			"min":[
				-41.724369049072266,
				59.7874870300293,
				-110.1236572265625
			],
			"type":"VEC3"
		},
		{
			"bufferView":1,
			"componentType":5126,
			"count":20181,
			"type":"VEC3"
		},
		{
			"bufferView":2,
			"componentType":5126,
			"count":20181,
			"type":"VEC2"
		},
		{
			"bufferView":3,
			"componentType":5123,
			"count":110448,
			"type":"SCALAR"
		},
		{
			"bufferView":4,
			"componentType":5126,
			"count":8591,
			"max":[
				24.16875457763672,
				86.53209686279297,
				-0.011180877685546875
			],
			"min":[
				-1.9571199417114258,
				60.40623474121094,
				-51.40937805175781
			],
			"type":"VEC3"
		},
		{
			"bufferView":5,
			"componentType":5126,
			"count":8591,
			"type":"VEC3"
		},
		{
			"bufferView":6,
			"componentType":5126,
			"count":8591,
			"type":"VEC2"
		},
		{
			"bufferView":7,
			"componentType":5123,
			"count":49728,
			"type":"SCALAR"
		}
	],
	"bufferViews":[
		{
			"buffer":0,
			"byteLength":242172,
			"byteOffset":0,
			"target":34962
		},
		{
			"buffer":0,
			"byteLength":242172,
			"byteOffset":242172,
			"target":34962
		},
		{
			"buffer":0,
			"byteLength":161448,
			"byteOffset":484344,
			"target":34962
		},
		{
			"buffer":0,
			"byteLength":220896,
			"byteOffset":645792,
			"target":34963
		},
		{
			"buffer":0,
			"byteLength":103092,
			"byteOffset":866688,
			"target":34962
		},
		{
			"buffer":0,
			"byteLength":103092,
			"byteOffset":969780,
			"target":34962
		},
		{
			"buffer":0,
			"byteLength":68728,
			"byteOffset":1072872,
			"target":34962
		},
		{
			"buffer":0,
			"byteLength":99456,
			"byteOffset":1141600,
			"target":34963
		}
	],
	"samplers":[
		{
			"magFilter":9729,
			"minFilter":9987
		}
	],
	"buffers":[
		{
			"byteLength":1241056,
			"uri":"lipstick.bin"
		}
	]
}
